<svg width="1351" height="118" viewBox="0 0 1351 118" fill="none" xmlns="http://www.w3.org/2000/svg">
<path fill-rule="evenodd" clip-rule="evenodd" d="M1149.38 27.4693C1170.67 32.1122 1191.59 36.675 1211.58 40.4774C1285.82 54.5987 1312.74 30.3906 1316.93 16.5211L1339.5 11.4777C1293.17 73.2152 1251.48 65.1703 1216.79 58.4784C1211.1 57.3803 1205.59 56.3186 1200.29 55.6077C1198.76 55.4021 1197.14 55.1693 1195.45 54.9112C1197.3 66.239 1205.5 81.2522 1234 91.5C1278.5 107.5 1306 96.5 1330 78C1349.2 63.2 1351.17 87.6667 1348.5 103C1328.83 111 1280.5 125.2 1230.5 106C1189 90.0631 1178.15 65.9044 1175.67 51.4811C1165.08 49.4964 1152.96 47.069 1139.77 44.4281C1098.5 36.1609 1046.74 25.7933 998.375 20.3037C920.619 11.4777 815.271 60.6511 796.459 70.7379C777.647 80.8248 727.482 100.998 703.653 98.4768C679.825 95.9551 664.775 70.7378 684.841 45.5208C704.907 20.3037 732.498 11.4777 752.565 11.4777C772.631 11.4777 770.122 27.8688 768.868 29.1297C767.612 30.3927 755.074 45.521 770.122 48.0425C782.162 50.0598 796.041 47.2019 801.476 45.5208C818.616 38.3759 868.196 20.5558 929.398 6.43427C989.421 -7.41538 1071.83 10.5579 1149.38 27.4693ZM726.228 34.1731C739.271 29.1297 740.859 33.7528 740.023 36.6948C737.014 65.9459 769.704 63.1727 786.426 58.1294C758.836 73.2592 716.195 75.7809 708.67 66.9554C701.145 58.1294 709.924 40.4775 726.228 34.1731Z" fill="#AA9951" stroke="#3C2318" stroke-width="3"/>
<path fill-rule="evenodd" clip-rule="evenodd" d="M201.577 27.4693C180.288 32.1122 159.366 36.675 139.375 40.4774C65.1315 54.5987 38.2087 30.3906 34.0275 16.5211L11.4531 11.4777C57.779 73.2152 99.4777 65.1703 134.164 58.4784C139.856 57.3803 145.359 56.3186 150.662 55.6077C152.196 55.4021 153.811 55.1693 155.503 54.9112C153.648 66.239 145.455 81.2522 116.953 91.5C72.4531 107.5 44.9531 96.5 20.9531 78C1.75314 63.2 -0.213539 87.6667 2.45309 103C22.1197 111 70.4531 125.2 120.453 106C161.955 90.0631 172.798 65.9044 175.285 51.4811C185.877 49.4964 197.996 47.069 211.18 44.4281C252.454 36.1609 304.215 25.7933 352.578 20.3037C430.334 11.4777 535.682 60.6511 554.494 70.7379C573.306 80.8248 623.471 100.998 647.3 98.4768C671.128 95.9551 686.178 70.7378 666.112 45.5208C646.046 20.3037 618.455 11.4777 598.389 11.4777C578.322 11.4777 580.831 27.8688 582.085 29.1297C583.341 30.3927 595.879 45.521 580.831 48.0425C568.791 50.0598 554.912 47.2019 549.477 45.5208C532.338 38.3759 482.757 20.5558 421.556 6.43427C361.532 -7.41538 279.12 10.5579 201.577 27.4693ZM624.725 34.1731C611.682 29.1297 610.094 33.7528 610.93 36.6948C613.939 65.9459 581.249 63.1727 564.527 58.1294C592.118 73.2592 634.758 75.7809 642.283 66.9554C649.808 58.1294 641.029 40.4775 624.725 34.1731Z" fill="#AA9951" stroke="#3C2318" stroke-width="3"/>
</svg>
