<svg width="172" height="63" viewBox="0 0 172 63" fill="none" xmlns="http://www.w3.org/2000/svg">
<path d="M7.80257 17.159H4.63839V30.3916H0V0.282227H4.63839V12.3472H7.80257V0.282227H12.441V30.4269H7.80257V17.159Z" fill="#3C2318"/>
<path d="M20.4238 30.7462H19.5249C15.8214 30.7462 13.8438 28.7648 13.8438 25.0498V18.9997H18.4462V24.2714C18.4462 25.6513 18.9136 26.3943 19.9564 26.3943C21.071 26.3943 21.4665 25.6513 21.4665 23.8115V23.1392C21.4665 20.981 21.2508 20.238 19.5608 18.0797L16.6484 14.294C14.6708 11.7819 14.0954 9.83595 14.0954 6.82856V5.87327C14.0954 1.8752 16.145 0 19.8125 0H20.6755C24.4869 0 25.9971 1.66291 25.9971 5.23641V10.1898H21.5025V5.83788C21.5025 4.81183 21.2868 4.06883 20.1721 4.06883C19.0574 4.06883 18.8058 4.74107 18.8058 6.19169V6.75779C18.8058 8.45609 19.1294 9.37599 20.7114 11.3927L23.6599 15.1431C25.7454 17.8321 26.4285 19.3535 26.4285 22.7501V23.7053C26.4285 28.128 24.4869 30.7462 20.4238 30.7462Z" fill="#3C2318"/>
<path d="M38.329 0.282227V4.66948H32.3962V12.5595H37.0346V17.1236H32.3962V25.8274H38.5807V30.3916H27.7578V0.282227H38.329Z" fill="#3C2318"/>
<path d="M51.1309 24.7318H47.751L47.1397 30.3928H42.9688L46.7082 0.248047H52.2096L56.2008 30.3928H51.7062L51.1309 24.7318ZM50.6275 20.2384L49.405 9.09333L48.2184 20.2384H50.6275Z" fill="#3C2318"/>
<path d="M61.6267 30.4269H56.9883V0.282227H64.5392C67.6314 0.282227 69.1775 1.59133 69.1775 4.95253V10.2951C69.1775 12.8071 67.991 13.7624 67.164 14.1516C68.2067 14.6116 69.1775 15.4253 69.1775 17.4421V28.021C69.1775 29.224 69.4292 29.7901 69.645 30.25V30.4623H65.0425C64.8268 30.1439 64.5751 29.6132 64.5751 27.9856V18.8573C64.5751 17.5128 64.3234 16.9467 62.8492 16.9467H61.6626V30.4269H61.6267ZM61.6267 12.6656H62.8492C64.1436 12.6656 64.5392 11.8519 64.5392 10.5074V6.29702C64.5392 4.98792 64.2515 4.35106 62.8492 4.35106H61.6267V12.6656Z" fill="#3C2318"/>
<path d="M78.5647 4.6341V30.3916H73.9622V4.6341H70.043V0.282227H82.4839V4.66948H78.5647V4.6341Z" fill="#3C2318"/>
<path d="M94.9239 24.7318H91.5439L90.9327 30.3928H86.7617L90.5012 0.248047H96.0026L99.9937 30.3928H95.4992L94.9239 24.7318ZM94.4205 20.2384L93.1979 9.09333L92.0114 20.2384H94.4205Z" fill="#3C2318"/>
<path d="M104.957 0.282227L108.948 16.4514V0.282227H113.191V30.4269H109.416L104.957 13.0902V30.4269H100.75V0.282227H104.957Z" fill="#3C2318"/>
<path d="M114.918 0.282227H122.073C126.064 0.282227 127.287 2.51124 127.287 6.08473V24.4475C127.287 28.1272 125.885 30.4269 122.073 30.4269H114.954V0.282227H114.918ZM119.592 26.0397H120.707C122.109 26.0397 122.505 25.2967 122.505 23.7045V6.72159C122.505 4.98791 122.037 4.38644 120.887 4.38644H119.556V26.0397H119.592Z" fill="#3C2318"/>
<path d="M0 31.9844H7.11939C11.1106 31.9844 12.3331 34.2134 12.3331 37.7869V56.1497C12.3331 59.8293 10.9308 62.1291 7.11939 62.1291H0V31.9844ZM4.63839 57.7772H5.75305C7.15535 57.7772 7.55087 57.0342 7.55087 55.4421V38.4591C7.55087 36.7254 7.08344 36.124 5.93283 36.124H4.60244V57.7772H4.63839Z" fill="#3C2318"/>
<path d="M24.5935 31.9844V36.3716H18.6607V44.2616H23.2991V48.8258H18.6607V57.5295H24.8452V62.0937H13.9863V31.9844H24.5935Z" fill="#3C2318"/>
<path d="M32.2519 62.4479H31.353C27.6495 62.4479 25.6719 60.4665 25.6719 56.7515V50.7014H30.2743V55.9731C30.2743 57.353 30.7417 58.096 31.7845 58.096C32.8991 58.096 33.2947 57.353 33.2947 55.5132V54.841C33.2947 52.6827 33.0789 51.9397 31.389 49.7815L28.4405 46.0664C26.4629 43.5544 25.8876 41.6084 25.8876 38.601V37.6457C25.8876 33.6477 27.9371 31.7725 31.6047 31.7725H32.4677C36.315 31.7725 37.7892 33.4354 37.7892 37.0089V41.9622H33.2947V37.6103C33.2947 36.5843 33.0789 35.8413 31.9643 35.8413C30.8496 35.8413 30.5979 36.5135 30.5979 37.9642V38.5303C30.5979 40.2285 30.9215 41.1485 32.5036 43.1652L35.4521 46.9156C37.5375 49.6045 38.2207 51.1259 38.2207 54.5225V55.4778C38.2567 59.8297 36.315 62.4479 32.2519 62.4479Z" fill="#3C2318"/>
<path d="M44.2243 62.1291H39.5859V31.9844H44.2243V62.1291Z" fill="#3C2318"/>
<path d="M50.2672 62.5535C47.5345 62.5535 45.8086 60.1476 45.8086 57.0341V38.1759C45.8086 34.8147 47.139 31.7012 51.5257 31.7012H52.4246C57.4226 31.7012 57.9979 34.8855 57.9979 38.459V41.5371H53.4673V38.1405C53.4673 36.7961 53.1437 36.0884 51.9931 36.0884C51.0223 36.0884 50.5549 36.8314 50.5549 38.1405V55.7603C50.5549 57.1756 51.1302 57.9186 52.065 57.9186C53.2516 57.9186 53.791 57.1048 53.791 55.9726V48.4364H51.7055V43.8015H58.2136V62.1289H55.5888C55.5528 61.952 55.1933 60.466 54.7977 59.1569C54.4741 60.183 52.892 62.5181 50.5549 62.5181H50.2672V62.5535Z" fill="#3C2318"/>
<path d="M64.039 31.9844L68.0301 48.1535V31.9844H72.273V62.1291H68.4976L64.039 44.7923V62.1291H59.832V31.9844H64.039Z" fill="#3C2318"/>
<path d="M84.4277 62.4479H83.5288C79.8253 62.4479 77.8477 60.4665 77.8477 56.7515V50.7014H82.4501V55.9731C82.4501 57.353 82.9175 58.096 83.9603 58.096C85.0749 58.096 85.4704 57.353 85.4704 55.5132V54.841C85.4704 52.6827 85.2547 51.9397 83.5647 49.7815L80.6163 46.0664C78.6387 43.5544 78.0634 41.6084 78.0634 38.601V37.6457C78.0634 33.6477 80.1129 31.7725 83.7805 31.7725H84.6434C88.4548 31.7725 89.965 33.4354 89.965 37.0089V41.9622H85.4704V37.6103C85.4704 36.5843 85.2547 35.8413 84.1401 35.8413C83.0254 35.8413 82.7737 36.5135 82.7737 37.9642V38.5303C82.7737 40.2285 83.0973 41.1485 84.6794 43.1652L87.6278 46.9156C89.7133 49.6045 90.3965 51.1259 90.3965 54.5225V55.4778C90.4324 59.8297 88.4908 62.4479 84.4277 62.4479Z" fill="#3C2318"/>
<path d="M99.3486 56.0092V49.0037H103.915V55.9738C103.915 59.2289 102.836 62.4839 98.3419 62.4839H97.2991C92.5888 62.4839 91.582 59.1581 91.582 56.1153V37.7172C91.582 34.639 92.9484 31.667 97.1553 31.667H98.234C103.34 31.667 103.915 34.9928 103.915 37.9295V43.3074H99.3486V38.0002C99.3486 36.6911 98.9531 36.0189 97.7665 36.0189C96.6159 36.0189 96.3283 36.6557 96.3283 38.0002V55.9031C96.3283 57.2475 96.7957 57.9552 97.8025 57.9552C98.9531 58.0613 99.3486 57.2475 99.3486 56.0092Z" fill="#3C2318"/>
<path d="M113.228 48.8965H110.064V62.1291H105.426V31.9844H110.064V44.0493H113.228V31.9844H117.867V62.1291H113.228V48.8965Z" fill="#3C2318"/>
<path d="M132.211 55.4075C132.211 59.6179 130.773 62.4837 126.278 62.4837H125.487C121.029 62.4837 119.482 59.6179 119.482 55.4075V38.6369C119.482 34.4619 121.1 31.7021 125.451 31.7021H126.242C130.773 31.7021 132.211 34.4619 132.211 38.6015V55.4075ZM127.465 38.3892C127.465 36.797 126.925 36.0894 125.847 36.0894C124.66 36.0894 124.193 36.8678 124.193 38.3892V55.7259C124.193 57.035 124.552 58.0257 125.883 58.0257C127.105 58.0257 127.465 56.9997 127.465 55.7259V38.3892Z" fill="#3C2318"/>
<path d="M146.416 55.4075C146.416 59.6179 144.978 62.4837 140.483 62.4837H139.692C135.234 62.4837 133.688 59.6179 133.688 55.4075V38.6369C133.688 34.4619 135.306 31.7021 139.656 31.7021H140.447C144.978 31.7021 146.416 34.4619 146.416 38.6015V55.4075ZM141.67 38.3892C141.67 36.797 141.131 36.0894 140.052 36.0894C138.865 36.0894 138.398 36.8678 138.398 38.3892V55.7259C138.398 57.035 138.757 58.0257 140.088 58.0257C141.31 58.0257 141.67 56.9997 141.67 55.7259V38.3892Z" fill="#3C2318"/>
<path d="M152.672 31.9844V57.4588H158.353V62.1291H148.033V31.9844H152.672Z" fill="#3C2318"/>
<path fill-rule="evenodd" clip-rule="evenodd" d="M164.859 31.667C161.407 31.667 158.566 34.4267 158.566 37.8587C158.566 41.2553 161.371 44.0504 164.859 44.0504C168.347 44.0504 171.151 41.2907 171.151 37.8587C171.115 34.4267 168.311 31.667 164.859 31.667Z" fill="#3C2318"/>
<path fill-rule="evenodd" clip-rule="evenodd" d="M165.902 37.2922C166.297 37.1153 166.549 36.8676 166.729 36.6907C167.052 36.3369 167.16 35.9123 167.16 35.4877C167.16 35.1693 167.052 34.4971 166.477 34.0371C166.082 33.7187 165.722 33.5771 164.859 33.5771H164.428H164.392H162.594V41.8563H167.664V40.2642C167.7 38.7428 167.196 37.7167 165.902 37.2922ZM166.549 41.3964H165.614V38.6366H164.571V41.3964H163.78V33.9663H164.607C164.931 33.9663 165.398 34.0371 165.722 34.4263C165.902 34.6386 166.01 34.9216 166.046 35.1693H164.571V35.5939H166.046C166.046 35.8415 165.974 36.16 165.722 36.4784C165.506 36.7614 165.111 37.0091 164.571 37.0091V37.4337C166.01 37.4337 166.549 38.3536 166.549 40.0873V41.3964Z" fill="#FCF6EB"/>
</svg>
