<svg width="1280" height="552" viewBox="0 0 1280 552" fill="none" xmlns="http://www.w3.org/2000/svg">
<g clip-path="url(#clip0_521_180)">
<rect width="1280" height="552" fill="#FCF6EB"/>
<path d="M53.0452 366.466C74.3111 371.98 87.2888 355.634 91.1194 346.771C91.1194 339.984 67.5225 302.521 62.1243 299.576C57.8057 297.221 29.2441 266.205 15.5031 250.992L-10.5065 208.297L13.0494 126.833L49.3648 83.6467L93.0415 60.0907L149.478 40.9515H201.497L265.294 60.0907L341.36 83.6467L412.519 89.5356L451.288 66.4705L432.081 15.6679L446.871 -39.5312H857.137V-7.14156L833.581 40.4607L851.739 75.795L926.824 89.0452L1006.82 62.054C1022.68 52.2389 1067.86 34.1791 1121.65 40.4607C1188.88 48.3127 1237.96 94.9341 1248.66 103.277C1257.22 109.951 1269.63 133.867 1274.76 144.99L1284.1 210.428L1248.66 271.511L1189.08 332.593V358.233H1263.74L1271.28 380.102L1277.31 428.364L1323.73 416.104L1310.31 720.41L1250.74 757.331H1171.98L1055.8 733.702L953.412 716.964L873.664 727.794L768.81 763.238L683.154 793.759L647.219 771.607H630.422L594.545 793.759L517.422 768.161L443.91 736.655L356.778 715.98L293.274 719.426C228.787 733.045 92.8209 760.678 64.8598 762.254C36.8987 763.829 -13.0833 736.984 -34.5791 723.364V475.258C-23.5851 457.701 -0.809544 421.601 2.341 417.663C6.27919 412.74 6.77186 375.819 9.23323 366.466C11.6946 357.113 26.4628 359.574 53.0452 366.466Z" fill="#E73F40"/>
<path d="M53.4767 102.253C10.7016 90.587 15.1303 56.3452 22.6916 40.6826C22.6916 45.8675 35.6539 57.9985 48.6161 58.5056C61.5783 59.0126 85.8823 79.029 90.7431 90.911C90.7431 86.0502 91.0672 71.4678 92.3634 52.0245C93.6596 32.5813 127.469 15.8385 144.212 9.89746C143.132 13.138 142.268 24.4799 147.453 43.9231C152.637 63.3664 145.292 83.3497 140.972 90.911C148.749 93.5034 163.655 91.9912 170.136 90.911C168.84 94.7997 170.676 105.493 171.757 110.354C182.126 90.911 219.285 94.6916 236.568 99.0124C233.867 101.173 227.17 110.678 221.985 131.418C216.9 151.758 181.269 161.293 163.086 163.69C186.669 160.865 197.846 170.422 209.023 178.406C220.365 186.507 221.985 222.153 221.985 231.875C221.985 239.652 229.546 246.997 233.327 249.698C202.542 256.179 196.061 236.735 191.2 227.014C186.339 217.292 184.719 199.469 174.997 188.127C167.22 179.054 146.913 180.026 137.731 181.646L102.085 191.368L74.5404 176.785C75.0805 161.123 75.8366 127.529 74.5404 118.456C73.2442 109.382 59.9579 103.873 53.4767 102.253Z" fill="#E5D9CA"/>
<path d="M22.6916 40.6826C15.1303 56.3452 10.7016 90.5869 53.4767 102.253C59.9579 103.873 73.2442 109.382 74.5404 118.456C75.8366 127.529 75.0805 161.123 74.5404 176.785L102.085 191.368L137.731 181.646C146.913 180.026 167.22 179.054 174.997 188.127C184.719 199.469 186.339 217.292 191.2 227.014C196.061 236.735 202.542 256.179 233.327 249.698C229.546 246.997 221.985 239.652 221.985 231.875C221.985 222.153 220.365 186.507 209.023 178.406C197.681 170.304 186.339 160.583 162.035 163.823C179.858 161.663 216.8 152.157 221.985 131.418C227.17 110.678 233.867 101.173 236.568 99.0124C219.285 94.6916 182.126 90.911 171.757 110.354C170.676 105.493 168.84 94.7997 170.136 90.911C163.655 91.9912 148.749 93.5034 140.972 90.911C145.292 83.3497 152.637 63.3664 147.453 43.9231C142.268 24.4799 143.132 13.138 144.212 9.89746C127.469 15.8385 93.6596 32.5813 92.3634 52.0245C91.0672 71.4678 90.7431 86.0502 90.7431 90.911C85.8823 79.029 61.5783 59.0126 48.6161 58.5056C35.6539 57.9985 22.6916 45.8675 22.6916 40.6826Z" stroke="#3C2318" stroke-width="3"/>
<path d="M42.1348 283.724C40.8385 321.314 63.1983 323.151 74.5402 319.37L81.0211 333.952C73.4598 336.112 56.3929 338.489 48.6156 330.711C38.894 320.99 34.0332 303.167 34.0332 274.002C34.0332 244.838 74.5402 184.888 74.5402 186.508C74.5402 187.804 83.1815 194.609 87.5021 197.85C82.6413 199.47 43.755 236.736 42.1348 283.724Z" fill="#AA9951" stroke="#3C2318" stroke-width="3"/>
<path d="M68.0588 155.723C70.6512 141.464 72.3795 122.777 72.9196 115.216C84.5854 121.697 84.2616 154.642 82.6414 170.305C95.9219 164.75 121.422 139.75 137.731 126.558C126.422 144.75 109.106 170.845 105.325 184.887C144.212 171.925 160.414 178.406 163.655 183.267C142.591 178.406 126.389 196.229 110.186 199.47C93.9833 202.71 82.6412 197.85 76.1602 191.369C69.6791 184.887 64.8183 173.546 68.0588 155.723Z" fill="#AA9951" stroke="#3C2318" stroke-width="3"/>
<path d="M458.544 16.3796C466.422 9.24943 480.422 1.24986 514.422 22.7497C495.922 -22.7501 424.422 -20.2506 409.936 11.5192C404.817 22.7464 413.176 32.5823 427.759 48.785C442.341 64.9877 390.493 82.8107 364.568 81.1909C333.17 79.229 272.213 48.7854 223.605 39.0638C174.997 29.3422 121.526 37.4436 71.298 64.9882C21.0696 92.5328 -21.0575 152.483 -9.71559 209.192C1.62631 265.902 43.7533 290.206 59.9561 304.788C72.9182 316.454 76.1588 330.172 76.1588 335.573C76.1588 343.675 69.6777 350.156 58.3358 350.156C48.0883 350.156 42.1331 348.535 25.9304 346.915C12.9682 345.619 4.92188 360.25 2.42188 370.25L-6.57812 463.75C-6.57812 463.75 10.9219 465.75 10.9219 412.25C10.9219 358.75 37.2723 366.358 43.7533 376.08C50.2344 385.802 93.9817 405.245 103.703 366.358C113.425 327.472 76.1588 301.548 71.298 296.687C66.4371 291.826 9.72622 252.939 4.8654 192.989C0.00459194 133.039 42.1316 97.3936 79.3979 74.7098C116.664 52.026 157.171 45.5449 202.538 48.7854C247.906 52.026 270.593 74.7098 328.92 90.9125C409.572 113.317 451.048 88.6808 461.782 77.9503C472.515 67.2199 468.824 48.1708 461.782 42.3043C454.74 36.4378 450.666 23.5097 458.544 16.3796Z" fill="#AA9951" stroke="#3C2318" stroke-width="3"/>
<path d="M356.467 48.7857C348.69 68.229 300.298 62.288 277.074 56.8871C328.923 89.2922 380.772 58.507 379.151 39.0638C377.531 19.6205 359.708 11.5195 348.366 9.89922C337.024 8.27895 328.923 16.3803 333.784 21.2411C338.645 26.1019 366.189 24.4817 356.467 48.7857Z" fill="#AA9951" stroke="#3C2318" stroke-width="3"/>
<path d="M1227.37 102.254C1270.14 90.5879 1265.71 56.3462 1258.15 40.6836C1258.15 45.8685 1245.19 57.9995 1232.23 58.5066C1219.27 59.0136 1194.96 79.03 1190.1 90.912C1190.1 86.0512 1189.78 71.4687 1188.48 52.0255C1187.18 32.5822 1153.37 15.8394 1136.63 9.89844C1137.71 13.139 1138.58 24.4809 1133.39 43.9241C1128.21 63.3674 1135.55 83.3507 1139.87 90.912C1132.09 93.5044 1117.19 91.9922 1110.71 90.912C1112 94.8006 1110.17 105.494 1109.09 110.355C1098.72 90.912 1061.56 94.6926 1044.28 99.0133C1046.98 101.174 1053.67 110.679 1058.86 131.419C1063.94 151.759 1099.57 161.294 1117.76 163.691C1094.18 160.866 1083 170.423 1071.82 178.407C1060.48 186.508 1058.86 222.154 1058.86 231.876C1058.86 239.653 1051.3 246.998 1047.52 249.699C1078.3 256.18 1084.78 236.736 1089.64 227.015C1094.5 217.293 1096.12 199.47 1105.85 188.128C1113.62 179.055 1133.93 180.027 1143.11 181.647L1178.76 191.369L1206.3 176.786C1205.76 161.124 1205.01 127.53 1206.3 118.457C1207.6 109.383 1220.89 103.874 1227.37 102.254Z" fill="#E5D9CA"/>
<path d="M1258.15 40.6836C1265.71 56.3462 1270.14 90.5879 1227.37 102.254C1220.89 103.874 1207.6 109.383 1206.3 118.457C1205.01 127.53 1205.76 161.124 1206.3 176.786L1178.76 191.369L1143.11 181.647C1133.93 180.027 1113.62 179.055 1105.85 188.128C1096.12 199.47 1094.5 217.293 1089.64 227.015C1084.78 236.736 1078.3 256.18 1047.52 249.699C1051.3 246.998 1058.86 239.653 1058.86 231.876C1058.86 222.154 1060.48 186.508 1071.82 178.407C1083.16 170.305 1094.5 160.584 1118.81 163.824C1100.99 161.664 1064.04 152.158 1058.86 131.419C1053.67 110.679 1046.98 101.174 1044.28 99.0133C1061.56 94.6926 1098.72 90.912 1109.09 110.355C1110.17 105.494 1112 94.8006 1110.71 90.912C1117.19 91.9922 1132.09 93.5044 1139.87 90.912C1135.55 83.3507 1128.21 63.3674 1133.39 43.9241C1138.58 24.4809 1137.71 13.139 1136.63 9.89844C1153.37 15.8394 1187.18 32.5822 1188.48 52.0255C1189.78 71.4687 1190.1 86.0512 1190.1 90.912C1194.96 79.03 1219.27 59.0136 1232.23 58.5066C1245.19 57.9995 1258.15 45.8685 1258.15 40.6836Z" stroke="#3C2318" stroke-width="3"/>
<path d="M1238.71 283.724C1240.01 321.314 1217.65 323.151 1206.3 319.37L1199.82 333.952C1207.38 336.112 1224.45 338.489 1232.23 330.711C1241.95 320.99 1246.81 303.167 1246.81 274.002C1246.81 244.838 1206.3 184.888 1206.3 186.508C1206.3 187.804 1197.66 194.609 1193.34 197.85C1198.2 199.47 1237.09 236.736 1238.71 283.724Z" fill="#AA9951" stroke="#3C2318" stroke-width="3"/>
<path d="M1212.78 155.723C1210.19 141.464 1208.46 122.777 1207.92 115.216C1196.26 121.697 1196.58 154.642 1198.2 170.305C1184.92 164.75 1159.42 139.75 1143.11 126.558C1154.42 144.75 1171.74 170.845 1175.52 184.887C1136.63 171.925 1120.43 178.406 1117.19 183.267C1138.25 178.406 1154.46 196.229 1170.66 199.47C1186.86 202.71 1198.2 197.85 1204.68 191.369C1211.16 184.887 1216.03 173.546 1212.78 155.723Z" fill="#AA9951" stroke="#3C2318" stroke-width="3"/>
<path d="M822.3 16.3796C814.422 9.24943 800.422 1.24986 766.422 22.7497C784.922 -22.7501 856.422 -20.2506 870.908 11.5192C876.027 22.7464 867.667 32.5823 853.085 48.785C838.502 64.9877 890.351 82.8107 916.275 81.1909C947.674 79.229 1008.63 48.7854 1057.24 39.0638C1105.85 29.3422 1159.32 37.4436 1209.55 64.9882C1259.77 92.5328 1301.9 152.483 1290.56 209.192C1279.22 265.902 1237.09 290.206 1220.89 304.788C1207.93 316.454 1204.68 330.172 1204.68 335.573C1204.68 343.675 1211.17 350.156 1222.51 350.156C1232.76 350.156 1238.71 348.535 1254.91 346.915C1267.88 345.619 1275.92 360.25 1278.42 370.25L1287.42 463.75C1287.42 463.75 1269.92 465.75 1269.92 412.25C1269.92 358.75 1243.57 366.358 1237.09 376.08C1230.61 385.802 1186.86 405.245 1177.14 366.358C1167.42 327.472 1204.68 301.548 1209.55 296.687C1214.41 291.826 1271.12 252.939 1275.98 192.989C1280.84 133.039 1238.71 97.3936 1201.45 74.7098C1164.18 52.026 1123.67 45.5449 1078.31 48.7854C1032.94 52.026 1010.25 74.7098 951.924 90.9125C871.271 113.317 829.796 88.6808 819.062 77.9503C808.328 67.2199 812.02 48.1708 819.062 42.3043C826.104 36.4378 830.177 23.5097 822.3 16.3796Z" fill="#AA9951" stroke="#3C2318" stroke-width="3"/>
<path d="M924.376 48.7857C932.154 68.229 980.546 62.288 1003.77 56.8871C951.921 89.2922 900.072 58.507 901.692 39.0638C903.313 19.6205 921.136 11.5195 932.478 9.89922C943.82 8.27895 951.921 16.3803 947.06 21.2411C942.199 26.1019 914.655 24.4817 924.376 48.7857Z" fill="#AA9951" stroke="#3C2318" stroke-width="3"/>
</g>
<defs>
<clipPath id="clip0_521_180">
<rect width="1280" height="552" fill="white"/>
</clipPath>
</defs>
</svg>
