<svg width="1280" height="273" viewBox="0 0 1280 273" fill="none" xmlns="http://www.w3.org/2000/svg">
<g clip-path="url(#clip0_151_878)">
<rect width="1280" height="273" fill="#FCF6EB"/>
<path d="M52.0295 -185.61C73.2954 -180.096 86.2731 -196.443 90.1037 -205.305C90.1037 -212.092 66.5069 -249.556 61.1087 -252.5C56.7901 -254.856 28.2285 -285.871 14.4875 -301.084L-11.5222 -343.779L12.0338 -425.244L48.3492 -468.43L92.0258 -491.985L148.462 -511.125H200.481L264.279 -491.985L340.345 -468.43L411.503 -462.541L450.272 -485.606L431.065 -536.408L445.856 -591.607H856.122V-559.218L832.566 -511.615L850.724 -476.281L925.808 -463.031L1005.8 -490.022C1021.67 -499.837 1066.85 -517.897 1120.64 -511.615C1187.87 -503.763 1236.94 -457.142 1247.64 -448.799C1256.2 -442.125 1268.61 -418.209 1273.75 -407.086L1283.09 -341.648L1247.64 -280.565L1188.07 -219.483V-193.844H1262.72L1270.27 -171.975L1276.3 -123.712L1322.72 -135.973L1309.29 168.334L1249.73 205.255H1170.97L1054.79 181.626L952.397 164.888L872.648 175.718L767.794 211.162L682.139 241.683L646.203 219.531H629.406L593.53 241.683L516.406 216.085L442.894 184.579L355.762 163.904L292.259 167.35C227.771 180.969 91.8053 208.602 63.8442 210.177C35.8831 211.753 -14.0989 184.907 -35.5947 171.288V-76.8177C-24.6008 -94.3754 -1.82517 -130.475 1.32538 -134.414C5.26356 -139.336 5.75624 -176.257 8.2176 -185.61C10.679 -194.963 25.4471 -192.502 52.0295 -185.61Z" fill="#E73F40"/>
<path fill-rule="evenodd" clip-rule="evenodd" d="M1113.28 182.643C1134.57 187.286 1155.49 191.849 1175.48 195.651C1249.73 209.772 1276.65 185.564 1280.83 171.695L1303.41 166.652C1257.08 228.389 1215.38 220.344 1180.7 213.652C1175 212.554 1169.5 211.492 1164.2 210.781C1162.66 210.576 1161.05 210.343 1159.36 210.085C1161.21 221.413 1169.4 236.426 1197.91 246.674C1242.41 262.674 1269.91 251.674 1293.91 233.174C1313.11 218.374 1315.07 242.84 1312.41 258.174C1292.74 266.174 1244.41 280.374 1194.41 261.174C1152.9 245.237 1142.06 221.078 1139.57 206.655C1128.98 204.67 1116.86 202.243 1103.68 199.602C1062.4 191.335 1010.64 180.967 962.281 175.478C884.525 166.652 779.177 215.825 760.365 225.912C741.553 235.999 691.388 256.172 667.559 253.651C643.731 251.129 628.682 225.912 648.747 200.695C668.814 175.478 696.405 166.652 716.471 166.652C736.537 166.652 734.029 183.043 732.774 184.304C731.519 185.567 718.98 200.695 734.029 203.216C746.068 205.234 759.947 202.376 765.382 200.695C782.522 193.55 832.102 175.73 893.304 161.608C953.327 147.758 1035.74 165.732 1113.28 182.643ZM690.134 189.347C703.177 184.304 704.766 188.927 703.929 191.869C700.92 221.12 733.611 218.347 750.332 213.303C722.742 228.433 680.102 230.955 672.576 222.129C665.051 213.303 673.83 195.651 690.134 189.347Z" fill="#AA9951" stroke="#3C2318" stroke-width="3"/>
<path fill-rule="evenodd" clip-rule="evenodd" d="M165.483 182.643C144.194 187.286 123.272 191.849 103.281 195.651C29.0378 209.772 2.11495 185.564 -2.0662 171.695L-24.6407 166.652C21.6853 228.389 63.384 220.344 98.0701 213.652C103.762 212.554 109.265 211.492 114.568 210.781C116.102 210.576 117.717 210.343 119.409 210.085C117.555 221.413 109.361 236.426 80.8593 246.674C36.3593 262.674 8.85934 251.674 -15.1407 233.174C-34.3406 218.374 -36.3073 242.84 -33.6407 258.174C-13.974 266.174 34.3593 280.374 84.3593 261.174C125.862 245.237 136.704 221.078 139.191 206.655C149.783 204.67 161.902 202.243 175.087 199.602C216.361 191.335 268.121 180.967 316.484 175.478C394.241 166.652 499.588 215.825 518.4 225.912C537.212 235.999 587.378 256.172 611.206 253.651C635.035 251.129 650.084 225.912 630.018 200.695C609.952 175.478 582.361 166.652 562.295 166.652C542.229 166.652 544.737 183.043 545.991 184.304C547.247 185.567 559.785 200.695 544.737 203.216C532.697 205.234 518.818 202.376 513.384 200.695C496.244 193.55 446.663 175.73 385.462 161.608C325.438 147.758 243.026 165.732 165.483 182.643ZM588.632 189.347C575.589 184.304 574 188.927 574.836 191.869C577.846 221.12 545.155 218.347 528.433 213.303C556.024 228.433 598.664 230.955 606.19 222.129C613.714 213.303 604.935 195.651 588.632 189.347Z" fill="#AA9951" stroke="#3C2318" stroke-width="3"/>
</g>
<defs>
<clipPath id="clip0_151_878">
<rect width="1280" height="273" fill="white"/>
</clipPath>
</defs>
</svg>
