<svg width="1359" height="864" viewBox="0 0 1359 864" fill="none" xmlns="http://www.w3.org/2000/svg">
<path d="M88.1233 405.998C109.389 411.511 122.367 395.165 126.197 386.302C126.197 379.515 102.601 342.052 97.2024 339.107C92.8838 336.752 64.3222 305.736 50.5813 290.523L24.5716 247.828L48.1275 166.364L84.4429 123.178L128.12 99.622L184.556 80.4828H236.575L300.372 99.622L376.438 123.178L447.597 129.067L486.366 106.002L467.159 55.1991L481.949 0H892.215V32.3897L868.66 79.992L886.817 115.326L961.902 128.576L1041.89 101.585C1057.76 91.7701 1102.94 73.7104 1156.73 79.992C1223.96 87.8439 1273.04 134.465 1283.74 142.808C1292.3 149.482 1304.71 173.398 1309.84 184.522L1319.18 249.959L1283.74 311.042L1224.16 372.124V397.764H1298.82L1306.36 419.633L1312.39 467.896L1358.81 455.635L1345.39 759.942L1285.82 796.862H1207.06L1090.88 773.233L988.49 756.496L908.742 767.326L803.888 802.769L718.233 833.29L682.297 811.138H665.5L629.623 833.29L552.5 807.692L478.988 776.187L391.856 755.511L328.353 758.957C263.865 772.577 127.899 800.21 99.9379 801.785C71.9769 803.36 21.9949 776.515 0.499023 762.895V514.79C11.493 497.232 34.2686 461.132 37.4191 457.194C41.3573 452.271 41.85 415.351 44.3114 405.998C46.7727 396.645 61.5409 399.106 88.1233 405.998Z" fill="#E73F40"/>
<path d="M88.5548 141.785C45.7797 130.119 50.2084 95.8775 57.7697 80.2148C57.7697 85.3997 70.732 97.5308 83.6942 98.0378C96.6564 98.5449 120.96 118.561 125.821 130.443C125.821 125.582 126.145 111 127.442 91.5567C128.738 72.1135 162.547 55.3707 179.29 49.4297C178.21 52.6702 177.346 64.0121 182.531 83.4554C187.716 102.899 180.37 122.882 176.05 130.443C183.827 133.036 198.733 131.523 205.215 130.443C203.918 134.332 205.755 145.026 206.835 149.886C217.205 130.443 254.363 134.224 271.646 138.545C268.945 140.705 262.248 150.211 257.063 170.95C251.978 191.29 216.347 200.825 198.164 203.222C221.747 200.397 232.924 209.954 244.101 217.938C255.443 226.039 257.063 261.685 257.063 271.407C257.063 279.184 264.624 286.529 268.405 289.23C237.62 295.711 231.139 276.268 226.278 266.546C221.417 256.824 219.797 239.001 210.075 227.659C202.298 218.586 181.991 219.558 172.809 221.178L137.163 230.9L109.619 216.318C110.159 200.655 110.915 167.061 109.619 157.988C108.322 148.914 95.036 143.405 88.5548 141.785Z" fill="#E5D9CA"/>
<path d="M57.7697 80.2148C50.2084 95.8775 45.7797 130.119 88.5548 141.785C95.036 143.405 108.322 148.914 109.619 157.988C110.915 167.061 110.159 200.655 109.619 216.318L137.163 230.9L172.809 221.178C181.991 219.558 202.298 218.586 210.075 227.659C219.797 239.001 221.417 256.824 226.278 266.546C231.139 276.268 237.62 295.711 268.405 289.23C264.624 286.529 257.063 279.184 257.063 271.407C257.063 261.685 255.443 226.039 244.101 217.938C232.759 209.837 221.417 200.115 197.113 203.355C214.936 201.195 251.878 191.689 257.063 170.95C262.248 150.211 268.945 140.705 271.646 138.545C254.363 134.224 217.205 130.443 206.835 149.886C205.755 145.026 203.918 134.332 205.215 130.443C198.733 131.523 183.827 133.036 176.05 130.443C180.37 122.882 187.716 102.899 182.531 83.4554C177.346 64.0121 178.21 52.6702 179.29 49.4297C162.547 55.3707 128.738 72.1135 127.442 91.5567C126.145 111 125.821 125.582 125.821 130.443C120.96 118.561 96.6564 98.5449 83.6942 98.0378C70.732 97.5308 57.7697 85.3997 57.7697 80.2148Z" stroke="#3C2318" stroke-width="3"/>
<path d="M77.2129 323.255C75.9167 360.846 98.2764 362.682 109.618 358.901L116.099 373.483C108.538 375.643 91.4711 378.02 83.6938 370.243C73.9721 360.521 69.1113 342.699 69.1113 313.534C69.1113 284.369 109.618 224.419 109.618 226.039C109.618 227.335 118.26 234.14 122.58 237.381C117.719 239.001 78.8332 276.267 77.2129 323.255Z" fill="#AA9951" stroke="#3C2318" stroke-width="3"/>
<path d="M103.137 195.254C105.729 180.995 107.458 162.308 107.998 154.747C119.664 161.228 119.34 194.174 117.72 209.836C131 204.281 156.5 179.281 172.809 166.089C161.5 184.281 144.184 210.376 140.403 224.419C179.29 211.457 195.493 217.938 198.733 222.798C177.67 217.938 161.467 235.761 145.264 239.001C129.061 242.242 117.719 237.381 111.238 230.9C104.757 224.419 99.8964 213.077 103.137 195.254Z" fill="#AA9951" stroke="#3C2318" stroke-width="3"/>
<path d="M493.622 55.9108C501.5 48.7807 515.5 40.7811 549.5 62.2809C531 16.7811 459.5 19.2807 445.014 51.0504C439.895 62.2777 448.255 72.1135 462.837 88.3162C477.419 104.519 425.571 122.342 399.646 120.722C368.248 118.76 307.291 88.3167 258.683 78.595C210.075 68.8734 156.604 76.9748 106.376 104.519C56.1477 132.064 14.0206 192.014 25.3625 248.723C36.7044 305.433 78.8315 329.737 95.0342 344.319C107.996 355.985 111.237 369.704 111.237 375.105C111.237 383.206 104.756 389.687 93.4139 389.687C83.1664 389.687 77.2112 388.067 61.0085 386.446C48.0463 385.15 40 399.781 37.5 409.781L28.5 503.281C28.5 503.281 46 505.281 46 451.781C46 398.281 72.3504 405.89 78.8315 415.611C85.3126 425.333 129.06 444.776 138.781 405.89C148.503 367.003 111.237 341.079 106.376 336.218C101.515 331.357 44.8043 292.471 39.9435 232.521C35.0827 172.571 77.2098 136.925 114.476 114.241C151.742 91.5573 192.249 85.0761 237.617 88.3167C282.984 91.5572 305.671 114.241 363.998 130.444C444.651 152.848 486.126 128.212 496.86 117.482C507.594 106.751 503.902 87.7021 496.86 81.8356C489.818 75.9691 485.744 63.041 493.622 55.9108Z" fill="#AA9951" stroke="#3C2318" stroke-width="3"/>
<path d="M391.546 88.316C383.768 107.759 335.376 101.818 312.152 96.4173C364.001 128.822 415.85 98.0373 414.229 78.5941C412.609 59.1508 394.786 51.0498 383.444 49.4295C372.102 47.8092 364.001 55.9106 368.862 60.7714C373.723 65.6322 401.267 64.0119 391.546 88.316Z" fill="#AA9951" stroke="#3C2318" stroke-width="3"/>
<path d="M1262.45 141.785C1305.22 130.119 1300.79 95.8775 1293.23 80.2148C1293.23 85.3997 1280.27 97.5308 1267.31 98.0378C1254.34 98.5449 1230.04 118.561 1225.18 130.443C1225.18 125.582 1224.85 111 1223.56 91.5567C1222.26 72.1135 1188.45 55.3707 1171.71 49.4297C1172.79 52.6702 1173.65 64.0121 1168.47 83.4554C1163.28 102.899 1170.63 122.882 1174.95 130.443C1167.17 133.036 1152.27 131.523 1145.79 130.443C1147.08 134.332 1145.25 145.026 1144.17 149.886C1133.8 130.443 1096.64 134.224 1079.35 138.545C1082.05 140.705 1088.75 150.211 1093.94 170.95C1099.02 191.29 1134.65 200.825 1152.84 203.222C1129.25 200.397 1118.08 209.954 1106.9 217.938C1095.56 226.039 1093.94 261.685 1093.94 271.407C1093.94 279.184 1086.38 286.529 1082.59 289.23C1113.38 295.711 1119.86 276.268 1124.72 266.546C1129.58 256.824 1131.2 239.001 1140.92 227.66C1148.7 218.586 1169.01 219.558 1178.19 221.178L1213.84 230.9L1241.38 216.318C1240.84 200.655 1240.09 167.061 1241.38 157.988C1242.68 148.914 1255.96 143.405 1262.45 141.785Z" fill="#E5D9CA"/>
<path d="M1293.23 80.2148C1300.79 95.8775 1305.22 130.119 1262.45 141.785C1255.96 143.405 1242.68 148.914 1241.38 157.988C1240.09 167.061 1240.84 200.655 1241.38 216.318L1213.84 230.9L1178.19 221.178C1169.01 219.558 1148.7 218.586 1140.92 227.66C1131.2 239.001 1129.58 256.824 1124.72 266.546C1119.86 276.268 1113.38 295.711 1082.59 289.23C1086.38 286.529 1093.94 279.184 1093.94 271.407C1093.94 261.685 1095.56 226.039 1106.9 217.938C1118.24 209.837 1129.58 200.115 1153.89 203.355C1136.06 201.195 1099.12 191.689 1093.94 170.95C1088.75 150.211 1082.05 140.705 1079.35 138.545C1096.64 134.224 1133.8 130.443 1144.17 149.886C1145.25 145.026 1147.08 134.332 1145.79 130.443C1152.27 131.523 1167.17 133.036 1174.95 130.443C1170.63 122.882 1163.28 102.899 1168.47 83.4554C1173.65 64.0121 1172.79 52.6702 1171.71 49.4297C1188.45 55.3707 1222.26 72.1135 1223.56 91.5567C1224.85 111 1225.18 125.582 1225.18 130.443C1230.04 118.561 1254.34 98.5449 1267.31 98.0378C1280.27 97.5308 1293.23 85.3997 1293.23 80.2148Z" stroke="#3C2318" stroke-width="3"/>
<path d="M1273.79 323.255C1275.08 360.846 1252.72 362.682 1241.38 358.901L1234.9 373.483C1242.46 375.643 1259.53 378.02 1267.31 370.243C1277.03 360.521 1281.89 342.699 1281.89 313.534C1281.89 284.369 1241.38 224.419 1241.38 226.039C1241.38 227.335 1232.74 234.14 1228.42 237.381C1233.28 239.001 1272.17 276.267 1273.79 323.255Z" fill="#AA9951" stroke="#3C2318" stroke-width="3"/>
<path d="M1247.86 195.254C1245.27 180.995 1243.54 162.308 1243 154.747C1231.34 161.228 1231.66 194.174 1233.28 209.836C1220 204.281 1194.5 179.281 1178.19 166.089C1189.5 184.281 1206.82 210.376 1210.6 224.419C1171.71 211.457 1155.51 217.938 1152.27 222.798C1173.33 217.938 1189.53 235.761 1205.74 239.001C1221.94 242.242 1233.28 237.381 1239.76 230.9C1246.24 224.419 1251.1 213.077 1247.86 195.254Z" fill="#AA9951" stroke="#3C2318" stroke-width="3"/>
<path d="M857.378 55.9108C849.5 48.7807 835.5 40.7811 801.5 62.2809C820 16.7811 891.5 19.2807 905.986 51.0504C911.105 62.2777 902.745 72.1135 888.163 88.3162C873.581 104.519 925.429 122.342 951.354 120.722C982.752 118.76 1043.71 88.3167 1092.32 78.595C1140.93 68.8734 1194.4 76.9748 1244.62 104.519C1294.85 132.064 1336.98 192.014 1325.64 248.723C1314.3 305.433 1272.17 329.737 1255.97 344.319C1243 355.985 1239.76 369.704 1239.76 375.105C1239.76 383.206 1246.24 389.687 1257.59 389.687C1267.83 389.687 1273.79 388.067 1289.99 386.446C1302.95 385.15 1311 399.781 1313.5 409.781L1322.5 503.281C1322.5 503.281 1305 505.281 1305 451.781C1305 398.281 1278.65 405.89 1272.17 415.611C1265.69 425.333 1221.94 444.776 1212.22 405.89C1202.5 367.003 1239.76 341.079 1244.62 336.218C1249.48 331.357 1306.2 292.471 1311.06 232.521C1315.92 172.571 1273.79 136.925 1236.52 114.241C1199.26 91.5573 1158.75 85.0761 1113.38 88.3167C1068.02 91.5572 1045.33 114.241 987.002 130.444C906.349 152.848 864.874 128.212 854.14 117.482C843.406 106.751 847.098 87.7021 854.14 81.8356C861.182 75.9691 865.256 63.041 857.378 55.9108Z" fill="#AA9951" stroke="#3C2318" stroke-width="3"/>
<path d="M959.454 88.316C967.232 107.759 1015.62 101.818 1038.85 96.4173C986.999 128.822 935.15 98.0373 936.771 78.5941C938.391 59.1508 956.214 51.0498 967.556 49.4295C978.898 47.8092 986.999 55.9106 982.138 60.7714C977.277 65.6322 949.733 64.0119 959.454 88.316Z" fill="#AA9951" stroke="#3C2318" stroke-width="3"/>
<path fill-rule="evenodd" clip-rule="evenodd" d="M1149.38 774.251C1170.67 778.893 1191.59 783.456 1211.58 787.259C1285.82 801.38 1312.74 777.172 1316.93 763.302L1339.5 758.259C1293.17 819.996 1251.48 811.952 1216.79 805.26C1211.1 804.162 1205.59 803.1 1200.29 802.389C1198.76 802.183 1197.14 801.951 1195.45 801.692C1197.3 813.02 1205.5 828.033 1234 838.281C1278.5 854.281 1306 843.281 1330 824.781C1349.2 809.981 1351.17 834.448 1348.5 849.781C1328.83 857.781 1280.5 871.981 1230.5 852.781C1189 836.844 1178.15 812.686 1175.67 798.262C1165.08 796.278 1152.96 793.85 1139.77 791.209C1098.5 782.942 1046.74 772.575 998.375 767.085C920.619 758.259 815.271 807.432 796.459 817.519C777.647 827.606 727.482 847.78 703.653 845.258C679.825 842.736 664.775 817.519 684.841 792.302C704.907 767.085 732.498 758.259 752.565 758.259C772.631 758.259 770.122 774.65 768.868 775.911C767.612 777.174 755.074 792.302 770.122 794.824C782.162 796.841 796.041 793.983 801.476 792.302C818.616 785.157 868.196 767.337 929.398 753.216C989.421 739.366 1071.83 757.339 1149.38 774.251ZM726.228 780.954C739.271 775.911 740.859 780.534 740.023 783.476C737.014 812.727 769.704 809.954 786.426 804.911C758.836 820.04 716.195 822.562 708.67 813.737C701.145 804.911 709.924 787.259 726.228 780.954Z" fill="#AA9951" stroke="#3C2318" stroke-width="3"/>
<path fill-rule="evenodd" clip-rule="evenodd" d="M201.577 774.251C180.288 778.893 159.366 783.456 139.375 787.259C65.1315 801.38 38.2087 777.172 34.0275 763.302L11.4531 758.259C57.779 819.996 99.4777 811.952 134.164 805.26C139.856 804.162 145.359 803.1 150.662 802.389C152.196 802.183 153.811 801.951 155.503 801.692C153.648 813.02 145.455 828.033 116.953 838.281C72.4531 854.281 44.9531 843.281 20.9531 824.781C1.75314 809.981 -0.213539 834.448 2.45309 849.781C22.1197 857.781 70.4531 871.981 120.453 852.781C161.955 836.844 172.798 812.686 175.285 798.262C185.877 796.278 197.996 793.85 211.18 791.209C252.454 782.942 304.215 772.575 352.578 767.085C430.334 758.259 535.682 807.432 554.494 817.519C573.306 827.606 623.471 847.78 647.3 845.258C671.128 842.736 686.178 817.519 666.112 792.302C646.046 767.085 618.455 758.259 598.389 758.259C578.322 758.259 580.831 774.65 582.085 775.911C583.341 777.174 595.879 792.302 580.831 794.824C568.791 796.841 554.912 793.983 549.477 792.302C532.338 785.157 482.757 767.337 421.556 753.216C361.532 739.366 279.12 757.339 201.577 774.251ZM624.725 780.954C611.682 775.911 610.094 780.534 610.93 783.476C613.939 812.727 581.249 809.954 564.527 804.911C592.118 820.04 634.758 822.562 642.283 813.737C649.808 804.911 641.029 787.259 624.725 780.954Z" fill="#AA9951" stroke="#3C2318" stroke-width="3"/>
</svg>
