<svg width="214" height="214" viewBox="0 0 214 214" fill="none" xmlns="http://www.w3.org/2000/svg">
<path d="M171.015 150.198C170.898 148.581 168.648 145.564 167.148 144.948C160.982 142.414 148.798 154.048 147.731 161.348L143.148 193.148L151.581 195.698C152.731 196.048 153.965 199.265 153.331 200.315C152.531 201.632 149.315 202.932 147.415 203.248L134.481 205.398C123.548 189.848 124.648 200.332 111.881 175.948L113.214 208.449C113.298 210.582 109.831 213.382 107.914 213.499C105.247 213.649 100.697 210.832 100.797 208.482L102.097 174.498C97.6474 182.015 94.6307 189.998 88.3306 195.698L78.1471 204.915L64.0136 202.998C62.6302 202.815 59.6969 200.265 59.9636 198.915C60.2302 197.565 62.4636 195.448 63.7803 195.115L70.147 193.498L65.7803 160.198C65.1803 155.681 51.9301 141.181 45.4633 145.314C39.1966 149.314 42.6633 195.498 32.8632 193.732C27.0298 192.682 35.1966 164.165 33.4965 154.998C26.5131 155.264 24.7798 212.732 14.763 206.798C13.6296 206.115 12.4129 203.548 12.6796 202.248C22.5797 153.048 26.2798 117.531 6.71284 70.33C2.31278 59.7132 -5.57065 33.8462 6.09617 27.6294C8.84621 26.1627 15.5296 27.7295 18.063 30.5795C36.6966 51.4631 40.8133 90.5636 42.08 117.331C52.7634 116.314 82.3472 114.747 86.9472 124.831C88.0473 127.247 85.5639 132.848 85.0472 135.948C82.6472 150.481 85.2305 165.748 88.7639 181.181C102.731 157.364 98.1474 128.381 82.9972 107.514C67.7803 86.5469 45.9467 95.697 44.68 82.2135C44.13 76.3467 48.3634 72.4133 54.2468 71.0133C83.8305 63.9132 132.364 63.6966 161.765 71.5634C166.015 72.6967 169.615 76.9134 169.598 80.4802C169.582 84.0469 166.682 89.1302 162.732 90.1802L145.431 94.747C118.348 108.131 107.031 156.498 124.714 180.248C128.498 164.765 130.614 149.448 127.798 133.997C127.281 131.181 125.364 126.881 126.031 124.797C129.048 115.364 160.948 115.864 171.348 116.531C172.232 93.0303 175.515 69.5633 184.832 47.5464C188.399 39.1296 196.799 24.0294 207.015 27.5128C218.666 31.4795 211.949 56.2465 208.315 65.7299C200.099 87.1969 193.665 108.23 193.049 131.531C192.432 154.831 195.415 178.065 200.832 201.548C201.182 203.065 199.115 206.682 197.715 207.165C196.015 207.748 192.715 204.698 192.282 202.682L182.098 155.298C176.732 163.831 186.965 188.382 181.198 193.348C173.865 199.648 171.232 152.664 171.032 150.181L171.015 150.198ZM201.815 56.5632C203.115 49.9131 203.899 44.063 202.815 36.0129C198.499 40.3296 195.799 43.5297 193.782 46.263C199.332 49.2464 199.849 51.0964 201.799 56.5632H201.815ZM19.7464 44.6963L9.49623 36.3795C9.54623 43.663 10.0629 47.7464 11.0796 52.7631L19.7464 44.6797V44.6963ZM184.932 76.2301C181.682 90.7303 177.765 105.247 182.565 121.264C185.299 106.947 183.198 93.3636 184.932 76.2301ZM32.0965 120.831C35.4799 105.747 31.6132 92.7803 29.4631 79.5801C28.8298 93.797 28.9798 106.947 32.0965 120.831ZM100.464 97.147L85.6139 96.0803L101.897 124.314L100.464 97.147ZM128.048 96.9137L112.714 97.4803L112.048 122.831L128.048 96.9137ZM80.3805 191.715C80.1972 178.565 78.0971 165.948 76.3304 152.998C75.0304 166.215 74.2804 179.048 80.3805 191.715ZM133.365 192.782C137.531 182.765 137.915 173.081 136.598 162.981C135.114 172.765 131.398 181.715 133.365 192.782Z" fill="#3C2318"/>
</svg>
