<svg width="214" height="214" viewBox="0 0 214 214" fill="none" xmlns="http://www.w3.org/2000/svg">
<g clip-path="url(#clip0_547_777)">
<path d="M171.015 150.198C170.898 148.581 168.648 145.564 167.148 144.948C160.982 142.414 148.798 154.048 147.731 161.348L143.148 193.148L151.581 195.698C152.731 196.048 153.965 199.265 153.331 200.315C152.531 201.632 149.315 202.932 147.415 203.248L134.481 205.398C123.548 189.848 124.648 200.332 111.881 175.948L113.214 208.449C113.298 210.582 109.831 213.382 107.914 213.499C105.247 213.649 100.697 210.832 100.797 208.482L102.097 174.498C97.6474 182.015 94.6307 189.998 88.3306 195.698L78.1471 204.915L64.0136 202.998C62.6302 202.815 59.6969 200.265 59.9636 198.915C60.2302 197.565 62.4636 195.448 63.7803 195.115L70.147 193.498L65.7803 160.198C65.1803 155.681 51.9301 141.181 45.4633 145.314C39.1966 149.314 42.6633 195.498 32.8632 193.732C27.0298 192.682 35.1966 164.165 33.4965 154.998C26.5131 155.264 24.7798 212.732 14.763 206.798C13.6296 206.115 12.4129 203.548 12.6796 202.248C22.5797 153.048 26.2798 117.531 6.71284 70.33C2.31278 59.7132 -5.57065 33.8462 6.09617 27.6294C8.84621 26.1627 15.5296 27.7295 18.063 30.5795C36.6966 51.4631 40.8133 90.5636 42.08 117.331C52.7634 116.314 82.3472 114.747 86.9472 124.831C88.0473 127.247 85.5639 132.848 85.0472 135.948C82.6472 150.481 85.2305 165.748 88.7639 181.181C102.731 157.364 98.1474 128.381 82.9972 107.514C67.7803 86.5469 45.9467 95.697 44.68 82.2135C44.13 76.3467 48.3634 72.4133 54.2468 71.0133C83.8305 63.9132 132.364 63.6966 161.765 71.5634C166.015 72.6967 169.615 76.9134 169.598 80.4802C169.582 84.0469 166.682 89.1302 162.732 90.1802L145.431 94.747C118.348 108.131 107.031 156.498 124.714 180.248C128.498 164.765 130.614 149.448 127.798 133.997C127.281 131.181 125.364 126.881 126.031 124.797C129.048 115.364 160.948 115.864 171.348 116.531C172.232 93.0303 175.515 69.5633 184.832 47.5464C188.399 39.1296 196.799 24.0294 207.015 27.5128C218.666 31.4795 211.949 56.2465 208.315 65.7299C200.099 87.1969 193.665 108.23 193.049 131.531C192.432 154.831 195.415 178.065 200.832 201.548C201.182 203.065 199.115 206.682 197.715 207.165C196.015 207.748 192.715 204.698 192.282 202.682L182.098 155.298C176.732 163.831 186.965 188.382 181.198 193.348C173.865 199.648 171.232 152.664 171.032 150.181L171.015 150.198ZM201.815 56.5632C203.115 49.9131 203.899 44.063 202.815 36.0129C198.499 40.3296 195.799 43.5297 193.782 46.263C199.332 49.2464 199.849 51.0964 201.799 56.5632H201.815ZM19.7464 44.6963L9.49623 36.3795C9.54623 43.663 10.0629 47.7464 11.0796 52.7631L19.7464 44.6797V44.6963ZM184.932 76.2301C181.682 90.7303 177.765 105.247 182.565 121.264C185.299 106.947 183.198 93.3636 184.932 76.2301ZM32.0965 120.831C35.4799 105.747 31.6132 92.7803 29.4631 79.5801C28.8298 93.797 28.9798 106.947 32.0965 120.831ZM100.464 97.147L85.6139 96.0803L101.897 124.314L100.464 97.147ZM128.048 96.9137L112.714 97.4803L112.048 122.831L128.048 96.9137ZM80.3805 191.715C80.1972 178.565 78.0971 165.948 76.3304 152.998C75.0304 166.215 74.2804 179.048 80.3805 191.715ZM133.365 192.782C137.531 182.765 137.915 173.081 136.598 162.981C135.114 172.765 131.398 181.715 133.365 192.782Z" fill="#FCF6EB"/>
<path d="M35.0074 57.3897L36.1327 49.5126L40.2589 43.8861L48.8862 41.2604L57.5135 39.0098H67.6413L73.6429 40.5102H80.3947L90.8976 42.0106L101.4 43.8861L113.404 46.8869L126.907 51.013L140.036 54.3889L150.539 55.1391H165.543L172.67 54.3889L174.545 43.8861L182.047 39.76L192.55 41.2604L197.426 45.3865L194.426 55.1391L187.674 91.8991L185.798 102.402L180.172 108.028L167.793 110.654L154.29 112.155L146.038 110.654L126.907 109.154L103.276 103.527L85.2711 98.2758L71.0172 94.5248L56.3882 93.3995H48.8862L40.2589 95.6501L29.3809 98.2758L25.6299 95.6501L28.6307 86.6477L32.3817 73.5191L34.2572 64.8918L35.0074 57.3897Z" fill="#FCF6EB"/>
<path d="M24.8303 93.6068C39.8231 59.4083 26.8075 47.7357 42.9194 42.0297C51.9581 38.8311 63.2502 36.8879 72.3208 38.9239C75.1838 39.573 76.2147 39.6207 79.0325 39.5531C110.863 38.7578 134.451 61.0256 171.647 52.8261C172.085 49.4357 172.287 45.0931 173.89 42.5624C176.368 38.629 184.697 38.6214 188.791 39.1738C192.424 39.6558 198.986 43.2131 198.103 47.3069C193.402 63.7247 189.31 79.3784 188.87 95.8368C188.312 116.357 155.229 113.228 140.713 111.916C128.239 110.79 116.791 108.363 105.117 105.017L78.3141 97.3161C75.4293 96.4909 72.6767 95.6509 69.6924 95.4636L50.2421 94.2491L46.6975 107.806C39.4268 111.236 29.7178 111.554 24.432 106.001C21.8319 103.267 23.2168 97.333 24.8582 93.5986L24.8303 93.6068ZM36.244 54.2381C36.4729 67.9314 33.1876 80.6207 27.2263 95.0877C41.2907 91.898 53.2703 91.406 66.223 93.2784C69.6474 93.7735 73.8608 92.3195 76.4714 90.7316C77.8881 93.1593 80.596 96.3608 83.8727 97.2281L112.38 104.741C120.183 106.799 132.354 109.365 139.793 108.964C141.003 108.898 143.943 106.835 144.856 106.383C145.77 105.93 146.769 109.819 147.922 110.074C158.526 112.472 186.635 109.614 184.613 100.066C184.112 97.7074 178.473 94.7533 176.556 95.9168C175.972 99.7884 175.589 103.467 173.501 104.669C170.573 106.363 166.62 106.852 164.64 105.905C162.874 105.065 159.904 100.566 160.717 98.6463C166.44 85.223 170.407 71.0911 171.872 55.7893C151.895 58.5389 134.852 56.1252 117.918 49.7248C113.473 48.0354 107.286 45.9001 102.757 46.6446L98.3733 47.3702C97.6352 47.4914 98.2744 45.0878 98.1916 44.0903L79.657 41.0473L73.4917 45.8532L71.1258 40.3726C59.569 40.4474 36.039 40.5744 36.2613 54.2452L36.244 54.2381ZM176.362 43.8383C173.759 61.7036 171.29 77.7161 165.865 94.7132C173.555 91.1597 179.97 91.8645 185.317 95.83C187.185 81.2729 188.87 68.5096 192.716 54.9972C193.364 52.725 196.299 48.1329 195.434 46.2355C192.846 40.5165 181.489 39.7291 176.351 43.8536L176.362 43.8383Z" fill="#3C2318"/>
<path d="M42.9872 62.3337C43.5968 62.3114 44.1296 62.377 44.5855 62.5305C45.041 62.674 45.3995 62.9011 45.661 63.2117C45.9222 63.5124 46.0609 63.8876 46.0774 64.3373C46.0952 64.827 45.9745 65.2216 45.7153 65.5213C45.4557 65.811 45.0934 66.0293 44.6285 66.1764L44.6306 66.2363C44.9537 66.3146 45.2531 66.4288 45.5287 66.5788C45.8044 66.7289 46.0269 66.9309 46.1963 67.1849C46.3756 67.4385 46.4728 67.7702 46.4877 68.1799C46.5038 68.6196 46.3935 69.0239 46.1568 69.3928C45.93 69.7613 45.5657 70.0598 45.0637 70.2882C44.5717 70.5163 43.9309 70.6448 43.1414 70.6736C42.7617 70.6874 42.3962 70.6808 42.045 70.6535C41.7038 70.626 41.3918 70.5773 41.109 70.5076C40.8363 70.4375 40.593 70.3513 40.3791 70.249L40.3359 69.0648C40.6815 69.2123 41.0866 69.3426 41.551 69.4558C42.0254 69.5685 42.5374 69.6149 43.0871 69.5948C43.4868 69.5803 43.8449 69.5222 44.1614 69.4206C44.4879 69.3186 44.7427 69.1692 44.9256 68.9724C45.1082 68.7656 45.1933 68.4923 45.1809 68.1525C45.1696 67.8427 45.0755 67.596 44.8987 67.4123C44.7215 67.2187 44.4612 67.0781 44.1178 66.9905C43.7844 66.9026 43.3578 66.8682 42.8382 66.8871L41.7589 66.9265L41.7195 65.8472L42.5889 65.8155C43.2785 65.7903 43.8248 65.6803 44.228 65.4855C44.6408 65.2803 44.839 64.9529 44.8226 64.5032C44.8087 64.1234 44.6384 63.8444 44.3117 63.6662C43.995 63.4877 43.5418 63.4091 42.9522 63.4307C42.5125 63.4467 42.1244 63.5059 41.7879 63.6082C41.4611 63.7002 41.1009 63.8384 40.7073 64.0229L40.2043 62.9906C40.6271 62.785 41.0717 62.6287 41.5381 62.5216C42.0045 62.4145 42.4876 62.3519 42.9872 62.3337ZM51.5888 62.2108C52.5688 62.2135 53.2932 62.4305 53.762 62.8618C54.2308 63.2931 54.4639 63.9788 54.4613 64.9188L54.446 70.3937L53.486 70.3911L53.2342 69.2504L53.1742 69.2502C52.9434 69.5396 52.7027 69.7839 52.4522 69.9832C52.2116 70.1725 51.9312 70.3117 51.611 70.4009C51.3007 70.49 50.9206 70.5339 50.4706 70.5327C49.9906 70.5313 49.5559 70.4451 49.1663 70.274C48.7868 70.103 48.4875 69.8422 48.2685 69.4915C48.0495 69.1309 47.9408 68.6806 47.9423 68.1406C47.9445 67.3406 48.2612 66.7265 48.8924 66.2983C49.5236 65.86 50.4943 65.6227 51.8044 65.5864L53.1695 65.5452L53.1709 65.0652C53.1727 64.3952 53.029 63.9298 52.7397 63.669C52.4505 63.4082 52.0408 63.277 51.5108 63.2755C51.0908 63.2744 50.6906 63.3383 50.3103 63.4672C49.93 63.5861 49.5746 63.7252 49.2441 63.8842L48.8419 62.8931C49.1924 62.7041 49.6078 62.5452 50.0882 62.4166C50.5686 62.2779 51.0688 62.2093 51.5888 62.2108ZM51.9668 66.5018C50.9667 66.539 50.2713 66.6971 49.8805 66.976C49.4997 67.255 49.3086 67.6494 49.3072 68.1594C49.306 68.6094 49.4401 68.9398 49.7095 69.1506C49.9889 69.3613 50.3436 69.4673 50.7736 69.4685C51.4536 69.4704 52.0191 69.287 52.4701 68.9182C52.9212 68.5395 53.1478 67.9601 53.15 67.1801L53.152 66.4601L51.9668 66.5018ZM56.6844 65.6016C56.7271 64.4324 56.8784 63.4422 57.1382 62.6312C57.4084 61.8105 57.7973 61.1643 58.3049 60.6925C58.8228 60.2111 59.4746 59.8998 60.2603 59.7584C60.915 59.6422 61.5542 59.5405 62.1778 59.4533C62.8014 59.366 63.3846 59.2873 63.9276 59.2171L64.1102 60.3795C63.8489 60.41 63.5573 60.4493 63.2353 60.4976C62.9137 60.5359 62.5869 60.579 62.2549 60.6269C61.9233 60.6648 61.6015 60.708 61.2895 60.7567C60.9879 60.7957 60.7212 60.8359 60.4896 60.8775C60.1572 60.9354 59.858 61.0445 59.592 61.2049C59.3263 61.3553 59.0934 61.5669 58.8933 61.8398C58.7032 62.113 58.5457 62.4525 58.4208 62.8582C58.2959 63.2639 58.2132 63.7462 58.1727 64.3051L58.2627 64.3084C58.4095 64.1236 58.6065 63.9357 58.8537 63.7446C59.1108 63.5539 59.4118 63.3948 59.7567 63.2673C60.1116 63.1402 60.5089 63.0847 60.9486 63.1008C61.6482 63.1264 62.2221 63.3024 62.6705 63.6291C63.1292 63.946 63.4636 64.3785 63.6737 64.9266C63.8938 65.475 63.9907 66.109 63.9644 66.8285C63.9319 67.7179 63.7497 68.4567 63.418 69.045C63.0863 69.6333 62.6401 70.0672 62.0795 70.3469C61.5193 70.6166 60.8744 70.7382 60.1449 70.7115C59.5953 70.6914 59.0995 70.5682 58.6574 70.3419C58.2158 70.1056 57.8427 69.7717 57.5383 69.3403C57.2339 68.9089 57.008 68.3803 56.8608 67.7545C56.7136 67.1287 56.6548 66.411 56.6844 65.6016ZM60.2899 69.621C60.7296 69.6371 61.1126 69.5611 61.439 69.3929C61.7753 69.2251 62.0409 68.9396 62.2358 68.5364C62.4307 68.1333 62.5405 67.592 62.5654 66.9124C62.5954 66.093 62.464 65.4427 62.1714 64.9617C61.8892 64.4711 61.3983 64.2129 60.6987 64.1874C60.259 64.1713 59.8556 64.2566 59.4886 64.4433C59.1219 64.62 58.814 64.8289 58.5651 65.07C58.3161 65.311 58.1385 65.5147 58.0324 65.6809C58.0145 66.1706 58.0321 66.6465 58.0852 67.1088C58.1384 67.571 58.2431 67.9901 58.3995 68.3661C58.5662 68.7325 58.8004 69.0312 59.1022 69.2624C59.4143 69.484 59.8102 69.6035 60.2899 69.621ZM70.2704 62.9006C71.2581 62.9678 72.0278 63.366 72.5796 64.0952C73.1413 64.825 73.3749 65.8833 73.2805 67.2701C73.2187 68.178 73.0268 68.9367 72.7046 69.5463C72.3931 70.1465 71.9771 70.5893 71.4565 70.8746C70.9466 71.1506 70.3574 71.2658 69.6889 71.2203C69.2799 71.1924 68.9195 71.1128 68.6077 70.9813C68.2959 70.8498 68.031 70.6915 67.8131 70.5062C67.6058 70.3117 67.4295 70.1043 67.2842 69.8839L67.1944 69.8778C67.2028 70.0487 67.2081 70.2646 67.2104 70.5253C67.2127 70.7861 67.2074 71.0113 67.1945 71.2008L66.9704 74.4932L65.6534 74.4036L66.444 62.7904L67.5215 62.8638L67.6267 63.9685L67.6866 63.9726C67.8618 63.754 68.0657 63.5573 68.2981 63.3827C68.5404 63.2088 68.82 63.0775 69.1368 62.9888C69.4635 62.9008 69.8414 62.8714 70.2704 62.9006ZM69.9555 63.9917C69.4168 63.955 68.9757 64.0302 68.6321 64.2173C68.2893 64.3945 68.0292 64.6825 67.8517 65.0813C67.6742 65.4802 67.559 65.9936 67.5063 66.6214L67.4889 66.8758C67.4441 67.5343 67.4759 68.0978 67.5844 68.5662C67.6928 69.0347 67.9035 69.3998 68.2164 69.6617C68.5393 69.9242 68.9901 70.0752 69.5688 70.1146C70.0576 70.1479 70.4659 70.0403 70.7935 69.792C71.1311 69.5444 71.3904 69.1962 71.5712 68.7474C71.7628 68.2894 71.879 67.7611 71.9197 67.1624C71.9822 66.2446 71.8525 65.499 71.5307 64.9259C71.2189 64.3534 70.6938 64.042 69.9555 63.9917ZM82.5083 68.2994C82.4309 68.9649 82.2727 69.5455 82.0338 70.0412C81.806 70.5282 81.5074 70.9314 81.138 71.2508C80.7785 71.5714 80.3544 71.7989 79.8656 71.9333C79.3878 72.0589 78.8659 72.0888 78.2997 72.0229C77.7733 71.9616 77.2969 71.8156 76.8708 71.5848C76.4457 71.3441 76.0901 71.0258 75.804 70.6301C75.5178 70.2344 75.3098 69.7722 75.18 69.2437C75.0614 68.7064 75.0407 68.1049 75.1182 67.4394C75.2211 66.5554 75.4567 65.8278 75.8252 65.2565C76.1949 64.6754 76.6763 64.2582 77.2696 64.0051C77.864 63.742 78.5436 63.655 79.3084 63.744C80.0335 63.8284 80.6502 64.0663 81.1583 64.4576C81.6776 64.8402 82.0553 65.3573 82.2916 66.009C82.5389 66.6519 82.6112 67.4154 82.5083 68.2994ZM76.474 67.5972C76.4012 68.223 76.4171 68.7785 76.5217 69.2639C76.6374 69.7405 76.8546 70.1231 77.1734 70.4119C77.4921 70.7007 77.9197 70.8763 78.4561 70.9387C78.9925 71.0011 79.4489 70.9284 79.8255 70.7205C80.202 70.5127 80.4963 70.1895 80.7084 69.7511C80.9316 69.3039 81.0796 68.7674 81.1525 68.1416C81.2264 67.5059 81.205 66.9548 81.0882 66.4881C80.9713 66.0215 80.7529 65.6487 80.433 65.3699C80.1242 65.0823 79.6966 64.9067 79.1503 64.8431C78.3358 64.7483 77.7136 64.9477 77.2836 65.4413C76.8537 65.935 76.5838 66.6536 76.474 67.5972ZM86.8713 64.9704L86.2608 68.2592L90.5524 69.0559L91.163 65.7671L92.4608 66.0081L90.9933 73.913L89.6955 73.6721L90.3498 70.1473L86.0582 69.3506L85.4038 72.8753L84.106 72.6344L85.5735 64.7295L86.8713 64.9704ZM95.599 71.933C95.5714 72.0186 95.5268 72.1408 95.4651 72.2996C95.4161 72.4519 95.3576 72.6169 95.2899 72.7947C95.2252 72.963 95.162 73.1265 95.1003 73.2852C95.0418 73.4344 94.9924 73.5551 94.9522 73.6472L101.115 68.5566L102.657 69.0533L100.192 76.7061L99.0209 76.3289L100.474 71.8172C100.523 71.6649 100.588 71.4651 100.667 71.2176C100.757 70.9732 100.844 70.7335 100.931 70.4986C101.02 70.2542 101.089 70.0717 101.139 69.951L95.009 75.0365L93.4527 74.5352L95.9179 66.8825L97.1029 67.2642L95.599 71.933ZM108.921 71.0488C109.855 71.3756 110.492 71.9637 110.83 72.813C111.179 73.6657 111.123 74.7481 110.664 76.0602C110.364 76.9192 109.978 77.5998 109.505 78.1021C109.046 78.5982 108.527 78.9148 107.95 79.0518C107.385 79.1827 106.786 79.1376 106.154 78.9164C105.767 78.7811 105.44 78.6087 105.175 78.3992C104.909 78.1898 104.695 77.9668 104.534 77.7304C104.386 77.4879 104.271 77.2411 104.189 76.9901L104.105 76.9604C104.067 77.1274 104.015 77.337 103.948 77.589C103.881 77.8411 103.816 78.0567 103.754 78.2361L102.664 81.3511L101.418 80.9154L105.261 69.9278L106.28 70.2843L106.089 71.3774L106.145 71.3972C106.372 71.2329 106.621 71.0973 106.891 70.9906C107.171 70.8872 107.475 70.8347 107.804 70.8332C108.143 70.835 108.515 70.9069 108.921 71.0488ZM108.328 72.0174C107.818 71.8391 107.373 71.7946 106.992 71.8839C106.614 71.9638 106.287 72.1725 106.01 72.51C105.733 72.8475 105.486 73.312 105.269 73.9034L105.185 74.1441C104.967 74.7671 104.848 75.3188 104.828 75.7992C104.809 76.2796 104.915 76.6876 105.147 77.0231C105.389 77.3619 105.784 77.627 106.331 77.8184C106.794 77.9802 107.216 77.9848 107.598 77.8322C107.989 77.683 108.331 77.416 108.624 77.0313C108.931 76.6404 109.183 76.1618 109.381 75.5955C109.684 74.727 109.757 73.9738 109.599 73.3358C109.45 72.7011 109.026 72.2616 108.328 72.0174ZM119.152 78.4456C118.974 79.0916 118.73 79.6414 118.418 80.0949C118.119 80.5415 117.762 80.8945 117.349 81.154C116.944 81.4161 116.491 81.5764 115.987 81.6348C115.496 81.6863 114.975 81.6363 114.426 81.485C113.915 81.3443 113.466 81.1275 113.08 80.8345C112.697 80.5318 112.394 80.1632 112.171 79.7285C111.949 79.2938 111.813 78.8054 111.766 78.2632C111.73 77.7141 111.801 77.1166 111.979 76.4706C112.215 75.6125 112.559 74.9293 113.01 74.4208C113.464 73.9027 114.003 73.5637 114.628 73.4038C115.256 73.2343 115.941 73.2518 116.683 73.4562C117.387 73.65 117.96 73.9789 118.403 74.4431C118.858 74.9003 119.152 75.4689 119.287 76.1489C119.433 76.822 119.388 77.5876 119.152 78.4456ZM113.295 76.833C113.128 77.4404 113.059 77.9919 113.089 78.4875C113.13 78.9761 113.287 79.3874 113.558 79.7213C113.829 80.0553 114.225 80.2939 114.745 80.4373C115.266 80.5806 115.728 80.5782 116.132 80.4301C116.536 80.282 116.876 80.0074 117.152 79.6064C117.441 79.1984 117.669 78.6907 117.836 78.0833C118.006 77.4662 118.069 76.9182 118.024 76.4392C117.98 75.9603 117.821 75.5586 117.547 75.2343C117.286 74.903 116.89 74.6644 116.36 74.5184C115.569 74.3007 114.924 74.4031 114.424 74.8255C113.923 75.2479 113.547 75.917 113.295 76.833ZM127.703 78.3078C127.598 78.7965 127.369 79.146 127.016 79.3563C126.664 79.5667 126.247 79.6711 125.767 79.6695L125.754 79.7282C126.228 79.9022 126.615 80.17 126.916 80.5316C127.218 80.8835 127.306 81.3526 127.179 81.9391C127.108 82.2714 126.978 82.5656 126.789 82.8216C126.611 83.0797 126.372 83.2839 126.074 83.4343C125.775 83.5846 125.413 83.6751 124.987 83.7058C124.563 83.7268 124.067 83.676 123.5 83.5535L120.114 82.8217L121.812 74.963L125.184 75.6917C125.741 75.8121 126.226 75.9833 126.638 76.2054C127.062 76.4199 127.37 76.7012 127.561 77.0493C127.763 77.3898 127.811 77.8093 127.703 78.3078ZM125.845 81.6508C125.942 81.2012 125.841 80.8416 125.541 80.5722C125.241 80.3028 124.759 80.0963 124.094 79.9527L122.174 79.5377L121.629 82.0595L123.579 82.4808C124.224 82.6202 124.738 82.634 125.12 82.5222C125.504 82.4007 125.746 82.1102 125.845 81.6508ZM126.363 78.1871C126.444 77.8157 126.365 77.5173 126.127 77.292C125.901 77.059 125.485 76.8771 124.879 76.7461L122.871 76.3121L122.405 78.4674L124.179 78.8507C124.814 78.988 125.317 79.0046 125.688 78.9004C126.058 78.7963 126.283 78.5585 126.363 78.1871ZM132.869 76.9865C133.837 77.1411 134.519 77.4678 134.915 77.9666C135.311 78.4654 135.435 79.1789 135.287 80.1071L134.423 85.5135L133.475 85.362L133.403 84.1961L133.344 84.1866C133.071 84.4367 132.795 84.6407 132.517 84.7988C132.25 84.9485 131.951 85.0426 131.621 85.0809C131.301 85.1209 130.918 85.1054 130.474 85.0343C130 84.9586 129.584 84.806 129.226 84.5766C128.877 84.3488 128.622 84.0447 128.46 83.6643C128.299 83.2741 128.262 82.8124 128.347 82.2792C128.473 81.4892 128.881 80.9316 129.571 80.6064C130.263 80.2714 131.259 80.1874 132.559 80.3547L133.914 80.5256L133.989 80.0517C134.095 79.3901 134.025 78.908 133.78 78.6055C133.535 78.303 133.15 78.1099 132.627 78.0263C132.212 77.96 131.807 77.9611 131.411 78.0295C131.017 78.088 130.644 78.1702 130.293 78.2761L130.049 77.2346C130.425 77.1022 130.86 77.0097 131.355 76.9571C131.851 76.8946 132.355 76.9044 132.869 76.9865ZM132.577 81.2842C131.583 81.1659 130.872 81.2143 130.442 81.4292C130.023 81.6457 129.773 82.0058 129.693 82.5094C129.622 82.9538 129.703 83.3009 129.936 83.5509C130.18 83.8025 130.514 83.9622 130.938 84.03C131.61 84.1373 132.197 84.0438 132.7 83.7495C133.204 83.4452 133.518 82.908 133.641 82.1378L133.754 81.4268L132.577 81.2842ZM143.095 79.4872L140.483 79.2261L139.794 86.1217L138.495 85.9919L139.185 79.0963L136.603 78.8382L136.713 77.7337L143.206 78.3827L143.095 79.4872ZM147.862 81.8583C148.561 81.8839 149.138 81.99 149.591 82.1767C150.045 82.3633 150.38 82.6308 150.598 82.9789C150.826 83.3175 150.93 83.7416 150.912 84.2512C150.893 84.7509 150.762 85.1814 150.519 85.5428C150.286 85.9045 149.931 86.1767 149.454 86.3594C148.977 86.5421 148.368 86.62 147.629 86.593L143.986 86.46L144.28 78.4253L145.599 78.4735L145.478 81.7713L147.862 81.8583ZM149.59 84.278C149.608 83.7883 149.445 83.4522 149.101 83.2695C148.768 83.0772 148.292 82.9698 147.672 82.9471L145.438 82.8656L145.344 85.4438L147.608 85.5265C148.167 85.547 148.631 85.4638 148.998 85.2771C149.375 85.0907 149.572 84.7577 149.59 84.278Z" fill="#3C2318"/>
<path d="M44.5855 62.5305L44.5217 62.7201L44.5254 62.7213L44.5855 62.5305ZM45.661 63.2117L45.508 63.3405L45.51 63.3429L45.661 63.2117ZM45.7153 65.5213L45.8642 65.6548L45.8665 65.6522L45.7153 65.5213ZM44.6285 66.1764L44.5681 65.9857L44.423 66.0316L44.4286 66.1837L44.6285 66.1764ZM44.6306 66.2363L44.4308 66.2436L44.4363 66.395L44.5835 66.4307L44.6306 66.2363ZM45.5287 66.5788L45.4331 66.7545V66.7545L45.5287 66.5788ZM46.1963 67.1849L46.0298 67.2959L46.033 67.3003L46.1963 67.1849ZM46.1568 69.3928L45.9884 69.2847L45.9864 69.288L46.1568 69.3928ZM45.0637 70.2882L44.9808 70.1062L44.9796 70.1068L45.0637 70.2882ZM42.045 70.6535L42.0289 70.8529L42.0295 70.8529L42.045 70.6535ZM41.109 70.5076L41.0593 70.7013L41.0611 70.7018L41.109 70.5076ZM40.3791 70.249L40.1793 70.2563L40.1837 70.3772L40.2929 70.4295L40.3791 70.249ZM40.3359 69.0648L40.4144 68.8809L40.1246 68.7572L40.1361 69.0721L40.3359 69.0648ZM41.551 69.4558L41.5036 69.6501L41.5047 69.6503L41.551 69.4558ZM44.1614 69.4206L44.1018 69.2296L44.1003 69.2301L44.1614 69.4206ZM44.9256 68.9724L45.0721 69.1086L45.0755 69.1048L44.9256 68.9724ZM45.1809 68.1525L45.3807 68.1452L45.1809 68.1525ZM44.8987 67.4123L44.7511 67.5474L44.7546 67.551L44.8987 67.4123ZM44.1178 66.9905L44.0668 67.1839L44.0684 67.1843L44.1178 66.9905ZM42.8382 66.8871L42.8455 67.087L42.8382 66.8871ZM41.7589 66.9265L41.559 66.9338L41.5663 67.1337L41.7662 67.1264L41.7589 66.9265ZM41.7195 65.8472L41.7122 65.6473L41.5124 65.6546L41.5196 65.8545L41.7195 65.8472ZM44.228 65.4855L44.315 65.6656L44.317 65.6646L44.228 65.4855ZM44.8226 64.5032L45.0224 64.4959L44.8226 64.5032ZM44.3117 63.6662L44.2135 63.8405L44.2159 63.8418L44.3117 63.6662ZM42.9522 63.4307L42.9595 63.6305L42.9522 63.4307ZM41.7879 63.6082L41.8421 63.8008L41.8461 63.7996L41.7879 63.6082ZM40.7073 64.0229L40.5275 64.1105L40.6138 64.2876L40.7922 64.204L40.7073 64.0229ZM40.2043 62.9906L40.1169 62.8107L39.9369 62.8982L40.0245 63.0782L40.2043 62.9906ZM41.5381 62.5216L41.5829 62.7165L41.5381 62.5216ZM42.9872 62.3337L42.9945 62.5335C43.5862 62.5119 44.0939 62.576 44.5217 62.7201L44.5855 62.5305L44.6493 62.341C44.1653 62.178 43.6075 62.1109 42.9799 62.1338L42.9872 62.3337ZM44.5855 62.5305L44.5254 62.7213C44.9512 62.8554 45.275 63.0637 45.508 63.3405L45.661 63.2117L45.814 63.0829C45.524 62.7384 45.1308 62.4926 44.6456 62.3397L44.5855 62.5305ZM45.661 63.2117L45.51 63.3429C45.7373 63.6046 45.8625 63.9343 45.8775 64.3446L46.0774 64.3373L46.2772 64.33C46.2594 63.8409 46.107 63.4202 45.812 63.0806L45.661 63.2117ZM46.0774 64.3373L45.8775 64.3446C45.894 64.7963 45.7828 65.1376 45.564 65.3904L45.7153 65.5213L45.8665 65.6522C46.1663 65.3057 46.2965 64.8577 46.2772 64.33L46.0774 64.3373ZM45.7153 65.5213L45.5664 65.3878C45.336 65.6448 45.0075 65.8467 44.5681 65.9857L44.6285 66.1764L44.6888 66.3671C45.1793 66.2119 45.5754 65.9771 45.8642 65.6548L45.7153 65.5213ZM44.6285 66.1764L44.4286 66.1837L44.4308 66.2436L44.6306 66.2363L44.8305 66.229L44.8283 66.1691L44.6285 66.1764ZM44.6306 66.2363L44.5835 66.4307C44.8907 66.5051 45.1736 66.6132 45.4331 66.7545L45.5287 66.5788L45.6243 66.4031C45.3325 66.2443 45.0167 66.1241 44.6777 66.0419L44.6306 66.2363ZM45.5287 66.5788L45.4331 66.7545C45.6811 66.8895 45.879 67.0696 46.0299 67.2958L46.1963 67.1849L46.3627 67.0739C46.1748 66.7921 45.9277 66.5682 45.6243 66.4031L45.5287 66.5788ZM46.1963 67.1849L46.033 67.3003C46.1838 67.5136 46.2739 67.8041 46.2879 68.1872L46.4877 68.1799L46.6876 68.1726C46.6717 67.7362 46.5675 67.3634 46.3596 67.0694L46.1963 67.1849ZM46.4877 68.1799L46.2879 68.1872C46.3024 68.5863 46.203 68.9503 45.9884 69.2848L46.1568 69.3928L46.3251 69.5008C46.5839 69.0974 46.7051 68.6529 46.6876 68.1726L46.4877 68.1799ZM46.1568 69.3928L45.9864 69.288C45.7856 69.6144 45.4565 69.8897 44.9808 70.1062L45.0637 70.2882L45.1465 70.4703C45.6748 70.2298 46.0745 69.9082 46.3271 69.4976L46.1568 69.3928ZM45.0637 70.2882L44.9796 70.1068C44.5201 70.3198 43.9082 70.4455 43.1342 70.4737L43.1414 70.6736L43.1487 70.8734C43.9537 70.8441 44.6233 70.7128 45.1478 70.4697L45.0637 70.2882ZM43.1414 70.6736L43.1342 70.4737C42.7614 70.4873 42.4035 70.4807 42.0604 70.4541L42.045 70.6535L42.0295 70.8529C42.3889 70.8808 42.762 70.8876 43.1487 70.8734L43.1414 70.6736ZM42.045 70.6535L42.0611 70.4542C41.7288 70.4273 41.4276 70.3802 41.1569 70.3134L41.109 70.5076L41.0611 70.7018C41.3559 70.7745 41.6787 70.8246 42.0289 70.8529L42.045 70.6535ZM41.109 70.5076L41.1588 70.3139C40.8964 70.2464 40.6656 70.1643 40.4654 70.0686L40.3791 70.249L40.2929 70.4295C40.5204 70.5382 40.7762 70.6285 41.0593 70.7013L41.109 70.5076ZM40.3791 70.249L40.579 70.2417L40.5358 69.0575L40.3359 69.0648L40.1361 69.0721L40.1793 70.2563L40.3791 70.249ZM40.3359 69.0648L40.2574 69.2488C40.6154 69.4015 41.0313 69.535 41.5036 69.6501L41.551 69.4558L41.5983 69.2614C41.1418 69.1502 40.7477 69.0231 40.4144 68.8809L40.3359 69.0648ZM41.551 69.4558L41.5047 69.6503C41.9988 69.7678 42.529 69.8153 43.0944 69.7947L43.0871 69.5948L43.0798 69.395C42.5459 69.4145 42.0521 69.3693 41.5972 69.2612L41.551 69.4558ZM43.0871 69.5948L43.0944 69.7947C43.5088 69.7796 43.8855 69.7192 44.2226 69.611L44.1614 69.4206L44.1003 69.2301C43.8043 69.3251 43.4648 69.3809 43.0798 69.395L43.0871 69.5948ZM44.1614 69.4206L44.2211 69.6115C44.5719 69.5019 44.8598 69.3369 45.0721 69.1086L44.9256 68.9724L44.7791 68.8362C44.6255 69.0015 44.404 69.1353 44.1018 69.2296L44.1614 69.4206ZM44.9256 68.9724L45.0755 69.1048C45.2995 68.8511 45.3946 68.5237 45.3807 68.1452L45.1809 68.1525L44.981 68.1598C44.992 68.4609 44.9168 68.6801 44.7757 68.84L44.9256 68.9724ZM45.1809 68.1525L45.3807 68.1452C45.3681 67.7974 45.2607 67.5 45.0428 67.2736L44.8987 67.4123L44.7546 67.551C44.8903 67.692 44.9711 67.8881 44.981 68.1598L45.1809 68.1525ZM44.8987 67.4123L45.0463 67.2773C44.8351 67.0465 44.5355 66.8906 44.1672 66.7967L44.1178 66.9905L44.0684 67.1843C44.3869 67.2655 44.608 67.3909 44.7511 67.5473L44.8987 67.4123ZM44.1178 66.9905L44.1688 66.7971C43.8093 66.7024 43.3613 66.6679 42.8309 66.6872L42.8382 66.8871L42.8455 67.087C43.3544 67.0684 43.7594 67.1029 44.0668 67.1839L44.1178 66.9905ZM42.8382 66.8871L42.8309 66.6872L41.7516 66.7266L41.7589 66.9265L41.7662 67.1264L42.8455 67.087L42.8382 66.8871ZM41.7589 66.9265L41.9588 66.9192L41.9194 65.8399L41.7195 65.8472L41.5196 65.8545L41.559 66.9338L41.7589 66.9265ZM41.7195 65.8472L41.7268 66.0471L42.5962 66.0154L42.5889 65.8155L42.5816 65.6156L41.7122 65.6473L41.7195 65.8472ZM42.5889 65.8155L42.5962 66.0154C43.3 65.9897 43.8771 65.8772 44.315 65.6656L44.228 65.4855L44.141 65.3054C43.7725 65.4835 43.257 65.591 42.5816 65.6156L42.5889 65.8155ZM44.228 65.4855L44.317 65.6646C44.5504 65.5486 44.7349 65.3919 44.8573 65.1896C44.98 64.987 45.0318 64.7527 45.0224 64.4959L44.8226 64.5032L44.6227 64.5105C44.6297 64.7033 44.5907 64.8576 44.5151 64.9825C44.4394 65.1076 44.3184 65.2172 44.139 65.3064L44.228 65.4855ZM44.8226 64.5032L45.0224 64.4959C45.0061 64.0474 44.7978 63.7035 44.4075 63.4907L44.3117 63.6662L44.2159 63.8418C44.4791 63.9854 44.6114 64.1994 44.6227 64.5105L44.8226 64.5032ZM44.3117 63.6662L44.4099 63.492C44.0469 63.2873 43.5507 63.2087 42.9449 63.2308L42.9522 63.4307L42.9595 63.6305C43.5329 63.6096 43.9431 63.688 44.2135 63.8405L44.3117 63.6662ZM42.9522 63.4307L42.9449 63.2308C42.4921 63.2473 42.0863 63.3085 41.7297 63.4169L41.7879 63.6082L41.8461 63.7996C42.1626 63.7033 42.5329 63.6461 42.9595 63.6305L42.9522 63.4307ZM41.7879 63.6082L41.7337 63.4157C41.3939 63.5113 41.0233 63.6539 40.6224 63.8418L40.7073 64.0229L40.7922 64.204C41.1784 64.023 41.5282 63.8891 41.8421 63.8008L41.7879 63.6082ZM40.7073 64.0229L40.8871 63.9353L40.3841 62.903L40.2043 62.9906L40.0245 63.0782L40.5275 64.1105L40.7073 64.0229ZM40.2043 62.9906L40.2918 63.1704C40.7007 62.9716 41.131 62.8203 41.5829 62.7165L41.5381 62.5216L41.4934 62.3267C41.0125 62.4371 40.5535 62.5984 40.1169 62.8107L40.2043 62.9906ZM41.5381 62.5216L41.5829 62.7165C42.0364 62.6124 42.5069 62.5513 42.9945 62.5335L42.9872 62.3337L42.9799 62.1338C42.4682 62.1525 41.9726 62.2167 41.4934 62.3267L41.5381 62.5216ZM51.5888 62.2108L51.5882 62.4108L51.5888 62.2108ZM53.762 62.8618L53.8974 62.7146L53.8974 62.7146L53.762 62.8618ZM54.4613 64.9188L54.2613 64.9182L54.4613 64.9188ZM54.446 70.3937L54.4455 70.5937L54.6455 70.5943L54.646 70.3943L54.446 70.3937ZM53.486 70.3911L53.2907 70.4342L53.3253 70.5906L53.4855 70.5911L53.486 70.3911ZM53.2342 69.2504L53.4295 69.2073L53.395 69.0508L53.2348 69.0504L53.2342 69.2504ZM53.1742 69.2502L53.1748 69.0502L53.0781 69.0499L53.0179 69.1255L53.1742 69.2502ZM52.4522 69.9832L52.5759 70.1403L52.5767 70.1397L52.4522 69.9832ZM51.611 70.4009L51.5574 70.2082L51.5558 70.2086L51.611 70.4009ZM49.1663 70.274L49.0842 70.4564L49.0859 70.4572L49.1663 70.274ZM48.2685 69.4915L48.0976 69.5954L48.0989 69.5975L48.2685 69.4915ZM48.8924 66.2983L49.0047 66.4638L49.0065 66.4626L48.8924 66.2983ZM51.8044 65.5864L51.8099 65.7863L51.8104 65.7863L51.8044 65.5864ZM53.1695 65.5452L53.1755 65.7451L53.369 65.7392L53.3695 65.5457L53.1695 65.5452ZM53.1709 65.0652L52.9709 65.0646L53.1709 65.0652ZM52.7397 63.669L52.6058 63.8175V63.8175L52.7397 63.669ZM50.3103 63.4672L50.37 63.6581L50.3745 63.6566L50.3103 63.4672ZM49.2441 63.8842L49.0588 63.9595L49.1389 64.1569L49.3309 64.0644L49.2441 63.8842ZM48.8419 62.8931L48.7469 62.7171L48.5891 62.8022L48.6566 62.9683L48.8419 62.8931ZM50.0882 62.4166L50.14 62.6098L50.1437 62.6087L50.0882 62.4166ZM51.9668 66.5018L51.9598 66.302L51.9594 66.302L51.9668 66.5018ZM49.8805 66.976L49.7643 66.8132L49.7623 66.8147L49.8805 66.976ZM49.3072 68.1594L49.1072 68.1589L49.3072 68.1594ZM49.7095 69.1506L49.5862 69.3081L49.589 69.3102L49.7095 69.1506ZM52.4701 68.9182L52.5967 69.0731L52.5987 69.0714L52.4701 68.9182ZM53.15 67.1801L52.95 67.1796L53.15 67.1801ZM53.152 66.4601L53.352 66.4607L53.3525 66.2529L53.1449 66.2602L53.152 66.4601ZM51.5888 62.2108L51.5882 62.4108C52.5442 62.4134 53.21 62.6257 53.6266 63.009L53.762 62.8618L53.8974 62.7146C53.3764 62.2353 52.5933 62.0136 51.5893 62.0108L51.5888 62.2108ZM53.762 62.8618L53.6266 63.009C54.0377 63.3873 54.2638 64.0074 54.2613 64.9182L54.4613 64.9188L54.6613 64.9193C54.664 63.9501 54.4239 63.199 53.8974 62.7146L53.762 62.8618ZM54.4613 64.9188L54.2613 64.9182L54.246 70.3932L54.446 70.3937L54.646 70.3943L54.6613 64.9193L54.4613 64.9188ZM54.446 70.3937L54.4466 70.1937L53.4866 70.1911L53.486 70.3911L53.4855 70.5911L54.4455 70.5937L54.446 70.3937ZM53.486 70.3911L53.6813 70.348L53.4295 69.2073L53.2342 69.2504L53.0389 69.2935L53.2907 70.4342L53.486 70.3911ZM53.2342 69.2504L53.2348 69.0504L53.1748 69.0502L53.1742 69.2502L53.1736 69.4502L53.2336 69.4504L53.2342 69.2504ZM53.1742 69.2502L53.0179 69.1255C52.795 69.4049 52.5648 69.6381 52.3277 69.8267L52.4522 69.9832L52.5767 70.1397C52.8407 69.9297 53.0918 69.6743 53.3306 69.3749L53.1742 69.2502ZM52.4522 69.9832L52.3285 69.826C52.1104 69.9976 51.8544 70.1255 51.5574 70.2082L51.611 70.4009L51.6646 70.5935C52.0081 70.4979 52.3128 70.3474 52.5759 70.1403L52.4522 69.9832ZM51.611 70.4009L51.5558 70.2086C51.2692 70.291 50.9091 70.3339 50.4712 70.3327L50.4706 70.5327L50.4701 70.7327C50.9321 70.734 51.3323 70.689 51.6662 70.5931L51.611 70.4009ZM50.4706 70.5327L50.4712 70.3327C50.0152 70.3314 49.6081 70.2496 49.2468 70.0909L49.1663 70.274L49.0859 70.4572C49.5037 70.6406 49.9661 70.7313 50.4701 70.7327L50.4706 70.5327ZM49.1663 70.274L49.2485 70.0917C48.9048 69.9368 48.6361 69.7024 48.4381 69.3856L48.2685 69.4915L48.0989 69.5975C48.339 69.9819 48.6688 70.2692 49.0842 70.4564L49.1663 70.274ZM48.2685 69.4915L48.4395 69.3877C48.2442 69.0663 48.1408 68.6545 48.1423 68.1412L47.9423 68.1406L47.7423 68.1401C47.7407 68.7067 47.8548 69.1956 48.0976 69.5954L48.2685 69.4915ZM47.9423 68.1406L48.1423 68.1412C48.1443 67.4035 48.4313 66.8528 49.0047 66.4638L48.8924 66.2983L48.7801 66.1328C48.0911 66.6002 47.7447 67.2778 47.7423 68.1401L47.9423 68.1406ZM48.8924 66.2983L49.0065 66.4626C49.5903 66.0572 50.5144 65.8222 51.8099 65.7863L51.8044 65.5864L51.7988 65.3864C50.4742 65.4232 49.4569 65.6629 48.7783 66.134L48.8924 66.2983ZM51.8044 65.5864L51.8104 65.7863L53.1755 65.7451L53.1695 65.5452L53.1635 65.3453L51.7984 65.3865L51.8044 65.5864ZM53.1695 65.5452L53.3695 65.5457L53.3709 65.0657L53.1709 65.0652L52.9709 65.0646L52.9695 65.5446L53.1695 65.5452ZM53.1709 65.0652L53.3709 65.0657C53.3728 64.3777 53.2272 63.8392 52.8737 63.5204L52.7397 63.669L52.6058 63.8175C52.8308 64.0203 52.9727 64.4126 52.9709 65.0646L53.1709 65.0652ZM52.7397 63.669L52.8737 63.5204C52.5364 63.2163 52.0727 63.0771 51.5114 63.0755L51.5108 63.2755L51.5103 63.4755C52.0089 63.4769 52.3646 63.6 52.6058 63.8175L52.7397 63.669ZM51.5108 63.2755L51.5114 63.0755C51.0704 63.0743 50.6482 63.1415 50.2461 63.2778L50.3103 63.4672L50.3745 63.6566C50.7331 63.5351 51.1113 63.4744 51.5103 63.4755L51.5108 63.2755ZM50.3103 63.4672L50.2506 63.2763C49.8618 63.3979 49.4973 63.5404 49.1574 63.704L49.2441 63.8842L49.3309 64.0644C49.6519 63.9099 49.9981 63.7744 50.37 63.6581L50.3103 63.4672ZM49.2441 63.8842L49.4294 63.809L49.0272 62.8179L48.8419 62.8931L48.6566 62.9683L49.0588 63.9595L49.2441 63.8842ZM48.8419 62.8931L48.9368 63.0692C49.2708 62.8891 49.6711 62.7354 50.14 62.6098L50.0882 62.4166L50.0365 62.2234C49.5446 62.3551 49.114 62.5191 48.7469 62.7171L48.8419 62.8931ZM50.0882 62.4166L50.1437 62.6087C50.6051 62.4755 51.0864 62.4094 51.5882 62.4108L51.5888 62.2108L51.5893 62.0108C51.0512 62.0093 50.5321 62.0803 50.0327 62.2244L50.0882 62.4166ZM51.9668 66.5018L51.9594 66.302C50.9545 66.3394 50.2065 66.4976 49.7643 66.8132L49.8805 66.976L49.9967 67.1388C50.336 66.8966 50.979 66.7387 51.9743 66.7017L51.9668 66.5018ZM49.8805 66.976L49.7623 66.8147C49.3257 67.1346 49.1088 67.5913 49.1072 68.1589L49.3072 68.1594L49.5072 68.16C49.5085 67.7076 49.6738 67.3754 49.9987 67.1374L49.8805 66.976ZM49.3072 68.1594L49.1072 68.1589C49.1059 68.6495 49.2537 69.048 49.5862 69.3081L49.7095 69.1506L49.8327 68.993C49.6264 68.8316 49.5061 68.5694 49.5072 68.16L49.3072 68.1594ZM49.7095 69.1506L49.589 69.3102C49.9103 69.5525 50.3099 69.6672 50.773 69.6685L50.7736 69.4685L50.7741 69.2685C50.3773 69.2674 50.0675 69.1701 49.8299 68.9909L49.7095 69.1506ZM50.7736 69.4685L50.773 69.6685C51.4912 69.6705 52.104 69.4759 52.5967 69.0731L52.4701 68.9182L52.3435 68.7634C51.9342 69.0981 51.4159 69.2703 50.7741 69.2685L50.7736 69.4685ZM52.4701 68.9182L52.5987 69.0714C53.1084 68.6434 53.3477 67.9992 53.35 67.1807L53.15 67.1801L52.95 67.1796C52.9479 67.921 52.7339 68.4356 52.3415 68.7651L52.4701 68.9182ZM53.15 67.1801L53.35 67.1807L53.352 66.4607L53.152 66.4601L52.952 66.4596L52.95 67.1796L53.15 67.1801ZM53.152 66.4601L53.1449 66.2602L51.9598 66.302L51.9668 66.5018L51.9739 66.7017L53.159 66.66L53.152 66.4601ZM57.1382 62.6312L56.9483 62.5686L56.9478 62.5702L57.1382 62.6312ZM58.3049 60.6925L58.1687 60.546L58.1687 60.546L58.3049 60.6925ZM60.2603 59.7584L60.2254 59.5615L60.2249 59.5615L60.2603 59.7584ZM62.1778 59.4533L62.15 59.2552V59.2552L62.1778 59.4533ZM63.9276 59.2171L64.1251 59.186L64.0949 58.9937L63.9019 59.0187L63.9276 59.2171ZM64.1102 60.3795L64.1334 60.5782L64.3401 60.5541L64.3078 60.3485L64.1102 60.3795ZM63.2353 60.4976L63.2589 60.6963L63.2649 60.6954L63.2353 60.4976ZM62.2549 60.6269L62.2776 60.8257L62.2835 60.8248L62.2549 60.6269ZM61.2895 60.7567L61.3152 60.9551L61.3203 60.9543L61.2895 60.7567ZM60.4896 60.8775L60.5239 61.0745L60.5249 61.0744L60.4896 60.8775ZM59.592 61.2049L59.6906 61.379L59.6953 61.3762L59.592 61.2049ZM58.8933 61.8398L58.732 61.7215L58.7292 61.7256L58.8933 61.8398ZM58.4208 62.8582L58.6119 62.9171V62.9171L58.4208 62.8582ZM58.1727 64.3051L57.9733 64.2907L57.9583 64.4974L58.1654 64.505L58.1727 64.3051ZM58.2627 64.3084L58.2554 64.5083L58.3564 64.512L58.4193 64.4328L58.2627 64.3084ZM58.8537 63.7446L58.7345 63.584L58.7314 63.5864L58.8537 63.7446ZM59.7567 63.2673L59.6893 63.079L59.6874 63.0797L59.7567 63.2673ZM60.9486 63.1008L60.9413 63.3006L60.9486 63.1008ZM62.6705 63.6291L62.5527 63.7908L62.5568 63.7936L62.6705 63.6291ZM63.6737 64.9266L63.4869 64.9982L63.4881 65.0011L63.6737 64.9266ZM63.418 69.045L63.2438 68.9468L63.2438 68.9468L63.418 69.045ZM62.0795 70.3469L62.1663 70.5272L62.1688 70.5259L62.0795 70.3469ZM58.6574 70.3419L58.5631 70.5182L58.5663 70.5199L58.6574 70.3419ZM56.8608 67.7545L56.6661 67.8003V67.8003L56.8608 67.7545ZM61.439 69.3929L61.3497 69.2139L61.3474 69.2151L61.439 69.3929ZM62.2358 68.5364L62.4159 68.6235V68.6235L62.2358 68.5364ZM62.5654 66.9124L62.3655 66.9051V66.9051L62.5654 66.9124ZM62.1714 64.9617L61.998 65.0615L62.0006 65.0656L62.1714 64.9617ZM60.6987 64.1874L60.6914 64.3872L60.6987 64.1874ZM59.4886 64.4433L59.5754 64.6235L59.5793 64.6216L59.4886 64.4433ZM58.0324 65.6809L57.8638 65.5733L57.8345 65.6192L57.8325 65.6736L58.0324 65.6809ZM58.0852 67.1088L58.2839 67.0859V67.0859L58.0852 67.1088ZM58.3995 68.3661L58.2147 68.443L58.2174 68.449L58.3995 68.3661ZM59.1022 69.2624L58.9805 69.4213L58.9864 69.4255L59.1022 69.2624ZM56.6844 65.6016L56.8842 65.6089C56.9266 64.4516 57.0761 63.4807 57.3287 62.6922L57.1382 62.6312L56.9478 62.5702C56.6807 63.4037 56.5277 64.4131 56.4845 65.5943L56.6844 65.6016ZM57.1382 62.6312L57.3282 62.6937C57.5904 61.8973 57.9636 61.2828 58.441 60.839L58.3049 60.6925L58.1687 60.546C57.631 61.0458 57.2264 61.7237 56.9483 62.5686L57.1382 62.6312ZM58.3049 60.6925L58.441 60.839C58.9274 60.387 59.5428 60.0907 60.2957 59.9552L60.2603 59.7584L60.2249 59.5615C59.4065 59.7088 58.7182 60.0353 58.1687 60.546L58.3049 60.6925ZM60.2603 59.7584L60.2953 59.9553C60.9477 59.8396 61.5844 59.7382 62.2055 59.6513L62.1778 59.4533L62.15 59.2552C61.5239 59.3428 60.8823 59.4449 60.2254 59.5615L60.2603 59.7584ZM62.1778 59.4533L62.2055 59.6513C62.8285 59.5641 63.4111 59.4855 63.9532 59.4154L63.9276 59.2171L63.9019 59.0187C63.3582 59.089 62.7742 59.1678 62.15 59.2552L62.1778 59.4533ZM63.9276 59.2171L63.73 59.2481L63.9126 60.4105L64.1102 60.3795L64.3078 60.3485L64.1251 59.186L63.9276 59.2171ZM64.1102 60.3795L64.087 60.1809C63.8231 60.2116 63.5293 60.2513 63.2056 60.2998L63.2353 60.4976L63.2649 60.6954C63.5852 60.6474 63.8747 60.6083 64.1334 60.5782L64.1102 60.3795ZM63.2353 60.4976L63.2117 60.299C62.8883 60.3375 62.5599 60.3808 62.2264 60.4289L62.2549 60.6269L62.2835 60.8248C62.6139 60.7771 62.939 60.7343 63.2589 60.6962L63.2353 60.4976ZM62.2549 60.6269L62.2322 60.4282C61.898 60.4663 61.5735 60.51 61.2587 60.559L61.2895 60.7567L61.3203 60.9543C61.6295 60.9061 61.9486 60.8632 62.2776 60.8256L62.2549 60.6269ZM61.2895 60.7567L61.2639 60.5583C60.9599 60.5976 60.6899 60.6384 60.4543 60.6806L60.4896 60.8775L60.5249 61.0744C60.7526 61.0335 61.0159 60.9937 61.3152 60.955L61.2895 60.7567ZM60.4896 60.8775L60.4553 60.6805C60.1006 60.7422 59.7777 60.8594 59.4887 61.0336L59.592 61.2049L59.6953 61.3762C59.9384 61.2296 60.2138 61.1285 60.5239 61.0745L60.4896 60.8775ZM59.592 61.2049L59.4935 61.0309C59.2006 61.1966 58.9471 61.4283 58.7321 61.7215L58.8933 61.8398L59.0546 61.9581C59.2398 61.7055 59.452 61.514 59.6905 61.379L59.592 61.2049ZM58.8933 61.8398L58.7292 61.7256C58.5245 62.0197 58.3591 62.3791 58.2297 62.7994L58.4208 62.8582L58.6119 62.9171C58.7324 62.5259 58.8819 62.2064 59.0575 61.954L58.8933 61.8398ZM58.4208 62.8582L58.2297 62.7994C58.0991 63.2233 58.0145 63.7212 57.9733 64.2907L58.1727 64.3051L58.3722 64.3196C58.4119 63.7712 58.4926 63.3046 58.6119 62.9171L58.4208 62.8582ZM58.1727 64.3051L58.1654 64.505L58.2554 64.5083L58.2627 64.3084L58.27 64.1085L58.1801 64.1052L58.1727 64.3051ZM58.2627 64.3084L58.4193 64.4328C58.5535 64.264 58.7378 64.0871 58.976 63.9028L58.8537 63.7446L58.7314 63.5864C58.4753 63.7844 58.2656 63.9833 58.1061 64.184L58.2627 64.3084ZM58.8537 63.7446L58.9728 63.9053C59.2127 63.7274 59.4964 63.5768 59.8261 63.4549L59.7567 63.2673L59.6874 63.0797C59.3273 63.2128 59.009 63.3804 58.7345 63.584L58.8537 63.7446ZM59.7567 63.2673L59.8242 63.4556C60.1515 63.3384 60.5228 63.2853 60.9413 63.3006L60.9486 63.1008L60.9559 62.9009C60.495 62.884 60.0718 62.942 59.6893 63.079L59.7567 63.2673ZM60.9486 63.1008L60.9413 63.3006C61.6115 63.3251 62.144 63.493 62.5527 63.7907L62.6705 63.6291L62.7882 63.4674C62.3002 63.1119 61.6848 62.9276 60.9559 62.9009L60.9486 63.1008ZM62.6705 63.6291L62.5568 63.7936C62.9805 64.0864 63.2905 64.4857 63.487 64.9982L63.6737 64.9266L63.8605 64.855C63.6367 64.2714 63.2778 63.8056 62.7842 63.4645L62.6705 63.6291ZM63.6737 64.9266L63.4881 65.0011C63.6958 65.5185 63.79 66.1236 63.7645 66.8212L63.9644 66.8285L64.1643 66.8358C64.1914 66.0943 64.0919 65.4315 63.8593 64.8521L63.6737 64.9266ZM63.9644 66.8285L63.7645 66.8212C63.7328 67.6884 63.5556 68.3937 63.2438 68.9468L63.418 69.045L63.5922 69.1432C63.9438 68.5197 64.1309 67.7474 64.1643 66.8358L63.9644 66.8285ZM63.418 69.045L63.2438 68.9468C62.9301 69.5031 62.5123 69.9075 61.9902 70.168L62.0795 70.3469L62.1688 70.5259C62.768 70.227 63.2425 69.7634 63.5922 69.1432L63.418 69.045ZM62.0795 70.3469L61.9928 70.1667C61.4665 70.4201 60.8549 70.5373 60.1522 70.5116L60.1449 70.7115L60.1376 70.9113C60.8939 70.939 61.5721 70.8132 62.1663 70.5271L62.0795 70.3469ZM60.1449 70.7115L60.1522 70.5116C59.6286 70.4925 59.1619 70.3755 58.7486 70.1638L58.6574 70.3419L58.5663 70.5199C59.037 70.7609 59.5619 70.8903 60.1376 70.9113L60.1449 70.7115ZM58.6574 70.3419L58.7518 70.1655C58.3391 69.9447 57.9892 69.6324 57.7017 69.225L57.5383 69.3403L57.3749 69.4556C57.6963 69.911 58.0925 70.2664 58.5631 70.5182L58.6574 70.3419ZM57.5383 69.3403L57.7017 69.225C57.4149 68.8185 57.1981 68.3148 57.0555 67.7087L56.8608 67.7545L56.6661 67.8003C56.818 68.4457 57.0528 68.9992 57.3749 69.4556L57.5383 69.3403ZM56.8608 67.7545L57.0555 67.7087C56.9132 67.1041 56.8551 66.4049 56.8842 65.6089L56.6844 65.6016L56.4845 65.5943C56.4544 66.4172 56.5139 67.1533 56.6661 67.8003L56.8608 67.7545ZM60.2899 69.621L60.2826 69.8209C60.7498 69.838 61.1682 69.7574 61.5306 69.5707L61.439 69.3929L61.3474 69.2151C61.0571 69.3647 60.7094 69.4363 60.2972 69.4212L60.2899 69.621ZM61.439 69.3929L61.5283 69.5719C61.9114 69.3807 62.2056 69.0586 62.4159 68.6235L62.2358 68.5364L62.0557 68.4494C61.8763 68.8206 61.6393 69.0694 61.3497 69.2139L61.439 69.3929ZM62.2358 68.5364L62.4159 68.6235C62.6274 68.1859 62.7399 67.614 62.7653 66.9197L62.5654 66.9124L62.3655 66.9051C62.3412 67.5699 62.234 68.0807 62.0557 68.4494L62.2358 68.5364ZM62.5654 66.9124L62.7653 66.9197C62.796 66.0781 62.6626 65.3842 62.3423 64.8578L62.1714 64.9617L62.0006 65.0656C62.2655 65.5012 62.3947 66.1078 62.3655 66.9051L62.5654 66.9124ZM62.1714 64.9617L62.3448 64.862C62.0197 64.2969 61.4557 64.0149 60.706 63.9875L60.6987 64.1874L60.6914 64.3872C61.3408 64.411 61.7586 64.6452 61.9981 65.0614L62.1714 64.9617ZM60.6987 64.1874L60.706 63.9875C60.2348 63.9703 59.7973 64.0619 59.3979 64.265L59.4886 64.4433L59.5793 64.6216C59.914 64.4513 60.2833 64.3723 60.6914 64.3872L60.6987 64.1874ZM59.4886 64.4433L59.4018 64.2631C59.0191 64.4475 58.6927 64.668 58.4259 64.9263L58.5651 65.07L58.7042 65.2137C58.9354 64.9898 59.2247 64.7925 59.5754 64.6235L59.4886 64.4433ZM58.5651 65.07L58.4259 64.9263C58.1728 65.1713 57.9823 65.3876 57.8638 65.5733L58.0324 65.6809L58.2009 65.7885C58.2947 65.6417 58.4593 65.4507 58.7042 65.2137L58.5651 65.07ZM58.0324 65.6809L57.8325 65.6736C57.8142 66.1728 57.8322 66.6589 57.8865 67.1316L58.0852 67.1088L58.2839 67.0859C58.232 66.6342 58.2147 66.1683 58.2322 65.6882L58.0324 65.6809ZM58.0852 67.1088L57.8865 67.1316C57.9415 67.6098 58.0503 68.0475 58.2148 68.4429L58.3995 68.3661L58.5841 68.2893C58.4359 67.9328 58.3352 67.5322 58.2839 67.0859L58.0852 67.1088ZM58.3995 68.3661L58.2174 68.449C58.3969 68.8434 58.6512 69.1688 58.9805 69.4212L59.1022 69.2624L59.2238 69.1036C58.9497 68.8936 58.7355 68.6215 58.5815 68.2833L58.3995 68.3661ZM59.1022 69.2624L58.9864 69.4255C59.3375 69.6747 59.7738 69.8023 60.2826 69.8209L60.2899 69.621L60.2972 69.4212C59.8466 69.4047 59.4911 69.2932 59.2179 69.0993L59.1022 69.2624ZM72.5796 64.0952L72.4201 64.2159L72.4211 64.2172L72.5796 64.0952ZM72.7046 69.5463L72.5278 69.4528L72.5271 69.4541L72.7046 69.5463ZM71.4565 70.8746L71.5517 71.0504L71.5526 71.0499L71.4565 70.8746ZM68.6077 70.9813L68.53 71.1656V71.1656L68.6077 70.9813ZM67.8131 70.5062L67.6761 70.6522L67.6836 70.6586L67.8131 70.5062ZM67.2842 69.8839L67.4511 69.7738L67.3966 69.6911L67.2977 69.6843L67.2842 69.8839ZM67.1944 69.8778L67.208 69.6782L66.9836 69.6629L66.9946 69.8876L67.1944 69.8778ZM67.2104 70.5253L67.0104 70.5271L67.0104 70.5271L67.2104 70.5253ZM67.1945 71.2008L66.995 71.1872L67.1945 71.2008ZM66.9704 74.4932L66.9568 74.6927L67.1563 74.7063L67.1699 74.5068L66.9704 74.4932ZM65.6534 74.4036L65.4539 74.39L65.4403 74.5895L65.6398 74.6031L65.6534 74.4036ZM66.444 62.7904L66.4576 62.5909L66.2581 62.5773L66.2445 62.7768L66.444 62.7904ZM67.5215 62.8638L67.7206 62.8448L67.7045 62.6758L67.5351 62.6642L67.5215 62.8638ZM67.6267 63.9685L67.4276 63.9874L67.4437 64.1565L67.6131 64.168L67.6267 63.9685ZM67.6866 63.9726L67.673 64.1721L67.7773 64.1792L67.8426 64.0977L67.6866 63.9726ZM68.2981 63.3827L68.1814 63.2202L68.1779 63.2228L68.2981 63.3827ZM69.1368 62.9888L69.0847 62.7957L69.0828 62.7962L69.1368 62.9888ZM69.9555 63.9917L69.9419 64.1912L69.9555 63.9917ZM68.6321 64.2173L68.724 64.3951L68.7278 64.393L68.6321 64.2173ZM67.5063 66.6214L67.3069 66.6047L67.3067 66.6078L67.5063 66.6214ZM67.4889 66.8758L67.6885 66.8894L67.4889 66.8758ZM67.5844 68.5662L67.3895 68.6113V68.6113L67.5844 68.5662ZM68.2164 69.6617L68.088 69.8151L68.0902 69.8169L68.2164 69.6617ZM70.7935 69.792L70.6752 69.6307L70.6727 69.6326L70.7935 69.792ZM71.5712 68.7474L71.3867 68.6703L71.3858 68.6727L71.5712 68.7474ZM71.5307 64.9259L71.3551 65.0215L71.3563 65.0238L71.5307 64.9259ZM70.2704 62.9006L70.2568 63.1001C71.1921 63.1638 71.9064 63.537 72.4201 64.2159L72.5796 64.0952L72.739 63.9745C72.1492 63.195 71.324 62.7718 70.284 62.701L70.2704 62.9006ZM72.5796 64.0952L72.4211 64.2172C72.9411 64.8928 73.1737 65.8944 73.081 67.2565L73.2805 67.2701L73.4801 67.2837C73.5762 65.8722 73.3415 64.7573 72.7381 63.9732L72.5796 64.0952ZM73.2805 67.2701L73.081 67.2565C73.0205 68.145 72.8334 68.8746 72.5278 69.4528L72.7046 69.5463L72.8814 69.6397C73.2201 68.9989 73.4169 68.211 73.4801 67.2837L73.2805 67.2701ZM72.7046 69.5463L72.5271 69.4541C72.2313 70.0242 71.8415 70.4355 71.3604 70.6992L71.4565 70.8746L71.5526 71.0499C72.1127 70.743 72.555 70.2688 72.8821 69.6384L72.7046 69.5463ZM71.4565 70.8746L71.3613 70.6987C70.8896 70.954 70.3392 71.0641 69.7025 71.0208L69.6889 71.2203L69.6754 71.4198C70.3756 71.4675 71.0036 71.3471 71.5517 71.0504L71.4565 70.8746ZM69.6889 71.2203L69.7025 71.0208C69.311 70.9941 68.973 70.9183 68.6854 70.797L68.6077 70.9813L68.53 71.1656C68.8659 71.3073 69.2488 71.3908 69.6754 71.4198L69.6889 71.2203ZM68.6077 70.9813L68.6854 70.797C68.3891 70.6721 68.1425 70.5237 67.9426 70.3538L67.8131 70.5062L67.6836 70.6586C67.9196 70.8592 68.2027 71.0276 68.53 71.1656L68.6077 70.9813ZM67.8131 70.5062L67.95 70.3604C67.7532 70.1758 67.5873 69.9801 67.4511 69.7738L67.2842 69.8839L67.1172 69.994C67.2718 70.2284 67.4585 70.4477 67.6762 70.6521L67.8131 70.5062ZM67.2842 69.8839L67.2977 69.6843L67.208 69.6782L67.1944 69.8778L67.1808 70.0773L67.2706 70.0834L67.2842 69.8839ZM67.1944 69.8778L66.9946 69.8876C67.0028 70.0549 67.0081 70.2678 67.0104 70.5271L67.2104 70.5253L67.4104 70.5236C67.4081 70.2614 67.4027 70.0426 67.3941 69.8679L67.1944 69.8778ZM67.2104 70.5253L67.0104 70.5271C67.0127 70.7845 67.0074 71.0043 66.995 71.1872L67.1945 71.2008L67.394 71.2144C67.4074 71.0183 67.4127 70.7877 67.4104 70.5236L67.2104 70.5253ZM67.1945 71.2008L66.995 71.1872L66.7708 74.4796L66.9704 74.4932L67.1699 74.5068L67.394 71.2144L67.1945 71.2008ZM66.9704 74.4932L66.984 74.2937L65.667 74.204L65.6534 74.4036L65.6398 74.6031L66.9568 74.6927L66.9704 74.4932ZM65.6534 74.4036L65.853 74.4171L66.6436 62.804L66.444 62.7904L66.2445 62.7768L65.4539 74.39L65.6534 74.4036ZM66.444 62.7904L66.4304 62.99L67.5079 63.0633L67.5215 62.8638L67.5351 62.6642L66.4576 62.5909L66.444 62.7904ZM67.5215 62.8638L67.3224 62.8827L67.4276 63.9874L67.6267 63.9685L67.8258 63.9495L67.7206 62.8448L67.5215 62.8638ZM67.6267 63.9685L67.6131 64.168L67.673 64.1721L67.6866 63.9726L67.7002 63.773L67.6403 63.7689L67.6267 63.9685ZM67.6866 63.9726L67.8426 64.0977C68.007 63.8926 68.1987 63.7076 68.4182 63.5426L68.2981 63.3827L68.1779 63.2228C67.9327 63.4071 67.7167 63.6153 67.5305 63.8475L67.6866 63.9726ZM68.2981 63.3827L68.4147 63.5452C68.6362 63.3862 68.8941 63.2644 69.1907 63.1814L69.1368 62.9888L69.0828 62.7962C68.7459 62.8905 68.4447 63.0314 68.1815 63.2202L68.2981 63.3827ZM69.1368 62.9888L69.1888 63.1819C69.4893 63.101 69.8442 63.072 70.2568 63.1001L70.2704 62.9006L70.284 62.701C69.8386 62.6707 69.4377 62.7006 69.0847 62.7957L69.1368 62.9888ZM69.9555 63.9917L69.9691 63.7922C69.4063 63.7539 68.9238 63.8307 68.5365 64.0417L68.6321 64.2173L68.7278 64.393C69.0275 64.2298 69.4272 64.1562 69.9419 64.1912L69.9555 63.9917ZM68.6321 64.2173L68.5403 64.0397C68.1519 64.2404 67.8624 64.5654 67.6689 65L67.8517 65.0813L68.0344 65.1626C68.196 64.7995 68.4268 64.5486 68.724 64.395L68.6321 64.2173ZM67.8517 65.0813L67.6689 65C67.4793 65.4262 67.3608 65.9635 67.307 66.6047L67.5063 66.6214L67.7056 66.6382C67.7572 66.0236 67.869 65.5342 68.0344 65.1626L67.8517 65.0813ZM67.5063 66.6214L67.3067 66.6078L67.2894 66.8623L67.4889 66.8758L67.6885 66.8894L67.7058 66.635L67.5063 66.6214ZM67.4889 66.8758L67.2894 66.8623C67.2437 67.5336 67.2753 68.118 67.3895 68.6113L67.5844 68.5662L67.7792 68.5211C67.6765 68.0776 67.6445 67.535 67.6885 66.8894L67.4889 66.8758ZM67.5844 68.5662L67.3895 68.6113C67.5059 69.1143 67.7361 69.5206 68.0881 69.8151L68.2164 69.6617L68.3448 69.5083C68.0708 69.2791 67.8796 68.955 67.7792 68.5211L67.5844 68.5662ZM68.2164 69.6617L68.0902 69.8169C68.4556 70.1139 68.9511 70.273 69.5552 70.3141L69.5688 70.1146L69.5824 69.915C69.0292 69.8774 68.6231 69.7345 68.3426 69.5065L68.2164 69.6617ZM69.5688 70.1146L69.5552 70.3141C70.0825 70.35 70.5411 70.2343 70.9143 69.9514L70.7935 69.792L70.6727 69.6326C70.3907 69.8464 70.0328 69.9457 69.5824 69.915L69.5688 70.1146ZM70.7935 69.792L70.9118 69.9533C71.2838 69.6804 71.5641 69.3 71.7567 68.8222L71.5712 68.7474L71.3858 68.6727C71.2166 69.0924 70.9784 69.4084 70.6752 69.6308L70.7935 69.792ZM71.5712 68.7474L71.7558 68.8246C71.9573 68.3426 72.0773 67.7921 72.1192 67.176L71.9197 67.1624L71.7202 67.1489C71.6806 67.73 71.5683 68.2362 71.3867 68.6703L71.5712 68.7474ZM71.9197 67.1624L72.1192 67.176C72.1834 66.2342 72.0522 65.4461 71.7051 64.8279L71.5307 64.9259L71.3563 65.0238C71.6529 65.552 71.781 66.2549 71.7202 67.1489L71.9197 67.1624ZM71.5307 64.9259L71.7064 64.8302C71.3569 64.1887 70.7648 63.8463 69.9691 63.7922L69.9555 63.9917L69.9419 64.1912C70.6229 64.2376 71.0808 64.5181 71.3551 65.0215L71.5307 64.9259ZM82.0338 70.0412L81.8536 69.9544L81.8526 69.9565L82.0338 70.0412ZM81.138 71.2508L81.0071 71.0995L81.0049 71.1015L81.138 71.2508ZM79.8656 71.9333L79.9164 72.1267L79.9186 72.1261L79.8656 71.9333ZM76.8708 71.5848L76.7722 71.7588L76.7755 71.7607L76.8708 71.5848ZM75.804 70.6301L75.6419 70.7473V70.7473L75.804 70.6301ZM75.18 69.2437L74.9847 69.2868L74.9858 69.2914L75.18 69.2437ZM75.8252 65.2565L75.9933 65.3649L75.994 65.3639L75.8252 65.2565ZM77.2696 64.0051L77.3481 64.1891L77.3505 64.188L77.2696 64.0051ZM79.3084 63.744L79.2853 63.9427L79.3084 63.744ZM81.1583 64.4576L81.0363 64.6161L81.0397 64.6186L81.1583 64.4576ZM82.2916 66.009L82.1035 66.0772L82.1049 66.0808L82.2916 66.009ZM76.5217 69.2639L76.3261 69.306L76.3273 69.3111L76.5217 69.2639ZM77.1734 70.4119L77.3076 70.2637V70.2637L77.1734 70.4119ZM79.8255 70.7205L79.7288 70.5454L79.7288 70.5454L79.8255 70.7205ZM80.7084 69.7511L80.5295 69.6618L80.5284 69.664L80.7084 69.7511ZM81.0882 66.4881L81.2822 66.4395V66.4395L81.0882 66.4881ZM80.433 65.3699L80.2966 65.5163L80.3016 65.5207L80.433 65.3699ZM79.1503 64.8431L79.1272 65.0418L79.1503 64.8431ZM77.2836 65.4413L77.4345 65.5727V65.5727L77.2836 65.4413ZM82.5083 68.2994L82.3096 68.2763C82.2342 68.9243 82.081 69.4826 81.8536 69.9544L82.0338 70.0412L82.214 70.1281C82.4644 69.6085 82.6275 69.0055 82.707 68.3225L82.5083 68.2994ZM82.0338 70.0412L81.8526 69.9565C81.6355 70.4205 81.3532 70.8002 81.0072 71.0995L81.138 71.2508L81.2688 71.4021C81.6615 71.0625 81.9764 70.6358 82.2149 70.126L82.0338 70.0412ZM81.138 71.2508L81.0049 71.1015C80.6696 71.4006 80.2732 71.6138 79.8125 71.7405L79.8656 71.9333L79.9186 72.1261C80.4355 71.984 80.8874 71.7422 81.2711 71.4001L81.138 71.2508ZM79.8656 71.9333L79.8147 71.7399C79.3645 71.8583 78.868 71.8877 78.3228 71.8242L78.2997 72.0229L78.2766 72.2216C78.8638 72.2899 79.4112 72.2596 79.9164 72.1267L79.8656 71.9333ZM78.2997 72.0229L78.3228 71.8242C77.8193 71.7656 77.3678 71.6265 76.966 71.4089L76.8708 71.5848L76.7755 71.7607C77.2261 72.0047 77.7272 72.1576 78.2766 72.2216L78.2997 72.0229ZM76.8708 71.5848L76.9693 71.4108C76.5693 71.1842 76.2354 70.8853 75.966 70.5129L75.804 70.6301L75.6419 70.7473C75.9449 71.1663 76.3222 71.5039 76.7722 71.7588L76.8708 71.5848ZM75.804 70.6301L75.966 70.5129C75.6966 70.1403 75.4986 69.7024 75.3743 69.196L75.18 69.2437L74.9858 69.2914C75.121 69.8421 75.339 70.3284 75.6419 70.7473L75.804 70.6301ZM75.18 69.2437L75.3753 69.2005C75.2624 68.6891 75.2414 68.1106 75.3168 67.4625L75.1182 67.4394L74.9195 67.4163C74.84 68.0993 74.8603 68.7236 74.9847 69.2868L75.18 69.2437ZM75.1182 67.4394L75.3168 67.4625C75.4172 66.5999 75.6457 65.9038 75.9933 65.3649L75.8252 65.2565L75.6572 65.1481C75.2678 65.7517 75.0249 66.5109 74.9195 67.4163L75.1182 67.4394ZM75.8252 65.2565L75.994 65.3639C76.3435 64.8143 76.7945 64.4252 77.3481 64.189L77.2696 64.0051L77.1911 63.8211C76.5581 64.0912 76.0463 64.5364 75.6565 65.1492L75.8252 65.2565ZM77.2696 64.0051L77.3505 64.188C77.9067 63.9418 78.5493 63.857 79.2853 63.9427L79.3084 63.744L79.3315 63.5453C78.5378 63.453 77.8213 63.5422 77.1886 63.8222L77.2696 64.0051ZM79.3084 63.744L79.2853 63.9427C79.9795 64.0234 80.5606 64.2498 81.0363 64.6161L81.1583 64.4576L81.2804 64.2992C80.7397 63.8828 80.0876 63.6333 79.3315 63.5453L79.3084 63.744ZM81.1583 64.4576L81.0397 64.6186C81.5248 64.976 81.8797 65.4597 82.1036 66.0772L82.2916 66.009L82.4796 65.9408C82.231 65.255 81.8304 64.7044 81.277 64.2966L81.1583 64.4576ZM82.2916 66.009L82.1049 66.0808C82.3378 66.686 82.4098 67.4153 82.3096 68.2763L82.5083 68.2994L82.707 68.3225C82.8125 67.4155 82.7401 66.6178 82.4783 65.9372L82.2916 66.009ZM76.474 67.5972L76.2754 67.5741C76.2007 68.2161 76.2159 68.7944 76.3262 69.306L76.5217 69.2639L76.7172 69.2218C76.6183 68.7627 76.6018 68.2299 76.6727 67.6203L76.474 67.5972ZM76.5217 69.2639L76.3273 69.3111C76.4511 69.8209 76.6866 70.2408 77.0391 70.5601L77.1734 70.4119L77.3076 70.2637C77.0226 70.0055 76.8237 69.66 76.7161 69.2167L76.5217 69.2639ZM77.1734 70.4119L77.0391 70.5601C77.3958 70.8833 77.8658 71.0714 78.433 71.1374L78.4561 70.9387L78.4792 70.74C77.9736 70.6812 77.5884 70.5181 77.3076 70.2637L77.1734 70.4119ZM78.4561 70.9387L78.433 71.1374C79.0001 71.2034 79.5007 71.1283 79.9221 70.8956L79.8255 70.7205L79.7288 70.5454C79.3971 70.7285 78.9848 70.7989 78.4792 70.74L78.4561 70.9387ZM79.8255 70.7205L79.9221 70.8956C80.3396 70.6652 80.6608 70.3087 80.8885 69.8382L80.7084 69.7511L80.5284 69.664C80.3318 70.0703 80.0645 70.3602 79.7288 70.5454L79.8255 70.7205ZM80.7084 69.7511L80.8874 69.8404C81.1232 69.3678 81.2763 68.8078 81.3511 68.1647L81.1525 68.1416L80.9538 68.1185C80.883 68.727 80.74 69.24 80.5295 69.6618L80.7084 69.7511ZM81.1525 68.1416L81.3511 68.1647C81.427 67.5125 81.4065 66.9359 81.2822 66.4395L81.0882 66.4881L80.8941 66.5367C81.0035 66.9736 81.0258 67.4993 80.9538 68.1185L81.1525 68.1416ZM81.0882 66.4881L81.2822 66.4395C81.1568 65.9387 80.9192 65.5283 80.5644 65.2191L80.433 65.3699L80.3016 65.5207C80.5867 65.7691 80.7859 66.1042 80.8941 66.5367L81.0882 66.4881ZM80.433 65.3699L80.5693 65.2235C80.221 64.8992 79.7493 64.7114 79.1734 64.6444L79.1503 64.8431L79.1272 65.0418C79.644 65.1019 80.0274 65.2654 80.2967 65.5162L80.433 65.3699ZM79.1503 64.8431L79.1734 64.6444C78.3121 64.5442 77.6171 64.754 77.1328 65.31L77.2836 65.4413L77.4345 65.5727C77.81 65.1415 78.3596 64.9524 79.1272 65.0418L79.1503 64.8431ZM77.2836 65.4413L77.1328 65.31C76.6669 65.8449 76.3878 66.6076 76.2754 67.5741L76.474 67.5972L76.6727 67.6203C76.7798 66.6995 77.0405 66.025 77.4345 65.5727L77.2836 65.4413ZM86.8713 64.9704L87.068 65.0069L87.1045 64.8103L86.9078 64.7738L86.8713 64.9704ZM86.2608 68.2592L86.0641 68.2227L86.0276 68.4193L86.2243 68.4559L86.2608 68.2592ZM90.5524 69.0559L90.5159 69.2526L90.7126 69.2891L90.7491 69.0925L90.5524 69.0559ZM91.163 65.7671L91.1995 65.5705L91.0029 65.534L90.9664 65.7306L91.163 65.7671ZM92.4608 66.0081L92.6575 66.0446L92.694 65.8479L92.4973 65.8114L92.4608 66.0081ZM90.9933 73.913L90.9568 74.1097L91.1534 74.1462L91.1899 73.9495L90.9933 73.913ZM89.6955 73.6721L89.4988 73.6356L89.4623 73.8322L89.659 73.8687L89.6955 73.6721ZM90.3498 70.1473L90.5465 70.1838L90.583 69.9872L90.3863 69.9507L90.3498 70.1473ZM86.0582 69.3506L86.0947 69.1539L85.898 69.1174L85.8615 69.3141L86.0582 69.3506ZM85.4038 72.8753L85.3673 73.072L85.5639 73.1085L85.6004 72.9118L85.4038 72.8753ZM84.106 72.6344L83.9093 72.5979L83.8728 72.7945L84.0695 72.831L84.106 72.6344ZM85.5735 64.7295L85.61 64.5328L85.4134 64.4963L85.3769 64.693L85.5735 64.7295ZM86.8713 64.9704L86.6747 64.9339L86.0641 68.2227L86.2608 68.2592L86.4574 68.2957L87.068 65.0069L86.8713 64.9704ZM86.2608 68.2592L86.2243 68.4559L90.5159 69.2526L90.5524 69.0559L90.5889 68.8593L86.2973 68.0626L86.2608 68.2592ZM90.5524 69.0559L90.7491 69.0925L91.3596 65.8036L91.163 65.7671L90.9664 65.7306L90.3558 69.0194L90.5524 69.0559ZM91.163 65.7671L91.1265 65.9638L92.4243 66.2047L92.4608 66.0081L92.4973 65.8114L91.1995 65.5705L91.163 65.7671ZM92.4608 66.0081L92.2642 65.9716L90.7967 73.8765L90.9933 73.913L91.1899 73.9495L92.6575 66.0446L92.4608 66.0081ZM90.9933 73.913L91.0298 73.7164L89.732 73.4754L89.6955 73.6721L89.659 73.8687L90.9568 74.1097L90.9933 73.913ZM89.6955 73.6721L89.8921 73.7086L90.5465 70.1838L90.3498 70.1473L90.1532 70.1108L89.4988 73.6356L89.6955 73.6721ZM90.3498 70.1473L90.3863 69.9507L86.0947 69.1539L86.0582 69.3506L86.0217 69.5472L90.3133 70.3439L90.3498 70.1473ZM86.0582 69.3506L85.8615 69.3141L85.2072 72.8388L85.4038 72.8753L85.6004 72.9118L86.2548 69.3871L86.0582 69.3506ZM85.4038 72.8753L85.4403 72.6787L84.1425 72.4378L84.106 72.6344L84.0695 72.831L85.3673 73.072L85.4038 72.8753ZM84.106 72.6344L84.3026 72.6709L85.7701 64.766L85.5735 64.7295L85.3769 64.693L83.9093 72.5979L84.106 72.6344ZM85.5735 64.7295L85.537 64.9261L86.8348 65.167L86.8713 64.9704L86.9078 64.7738L85.61 64.5328L85.5735 64.7295ZM95.599 71.933L95.7893 71.9943L95.599 71.933ZM95.4651 72.2996L95.2784 72.2271L95.2748 72.2383L95.4651 72.2996ZM95.2899 72.7947L95.4765 72.8665L95.4768 72.8659L95.2899 72.7947ZM95.1003 73.2852L95.2865 73.3583L95.2868 73.3576L95.1003 73.2852ZM94.9522 73.6472L94.7689 73.5673L95.0796 73.8014L94.9522 73.6472ZM101.115 68.5566L101.176 68.3662L101.072 68.3327L100.988 68.4024L101.115 68.5566ZM102.657 69.0533L102.847 69.1147L102.909 68.9243L102.718 68.863L102.657 69.0533ZM100.192 76.7061L100.13 76.8964L100.321 76.9578L100.382 76.7674L100.192 76.7061ZM99.0209 76.3289L98.8306 76.2676L98.7692 76.458L98.9596 76.5193L99.0209 76.3289ZM100.474 71.8172L100.284 71.7559L100.474 71.8172ZM100.667 71.2176L100.479 71.1489L100.477 71.1563L100.667 71.2176ZM100.931 70.4986L101.118 70.5675L101.118 70.5672L100.931 70.4986ZM101.138 69.951L101.324 70.0268L101.011 69.7971L101.138 69.951ZM95.009 75.0365L94.9476 75.2269L95.0521 75.2606L95.1367 75.1905L95.009 75.0365ZM93.4527 74.5352L93.2623 74.4739L93.201 74.6643L93.3914 74.7256L93.4527 74.5352ZM95.9179 66.8825L95.9792 66.6921L95.7889 66.6308L95.7275 66.8212L95.9179 66.8825ZM97.1029 67.2642L97.2933 67.3255L97.3546 67.1352L97.1643 67.0739L97.1029 67.2642ZM95.599 71.933L95.4086 71.8716C95.3828 71.9516 95.3399 72.0695 95.2787 72.2272L95.4651 72.2996L95.6516 72.372C95.7136 72.2122 95.7599 72.0856 95.7893 71.9943L95.599 71.933ZM95.4651 72.2996L95.2748 72.2383C95.2269 72.3867 95.1697 72.5484 95.103 72.7235L95.2899 72.7947L95.4768 72.8659C95.5455 72.6855 95.6052 72.5171 95.6555 72.3609L95.4651 72.2996ZM95.2899 72.7947L95.1032 72.7229C95.0386 72.891 94.9755 73.0543 94.9139 73.2128L95.1003 73.2852L95.2868 73.3576C95.3485 73.1986 95.4118 73.0349 95.4765 72.8665L95.2899 72.7947ZM95.1003 73.2852L94.9142 73.2121C94.856 73.3602 94.8077 73.4784 94.7689 73.5673L94.9522 73.6472L95.1355 73.7272C95.1771 73.6319 95.2275 73.5086 95.2865 73.3583L95.1003 73.2852ZM94.9522 73.6472L95.0796 73.8014L101.242 68.7108L101.115 68.5566L100.988 68.4024L94.8248 73.493L94.9522 73.6472ZM101.115 68.5566L101.054 68.747L102.596 69.2437L102.657 69.0533L102.718 68.863L101.176 68.3662L101.115 68.5566ZM102.657 69.0533L102.467 68.992L100.001 76.6447L100.192 76.7061L100.382 76.7674L102.847 69.1147L102.657 69.0533ZM100.192 76.7061L100.253 76.5157L99.0823 76.1386L99.0209 76.3289L98.9596 76.5193L100.13 76.8964L100.192 76.7061ZM99.0209 76.3289L99.2113 76.3903L100.665 71.8786L100.474 71.8172L100.284 71.7559L98.8306 76.2676L99.0209 76.3289ZM100.474 71.8172L100.665 71.8786C100.665 71.8767 100.666 71.8733 100.667 71.8714C100.671 71.8603 100.665 71.8789 100.668 71.8678C100.669 71.8662 100.669 71.8658 100.669 71.8641C100.669 71.8641 100.672 71.8569 100.672 71.8568C100.676 71.8437 100.67 71.8627 100.674 71.8495C100.679 71.8336 100.679 71.8355 100.684 71.8192C100.686 71.8136 100.684 71.8172 100.686 71.8115C100.687 71.8102 100.686 71.8108 100.687 71.8096C100.687 71.809 100.687 71.8082 100.688 71.8076C100.688 71.8054 100.688 71.8059 100.689 71.8037C100.689 71.8026 100.69 71.8009 100.69 71.7998C100.69 71.7994 100.69 71.7991 100.69 71.7988C100.69 71.7985 100.691 71.7981 100.691 71.7978C100.691 71.7975 100.691 71.7971 100.691 71.7968C100.691 71.7965 100.691 71.7962 100.691 71.7958C100.691 71.7954 100.694 71.7884 100.694 71.7879C100.7 71.7689 100.693 71.7908 100.699 71.7718C100.7 71.7693 100.701 71.7661 100.702 71.7636C100.702 71.7633 100.702 71.763 100.702 71.7626C100.702 71.7623 100.702 71.7619 100.702 71.7616C100.703 71.7593 100.702 71.7618 100.703 71.7595C100.704 71.7567 100.703 71.7583 100.704 71.7554C100.708 71.7433 100.703 71.7592 100.707 71.7471C100.708 71.7432 100.708 71.7427 100.71 71.7388C100.711 71.7349 100.714 71.7259 100.715 71.7218C100.715 71.7213 100.716 71.7203 100.716 71.7197C100.716 71.7191 100.716 71.7182 100.717 71.7176C100.717 71.7174 100.717 71.7156 100.717 71.7154C100.717 71.7151 100.717 71.7147 100.718 71.7144C100.718 71.714 100.718 71.7136 100.718 71.7133C100.718 71.7132 100.719 71.7091 100.719 71.709C100.719 71.7086 100.72 71.7083 100.72 71.7079C100.72 71.7075 100.72 71.7072 100.72 71.7068C100.721 71.7045 100.72 71.707 100.721 71.7046C100.725 71.6913 100.722 71.7006 100.726 71.6872C100.732 71.6695 100.744 71.6336 100.75 71.6144C100.758 71.5901 100.754 71.6011 100.762 71.5764C100.762 71.5755 100.763 71.5725 100.764 71.5716C100.765 71.5679 100.764 71.5704 100.765 71.5667C100.766 71.565 100.768 71.5587 100.768 71.557C100.768 71.5569 100.775 71.5374 100.775 71.5372C100.784 71.5082 100.791 71.4861 100.801 71.4556C100.805 71.4438 100.804 71.4463 100.808 71.4345C100.809 71.4312 100.81 71.4271 100.811 71.4238C100.811 71.4237 100.813 71.4187 100.813 71.4185C100.813 71.4174 100.814 71.4142 100.815 71.4131C100.815 71.4103 100.817 71.4051 100.818 71.4023C100.819 71.3984 100.819 71.4008 100.82 71.3969C100.821 71.3933 100.82 71.395 100.822 71.3914C100.826 71.3789 100.825 71.3821 100.829 71.3695C100.83 71.3665 100.829 71.367 100.83 71.364C100.831 71.362 100.831 71.3632 100.831 71.3612C100.832 71.3606 100.832 71.359 100.832 71.3584C100.833 71.3545 100.832 71.3596 100.833 71.3556C100.834 71.353 100.833 71.3555 100.834 71.3528C100.834 71.3519 100.836 71.3482 100.836 71.3473C100.837 71.3422 100.841 71.33 100.843 71.3248C100.847 71.3134 100.843 71.3248 100.847 71.3134C100.847 71.3113 100.847 71.3126 100.848 71.3105C100.849 71.3052 100.847 71.313 100.849 71.3077C100.849 71.3063 100.85 71.3034 100.85 71.302C100.851 71.299 100.85 71.3021 100.851 71.2991C100.852 71.2982 100.852 71.2971 100.852 71.2962C100.853 71.2954 100.853 71.2942 100.853 71.2934C100.853 71.2929 100.853 71.2924 100.854 71.2919C100.854 71.2914 100.854 71.291 100.854 71.2905C100.854 71.29 100.854 71.2895 100.855 71.289C100.855 71.2886 100.855 71.2881 100.855 71.2876C100.855 71.2861 100.855 71.2862 100.856 71.2847C100.857 71.2808 100.857 71.2828 100.858 71.2789L100.667 71.2176L100.477 71.1563C100.473 71.1697 100.467 71.189 100.462 71.2021C100.459 71.2111 100.451 71.2382 100.448 71.2468C100.448 71.2473 100.448 71.2478 100.447 71.2482C100.447 71.2487 100.447 71.2491 100.447 71.2496C100.447 71.2501 100.447 71.2505 100.447 71.251C100.446 71.2514 100.446 71.2519 100.446 71.2524C100.446 71.2525 100.444 71.2577 100.444 71.2578C100.442 71.2644 100.443 71.2623 100.441 71.2688C100.441 71.2696 100.44 71.2707 100.44 71.2715C100.439 71.2741 100.44 71.2716 100.439 71.2742C100.439 71.2759 100.439 71.2753 100.438 71.2769C100.437 71.2822 100.439 71.2744 100.437 71.2797C100.436 71.2835 100.435 71.2866 100.434 71.2905C100.426 71.314 100.428 71.3098 100.42 71.3329C100.418 71.34 100.419 71.3364 100.417 71.3434C100.416 71.3453 100.417 71.3441 100.416 71.346C100.416 71.3465 100.415 71.3481 100.415 71.3486C100.415 71.35 100.415 71.3498 100.414 71.3512C100.414 71.3516 100.414 71.3521 100.414 71.3525C100.414 71.3529 100.414 71.3533 100.413 71.3538C100.408 71.3722 100.413 71.356 100.407 71.3743C100.407 71.3747 100.4 71.3944 100.4 71.3946C100.399 71.3988 100.398 71.4004 100.397 71.4046C100.396 71.407 100.395 71.4122 100.394 71.4146C100.39 71.4281 100.392 71.4209 100.388 71.4343C100.386 71.4396 100.386 71.4388 100.384 71.4441C100.383 71.4469 100.385 71.4437 100.384 71.4465C100.383 71.4469 100.383 71.4473 100.383 71.4477C100.383 71.4481 100.383 71.4485 100.383 71.4489C100.383 71.4497 100.382 71.453 100.381 71.4537C100.381 71.4561 100.37 71.4898 100.369 71.4918C100.36 71.5187 100.354 71.5391 100.346 71.5645C100.344 71.5707 100.342 71.5759 100.34 71.582C100.338 71.5876 100.339 71.585 100.337 71.5906C100.336 71.5947 100.338 71.5887 100.336 71.5928C100.336 71.5939 100.336 71.5938 100.336 71.5949C100.335 71.5975 100.335 71.5967 100.334 71.5992C100.332 71.6077 100.334 71.5992 100.332 71.6077C100.328 71.6205 100.333 71.6034 100.329 71.6161C100.328 71.6176 100.327 71.623 100.326 71.6245C100.326 71.6261 100.324 71.6312 100.324 71.6328C100.322 71.6389 100.324 71.6308 100.322 71.6369C100.32 71.6435 100.323 71.6344 100.321 71.641C100.32 71.6444 100.319 71.6458 100.318 71.6491C100.314 71.6612 100.317 71.6532 100.313 71.6652C100.312 71.6676 100.304 71.6946 100.303 71.6966C100.302 71.6998 100.294 71.724 100.293 71.7268C100.293 71.7274 100.291 71.7336 100.291 71.7342C100.289 71.7391 100.29 71.7367 100.289 71.7415C100.284 71.7545 100.29 71.7358 100.286 71.7487C100.285 71.751 100.286 71.7483 100.286 71.7505C100.285 71.7513 100.285 71.7515 100.285 71.7523C100.284 71.7567 100.285 71.7516 100.284 71.7559L100.474 71.8172ZM100.667 71.2176L100.855 71.2862C100.945 71.0419 101.032 70.8023 101.118 70.5675L100.931 70.4986L100.743 70.4298C100.657 70.6647 100.569 70.9045 100.48 71.149L100.667 71.2176ZM100.931 70.4986L101.118 70.5672C101.207 70.3234 101.276 70.1437 101.324 70.0268L101.138 69.951L100.953 69.8753C100.903 69.9996 100.832 70.1851 100.743 70.43L100.931 70.4986ZM101.138 69.951L101.011 69.7971L94.8812 74.8826L95.009 75.0365L95.1367 75.1905L101.266 70.1049L101.138 69.951ZM95.009 75.0365L95.0703 74.8462L93.514 74.3449L93.4527 74.5352L93.3914 74.7256L94.9476 75.2269L95.009 75.0365ZM93.4527 74.5352L93.6431 74.5966L96.1083 66.9438L95.9179 66.8825L95.7275 66.8212L93.2623 74.4739L93.4527 74.5352ZM95.9179 66.8825L95.8566 67.0729L97.0416 67.4546L97.1029 67.2642L97.1643 67.0739L95.9792 66.6921L95.9179 66.8825ZM97.1029 67.2642L96.9126 67.2029L95.4086 71.8716L95.599 71.933L95.7893 71.9943L97.2933 67.3255L97.1029 67.2642ZM108.921 71.0488L108.855 71.2376L108.921 71.0488ZM110.83 72.813L110.645 72.8871L110.645 72.8886L110.83 72.813ZM109.505 78.1021L109.36 77.9651L109.359 77.9662L109.505 78.1021ZM107.95 79.0518L107.995 79.2466L107.996 79.2464L107.95 79.0518ZM105.175 78.3992L105.051 78.5563V78.5563L105.175 78.3992ZM104.534 77.7304L104.364 77.8349L104.369 77.843L104.534 77.7304ZM104.189 76.9901L104.38 76.9282L104.349 76.834L104.255 76.8013L104.189 76.9901ZM104.105 76.9604L104.171 76.7716L103.958 76.6973L103.909 76.9169L104.105 76.9604ZM103.948 77.589L103.755 77.5377L103.755 77.5377L103.948 77.589ZM102.664 81.3511L102.598 81.5399L102.787 81.6059L102.853 81.4172L102.664 81.3511ZM101.418 80.9154L101.23 80.8494L101.164 81.0382L101.352 81.1042L101.418 80.9154ZM105.261 69.9278L105.327 69.739L105.138 69.673L105.072 69.8618L105.261 69.9278ZM106.28 70.2843L106.477 70.3188L106.506 70.1516L106.346 70.0955L106.28 70.2843ZM106.089 71.3774L105.892 71.3428L105.862 71.5101L106.023 71.5661L106.089 71.3774ZM106.145 71.3972L106.079 71.5859L106.178 71.6204L106.262 71.5592L106.145 71.3972ZM106.891 70.9906L106.822 70.803L106.818 70.8046L106.891 70.9906ZM107.804 70.8332L107.805 70.6332L107.803 70.6332L107.804 70.8332ZM108.328 72.0174L108.262 72.2062L108.328 72.0174ZM106.992 71.8839L107.033 72.0797L107.038 72.0787L106.992 71.8839ZM105.269 73.9034L105.081 73.8343L105.08 73.8373L105.269 73.9034ZM104.828 75.7992L104.629 75.791V75.791L104.828 75.7992ZM105.147 77.0231L104.983 77.1369L104.984 77.1392L105.147 77.0231ZM107.598 77.8322L107.526 77.6453L107.523 77.6465L107.598 77.8322ZM108.624 77.0313L108.467 76.9079L108.465 76.91L108.624 77.0313ZM109.599 73.3358L109.404 73.3815L109.405 73.384L109.599 73.3358ZM108.921 71.0488L108.855 71.2376C109.74 71.547 110.329 72.0963 110.645 72.8871L110.83 72.813L111.016 72.739C110.654 71.831 109.971 71.2041 108.987 70.86L108.921 71.0488ZM110.83 72.813L110.645 72.8886C110.967 73.6779 110.926 74.7054 110.476 75.9942L110.664 76.0602L110.853 76.1262C111.32 74.7908 111.39 73.6535 111.016 72.7374L110.83 72.813ZM110.664 76.0602L110.476 75.9942C110.182 76.8348 109.808 77.4886 109.36 77.9651L109.505 78.1021L109.651 78.2391C110.148 77.711 110.546 77.0036 110.853 76.1262L110.664 76.0602ZM109.505 78.1021L109.359 77.9662C108.922 78.4374 108.437 78.7306 107.904 78.8572L107.95 79.0518L107.996 79.2464C108.617 79.099 109.169 78.759 109.652 78.238L109.505 78.1021ZM107.95 79.0518L107.905 78.857C107.382 78.978 106.822 78.9383 106.22 78.7276L106.154 78.9164L106.088 79.1052C106.75 79.3369 107.388 79.3873 107.995 79.2466L107.95 79.0518ZM106.154 78.9164L106.22 78.7276C105.849 78.5981 105.544 78.4354 105.298 78.2421L105.175 78.3992L105.051 78.5563C105.337 78.782 105.684 78.9641 106.088 79.1052L106.154 78.9164ZM105.175 78.3992L105.298 78.2421C105.046 78.0431 104.847 77.8346 104.7 77.6179L104.534 77.7304L104.369 77.843C104.543 78.099 104.772 78.3364 105.051 78.5563L105.175 78.3992ZM104.534 77.7304L104.705 77.6261C104.564 77.3959 104.456 77.1633 104.38 76.9282L104.189 76.9901L103.999 77.052C104.086 77.319 104.208 77.5799 104.364 77.8347L104.534 77.7304ZM104.189 76.9901L104.255 76.8013L104.171 76.7716L104.105 76.9604L104.039 77.1492L104.123 77.1789L104.189 76.9901ZM104.105 76.9604L103.909 76.9169C103.873 77.0803 103.822 77.2871 103.755 77.5377L103.948 77.589L104.142 77.6404C104.209 77.3869 104.262 77.1746 104.3 77.0039L104.105 76.9604ZM103.948 77.589L103.755 77.5377C103.689 77.7864 103.626 77.997 103.565 78.1701L103.754 78.2361L103.943 78.3021C104.007 78.1165 104.074 77.8957 104.142 77.6404L103.948 77.589ZM103.754 78.2361L103.565 78.1701L102.476 81.2851L102.664 81.3511L102.853 81.4172L103.943 78.3021L103.754 78.2361ZM102.664 81.3511L102.731 81.1623L101.484 80.7266L101.418 80.9154L101.352 81.1042L102.598 81.5399L102.664 81.3511ZM101.418 80.9154L101.607 80.9814L105.449 69.9938L105.261 69.9278L105.072 69.8618L101.23 80.8494L101.418 80.9154ZM105.261 69.9278L105.195 70.1166L106.214 70.4731L106.28 70.2843L106.346 70.0955L105.327 69.739L105.261 69.9278ZM106.28 70.2843L106.083 70.2498L105.892 71.3428L106.089 71.3774L106.286 71.4119L106.477 70.3188L106.28 70.2843ZM106.089 71.3774L106.023 71.5661L106.079 71.5859L106.145 71.3972L106.211 71.2084L106.155 71.1886L106.089 71.3774ZM106.145 71.3972L106.262 71.5592C106.475 71.405 106.709 71.2775 106.965 71.1766L106.891 70.9906L106.818 70.8046C106.532 70.9172 106.269 71.0607 106.028 71.2352L106.145 71.3972ZM106.891 70.9906L106.961 71.1782C107.216 71.0837 107.497 71.0346 107.805 71.0332L107.804 70.8332L107.803 70.6332C107.454 70.6348 107.126 70.6907 106.822 70.803L106.891 70.9906ZM107.804 70.8332L107.803 71.0332C108.114 71.0348 108.464 71.1011 108.855 71.2376L108.921 71.0488L108.987 70.86C108.565 70.7126 108.171 70.6351 107.805 70.6332L107.804 70.8332ZM108.328 72.0174L108.394 71.8286C107.861 71.6424 107.376 71.5885 106.946 71.6892L106.992 71.8839L107.038 72.0787C107.37 72.0008 107.775 72.0359 108.262 72.2062L108.328 72.0174ZM106.992 71.8839L106.951 71.6883C106.523 71.7788 106.157 72.0154 105.856 72.3831L106.01 72.51L106.165 72.6369C106.417 72.3296 106.706 72.1488 107.033 72.0796L106.992 71.8839ZM106.01 72.51L105.856 72.3831C105.56 72.7438 105.303 73.2304 105.081 73.8343L105.269 73.9034L105.457 73.9724C105.669 73.3935 105.907 72.9513 106.165 72.6369L106.01 72.51ZM105.269 73.9034L105.08 73.8373L104.996 74.078L105.185 74.1441L105.373 74.2101L105.458 73.9694L105.269 73.9034ZM105.185 74.1441L104.996 74.078C104.774 74.7133 104.649 75.2851 104.629 75.791L104.828 75.7992L105.028 75.8074C105.047 75.3525 105.16 74.8209 105.373 74.2101L105.185 74.1441ZM104.828 75.7992L104.629 75.791C104.607 76.3069 104.722 76.7596 104.983 77.1369L105.147 77.0231L105.312 76.9092C105.108 76.6156 105.01 76.2524 105.028 75.8074L104.828 75.7992ZM105.147 77.0231L104.984 77.1392C105.258 77.5225 105.693 77.8073 106.265 78.0072L106.331 77.8184L106.397 77.6296C105.874 77.4466 105.52 77.2012 105.31 76.9069L105.147 77.0231ZM106.331 77.8184L106.265 78.0072C106.764 78.1817 107.237 78.1917 107.672 78.0179L107.598 77.8322L107.523 77.6465C107.195 77.7778 106.823 77.7786 106.397 77.6296L106.331 77.8184ZM107.598 77.8322L107.669 78.0191C108.1 77.8546 108.471 77.5622 108.783 77.1526L108.624 77.0313L108.465 76.91C108.191 77.2698 107.878 77.5113 107.526 77.6453L107.598 77.8322ZM108.624 77.0313L108.782 77.1546C109.104 76.7434 109.366 76.2444 109.57 75.6615L109.381 75.5955L109.192 75.5294C109 76.0793 108.757 76.5375 108.467 76.908L108.624 77.0313ZM109.381 75.5955L109.57 75.6615C109.881 74.7704 109.964 73.9757 109.793 73.2876L109.599 73.3358L109.405 73.384C109.551 73.9719 109.488 74.6836 109.192 75.5294L109.381 75.5955ZM109.599 73.3358L109.794 73.2901C109.627 72.5789 109.147 72.0918 108.394 71.8286L108.328 72.0174L108.262 72.2062C108.906 72.4314 109.273 72.8233 109.404 73.3815L109.599 73.3358ZM118.418 80.0949L118.253 79.9817L118.252 79.9836L118.418 80.0949ZM117.349 81.154L117.242 80.9845L117.24 80.9862L117.349 81.154ZM115.987 81.6348L116.008 81.8338L116.01 81.8335L115.987 81.6348ZM113.08 80.8345L112.956 80.9915L112.959 80.9938L113.08 80.8345ZM112.171 79.7285L111.993 79.8196V79.8196L112.171 79.7285ZM111.766 78.2632L111.566 78.2761L111.566 78.2808L111.766 78.2632ZM113.01 74.4208L113.16 74.5535L113.161 74.5526L113.01 74.4208ZM114.628 73.4038L114.678 73.5976L114.68 73.5969L114.628 73.4038ZM116.683 73.4562L116.63 73.649L116.683 73.4562ZM118.403 74.4431L118.258 74.5812L118.261 74.5842L118.403 74.4431ZM119.287 76.1489L119.09 76.1877L119.091 76.1915L119.287 76.1489ZM113.089 78.4875L112.889 78.4994L112.889 78.5045L113.089 78.4875ZM113.558 79.7213L113.713 79.5953V79.5953L113.558 79.7213ZM116.132 80.4301L116.063 80.2423V80.2423L116.132 80.4301ZM117.152 79.6064L116.989 79.4909L116.988 79.4929L117.152 79.6064ZM118.024 76.4392L118.223 76.4208V76.4208L118.024 76.4392ZM117.547 75.2343L117.39 75.3583L117.394 75.3633L117.547 75.2343ZM116.36 74.5184L116.306 74.7112L116.36 74.5184ZM114.424 74.8255L114.553 74.9783V74.9783L114.424 74.8255ZM119.152 78.4456L118.959 78.3925C118.786 79.0215 118.55 79.55 118.253 79.9817L118.418 80.0949L118.583 80.2082C118.909 79.7327 119.162 79.1616 119.345 78.4987L119.152 78.4456ZM118.418 80.0949L118.252 79.9836C117.967 80.4092 117.63 80.7415 117.242 80.9846L117.349 81.154L117.455 81.3234C117.895 81.0476 118.271 80.6738 118.584 80.2063L118.418 80.0949ZM117.349 81.154L117.24 80.9862C116.863 81.2307 116.439 81.3811 115.964 81.4362L115.987 81.6348L116.01 81.8335C116.543 81.7717 117.026 81.6016 117.457 81.3218L117.349 81.154ZM115.987 81.6348L115.966 81.4359C115.503 81.4844 115.008 81.4379 114.479 81.2922L114.426 81.485L114.373 81.6778C114.943 81.8348 115.488 81.8881 116.008 81.8337L115.987 81.6348ZM114.426 81.485L114.479 81.2922C113.99 81.1576 113.565 80.9514 113.201 80.6752L113.08 80.8345L112.959 80.9938C113.367 81.3035 113.839 81.531 114.373 81.6778L114.426 81.485ZM113.08 80.8345L113.204 80.6775C112.843 80.3926 112.559 80.0464 112.349 79.6373L112.171 79.7285L111.993 79.8196C112.229 80.2799 112.55 80.671 112.956 80.9915L113.08 80.8345ZM112.171 79.7285L112.349 79.6373C112.14 79.2281 112.011 78.7651 111.965 78.2457L111.766 78.2632L111.566 78.2808C111.616 78.8457 111.758 79.3595 111.993 79.8196L112.171 79.7285ZM111.766 78.2632L111.965 78.2503C111.931 77.7277 111.999 77.1527 112.172 76.5237L111.979 76.4706L111.786 76.4175C111.604 77.0804 111.529 77.7006 111.566 78.2761L111.766 78.2632ZM111.979 76.4706L112.172 76.5237C112.402 75.6864 112.734 75.0332 113.16 74.5535L113.01 74.4208L112.861 74.2881C112.384 74.8254 112.028 75.5387 111.786 76.4175L111.979 76.4706ZM113.01 74.4208L113.161 74.5526C113.59 74.0626 114.095 73.7467 114.678 73.5976L114.628 73.4038L114.579 73.2101C113.912 73.3806 113.338 73.7427 112.86 74.289L113.01 74.4208ZM114.628 73.4038L114.68 73.5969C115.268 73.4383 115.916 73.4523 116.63 73.649L116.683 73.4562L116.736 73.2634C115.966 73.0512 115.244 73.0303 114.576 73.2107L114.628 73.4038ZM116.683 73.4562L116.63 73.649C117.304 73.8345 117.844 74.1467 118.258 74.5811L118.403 74.4431L118.548 74.3051C118.077 73.8112 117.47 73.4654 116.736 73.2634L116.683 73.4562ZM118.403 74.4431L118.261 74.5842C118.686 75.0112 118.963 75.5433 119.09 76.1877L119.287 76.1489L119.483 76.1102C119.342 75.3944 119.029 74.7893 118.545 74.302L118.403 74.4431ZM119.287 76.1489L119.091 76.1915C119.229 76.825 119.189 77.5568 118.959 78.3925L119.152 78.4456L119.345 78.4987C119.587 77.6183 119.637 76.8189 119.482 76.1064L119.287 76.1489ZM113.295 76.833L113.102 76.7799C112.931 77.403 112.858 77.9769 112.889 78.4994L113.089 78.4875L113.288 78.4756C113.26 78.0068 113.325 77.4777 113.488 76.8861L113.295 76.833ZM113.089 78.4875L112.889 78.5045C112.934 79.0273 113.103 79.4781 113.403 79.8474L113.558 79.7213L113.713 79.5953C113.471 79.2967 113.327 78.9249 113.288 78.4704L113.089 78.4875ZM113.558 79.7213L113.403 79.8474C113.706 80.2211 114.142 80.4785 114.692 80.6301L114.745 80.4373L114.798 80.2444C114.308 80.1093 113.952 79.8894 113.713 79.5953L113.558 79.7213ZM114.745 80.4373L114.692 80.6301C115.243 80.7816 115.749 80.7836 116.201 80.6179L116.132 80.4301L116.063 80.2423C115.707 80.3728 115.289 80.3796 114.798 80.2444L114.745 80.4373ZM116.132 80.4301L116.201 80.6179C116.649 80.4537 117.02 80.1503 117.317 79.7199L117.152 79.6064L116.988 79.4929C116.732 79.8645 116.423 80.1103 116.063 80.2423L116.132 80.4301ZM117.152 79.6064L117.316 79.7219C117.621 79.2907 117.857 78.7606 118.029 78.1364L117.836 78.0833L117.643 78.0302C117.481 78.6208 117.261 79.106 116.989 79.4909L117.152 79.6064ZM117.836 78.0833L118.029 78.1364C118.203 77.5033 118.271 76.9303 118.223 76.4208L118.024 76.4392L117.825 76.4577C117.867 76.9062 117.809 77.4292 117.643 78.0302L117.836 78.0833ZM118.024 76.4392L118.223 76.4208C118.176 75.9067 118.003 75.4649 117.7 75.1053L117.547 75.2343L117.394 75.3633C117.638 75.6523 117.784 76.0138 117.825 76.4577L118.024 76.4392ZM117.547 75.2343L117.704 75.1104C117.409 74.7368 116.972 74.4795 116.413 74.3256L116.36 74.5184L116.306 74.7112C116.808 74.8493 117.162 75.0693 117.39 75.3582L117.547 75.2343ZM116.36 74.5184L116.413 74.3256C115.577 74.0954 114.858 74.1969 114.294 74.6727L114.424 74.8255L114.553 74.9783C114.989 74.6093 115.561 74.5061 116.306 74.7112L116.36 74.5184ZM114.424 74.8255L114.294 74.6727C113.753 75.1304 113.361 75.8418 113.102 76.7799L113.295 76.833L113.488 76.8861C113.734 75.9923 114.094 75.3653 114.553 74.9783L114.424 74.8255ZM127.703 78.3078L127.899 78.35L127.703 78.3078ZM127.016 79.3563L126.914 79.1846L127.016 79.3563ZM125.767 79.6695L125.768 79.4695L125.606 79.469L125.571 79.6273L125.767 79.6695ZM125.754 79.7282L125.559 79.6859L125.522 79.856L125.685 79.9159L125.754 79.7282ZM126.916 80.5316L126.762 80.6594L126.764 80.662L126.916 80.5316ZM127.179 81.9391L127.375 81.9813L127.179 81.9391ZM126.789 82.8216L126.628 82.703L126.625 82.7078L126.789 82.8216ZM124.987 83.7058L124.997 83.9056L125.001 83.9053L124.987 83.7058ZM120.114 82.8217L119.918 82.7794L119.876 82.9749L120.071 83.0171L120.114 82.8217ZM121.812 74.963L121.854 74.7675L121.658 74.7253L121.616 74.9208L121.812 74.963ZM125.184 75.6917L125.142 75.8872L125.184 75.6917ZM126.638 76.2054L126.543 76.3816L126.548 76.3839L126.638 76.2054ZM127.561 77.0493L127.385 77.1455L127.389 77.1516L127.561 77.0493ZM125.541 80.5722L125.407 80.721V80.721L125.541 80.5722ZM124.094 79.9527L124.052 80.1482L124.094 79.9527ZM122.174 79.5377L122.216 79.3422L122.02 79.2999L121.978 79.4954L122.174 79.5377ZM121.629 82.0595L121.433 82.0172L121.391 82.2127L121.587 82.255L121.629 82.0595ZM125.12 82.5222L125.176 82.7142L125.18 82.7129L125.12 82.5222ZM126.363 78.1871L126.168 78.1449L126.363 78.1871ZM126.127 77.292L125.983 77.4313L125.99 77.4372L126.127 77.292ZM122.871 76.3121L122.913 76.1166L122.717 76.0744L122.675 76.2699L122.871 76.3121ZM122.405 78.4674L122.209 78.4251L122.167 78.6206L122.363 78.6629L122.405 78.4674ZM125.688 78.9004L125.633 78.7079V78.7079L125.688 78.9004ZM127.703 78.3078L127.508 78.2655C127.411 78.7128 127.208 79.0088 126.914 79.1846L127.016 79.3563L127.119 79.5281C127.529 79.2833 127.784 78.8802 127.899 78.35L127.703 78.3078ZM127.016 79.3563L126.914 79.1846C126.597 79.3733 126.218 79.471 125.768 79.4695L125.767 79.6695L125.766 79.8695C126.277 79.8712 126.73 79.76 127.119 79.5281L127.016 79.3563ZM125.767 79.6695L125.571 79.6273L125.559 79.6859L125.754 79.7282L125.95 79.7704L125.962 79.7118L125.767 79.6695ZM125.754 79.7282L125.685 79.9159C126.129 80.0787 126.486 80.3269 126.762 80.6594L126.916 80.5316L127.07 80.4038C126.745 80.0131 126.328 79.7257 125.823 79.5404L125.754 79.7282ZM126.916 80.5316L126.764 80.662C127.014 80.9529 127.102 81.352 126.984 81.8968L127.179 81.9391L127.375 81.9813C127.511 81.3533 127.422 80.814 127.067 80.4012L126.916 80.5316ZM127.179 81.9391L126.984 81.8968C126.918 82.2036 126.799 82.4713 126.628 82.7031L126.789 82.8216L126.95 82.9401C127.156 82.6598 127.298 82.3392 127.375 81.9813L127.179 81.9391ZM126.789 82.8216L126.625 82.7078C126.466 82.9366 126.254 83.1193 125.984 83.2556L126.074 83.4343L126.164 83.6129C126.49 83.4485 126.755 83.2227 126.954 82.9353L126.789 82.8216ZM126.074 83.4343L125.984 83.2556C125.714 83.3913 125.379 83.477 124.972 83.5064L124.987 83.7058L125.001 83.9053C125.447 83.8732 125.836 83.7779 126.164 83.6129L126.074 83.4343ZM124.987 83.7058L124.977 83.5061C124.575 83.5259 124.098 83.478 123.543 83.358L123.5 83.5535L123.458 83.749C124.036 83.8739 124.55 83.9276 124.997 83.9056L124.987 83.7058ZM123.5 83.5535L123.543 83.358L120.156 82.6262L120.114 82.8217L120.071 83.0171L123.458 83.749L123.5 83.5535ZM120.114 82.8217L120.309 82.8639L122.007 75.0053L121.812 74.963L121.616 74.9208L119.918 82.7794L120.114 82.8217ZM121.812 74.963L121.769 75.1585L125.142 75.8872L125.184 75.6917L125.226 75.4962L121.854 74.7675L121.812 74.963ZM125.184 75.6917L125.142 75.8872C125.684 76.0044 126.151 76.17 126.543 76.3815L126.638 76.2054L126.733 76.0293C126.301 75.7966 125.798 75.6197 125.226 75.4962L125.184 75.6917ZM126.638 76.2054L126.548 76.3839C126.943 76.5838 127.218 76.8392 127.385 77.1454L127.561 77.0493L127.736 76.9532C127.522 76.5631 127.181 76.2559 126.728 76.0269L126.638 76.2054ZM127.561 77.0493L127.389 77.1516C127.559 77.4372 127.608 77.8018 127.508 78.2655L127.703 78.3078L127.899 78.35C128.014 77.8168 127.968 77.3423 127.733 76.947L127.561 77.0493ZM125.845 81.6508L126.041 81.693C126.15 81.1851 126.037 80.7484 125.675 80.4235L125.541 80.5722L125.407 80.721C125.645 80.9348 125.734 81.2172 125.65 81.6085L125.845 81.6508ZM125.541 80.5722L125.675 80.4235C125.337 80.1199 124.815 79.9037 124.137 79.7572L124.094 79.9527L124.052 80.1482C124.703 80.2889 125.146 80.4857 125.407 80.721L125.541 80.5722ZM124.094 79.9527L124.137 79.7572L122.216 79.3422L122.174 79.5377L122.131 79.7332L124.052 80.1482L124.094 79.9527ZM122.174 79.5377L121.978 79.4954L121.433 82.0172L121.629 82.0595L121.824 82.1017L122.369 79.5799L122.174 79.5377ZM121.629 82.0595L121.587 82.255L123.537 82.6763L123.579 82.4808L123.621 82.2853L121.671 81.864L121.629 82.0595ZM123.579 82.4808L123.537 82.6763C124.195 82.8186 124.747 82.8396 125.176 82.7142L125.12 82.5222L125.064 82.3303C124.728 82.4285 124.252 82.4218 123.621 82.2853L123.579 82.4808ZM125.12 82.5222L125.18 82.7129C125.645 82.5657 125.929 82.2087 126.041 81.693L125.845 81.6508L125.65 81.6085C125.563 82.0117 125.363 82.2356 125.059 82.3315L125.12 82.5222ZM126.363 78.1871L126.559 78.2293C126.651 77.8025 126.562 77.4286 126.265 77.1468L126.127 77.292L125.99 77.4372C126.168 77.606 126.236 77.8288 126.168 78.1449L126.363 78.1871ZM126.127 77.292L126.271 77.1528C126.002 76.8755 125.536 76.6835 124.922 76.5506L124.879 76.7461L124.837 76.9416C125.434 77.0706 125.801 77.2425 125.984 77.4312L126.127 77.292ZM124.879 76.7461L124.922 76.5506L122.913 76.1166L122.871 76.3121L122.828 76.5076L124.837 76.9416L124.879 76.7461ZM122.871 76.3121L122.675 76.2699L122.209 78.4251L122.405 78.4674L122.6 78.5096L123.066 76.3543L122.871 76.3121ZM122.405 78.4674L122.363 78.6629L124.137 79.0462L124.179 78.8507L124.221 78.6552L122.447 78.2719L122.405 78.4674ZM124.179 78.8507L124.137 79.0462C124.785 79.1862 125.325 79.21 125.742 79.093L125.688 78.9004L125.633 78.7079C125.309 78.7991 124.844 78.7898 124.221 78.6552L124.179 78.8507ZM125.688 78.9004L125.742 79.093C125.955 79.0329 126.138 78.9309 126.279 78.7816C126.421 78.6321 126.512 78.445 126.559 78.2293L126.363 78.1871L126.168 78.1449C126.134 78.3006 126.073 78.4181 125.989 78.5064C125.905 78.5949 125.79 78.6639 125.633 78.7079L125.688 78.9004ZM134.915 77.9666L135.072 77.8422V77.8422L134.915 77.9666ZM134.423 85.5135L134.391 85.711L134.589 85.7426L134.62 85.5451L134.423 85.5135ZM133.475 85.362L133.275 85.3743L133.285 85.5342L133.443 85.5595L133.475 85.362ZM133.403 84.1961L133.603 84.1837L133.593 84.0238L133.435 83.9986L133.403 84.1961ZM133.344 84.1866L133.375 83.9891L133.28 83.9738L133.209 84.0391L133.344 84.1866ZM132.517 84.7988L132.615 84.9732L132.615 84.9727L132.517 84.7988ZM131.621 85.0809L131.598 84.8823L131.596 84.8825L131.621 85.0809ZM129.226 84.5766L129.116 84.744L129.118 84.745L129.226 84.5766ZM128.46 83.6643L128.275 83.7404L128.276 83.7427L128.46 83.6643ZM129.571 80.6064L129.657 80.7874L129.659 80.7864L129.571 80.6064ZM132.559 80.3547L132.533 80.553L132.534 80.5531L132.559 80.3547ZM133.914 80.5256L133.889 80.7241L134.081 80.7483L134.111 80.5572L133.914 80.5256ZM133.78 78.6055L133.625 78.7315L133.625 78.7315L133.78 78.6055ZM131.411 78.0295L131.441 78.2274L131.445 78.2265L131.411 78.0295ZM130.293 78.2761L130.098 78.3217L130.147 78.5291L130.351 78.4676L130.293 78.2761ZM130.049 77.2346L129.983 77.046L129.814 77.1056L129.855 77.2802L130.049 77.2346ZM131.355 76.9571L131.376 77.156L131.38 77.1555L131.355 76.9571ZM132.577 81.2842L132.601 81.0857L132.601 81.0856L132.577 81.2842ZM130.442 81.4292L130.353 81.2504L130.351 81.2515L130.442 81.4292ZM129.936 83.5509L129.79 83.6874L129.793 83.69L129.936 83.5509ZM132.7 83.7495L132.801 83.9221L132.803 83.9207L132.7 83.7495ZM133.754 81.4268L133.952 81.4584L133.985 81.2532L133.778 81.2283L133.754 81.4268ZM132.869 76.9865L132.837 77.1839C133.781 77.3348 134.406 77.6478 134.758 78.091L134.915 77.9666L135.072 77.8422C134.631 77.2878 133.892 76.9474 132.901 76.789L132.869 76.9865ZM134.915 77.9666L134.758 78.091C135.106 78.5285 135.233 79.1762 135.089 80.0755L135.287 80.1071L135.484 80.1387C135.637 79.1816 135.517 78.4023 135.072 77.8422L134.915 77.9666ZM135.287 80.1071L135.089 80.0755L134.225 85.4819L134.423 85.5135L134.62 85.5451L135.484 80.1387L135.287 80.1071ZM134.423 85.5135L134.454 85.316L133.506 85.1645L133.475 85.362L133.443 85.5595L134.391 85.711L134.423 85.5135ZM133.475 85.362L133.674 85.3497L133.603 84.1837L133.403 84.1961L133.203 84.2084L133.275 85.3743L133.475 85.362ZM133.403 84.1961L133.435 83.9986L133.375 83.9891L133.344 84.1866L133.312 84.3841L133.371 84.3935L133.403 84.1961ZM133.344 84.1866L133.209 84.0391C132.945 84.2806 132.682 84.4753 132.418 84.6248L132.517 84.7988L132.615 84.9727C132.909 84.8062 133.197 84.5927 133.479 84.334L133.344 84.1866ZM132.517 84.7988L132.419 84.6243C132.177 84.7601 131.904 84.8467 131.598 84.8823L131.621 85.0809L131.644 85.2796C131.998 85.2384 132.323 85.137 132.615 84.9732L132.517 84.7988ZM131.621 85.0809L131.596 84.8825C131.3 84.9194 130.938 84.906 130.506 84.8369L130.474 85.0343L130.442 85.2318C130.899 85.3048 131.301 85.3224 131.646 85.2794L131.621 85.0809ZM130.474 85.0343L130.506 84.8369C130.055 84.7649 129.666 84.621 129.333 84.4082L129.226 84.5766L129.118 84.745C129.502 84.9911 129.945 85.1523 130.442 85.2318L130.474 85.0343ZM129.226 84.5766L129.335 84.4092C129.019 84.2029 128.79 83.9296 128.644 83.586L128.46 83.6643L128.276 83.7427C128.454 84.1597 128.735 84.4947 129.116 84.744L129.226 84.5766ZM128.46 83.6643L128.645 83.5883C128.502 83.2404 128.464 82.8177 128.545 82.3107L128.347 82.2792L128.15 82.2476C128.06 82.8072 128.097 83.3079 128.275 83.7404L128.46 83.6643ZM128.347 82.2792L128.545 82.3107C128.661 81.5823 129.03 81.0828 129.657 80.7873L129.571 80.6064L129.486 80.4255C128.733 80.7805 128.286 81.3962 128.15 82.2476L128.347 82.2792ZM129.571 80.6064L129.659 80.7864C130.298 80.4765 131.248 80.3877 132.533 80.553L132.559 80.3547L132.584 80.1563C131.27 79.9872 130.228 80.0663 129.484 80.4264L129.571 80.6064ZM132.559 80.3547L132.534 80.5531L133.889 80.7241L133.914 80.5256L133.939 80.3272L132.584 80.1562L132.559 80.3547ZM133.914 80.5256L134.111 80.5572L134.187 80.0832L133.989 80.0517L133.792 80.0201L133.716 80.4941L133.914 80.5256ZM133.989 80.0517L134.187 80.0832C134.295 79.4038 134.235 78.8493 133.935 78.4795L133.78 78.6055L133.625 78.7315C133.815 78.9667 133.895 79.3763 133.792 80.0201L133.989 80.0517ZM133.78 78.6055L133.935 78.4795C133.649 78.1268 133.213 77.9174 132.658 77.8288L132.627 78.0263L132.595 78.2238C133.088 78.3025 133.42 78.4792 133.625 78.7315L133.78 78.6055ZM132.627 78.0263L132.658 77.8288C132.223 77.7592 131.795 77.7601 131.377 77.8324L131.411 78.0295L131.445 78.2265C131.818 78.1621 132.201 78.1608 132.595 78.2238L132.627 78.0263ZM131.411 78.0295L131.382 77.8316C130.979 77.8915 130.597 77.9757 130.235 78.0847L130.293 78.2761L130.351 78.4676C130.692 78.3647 131.055 78.2845 131.44 78.2273L131.411 78.0295ZM130.293 78.2761L130.488 78.2306L130.244 77.1891L130.049 77.2346L129.855 77.2802L130.098 78.3217L130.293 78.2761ZM130.049 77.2346L130.116 77.4233C130.474 77.2971 130.893 77.2074 131.376 77.156L131.355 76.9571L131.333 76.7582C130.827 76.8121 130.376 76.9074 129.983 77.046L130.049 77.2346ZM131.355 76.9571L131.38 77.1555C131.856 77.0955 132.342 77.1048 132.837 77.1839L132.869 76.9865L132.901 76.789C132.369 76.704 131.845 76.6937 131.33 76.7587L131.355 76.9571ZM132.577 81.2842L132.601 81.0856C131.602 80.9668 130.839 81.0071 130.353 81.2504L130.442 81.4292L130.532 81.608C130.905 81.4214 131.564 81.3651 132.553 81.4828L132.577 81.2842ZM130.442 81.4292L130.351 81.2515C129.87 81.4998 129.585 81.9174 129.495 82.4778L129.693 82.5094L129.89 82.541C129.962 82.0942 130.176 81.7917 130.534 81.6069L130.442 81.4292ZM129.693 82.5094L129.495 82.4778C129.418 82.9623 129.502 83.3789 129.79 83.6874L129.936 83.5509L130.082 83.4144C129.904 83.223 129.826 82.9452 129.89 82.541L129.693 82.5094ZM129.936 83.5509L129.793 83.69C130.072 83.9792 130.449 84.1544 130.907 84.2275L130.938 84.03L130.97 83.8325C130.578 83.7699 130.287 83.6258 130.08 83.4119L129.936 83.5509ZM130.938 84.03L130.907 84.2275C131.616 84.3409 132.251 84.2436 132.801 83.9221L132.7 83.7495L132.599 83.5769C132.142 83.844 131.604 83.9338 130.97 83.8325L130.938 84.03ZM132.7 83.7495L132.803 83.9207C133.373 83.5769 133.709 82.9777 133.838 82.1694L133.641 82.1378L133.443 82.1062C133.326 82.8384 133.035 83.3135 132.596 83.5782L132.7 83.7495ZM133.641 82.1378L133.838 82.1694L133.952 81.4584L133.754 81.4268L133.557 81.3953L133.443 82.1062L133.641 82.1378ZM133.754 81.4268L133.778 81.2283L132.601 81.0857L132.577 81.2842L132.553 81.4828L133.73 81.6254L133.754 81.4268ZM143.095 79.4872L143.075 79.6862L143.274 79.7061L143.294 79.5071L143.095 79.4872ZM140.483 79.2261L140.503 79.0271L140.304 79.0072L140.284 79.2062L140.483 79.2261ZM139.794 86.1217L139.774 86.3207L139.973 86.3406L139.993 86.1416L139.794 86.1217ZM138.495 85.9919L138.296 85.972L138.276 86.171L138.475 86.1909L138.495 85.9919ZM139.185 79.0963L139.384 79.1162L139.404 78.9172L139.205 78.8973L139.185 79.0963ZM136.603 78.8382L136.404 78.8183L136.384 79.0173L136.583 79.0372L136.603 78.8382ZM136.713 77.7337L136.733 77.5347L136.534 77.5148L136.514 77.7138L136.713 77.7337ZM143.206 78.3827L143.405 78.4026L143.424 78.2036L143.225 78.1837L143.206 78.3827ZM143.095 79.4872L143.115 79.2882L140.503 79.0271L140.483 79.2261L140.463 79.4251L143.075 79.6862L143.095 79.4872ZM140.483 79.2261L140.284 79.2062L139.595 86.1018L139.794 86.1217L139.993 86.1416L140.682 79.246L140.483 79.2261ZM139.794 86.1217L139.814 85.9227L138.515 85.7929L138.495 85.9919L138.475 86.1909L139.774 86.3207L139.794 86.1217ZM138.495 85.9919L138.694 86.0118L139.384 79.1162L139.185 79.0963L138.986 79.0764L138.296 85.972L138.495 85.9919ZM139.185 79.0963L139.205 78.8973L136.622 78.6392L136.603 78.8382L136.583 79.0372L139.165 79.2953L139.185 79.0963ZM136.603 78.8382L136.802 78.8581L136.912 77.7536L136.713 77.7337L136.514 77.7138L136.404 78.8183L136.603 78.8382ZM136.713 77.7337L136.693 77.9327L143.186 78.5817L143.206 78.3827L143.225 78.1837L136.733 77.5347L136.713 77.7337ZM143.206 78.3827L143.007 78.3628L142.896 79.4673L143.095 79.4872L143.294 79.5071L143.405 78.4026L143.206 78.3827ZM149.591 82.1767L149.667 81.9917V81.9917L149.591 82.1767ZM150.598 82.9789L150.428 83.0849L150.432 83.0906L150.598 82.9789ZM150.912 84.2512L151.111 84.2585L150.912 84.2512ZM150.519 85.5428L150.353 85.431L150.351 85.4344L150.519 85.5428ZM149.454 86.3594L149.525 86.5462V86.5462L149.454 86.3594ZM143.986 86.46L143.786 86.4527L143.779 86.6525L143.979 86.6598L143.986 86.46ZM144.28 78.4253L144.287 78.2255L144.087 78.2182L144.08 78.418L144.28 78.4253ZM145.599 78.4735L145.799 78.4808L145.806 78.2809L145.606 78.2736L145.599 78.4735ZM145.478 81.7713L145.279 81.764L145.271 81.9639L145.471 81.9712L145.478 81.7713ZM149.101 83.2695L149.001 83.4428L149.007 83.4461L149.101 83.2695ZM145.438 82.8656L145.446 82.6657L145.246 82.6584L145.239 82.8583L145.438 82.8656ZM145.344 85.4438L145.144 85.4365L145.137 85.6364L145.337 85.6437L145.344 85.4438ZM148.998 85.2771L148.909 85.0978L148.907 85.0988L148.998 85.2771ZM147.862 81.8583L147.855 82.0582C148.54 82.0832 149.091 82.1869 149.515 82.3616L149.591 82.1767L149.667 81.9917C149.185 81.7931 148.583 81.6845 147.869 81.6585L147.862 81.8583ZM149.591 82.1767L149.515 82.3616C149.938 82.5356 150.237 82.7786 150.428 83.0849L150.598 82.9789L150.767 82.873C150.524 82.4829 150.152 82.1911 149.667 81.9917L149.591 82.1767ZM150.598 82.9789L150.432 83.0906C150.631 83.3861 150.729 83.7658 150.712 84.2439L150.912 84.2512L151.111 84.2585C151.131 83.7173 151.02 83.2488 150.764 82.8673L150.598 82.9789ZM150.912 84.2512L150.712 84.2439C150.695 84.7119 150.573 85.105 150.353 85.4311L150.519 85.5428L150.685 85.6545C150.952 85.2578 151.092 84.7899 151.111 84.2585L150.912 84.2512ZM150.519 85.5428L150.351 85.4344C150.145 85.7541 149.827 86.0022 149.382 86.1727L149.454 86.3594L149.525 86.5462C150.034 86.3512 150.427 86.0549 150.687 85.6512L150.519 85.5428ZM149.454 86.3594L149.382 86.1727C148.939 86.3425 148.36 86.4196 147.636 86.3931L147.629 86.593L147.622 86.7929C148.377 86.8204 149.014 86.7418 149.525 86.5462L149.454 86.3594ZM147.629 86.593L147.636 86.3931L143.994 86.2601L143.986 86.46L143.979 86.6598L147.622 86.7929L147.629 86.593ZM143.986 86.46L144.186 86.4673L144.48 78.4326L144.28 78.4253L144.08 78.418L143.786 86.4527L143.986 86.46ZM144.28 78.4253L144.272 78.6252L145.592 78.6734L145.599 78.4735L145.606 78.2736L144.287 78.2255L144.28 78.4253ZM145.599 78.4735L145.399 78.4662L145.279 81.764L145.478 81.7713L145.678 81.7786L145.799 78.4808L145.599 78.4735ZM145.478 81.7713L145.471 81.9712L147.855 82.0582L147.862 81.8583L147.869 81.6585L145.486 81.5714L145.478 81.7713ZM149.59 84.278L149.79 84.2853C149.809 83.7429 149.625 83.3215 149.195 83.0929L149.101 83.2695L149.007 83.4461C149.264 83.5828 149.406 83.8337 149.39 84.2707L149.59 84.278ZM149.101 83.2695L149.201 83.0963C148.827 82.8806 148.314 82.7704 147.679 82.7473L147.672 82.9471L147.665 83.147C148.269 83.1691 148.708 83.2738 149.001 83.4427L149.101 83.2695ZM147.672 82.9471L147.679 82.7473L145.446 82.6657L145.438 82.8656L145.431 83.0654L147.665 83.147L147.672 82.9471ZM145.438 82.8656L145.239 82.8583L145.144 85.4365L145.344 85.4438L145.544 85.4511L145.638 82.8729L145.438 82.8656ZM145.344 85.4438L145.337 85.6437L147.6 85.7264L147.608 85.5265L147.615 85.3266L145.352 85.244L145.344 85.4438ZM147.608 85.5265L147.6 85.7264C148.182 85.7476 148.682 85.662 149.088 85.4553L148.998 85.2771L148.907 85.0988C148.579 85.2656 148.152 85.3463 147.615 85.3266L147.608 85.5265ZM148.998 85.2771L149.086 85.4564C149.54 85.2322 149.77 84.8258 149.79 84.2853L149.59 84.278L149.39 84.2707C149.375 84.6896 149.21 84.9492 148.909 85.0978L148.998 85.2771Z" fill="#3C2318"/>
</g>
<defs>
<clipPath id="clip0_547_777">
<rect width="214" height="214" fill="white"/>
</clipPath>
</defs>
</svg>
