<svg width="796" height="139" viewBox="0 0 796 139" fill="none" xmlns="http://www.w3.org/2000/svg">
<path fill-rule="evenodd" clip-rule="evenodd" d="M767.666 103.799C764.388 103.731 754.483 104.02 751.905 103.799L756.053 99.263L738.712 98.8292L738.348 99.3373C737.149 99.0356 735.995 98.7187 735.136 98.3867C730.649 96.6515 726.675 94.5026 723.214 91.9399C722.191 91.1952 721.23 90.4422 720.332 89.681C713.8 84.1499 711.883 78.1846 711.883 71.7852C711.883 66.2344 712.174 61.4949 715.452 57.5667C716.156 56.7232 716.935 55.9171 717.79 55.1484C720.282 52.9009 723.482 51.093 727.391 49.725C727.594 49.654 727.799 49.5848 728.005 49.5175C731.771 48.2877 737.435 47.6729 742.299 47.6729C747.429 47.6729 754.758 48.1126 764.286 48.9921C768.927 49.3829 773.056 49.5784 776.672 49.5784L794.847 49.5784V55.7347C792.258 55.979 790.181 56.2722 788.618 56.6142C787.103 56.9562 785.808 57.7136 784.733 58.8862C783.659 60.01 783.121 63.4057 783.121 69.0735L783.121 94.2852V105.059V118.324C783.121 123.845 783.683 127.168 784.807 128.292C785.979 129.416 787.396 130.148 789.058 130.49C790.719 130.784 792.942 131.052 795.727 131.297V137.526L756.48 137.526V131.297C759.265 131.003 760.572 130.71 762.233 130.417C763.895 130.124 765.165 129.562 766.045 128.731C767.51 127.412 768.243 123.943 768.243 118.324V103.811C768.067 103.808 767.874 103.804 767.666 103.799ZM737.711 100.224C737.516 100.271 737.448 100.317 737.611 100.364L737.711 100.224ZM749.628 55.6614C749.122 55.6614 748.627 55.6684 748.145 55.6824C745.131 55.7696 742.572 56.1291 740.466 56.7608C732.6 59.0084 728.667 64.0165 728.667 71.7852C728.667 78.3158 731.273 83.5505 736.485 87.4895C743.01 92.4211 753.621 95.3215 768.317 96.1908V96.264L768.463 96.1908H768.317L768.317 70.2461C768.317 67.2657 768.097 64.8471 767.657 62.9904C767.217 61.0849 766.289 59.5947 764.872 58.5198C763.504 57.4448 761.525 56.7119 758.935 56.3211C756.395 55.8813 753.292 55.6614 749.628 55.6614Z" fill="#FCF6EB"/>
<path fill-rule="evenodd" clip-rule="evenodd" d="M737.711 100.224L738.348 99.3373L738.712 98.8292L756.053 99.263L751.905 103.799C751.905 103.799 738.713 123.132 737.611 124.774C736.51 126.416 736.47 128.071 737.071 128.673C739.223 130.735 743.312 130.991 746.133 131.238V137.468L723.678 137.468L710.982 137.468H707.579V131.238C710.364 130.945 712.587 130.652 714.248 130.358C715.143 130.201 715.924 129.965 716.592 129.651C717.164 129.382 717.654 129.056 718.06 128.673C718.745 128.056 719.012 128.057 720.654 125.595C722.296 123.132 735.136 103.812 735.136 103.812L737.611 100.364L737.711 100.224Z" fill="#FCF6EB"/>
<path d="M632.799 62.1924C631.969 63.7071 631.553 65.4661 631.553 67.4693C631.553 69.4237 632.482 71.7934 634.338 74.5784L629.355 77.5833C623.589 76.6061 619.412 74.1876 616.822 70.3276C615.894 69.0084 615.43 67.2983 615.43 65.1973C615.43 63.0964 616.285 60.9221 617.995 58.6745C619.705 56.3781 622.099 54.3749 625.177 52.6648C631.92 48.9514 640.421 47.0947 650.682 47.0947C667.392 47.0947 677.775 51.9319 681.83 61.6061C683.101 64.6354 683.736 67.9823 683.736 71.6468L683.736 117.6C683.736 123.267 684.273 126.688 685.348 127.86C686.423 128.984 687.718 129.717 689.233 130.059C690.796 130.401 692.873 130.694 695.462 130.938V137.095L677.286 137.095C673.671 137.095 669.542 137.29 664.9 137.681C655.373 138.56 648.044 139 642.913 139C637.783 139 633.264 138.316 629.355 136.948C625.446 135.58 622.246 133.772 619.754 131.525C614.917 127.176 612.498 121.631 612.498 114.888C612.498 107.608 616.724 100.889 625.177 94.7331C635.34 87.2087 649.925 83.2511 668.931 82.8602L668.931 70.0345C668.931 59.8716 662.164 54.7902 648.63 54.7902C640.91 54.7902 635.633 57.2576 632.799 62.1924ZM668.931 90.4823H669.078L668.931 90.409V90.4823ZM668.931 90.4823C642.498 92.0459 629.281 100.181 629.281 114.888C629.281 122.657 633.215 127.665 641.081 129.912C643.524 130.645 646.578 131.012 650.242 131.012C653.907 131.012 657.009 130.816 659.55 130.425C662.14 129.986 664.119 129.228 665.487 128.153C666.904 127.078 667.832 125.613 668.272 123.756C668.711 121.85 668.931 119.407 668.931 116.427V90.4823Z" fill="#FCF6EB"/>
<path fill-rule="evenodd" clip-rule="evenodd" d="M529.79 55.1424C522.022 64.0349 518.137 75.2971 518.137 88.929V90.5414C518.136 90.7115 518.137 90.8834 518.137 91.0544C518.137 104.686 522.022 115.949 529.79 124.841C537.51 133.636 547.404 138.033 559.473 138.033C568.707 138.033 575.914 136.079 581.093 132.17C586.028 128.506 588.495 123.473 588.495 117.072C588.495 108.815 584.489 101.852 576.476 96.1847C572.877 93.6407 568.565 91.5763 563.541 89.9917C568.565 88.4071 572.877 86.3427 576.476 83.7987C584.489 78.131 588.495 71.1684 588.495 62.9111C588.495 56.5104 586.028 51.4779 581.093 47.8134C575.914 43.9046 568.707 41.9502 559.473 41.9502C547.404 41.9502 537.51 46.3476 529.79 55.1424ZM533.895 93.9127C533.943 96.8399 534.205 99.7244 534.68 102.566C535.157 105.417 535.848 108.224 536.753 110.989C537.632 113.677 538.732 116.193 540.051 118.538C541.37 120.835 542.909 122.862 544.668 124.621C546.427 126.331 548.406 127.699 550.605 128.725C552.803 129.703 555.32 130.191 558.154 130.191C560.987 130.191 563.357 129.776 565.263 128.945C570.149 126.795 572.592 122.887 572.592 117.219C572.592 112.87 571.468 109.23 569.22 106.299C563.09 98.4168 551.388 94.2852 534.114 93.9127H533.895ZM534.115 86.0662C551.388 85.6937 563.09 81.5666 569.22 73.6847C571.468 70.7531 572.592 67.1131 572.592 62.7645C572.592 57.0968 570.149 53.188 565.263 51.0381C563.357 50.2075 560.987 49.7922 558.154 49.7922C555.32 49.7922 552.803 50.3052 550.605 51.3313C548.406 52.3085 546.427 53.6766 544.668 55.4355C542.909 57.1456 541.37 59.1733 540.051 61.5186C538.732 63.815 537.632 66.3069 536.753 68.9942C535.837 71.7915 535.195 74.6423 534.663 77.5179C534.115 80.4869 534.355 83.4749 534.115 86.0662Z" fill="#FCF6EB"/>
<path d="M416.69 92.3797C416.69 88.5686 417.057 84.782 417.79 81.0198C418.572 77.2575 419.72 73.6908 421.234 70.3194C422.798 66.9481 424.728 63.8455 427.024 61.0116C429.321 58.1777 431.984 55.7347 435.013 53.6826C441.511 49.2852 449.06 47.0865 457.659 47.0865C470.656 47.0865 480.917 51.7282 488.441 61.0116C495.33 69.5132 498.775 79.9937 498.775 92.453C498.775 105.01 495.33 115.686 488.441 124.481C480.917 134.057 470.656 138.845 457.659 138.845C444.712 138.845 434.451 133.984 426.878 124.261C420.086 115.466 416.69 104.839 416.69 92.3797ZM449.085 129.098C451.576 130.173 454.459 130.71 457.733 130.71C461.055 130.71 463.962 130.197 466.454 129.171C468.946 128.096 471.096 126.631 472.904 124.774C474.712 122.917 476.202 120.767 477.374 118.324C478.596 115.832 479.573 113.17 480.306 110.336C481.625 105.254 482.285 100.246 482.285 95.3113C482.285 90.3276 482.138 86.3211 481.845 83.2917C481.552 80.2136 481.039 77.3064 480.306 74.5703C479.573 71.7852 478.596 69.1957 477.374 66.8015C476.202 64.4074 474.712 62.3308 472.904 60.5719C468.995 56.8585 463.962 55.0019 457.806 55.0019C446.226 55.0019 438.751 61.6468 435.379 74.9367C434.06 79.9693 433.401 85.8081 433.401 92.453C433.401 112.388 438.629 124.603 449.085 129.098ZM447.727 34.1531L466.27 0L480.306 9.12239L453.547 37.0131L447.727 34.1531Z" fill="#FCF6EB"/>
<path d="M374.908 52.4402C367.335 29.9647 352.164 16.2106 329.395 11.178L330.934 4.72852C353.361 8.05099 370.242 17.5298 381.577 33.165C391.74 47.2366 396.821 64.7041 396.821 85.5673C396.821 101.984 393.084 114.981 385.608 124.557C378.133 134.085 368.116 138.849 355.559 138.849C343.54 138.849 333.719 134.012 326.097 124.338C319.012 115.445 315.47 104.891 315.47 92.6764C315.47 80.3148 318.768 69.7366 325.364 60.9419C332.644 51.2676 342.563 46.4305 355.12 46.4305C362.888 46.4305 369.484 48.4337 374.908 52.4402ZM380.111 87.3995C380.111 65.3637 372.245 54.3458 356.512 54.3458C347.668 54.3458 341.243 58.3278 337.237 66.292C333.914 72.7415 332.253 81.6096 332.253 92.8962C332.253 109.606 336.308 121.064 344.419 127.269C347.449 129.566 351.357 130.714 356.146 130.714C360.983 130.714 364.989 129.614 368.165 127.416C371.341 125.217 373.808 122.188 375.567 118.328C378.597 111.634 380.111 101.325 380.111 87.3995Z" fill="#FCF6EB"/>
<path d="M212.347 92.3869C212.347 88.5758 212.713 84.7892 213.446 81.027C214.228 77.2647 215.376 73.698 216.891 70.3266C218.454 66.9553 220.384 63.8527 222.681 61.0188C224.977 58.185 227.64 55.742 230.669 53.6898C237.168 49.2924 244.716 47.0938 253.316 47.0938C266.312 47.0938 276.573 51.7354 284.097 61.0188C290.987 69.5205 294.431 80.0009 294.431 92.4602C294.431 105.017 290.987 115.693 284.097 124.488C276.573 134.064 266.312 138.853 253.316 138.853C240.368 138.853 230.107 133.991 222.534 124.268C215.742 115.473 212.347 104.846 212.347 92.3869ZM244.741 129.105C247.233 130.18 250.115 130.718 253.389 130.718C256.711 130.718 259.619 130.204 262.111 129.178C264.602 128.103 266.752 126.638 268.56 124.781C270.368 122.924 271.858 120.775 273.031 118.332C274.252 115.84 275.229 113.177 275.962 110.343C277.282 105.261 277.941 100.253 277.941 95.3185C277.941 90.3348 277.795 86.3283 277.501 83.299C277.208 80.2208 276.695 77.3136 275.962 74.5775C275.229 71.7924 274.252 69.2029 273.031 66.8087C271.858 64.4146 270.368 62.338 268.56 60.5791C264.651 56.8657 259.619 55.0091 253.462 55.0091C241.883 55.0091 234.407 61.654 231.036 74.9439C229.716 79.9765 229.057 85.8152 229.057 92.4602C229.057 112.395 234.285 124.61 244.741 129.105Z" fill="#FCF6EB"/>
<path d="M155.508 45.1494C164.792 50.7194 171.632 55.8986 176.029 60.6869C183.749 69.1396 188.391 81.4035 189.954 97.4784C190.541 103.244 190.834 108.643 190.834 113.675C190.834 118.659 190.883 122.006 190.98 123.716C191.078 125.377 191.469 126.721 192.153 127.747C193.326 129.604 196.306 130.752 201.094 131.192L201.094 137.495L165.036 137.495L165.036 131.192C169.873 130.703 173 129.628 174.417 127.967C175.541 126.55 176.103 123.13 176.103 117.706C176.103 112.283 176.005 107.226 175.809 102.535C175.663 97.8448 175.345 93.6429 174.857 89.9295C174.368 86.2162 173.66 82.8937 172.731 79.9621C171.803 76.9816 170.557 74.1722 168.993 71.5338C166.16 66.6478 161.664 61.322 155.508 55.5566C149.205 61.4686 144.979 66.2813 142.829 69.9947C140.728 73.6592 139.213 76.9816 138.285 79.9621C137.357 82.8937 136.648 86.2162 136.16 89.9295C135.329 96.2324 134.914 103.195 134.914 110.817C134.914 118.39 135.011 122.91 135.207 124.376C135.402 125.842 135.866 127.039 136.599 127.967C138.016 129.628 141.119 130.703 145.907 131.192L145.907 137.495L109.995 137.495L109.995 131.192C114.783 130.508 117.593 129.555 118.423 128.333C119.254 127.063 119.743 125.597 119.889 123.936C120.085 122.275 120.182 118.903 120.182 113.822C120.182 108.692 120.451 103.244 120.989 97.4784C121.575 91.7129 122.454 86.5826 123.627 82.0875C124.849 77.5924 126.388 73.6347 128.244 70.2145C130.101 66.7455 132.349 63.5696 134.987 60.6869C139.384 55.8986 146.225 50.7194 155.508 45.1494Z" fill="#FCF6EB"/>
<path d="M0 130.975L2.50463 130.605C6.97369 130.014 9.67477 129.202 10.6079 128.168C11.983 126.591 12.6705 123.021 12.6705 117.455L12.6705 67.8106C12.6705 62.2453 12.0812 58.8962 10.9025 57.7635C9.77299 56.6307 8.37334 55.9166 6.70358 55.6211C5.03382 55.2763 2.7993 54.9808 0 54.7346L0 48.4551L40.3688 48.4551L40.3688 54.7346C37.5695 55.0301 35.335 55.3256 33.6652 55.6211C31.9955 55.9166 30.7186 56.483 29.8346 57.3202C28.3613 58.65 27.6246 62.1468 27.6246 67.8106L27.6246 117.455C27.6246 123.07 28.0666 126.419 28.9506 127.503C29.8837 128.537 30.9887 129.226 32.2656 129.571C33.5916 129.867 35.3596 130.187 37.5695 130.532L40.3688 130.975L40.3688 137.107L0 137.107L0 130.975ZM51.566 130.975L54.0706 130.605C58.5397 130.014 61.2408 129.202 62.1739 128.168C63.549 126.591 64.2365 123.021 64.2365 117.455L64.2365 67.8106C64.2365 62.2453 63.6472 58.8962 62.4685 57.7635C61.339 56.6307 59.9394 55.9166 58.2696 55.6211C56.5998 55.2763 54.3653 54.9808 51.566 54.7346L51.566 48.4551L91.9348 48.4551L91.9348 54.7346C89.1355 55.0301 86.901 55.3256 85.2313 55.6211C83.5615 55.9166 82.2846 56.483 81.4006 57.3202C79.9273 58.65 79.1907 62.1468 79.1907 67.8106L79.1907 117.455C79.1907 123.07 79.6327 126.419 80.5166 127.503C81.4497 128.537 82.5547 129.226 83.8316 129.571C85.1576 129.867 86.9256 130.187 89.1355 130.532L91.9348 130.975L91.9348 137.107L51.566 137.107L51.566 130.975ZM69.0985 54.8084C54.8073 54.8084 40.0496 54.7838 24.8254 54.7346L24.8254 48.4551L69.0985 48.4551L69.0985 54.8084Z" fill="#FCF6EB"/>
</svg>
