<svg width="200" height="200" viewBox="0 0 200 200" fill="none" xmlns="http://www.w3.org/2000/svg">
<rect width="200" height="200" fill="#AA9951"/>
<path d="M100.941 155.588C101.457 161.787 95.5722 160.754 92.5656 159.462C95.9817 166.565 110.606 165.273 111.25 153.651C111.894 142.029 105.452 138.8 103.519 137.509C101.586 136.217 93.8547 134.926 93.8547 132.343C93.8547 130.277 95.5728 129.76 96.4318 129.76C95.9164 128.727 88.4856 124.595 84.8347 122.658C96.1741 115.943 106.74 122.443 110.606 126.532C108.458 122.658 102.745 114.393 97.0761 112.327C91.4068 110.261 87.8411 104.148 86.767 101.35C89.8594 103.933 94.9282 103.718 97.0761 103.287C96.2169 102.211 94.3698 99.9296 93.8547 99.4131C93.2107 98.7674 80.9686 89.7277 79.0357 81.9795C77.4894 75.7808 80.9686 72.5094 82.9014 71.6484C81.1834 70.1418 78.0049 63.6419 79.0357 49.695C80.3243 32.2614 91.9213 28.3873 94.4986 27.7416C97.0759 27.0959 101.586 29.0329 102.874 35.4898C103.905 40.6553 99.8676 47.1122 97.72 49.695C96.2166 44.9599 91.9213 38.0726 86.767 48.4036C81.6127 58.7346 88.0556 75.0921 91.9213 81.9795C91.277 67.7743 99.6527 65.8372 104.163 65.8372C108.673 65.8372 111.894 68.42 111.894 72.9398C111.894 77.4596 109.317 80.6881 105.451 80.6881C102.359 80.6881 100.727 78.1053 100.297 76.8139C93.8541 84.5622 108.673 110.39 111.25 113.618C113.827 116.847 123.491 143.32 120.914 155.588C118.337 167.857 108.673 172.376 99.6527 172.376C90.6327 172.376 86.767 163.982 86.767 159.462C86.767 154.943 88.6999 152.36 90.6327 151.068C92.5656 149.777 100.297 147.84 100.941 155.588Z" fill="#FCF6EB"/>
</svg>
