<svg width="77" height="112" viewBox="0 0 77 112" fill="none" xmlns="http://www.w3.org/2000/svg">
<path fill-rule="evenodd" clip-rule="evenodd" d="M35.0141 13.5906C38.3049 7.82574 42.9909 1.10295 49.9717 0C51.1611 1.23852 44.6594 10.2098 40.4399 16.0309C38.868 18.1979 37.6156 19.9282 37.1911 20.6602C33.3876 27.2385 31.7822 32.7306 29.7606 39.6384L29.332 41.0976C29.2521 41.3671 29.2647 41.5631 29.2605 41.6987C29.2479 41.9641 29.1681 41.9967 28.235 41.8958C26.3312 32.4122 30.349 21.7421 35.0141 13.5906ZM3.13196 19.6077C0.0597411 28.4092 4.59452 39.6063 18.4888 41.0976C18.4888 34.9302 14.3954 19.6077 3.13196 19.6077ZM41.1123 34.9302C51.8209 28.3467 65.5387 30.7123 76.0667 36.4635C66.2322 47.6743 47.324 49.4088 34.7073 42.0897C34.3501 39.8491 39.3682 36.0058 41.1123 34.9302ZM15.8957 48.3264C24.4946 44.6986 34.8082 47.8755 37.4769 57.1305C38.3259 57.2519 38.7083 56.6571 39.1622 55.9451C39.4354 55.5184 39.7338 55.0497 40.1793 54.6677C48.1687 47.8204 58.8564 51.1849 64.9293 58.7537C82.1817 80.2667 62.9078 120.705 33.5179 110.327C32.9632 110.129 32.2445 109.688 31.5594 109.268C31.156 109.019 30.7609 108.777 30.4205 108.597C30.0801 108.418 29.7901 108.3 29.5925 108.294C28.6511 108.26 25.0746 110.32 22.5361 110.466C-3.86143 112.006 -8.34158 58.5666 15.8957 48.3264Z" fill="#E73F40"/>
</svg>
