<svg width="87" height="112" viewBox="0 0 87 112" fill="none" xmlns="http://www.w3.org/2000/svg">
<path d="M20.0515 91.4717C31.8516 103.363 50.3986 113.159 67.5341 111.889C70.8793 111.642 82.4394 108.537 84.9519 106.617C86.4622 105.46 86.688 101.282 86.3492 99.5242C86.0458 97.9433 82.1006 97.1388 80.5409 96.4189C76.7158 94.6475 73.053 92.4668 69.2067 90.7306C57.4207 85.4093 48.8883 83.4191 39.5513 73.3834C29.0851 62.1338 26.0292 53.3896 24.3636 38.322C23.3121 28.7874 21.1242 19.4856 26.4597 10.8473C27.8359 8.61715 31.4846 6.45051 28.4005 3.90277C27.7583 3.37346 21.463 0 20.9125 0C20.5385 0 20.2279 0.0282298 19.9033 0.225838C18.8517 0.861009 18.2519 8.75124 17.7649 10.6497C14.9349 21.624 3.95345 23.4307 1.06696 36.4941C-3.30866 56.2832 6.31066 77.6108 20.0515 91.4646V91.4717Z" fill="#E73F40"/>
</svg>
