<svg width="1466" height="826" viewBox="0 0 1466 826" fill="none" xmlns="http://www.w3.org/2000/svg">
<mask id="path-1-outside-1_603_3" maskUnits="userSpaceOnUse" x="-0.597691" y="-0.174868" width="1466" height="826" fill="black">
<rect fill="white" x="-0.597691" y="-0.174868" width="1466" height="826"/>
<path d="M1439.25 418.986C1439.25 495.653 1408.76 572.277 1346.39 632.641C1306.51 671.24 1258.38 702.856 1200.89 723.465C1196.95 724.878 1182.38 731.571 1179.91 731.737C1177.1 731.928 1169.37 726.707 1168.48 724.488C1168.14 723.598 1167.99 722.7 1167.99 721.794C1167.99 717.745 1170.86 713.589 1170.86 709.956C1170.86 707.071 1169.05 704.519 1162.55 702.607C1138.57 695.549 1120.99 708.767 1106.61 721.935C1086.74 740.133 1066.16 775.889 1034.74 782.166C1025.51 784.012 1025.01 783.014 1018.48 777.793C1012.49 780.063 1010.11 782.964 1010.11 786.082C1010.11 789.706 1013.36 793.614 1017.91 797.113C1014.28 799.865 1008.48 797.596 1003.82 797.488C990.242 797.163 976.338 797.238 962.897 798.394C787.848 801.744 611.97 792.849 437.016 797.488C433.561 797.579 430.516 798.502 427.093 798.352C428.017 795.268 430.411 792.682 430.411 789.473C430.411 789 430.359 788.517 430.243 788.01C430.138 787.561 424.278 781.243 423.806 781.027C421.086 779.78 418.313 784.07 415.583 784.726C412.191 785.549 406.457 783.205 403.286 781.9C389.949 776.405 367.623 756.236 357.857 746.427C343.764 732.269 327.003 705.417 304.866 699.489C282.855 693.603 259.763 701.717 259.763 718.394C259.763 721.503 260.561 724.912 262.325 728.586C248.663 731.92 233.184 722.717 222.115 716.814C162.898 685.173 102.609 624.619 72.5223 573.583C41.1755 520.393 26.001 468.717 26.001 417.806C26.001 353.601 50.1122 290.602 96.329 227.229C122.089 191.914 167.077 150.364 207.256 124.817C215.94 119.296 244.326 102.894 254.386 103.26C260.992 103.501 262.262 106.053 262.262 109.354C262.262 111.432 261.758 113.81 261.758 116.096C261.758 117.251 261.884 118.39 262.283 119.446C268.668 136.78 293.462 138.958 311.693 131.891C328.453 125.398 347.019 97.0082 359.516 84.1889C370.437 72.9824 382.409 61.327 397.794 53.8533C407.885 48.9567 412.391 45.6313 423.249 52.3984C428.479 50.5196 430.369 48.4662 430.369 44.775C430.369 44.0019 430.285 43.1622 430.138 42.2311C429.602 38.9474 427.145 37.1683 426.053 34.2752L434.906 35.9712C627.859 36.2871 821.075 34.7657 1013.73 37.5923C1012.99 41.1338 1009.48 43.2288 1009.45 47.1361L1009.45 47.1943C1009.45 51.6669 1013.19 56.4554 1018.35 58.3259C1025.12 50.7025 1032.15 50.7857 1042.12 54.5849C1080.48 69.2165 1111.67 137.47 1151.74 137.32C1157.1 137.295 1170.07 132.457 1171.74 128.167C1172.1 127.261 1172.23 126.188 1172.23 125.033C1172.23 121.026 1170.59 115.855 1170.59 111.748C1170.59 107.234 1172.57 104.016 1180.87 105.064C1215.21 109.42 1269.88 143.189 1296.54 161.362C1390.76 225.6 1439.25 322.326 1439.25 418.986Z"/>
</mask>
<path d="M1439.25 418.986C1439.25 495.653 1408.76 572.277 1346.39 632.641C1306.51 671.24 1258.38 702.856 1200.89 723.465C1196.95 724.878 1182.38 731.571 1179.91 731.737C1177.1 731.928 1169.37 726.707 1168.48 724.488C1168.14 723.598 1167.99 722.7 1167.99 721.794C1167.99 717.745 1170.86 713.589 1170.86 709.956C1170.86 707.071 1169.05 704.519 1162.55 702.607C1138.57 695.549 1120.99 708.767 1106.61 721.935C1086.74 740.133 1066.16 775.889 1034.74 782.166C1025.51 784.012 1025.01 783.014 1018.48 777.793C1012.49 780.063 1010.11 782.964 1010.11 786.082C1010.11 789.706 1013.36 793.614 1017.91 797.113C1014.28 799.865 1008.48 797.596 1003.82 797.488C990.242 797.163 976.338 797.238 962.897 798.394C787.848 801.744 611.97 792.849 437.016 797.488C433.561 797.579 430.516 798.502 427.093 798.352C428.017 795.268 430.411 792.682 430.411 789.473C430.411 789 430.359 788.517 430.243 788.01C430.138 787.561 424.278 781.243 423.806 781.027C421.086 779.78 418.313 784.07 415.583 784.726C412.191 785.549 406.457 783.205 403.286 781.9C389.949 776.405 367.623 756.236 357.857 746.427C343.764 732.269 327.003 705.417 304.866 699.489C282.855 693.603 259.763 701.717 259.763 718.394C259.763 721.503 260.561 724.912 262.325 728.586C248.663 731.92 233.184 722.717 222.115 716.814C162.898 685.173 102.609 624.619 72.5223 573.583C41.1755 520.393 26.001 468.717 26.001 417.806C26.001 353.601 50.1122 290.602 96.329 227.229C122.089 191.914 167.077 150.364 207.256 124.817C215.94 119.296 244.326 102.894 254.386 103.26C260.992 103.501 262.262 106.053 262.262 109.354C262.262 111.432 261.758 113.81 261.758 116.096C261.758 117.251 261.884 118.39 262.283 119.446C268.668 136.78 293.462 138.958 311.693 131.891C328.453 125.398 347.019 97.0082 359.516 84.1889C370.437 72.9824 382.409 61.327 397.794 53.8533C407.885 48.9567 412.391 45.6313 423.249 52.3984C428.479 50.5196 430.369 48.4662 430.369 44.775C430.369 44.0019 430.285 43.1622 430.138 42.2311C429.602 38.9474 427.145 37.1683 426.053 34.2752L434.906 35.9712C627.859 36.2871 821.075 34.7657 1013.73 37.5923C1012.99 41.1338 1009.48 43.2288 1009.45 47.1361L1009.45 47.1943C1009.45 51.6669 1013.19 56.4554 1018.35 58.3259C1025.12 50.7025 1032.15 50.7857 1042.12 54.5849C1080.48 69.2165 1111.67 137.47 1151.74 137.32C1157.1 137.295 1170.07 132.457 1171.74 128.167C1172.1 127.261 1172.23 126.188 1172.23 125.033C1172.23 121.026 1170.59 115.855 1170.59 111.748C1170.59 107.234 1172.57 104.016 1180.87 105.064C1215.21 109.42 1269.88 143.189 1296.54 161.362C1390.76 225.6 1439.25 322.326 1439.25 418.986Z" fill="#AA9951"/>
<path d="M1406.12 277.035L1417.56 270.862L1417.56 270.86L1406.12 277.035ZM1361.14 213.67L1370.77 204.934L1370.77 204.932L1361.14 213.67ZM1298.59 159.475L1291.26 170.217L1291.26 170.217L1298.59 159.475ZM1181.37 102.603L1183 89.7065L1183 89.7055L1181.37 102.603ZM1170.92 104.166L1178.19 114.944L1178.19 114.94L1170.92 104.166ZM1168.29 118.814L1181.1 116.555L1181.09 116.545L1168.29 118.814ZM1168.71 127.427L1156.66 122.562L1156.63 122.634L1156.6 122.705L1168.71 127.427ZM1151.71 134.826L1151.76 147.826L1151.77 147.826L1151.78 147.826L1151.71 134.826ZM1092.53 93.2173L1082.96 102.022L1082.96 102.024L1092.53 93.2173ZM1043.47 52.3403L1048.1 40.1929L1048.1 40.1923L1043.47 52.3403ZM1017.57 55.0421L1010.67 66.0588L1019.12 71.3576L1026.43 64.5553L1017.57 55.0421ZM1012.58 47.1943L999.579 47.1087L999.579 47.1515L999.579 47.1943L1012.58 47.1943ZM1014.42 42.9129L1003.67 35.5929L1003.67 35.5975L1014.42 42.9129ZM1016.82 37.9996L1004.1 35.3291L1004.09 35.3468L1004.09 35.3646L1016.82 37.9996ZM1017.42 35.1481L1030.14 37.8187L1033.39 22.3649L1017.6 22.1494L1017.42 35.1481ZM1013.77 35.0983L1013.57 48.0969L1013.59 48.0971L1013.77 35.0983ZM607.412 33.4349L607.427 46.4349L607.412 33.4349ZM606.867 33.4356L606.882 46.4356V46.4356L606.867 33.4356ZM435.263 33.4771L432.814 46.2444L434.017 46.4752L435.242 46.4771L435.263 33.4771ZM426.767 31.8477L429.216 19.0804L429.214 19.0801L426.767 31.8477ZM421.432 30.8252L423.88 18.0576L401.032 13.6783L409.276 35.4319L421.432 30.8252ZM423.008 34.9819L435.187 30.4363L435.175 30.4057L435.164 30.3751L423.008 34.9819ZM425.071 38.645L435.789 31.2879V31.2879L425.071 38.645ZM425.108 38.6979L435.835 31.3544L435.827 31.3434L425.108 38.6979ZM426.988 42.5387L439.826 40.492L439.825 40.4884L426.988 42.5387ZM423.564 49.4721L417.168 60.7899L422.85 64.0006L428.819 61.3628L423.564 49.4721ZM398.497 50.5529L392.733 38.9005L392.733 38.9009L398.497 50.5529ZM398.335 50.6332L392.569 38.9818L398.335 50.6332ZM396.124 51.7167L390.489 40.0015L390.467 40.0122L390.445 40.0229L396.124 51.7167ZM356.996 82.6592L366.298 91.7398L366.303 91.7346L366.309 91.7295L356.996 82.6592ZM310.285 129.647L314.987 141.767L314.987 141.767L310.285 129.647ZM278.718 131.16L283.017 118.891L283.015 118.89L278.718 131.16ZM265.286 118.739L253.067 123.175L253.079 123.209L253.092 123.243L265.286 118.739ZM265.14 112.779L278.056 114.251L278.058 114.235L278.06 114.219L265.14 112.779ZM254.502 100.766L254.973 87.7744L254.972 87.7743L254.502 100.766ZM205.25 122.871L198.331 111.865L198.302 111.883L198.274 111.901L205.25 122.871ZM93.5671 225.982L83.0642 218.321L83.0631 218.323L93.5671 225.982ZM40.7766 321.503L28.5948 316.964L28.5939 316.967L40.7766 321.503ZM34.4022 495.412L46.8627 491.705L46.8617 491.702L34.4022 495.412ZM69.6345 574.638L58.4352 581.239L58.4356 581.24L69.6345 574.638ZM220.319 718.884L214.192 730.35L214.222 730.366L214.252 730.381L220.319 718.884ZM222.829 720.231L229.004 708.791L228.965 708.77L228.926 708.749L222.829 720.231ZM263.218 730.972L260.146 718.34L260.136 718.343L263.218 730.972ZM266.431 730.191L269.503 742.822L285.115 739.026L278.144 724.55L266.431 730.191ZM265.234 727.705L253.515 733.332L253.518 733.338L253.521 733.345L265.234 727.705ZM271.892 704.402L278.308 715.709L278.313 715.706L271.892 704.402ZM303.816 701.858L307.182 689.302L307.173 689.299L303.816 701.858ZM343.648 734.838L333.728 743.24L333.733 743.245L343.648 734.838ZM355.336 747.981L346.118 757.147L346.124 757.153L355.336 747.981ZM401.784 784.12L396.837 796.141L396.84 796.143L401.784 784.12ZM416.455 787.121L413.412 774.482L413.401 774.484L413.39 774.487L416.455 787.121ZM420.97 784.61L428.872 794.933L428.888 794.921L428.903 794.909L420.97 784.61ZM422.367 783.596L431.64 774.485L424.223 766.935L415.325 772.668L422.367 783.596ZM427.156 788.825L440.02 786.95L439.505 783.418L437.259 780.644L427.156 788.825ZM425.643 793.979L414.089 788.022L414.083 788.033L414.077 788.044L425.643 793.979ZM425.564 794.135L413.996 788.202L425.564 794.135ZM423.984 797.778L436.434 801.519L436.444 801.488L436.453 801.457L423.984 797.778ZM423.113 800.68L410.662 796.94L405.858 812.93L422.538 813.667L423.113 800.68ZM426.872 800.846L426.298 813.833L426.303 813.834L426.872 800.846ZM437.079 799.982L437.087 786.982L436.917 786.981L436.748 786.986L437.079 799.982ZM712.973 800.14L713.156 787.141L713.068 787.14L712.98 787.14L712.973 800.14ZM962.928 800.888L962.928 787.888L962.803 787.888L962.679 787.89L962.928 800.888ZM963.065 800.888L963.065 813.888L963.917 813.888L964.763 813.776L963.065 800.888ZM963.191 800.871L962.081 787.919L961.786 787.944L961.492 787.983L963.191 800.871ZM1003.68 799.982L1003.37 812.978L1003.38 812.978L1003.4 812.978L1003.68 799.982ZM1007.57 800.422L1005.6 813.271L1005.61 813.273L1005.62 813.275L1007.57 800.422ZM1020.05 798.917L1012.2 788.55L1012.19 788.558L1020.05 798.917ZM1022.41 797.13L1030.25 807.498L1043.83 797.224L1030.34 786.832L1022.41 797.13ZM1020.07 795.326L1028 785.028L1027.99 785.021L1020.07 795.326ZM1017.85 780.877L1025.96 770.721L1019.58 765.619L1012.21 769.163L1017.85 780.877ZM1035.46 784.585L1032.91 771.837L1032.91 771.839L1035.46 784.585ZM1091.77 742.087L1101.6 750.593L1101.6 750.591L1091.77 742.087ZM1108.94 723.573L1117.71 733.166L1117.72 733.161L1108.94 723.573ZM1161.41 704.951L1157.74 717.423L1157.74 717.425L1161.41 704.951ZM1166.43 714.834L1178.67 719.203L1166.43 714.834ZM1166.41 714.877L1154.17 710.509L1154.17 710.515L1166.41 714.877ZM1166.39 714.936L1178.64 719.298L1166.39 714.936ZM1165.45 725.236L1177.53 720.427L1177.52 720.409L1177.51 720.392L1165.45 725.236ZM1180.15 734.231L1181.03 747.201L1181.04 747.2L1181.05 747.2L1180.15 734.231ZM1195.2 728.628L1190.12 716.662L1190.11 716.666L1195.2 728.628ZM1202.16 725.751L1206.5 738.006L1206.52 737.997L1206.55 737.988L1202.16 725.751ZM1348.79 634.237L1339.75 624.897L1339.75 624.897L1348.79 634.237ZM221.113 719.308L227.276 707.862L227.275 707.861L221.113 719.308ZM221.635 719.59L227.815 708.152L227.815 708.152L221.635 719.59ZM1196.18 728.211L1201.26 740.177L1201.26 740.176L1196.18 728.211ZM1442.4 418.986L1455.4 418.986C1455.4 367.898 1442.29 316.7 1417.56 270.862L1406.12 277.035L1394.68 283.208C1417.41 325.343 1429.4 372.31 1429.4 418.986L1442.4 418.986ZM1406.12 277.035L1417.56 270.86C1404.86 247.329 1389.11 225.148 1370.77 204.934L1361.14 213.67L1351.52 222.406C1368.48 241.099 1383 261.566 1394.68 283.21L1406.12 277.035ZM1361.14 213.67L1370.77 204.932C1351.82 184.057 1329.99 165.15 1305.91 148.733L1298.59 159.475L1291.26 170.217C1313.72 185.524 1333.99 203.097 1351.52 222.408L1361.14 213.67ZM1298.59 159.475L1305.91 148.733C1296.85 142.561 1276.78 129.296 1253.97 116.909C1231.63 104.773 1204.9 92.4835 1183 89.7065L1181.37 102.603L1179.73 115.5C1196.38 117.611 1219.38 127.705 1241.57 139.757C1263.29 151.558 1282.56 164.285 1291.26 170.217L1298.59 159.475ZM1181.37 102.603L1183 89.7055C1177.02 88.9506 1169.85 89.2032 1163.65 93.3917L1170.92 104.166L1178.19 114.94C1177.52 115.394 1177.07 115.436 1177.24 115.41C1177.48 115.374 1178.24 115.312 1179.74 115.501L1181.37 102.603ZM1170.92 104.166L1163.65 93.3885C1156.82 97.9957 1154.44 105.122 1154.44 111.748L1167.44 111.748L1180.44 111.748C1180.44 111.342 1180.51 111.79 1180.12 112.644C1179.67 113.621 1178.94 114.437 1178.19 114.944L1170.92 104.166ZM1167.44 111.748L1154.44 111.748C1154.44 115.335 1155.12 118.958 1155.49 121.084L1168.29 118.814L1181.09 116.545C1180.63 113.932 1180.44 112.633 1180.44 111.748L1167.44 111.748ZM1168.29 118.814L1155.49 121.074C1155.95 123.695 1156.07 124.592 1156.07 125.024L1169.07 125.024L1182.07 125.024C1182.07 121.832 1181.43 118.456 1181.1 116.555L1168.29 118.814ZM1169.07 125.024L1156.07 125.024C1156.07 125.024 1156.07 125.013 1156.07 124.992C1156.07 124.971 1156.07 124.939 1156.08 124.895C1156.08 124.811 1156.09 124.67 1156.12 124.481C1156.17 124.135 1156.3 123.442 1156.66 122.562L1168.71 127.427L1180.77 132.292C1181.9 129.489 1182.07 126.791 1182.07 125.024L1169.07 125.024ZM1168.71 127.427L1156.6 122.705C1157.09 121.44 1157.7 120.554 1158.08 120.057C1158.48 119.54 1158.82 119.202 1159 119.035C1159.34 118.721 1159.48 118.66 1159.23 118.817C1158.76 119.119 1157.81 119.629 1156.47 120.195C1155.17 120.744 1153.83 121.211 1152.71 121.521C1152.15 121.675 1151.73 121.766 1151.47 121.814C1151.15 121.869 1151.25 121.828 1151.64 121.826L1151.71 134.826L1151.78 147.826C1156.79 147.799 1162.74 145.773 1166.6 144.14C1168.8 143.21 1171.17 142.05 1173.26 140.706C1174.3 140.04 1175.54 139.161 1176.72 138.062C1177.72 137.131 1179.65 135.161 1180.83 132.149L1168.71 127.427ZM1151.71 134.826L1151.67 121.826C1145.69 121.847 1138.52 118.767 1129.52 111.586C1120.62 104.487 1111.73 94.875 1102.12 84.4491L1092.56 93.2553L1083 102.062C1092.26 112.116 1102.54 123.327 1113.3 131.911C1123.96 140.415 1136.93 147.879 1151.76 147.826L1151.71 134.826ZM1092.56 93.2553L1102.12 84.4491C1102.12 84.4406 1102.11 84.4324 1102.1 84.4264C1102.1 84.4197 1102.09 84.4152 1102.09 84.411L1092.53 93.2173L1082.96 102.024C1082.97 102.032 1082.98 102.04 1082.98 102.046C1082.99 102.053 1082.99 102.057 1083 102.062L1092.56 93.2553ZM1092.53 93.2173L1102.09 84.413C1094.45 76.1131 1086.16 67.0884 1077.48 59.313C1068.82 51.5586 1059.04 44.3607 1048.1 40.1929L1043.47 52.3403L1038.84 64.4877C1045.51 67.0288 1052.53 71.8728 1060.13 78.6814C1067.71 85.4691 1075.14 93.5284 1082.96 102.022L1092.53 93.2173ZM1043.47 52.3403L1048.1 40.1923C1039.06 36.7453 1022.94 32.2738 1008.71 45.529L1017.57 55.0421L1026.43 64.5553C1028.16 62.9385 1029.49 62.6194 1030.86 62.5922C1032.75 62.555 1035.24 63.1164 1038.85 64.4882L1043.47 52.3403ZM1017.57 55.0421L1024.47 44.0255C1024.61 44.1112 1024.74 44.2244 1024.91 44.4857C1025.05 44.699 1025.58 45.6012 1025.58 47.1943L1012.58 47.1943L999.579 47.1943C999.579 55.7922 1005.12 62.587 1010.67 66.0588L1017.57 55.0421ZM1012.58 47.1943L1025.58 47.2798C1025.57 47.9954 1025.48 48.689 1025.31 49.3265C1025.15 49.9462 1024.95 50.4078 1024.82 50.6776C1024.7 50.929 1024.62 51.0397 1024.69 50.9345C1024.77 50.8082 1024.88 50.6405 1025.16 50.2282L1014.42 42.9129L1003.67 35.5975C1003.08 36.4701 999.62 40.907 999.579 47.1087L1012.58 47.1943ZM1014.42 42.9129L1025.16 50.2329C1025.96 49.0597 1028.54 45.4975 1029.55 40.6347L1016.82 37.9996L1004.09 35.3646C1004.2 34.8213 1004.37 34.5189 1004.35 34.5503C1004.34 34.5709 1004.3 34.6539 1004.18 34.8317C1004.13 34.9195 1004.06 35.0222 1003.97 35.1501C1003.89 35.2818 1003.79 35.418 1003.67 35.5929L1014.42 42.9129ZM1016.82 37.9996L1029.54 40.6702L1030.14 37.8187L1017.42 35.1481L1004.7 32.4776L1004.1 35.3291L1016.82 37.9996ZM1017.42 35.1481L1017.6 22.1494L1013.94 22.0995L1013.77 35.0983L1013.59 48.0971L1017.24 48.1469L1017.42 35.1481ZM1013.77 35.0983L1013.96 22.0997C878.552 20.1137 740.651 20.2772 607.396 20.4349L607.412 33.4349L607.427 46.4349C740.717 46.2771 878.411 46.1144 1013.57 48.0969L1013.77 35.0983ZM607.412 33.4349L607.396 20.4349C607.215 20.4351 607.033 20.4354 606.851 20.4356L606.867 33.4356L606.882 46.4356C607.064 46.4353 607.245 46.4351 607.427 46.4349L607.412 33.4349ZM606.867 33.4356L606.851 20.4356C550.592 20.5021 492.453 20.5686 435.284 20.4771L435.263 33.4771L435.242 46.4771C492.454 46.5686 550.628 46.5021 606.882 46.4356L606.867 33.4356ZM435.263 33.4771L437.711 20.7098L429.216 19.0804L426.767 31.8477L424.318 44.615L432.814 46.2444L435.263 33.4771ZM426.767 31.8477L429.214 19.0801L423.88 18.0576L421.432 30.8252L418.985 43.5927L424.32 44.6153L426.767 31.8477ZM421.432 30.8252L409.276 35.4319L410.851 39.5886L423.008 34.9819L435.164 30.3751L433.589 26.2184L421.432 30.8252ZM423.008 34.9819L410.828 39.5274C412 42.6682 413.72 45.0792 414.354 46.0021L425.071 38.645L435.789 31.2879C435.602 31.0142 435.479 30.8356 435.366 30.6642C435.259 30.503 435.194 30.3979 435.152 30.3273C435.069 30.1869 435.114 30.2415 435.187 30.4363L423.008 34.9819ZM425.071 38.645L414.354 46.0021C414.372 46.029 414.365 46.019 414.389 46.0541L425.108 38.6979L435.826 31.3418C435.826 31.3417 435.795 31.2964 435.789 31.2879L425.071 38.645ZM425.108 38.6979L414.381 46.0415C414.391 46.0565 414.403 46.0741 414.414 46.0906L425.141 38.7464L435.868 31.4021C435.857 31.3864 435.847 31.3717 435.835 31.3544L425.108 38.6979ZM425.141 38.7464L414.414 46.0906C414.651 46.4357 414.759 46.5961 414.844 46.7276C414.918 46.8416 414.891 46.8088 414.824 46.6819C414.66 46.3736 414.317 45.6315 414.15 44.589L426.988 42.5387L439.825 40.4884C439.063 35.716 436.465 32.2749 435.868 31.4021L425.141 38.7464ZM426.988 42.5387L414.15 44.5855C414.186 44.8097 414.199 44.9309 414.203 44.973C414.207 45.0154 414.198 44.9373 414.198 44.7667L427.198 44.7667L440.198 44.7667C440.198 43.1853 440.02 41.7141 439.826 40.492L426.988 42.5387ZM427.198 44.7667L414.198 44.7667C414.198 44.6817 414.18 42.3561 415.89 39.9199C417.367 37.8148 419.004 37.2747 418.31 37.5814L423.564 49.4721L428.819 61.3628C431.191 60.3144 434.645 58.4567 437.172 54.8552C439.932 50.9226 440.198 46.9218 440.198 44.7667L427.198 44.7667ZM423.564 49.4721L429.96 38.1544C422.7 34.0516 415.684 32.3704 408.438 33.3232C402.011 34.1683 396.429 37.0727 392.733 38.9005L398.497 50.5529L404.261 62.2052C408.852 59.9346 410.463 59.2808 411.828 59.1013C412.374 59.0294 413.748 58.8571 417.168 60.7899L423.564 49.4721ZM398.497 50.5529L392.732 38.9011C392.681 38.9263 392.623 38.955 392.569 38.9818L398.335 50.6332L404.101 62.2845C404.155 62.2577 404.206 62.2328 404.262 62.2047L398.497 50.5529ZM398.335 50.6332L392.569 38.9818C391.855 39.3354 391.184 39.6673 390.489 40.0015L396.124 51.7167L401.759 63.432C402.605 63.025 403.403 62.6301 404.101 62.2845L398.335 50.6332ZM396.124 51.7167L390.445 40.0229C372.482 48.7467 358.891 62.0813 347.683 73.589L356.996 82.6592L366.309 91.7295C377.448 80.2922 388.303 69.9669 401.803 63.4106L396.124 51.7167ZM356.996 82.6592L347.693 73.5787C343.531 77.8424 338.965 83.4146 334.651 88.6652L344.695 96.9185L354.739 105.172C359.294 99.6283 363.083 95.0344 366.298 91.7398L356.996 82.6592ZM344.695 96.9185L334.651 88.6652C334.531 88.8111 334.548 88.7903 334.434 88.9293L344.478 97.1828L354.522 105.436C354.552 105.399 354.714 105.202 354.739 105.172L344.695 96.9185ZM344.478 97.1828L334.433 88.9308C334.419 88.9472 334.407 88.9625 334.401 88.9697C334.397 88.9742 334.395 88.9766 334.393 88.9788C334.392 88.9808 334.391 88.9813 334.392 88.9809L344.437 97.2329L354.482 105.485C354.495 105.468 354.508 105.453 354.514 105.446C354.518 105.441 354.52 105.439 354.521 105.437C354.523 105.435 354.523 105.434 354.523 105.435L344.478 97.1828ZM344.437 97.2329L334.392 88.9809C329.167 95.3406 323.75 101.922 318.345 107.447C312.66 113.258 308.338 116.458 305.583 117.527L310.285 129.647L314.987 141.767C323.276 138.551 330.876 131.817 336.931 125.628C343.264 119.154 349.401 111.67 354.482 105.485L344.437 97.2329ZM310.285 129.647L305.584 117.527C297.404 120.699 288.538 120.826 283.017 118.891L278.718 131.16L274.419 143.428C286.834 147.779 302.163 146.741 314.987 141.767L310.285 129.647ZM278.718 131.16L283.015 118.89C279.359 117.61 278.115 115.951 277.481 114.236L265.286 118.739L253.092 123.243C256.806 133.3 264.594 139.987 274.421 143.429L278.718 131.16ZM265.286 118.739L277.506 114.304C277.889 115.358 277.888 116.071 277.888 116.087L264.888 116.087L251.888 116.087C251.888 118.232 252.159 120.674 253.067 123.175L265.286 118.739ZM264.888 116.087L277.888 116.087C277.888 115.882 277.917 115.47 278.056 114.251L265.14 112.779L252.223 111.307C252.11 112.299 251.888 114.165 251.888 116.087L264.888 116.087ZM265.14 112.779L278.06 114.219C278.176 113.174 278.392 111.307 278.392 109.345L265.392 109.345L252.392 109.345C252.392 109.645 252.355 110.122 252.219 111.339L265.14 112.779ZM265.392 109.345L278.392 109.345C278.392 103.522 276.328 97.2842 270.743 92.8817C265.813 88.9964 259.858 87.9517 254.973 87.7744L254.502 100.766L254.03 113.757C255.114 113.797 255.633 113.919 255.75 113.952C255.851 113.98 255.355 113.858 254.648 113.301C253.873 112.69 253.198 111.831 252.78 110.86C252.394 109.962 252.392 109.357 252.392 109.345L265.392 109.345ZM254.502 100.766L254.972 87.7743C248.743 87.5488 241.837 89.7988 236.517 91.8725C230.671 94.1512 224.489 97.1519 218.981 100.04C207.93 105.832 198.612 111.689 198.331 111.865L205.25 122.871L212.169 133.877C212.245 133.829 220.895 128.392 231.052 123.067C236.147 120.397 241.379 117.883 245.96 116.097C248.247 115.206 250.191 114.567 251.75 114.175C253.42 113.755 254.095 113.76 254.031 113.757L254.502 100.766ZM205.25 122.871L198.274 111.901C156.341 138.568 110.221 181.09 83.0642 218.321L93.5671 225.982L104.07 233.643C129.147 199.263 172.794 158.917 212.226 133.841L205.25 122.871ZM93.5671 225.982L83.0631 218.323C59.1428 251.127 40.7644 284.305 28.5948 316.964L40.7766 321.503L52.9584 326.043C64.1649 295.968 81.3021 264.867 104.071 233.642L93.5671 225.982ZM40.7766 321.503L28.5939 316.967C16.1733 350.32 9.80858 384.25 9.80858 417.806L22.8086 417.806L35.8086 417.806C35.8086 387.564 41.5416 356.7 52.9593 326.04L40.7766 321.503ZM22.8086 417.806L9.80858 417.806C9.80858 444.762 13.9048 472.123 21.9427 499.121L34.4022 495.412L46.8617 491.702C39.5046 466.991 35.8086 442.127 35.8086 417.806L22.8086 417.806ZM34.4022 495.412L21.9418 499.118C30.0295 526.308 42.3419 553.935 58.4352 581.239L69.6345 574.638L80.8338 568.037C65.6749 542.318 54.2749 516.624 46.8627 491.705L34.4022 495.412ZM69.6345 574.638L58.4356 581.24C91.9477 638.087 155.677 699.08 214.192 730.35L220.319 718.884L226.447 707.419C172.113 678.383 111.905 620.744 80.8334 568.036L69.6345 574.638ZM220.319 718.884L214.252 730.381C215.368 730.97 215.316 730.961 216.733 731.713L222.829 720.231L228.926 708.749C228.62 708.587 226.909 707.663 226.387 707.387L220.319 718.884ZM222.829 720.231L216.655 731.671C222.065 734.591 229.564 738.67 237.701 741.442C245.849 744.219 255.889 746.142 266.3 743.601L263.218 730.972L260.136 718.343C256.443 719.244 251.833 718.789 246.086 716.831C240.326 714.869 234.683 711.857 229.004 708.791L222.829 720.231ZM263.218 730.972L266.29 743.604L269.503 742.822L266.431 730.191L263.359 717.559L260.146 718.34L263.218 730.972ZM266.431 730.191L278.144 724.55L276.947 722.064L265.234 727.705L253.521 733.345L254.718 735.831L266.431 730.191ZM265.234 727.705L276.953 722.078C276.028 720.151 275.871 718.943 275.871 718.402L262.871 718.402L249.871 718.402C249.871 723.681 251.311 728.741 253.515 733.332L265.234 727.705ZM262.871 718.402L275.871 718.402C275.871 718.05 275.925 717.878 275.95 717.806C275.981 717.719 276.042 717.587 276.19 717.392C276.538 716.934 277.227 716.322 278.308 715.709L271.892 704.402L265.476 693.096C259.642 696.406 249.871 704.201 249.871 718.402L262.871 718.402ZM271.892 704.402L278.313 715.706C282.786 713.165 291.324 711.976 300.46 714.418L303.816 701.858L307.173 689.299C293.29 685.589 277.359 686.346 265.471 693.099L271.892 704.402ZM303.816 701.858L300.451 714.415C305.25 715.701 310.515 719.004 316.432 724.415C322.317 729.797 327.897 736.356 333.728 743.24L343.648 734.838L353.568 726.435C347.942 719.794 341.299 711.924 333.979 705.229C326.689 698.563 317.768 692.139 307.182 689.302L303.816 701.858ZM343.648 734.838L333.733 743.245C334.287 743.899 333.307 742.743 333.85 743.383L343.765 734.976L353.681 726.568C353.658 726.542 353.637 726.516 353.618 726.494C353.598 726.47 353.58 726.45 353.564 726.43L343.648 734.838ZM343.765 734.976L333.85 743.383C337.811 748.055 341.989 752.995 346.118 757.147L355.336 747.981L364.555 738.815C361.298 735.54 357.823 731.454 353.681 726.568L343.765 734.976ZM355.336 747.981L346.124 757.153C351.35 762.403 359.774 770.294 368.773 777.674C377.44 784.782 387.866 792.45 396.837 796.141L401.784 784.12L406.731 772.098C401.662 770.011 393.826 764.594 385.26 757.57C377.026 750.817 369.246 743.527 364.549 738.809L355.336 747.981ZM401.784 784.12L396.84 796.143C399.317 797.161 402.666 798.492 406.182 799.371C409.568 800.216 414.412 800.993 419.519 799.754L416.455 787.121L413.39 774.487C414.213 774.288 414.147 774.561 412.482 774.145C410.947 773.762 409.103 773.073 406.729 772.097L401.784 784.12ZM416.455 787.121L419.497 799.76C424.372 798.586 427.903 795.675 428.872 794.933L420.97 784.61L413.068 774.287C412.906 774.412 412.781 774.507 412.66 774.598C412.544 774.686 412.452 774.754 412.375 774.809C412.217 774.923 412.16 774.958 412.17 774.951C412.184 774.943 412.63 774.67 413.412 774.482L416.455 787.121ZM420.97 784.61L428.903 794.909C429.078 794.774 429.225 794.662 429.353 794.568C429.415 794.523 429.455 794.494 429.475 794.48C429.499 794.463 429.474 794.481 429.408 794.524L422.367 783.596L415.325 772.668C414.343 773.301 413.367 774.058 413.037 774.311L420.97 784.61ZM422.367 783.596L413.094 792.707C413.645 793.268 414.534 794.211 415.407 795.164C415.834 795.63 416.228 796.065 416.546 796.424C416.705 796.603 416.833 796.75 416.931 796.863C417.036 796.986 417.069 797.027 417.052 797.006L427.156 788.825L437.259 780.644C436.084 779.193 433.142 776.014 431.64 774.485L422.367 783.596ZM427.156 788.825L414.291 790.7C414.266 790.527 414.208 790.082 414.208 789.473L427.208 789.473L440.208 789.473C440.208 788.433 440.108 787.555 440.02 786.95L427.156 788.825ZM427.208 789.473L414.208 789.473C414.208 788.054 414.563 787.115 414.618 786.972C414.648 786.895 414.641 786.924 414.544 787.124C414.441 787.338 414.314 787.585 414.089 788.022L425.643 793.979L437.198 799.937C437.625 799.108 440.208 794.721 440.208 789.473L427.208 789.473ZM425.643 793.979L414.074 788.052C414.045 788.106 414.034 788.128 413.996 788.202L425.564 794.135L437.131 800.068C437.146 800.038 437.188 799.956 437.213 799.907L425.643 793.979ZM425.564 794.135L413.996 788.202C413.483 789.204 412.305 791.425 411.515 794.1L423.984 797.778L436.453 801.457C436.432 801.527 436.439 801.48 436.544 801.249C436.665 800.981 436.817 800.68 437.131 800.068L425.564 794.135ZM423.984 797.778L411.534 794.038L410.662 796.94L423.113 800.68L435.563 804.42L436.434 801.519L423.984 797.778ZM423.113 800.68L422.538 813.667L426.298 813.833L426.872 800.846L427.446 787.859L423.687 787.693L423.113 800.68ZM426.872 800.846L426.303 813.834C429.934 813.993 433.062 813.525 434.928 813.263L433.12 800.389L431.312 787.515C429.272 787.802 428.368 787.899 427.441 787.859L426.872 800.846ZM433.12 800.389L434.923 813.263C434.941 813.261 434.955 813.259 434.966 813.257C434.976 813.256 434.985 813.254 434.989 813.254C434.994 813.253 434.993 813.253 434.991 813.254C434.989 813.254 434.983 813.255 434.974 813.256L433.171 800.382L431.368 787.507C431.35 787.51 431.336 787.512 431.325 787.513C431.315 787.515 431.306 787.516 431.303 787.517C431.298 787.517 431.298 787.517 431.3 787.517C431.302 787.517 431.308 787.516 431.317 787.515L433.12 800.389ZM433.171 800.382L434.974 813.256C436.455 813.049 436.991 812.988 437.411 812.977L437.079 799.982L436.748 786.986C434.595 787.041 432.58 787.337 431.368 787.507L433.171 800.382ZM712.973 800.14L712.79 813.138C794.728 814.293 879.712 815.486 963.177 813.885L962.928 800.888L962.679 787.89C879.718 789.481 795.167 788.297 713.156 787.141L712.973 800.14ZM962.928 800.888L962.928 813.888L963.065 813.888L963.065 800.888L963.065 787.888L962.928 787.888L962.928 800.888ZM963.065 800.888L964.763 813.776L964.889 813.76L963.191 800.871L961.492 787.983L961.366 787.999L963.065 800.888ZM963.191 800.871L964.3 813.824C975.243 812.887 987.608 812.595 1003.37 812.978L1003.68 799.982L1004 786.985C987.605 786.587 974.242 786.877 962.081 787.919L963.191 800.871ZM1003.68 799.982L1003.4 812.978C1003.37 812.978 1003.51 812.981 1003.95 813.033C1004.38 813.086 1004.88 813.161 1005.6 813.271L1007.57 800.422L1009.54 787.573C1008.34 787.387 1006.12 787.032 1003.97 786.985L1003.68 799.982ZM1007.57 800.422L1005.62 813.275C1008.3 813.682 1019.08 815.96 1027.9 809.277L1020.05 798.917L1012.19 788.558C1013.08 787.881 1013.78 787.939 1013.29 787.961C1013.03 787.973 1012.61 787.965 1011.94 787.898C1011.25 787.828 1010.53 787.722 1009.52 787.569L1007.57 800.422ZM1020.05 798.917L1027.89 809.285L1030.25 807.498L1022.41 797.13L1014.57 786.762L1012.2 788.55L1020.05 798.917ZM1022.41 797.13L1030.34 786.832L1028 785.028L1020.07 795.326L1012.13 805.624L1014.47 807.429L1022.41 797.13ZM1020.07 795.326L1027.99 785.021C1027.23 784.433 1026.64 783.917 1026.2 783.49C1025.75 783.057 1025.52 782.773 1025.43 782.656C1025.34 782.525 1025.49 782.699 1025.69 783.183C1025.89 783.669 1026.22 784.673 1026.22 786.082L1013.22 786.082L1000.22 786.082C1000.22 791.319 1002.59 795.495 1004.54 798.135C1006.64 800.966 1009.33 803.467 1012.14 805.631L1020.07 795.326ZM1013.22 786.082L1026.22 786.082C1026.22 786.011 1026.24 786.851 1026.02 787.881C1025.8 788.957 1025.39 789.999 1024.82 790.919C1023.69 792.72 1022.58 793.027 1023.49 792.592L1017.85 780.877L1012.21 769.163C1008.49 770.956 1005.06 773.474 1002.78 777.125C1000.28 781.124 1000.22 784.802 1000.22 786.082L1013.22 786.082ZM1017.85 780.877L1009.74 791.034C1012.47 793.222 1016.49 796.453 1022.11 797.811C1027.56 799.129 1032.96 798.345 1038.02 797.331L1035.46 784.585L1032.91 771.839C1030.73 772.275 1029.43 772.445 1028.63 772.493C1027.91 772.537 1027.9 772.461 1028.22 772.54C1028.88 772.7 1028.95 773.105 1025.96 770.721L1017.85 780.877ZM1035.46 784.585L1038.01 797.333C1052.74 794.388 1064.96 786.765 1075.15 778.114C1085.25 769.536 1094.06 759.311 1101.6 750.593L1091.77 742.087L1081.94 733.581C1074.16 742.57 1066.63 751.233 1058.32 758.297C1050.08 765.288 1041.81 770.06 1032.91 771.837L1035.46 784.585ZM1091.77 742.087L1101.6 750.591C1101.61 750.579 1101.62 750.568 1101.63 750.563C1101.63 750.556 1101.63 750.556 1101.63 750.556L1091.8 742.052L1081.97 733.548C1081.96 733.56 1081.95 733.571 1081.94 733.576C1081.94 733.583 1081.94 733.583 1081.94 733.583L1091.77 742.087ZM1091.8 742.052L1101.63 750.556C1107.74 743.497 1112.85 737.611 1117.71 733.166L1108.94 723.573L1100.17 713.98C1093.96 719.66 1087.79 726.816 1081.97 733.548L1091.8 742.052ZM1108.94 723.573L1117.72 733.161C1131.41 720.624 1142.78 713.023 1157.74 717.423L1161.41 704.951L1165.07 692.479C1135.15 683.677 1113.71 701.582 1100.16 713.985L1108.94 723.573ZM1161.41 704.951L1157.74 717.425C1158.72 717.711 1159.01 717.882 1158.9 717.823C1158.79 717.762 1158.02 717.339 1157.14 716.34C1156.16 715.234 1155.39 713.816 1154.98 712.227C1154.62 710.833 1154.66 709.667 1154.66 709.964L1167.66 709.964L1180.66 709.964C1180.66 708.544 1180.65 703.677 1176.62 699.124C1173.43 695.511 1169.06 693.649 1165.07 692.477L1161.41 704.951ZM1167.66 709.964L1154.66 709.964C1154.66 709.413 1154.72 709.026 1154.75 708.862C1154.78 708.695 1154.8 708.646 1154.77 708.756C1154.74 708.864 1154.68 709.049 1154.58 709.353C1154.47 709.665 1154.35 710.002 1154.19 710.466L1166.43 714.834L1178.67 719.203C1179.03 718.196 1180.66 714.123 1180.66 709.964L1167.66 709.964ZM1166.43 714.834L1154.19 710.466C1154.18 710.473 1154.18 710.479 1154.18 710.486C1154.18 710.493 1154.17 710.501 1154.17 710.509L1166.41 714.877L1178.66 719.245C1178.67 719.217 1178.66 719.234 1178.67 719.203L1166.43 714.834ZM1166.41 714.877L1154.17 710.515C1154.06 710.828 1154.25 710.284 1154.15 710.574L1166.39 714.936L1178.64 719.298C1178.64 719.283 1178.65 719.269 1178.65 719.26C1178.66 719.25 1178.66 719.244 1178.66 719.239L1166.41 714.877ZM1166.39 714.936L1154.15 710.574C1153.49 712.411 1151.81 716.775 1151.81 721.802L1164.81 721.802L1177.81 721.802C1177.81 722.036 1177.77 722.019 1177.88 721.581C1178.02 721.071 1178.22 720.482 1178.64 719.298L1166.39 714.936ZM1164.81 721.802L1151.81 721.802C1151.81 724.53 1152.29 727.344 1153.38 730.079L1165.45 725.236L1177.51 720.392C1177.75 720.982 1177.81 721.485 1177.81 721.802L1164.81 721.802ZM1165.45 725.236L1153.37 730.045C1154.78 733.581 1157.34 736.166 1158.68 737.432C1160.41 739.06 1162.41 740.594 1164.44 741.909C1166.47 743.221 1168.82 744.513 1171.31 745.489C1173.55 746.368 1177.07 747.47 1181.03 747.201L1180.15 734.231L1179.27 721.261C1180.21 721.197 1180.81 721.319 1180.94 721.345C1181.1 721.379 1181.06 721.385 1180.81 721.288C1180.3 721.086 1179.5 720.683 1178.58 720.089C1177.67 719.498 1176.94 718.915 1176.53 718.521C1176.32 718.325 1176.31 718.291 1176.43 718.437C1176.49 718.517 1176.63 718.701 1176.81 718.987C1176.98 719.26 1177.26 719.746 1177.53 720.427L1165.45 725.236ZM1180.15 734.231L1181.05 747.2C1184.11 746.988 1187.07 745.944 1189.37 745.081C1191.99 744.094 1195.53 742.617 1200.29 740.589L1195.2 728.628L1190.11 716.666C1185.26 718.728 1182.23 719.986 1180.22 720.745C1179.22 721.12 1178.68 721.293 1178.43 721.364C1178.15 721.442 1178.51 721.313 1179.25 721.262L1180.15 734.231ZM1195.2 728.628L1200.28 740.595C1203.51 739.223 1205.7 738.29 1206.5 738.006L1202.16 725.751L1197.82 713.496C1196.04 714.127 1192.73 715.555 1190.12 716.66L1195.2 728.628ZM1202.16 725.751L1206.55 737.988C1263.21 717.671 1314.13 685.891 1357.83 643.577L1348.79 634.237L1339.75 624.897C1298.67 664.67 1250.92 694.459 1197.77 713.514L1202.16 725.751ZM1348.79 634.237L1357.83 643.578C1420.58 582.844 1455.4 503.074 1455.4 418.986L1442.4 418.986L1429.4 418.986C1429.4 495.68 1397.69 568.811 1339.75 624.897L1348.79 634.237ZM1168.29 118.814L1155.49 121.074C1155.7 122.252 1155.85 123.107 1155.95 123.868C1156 124.228 1156.03 124.503 1156.05 124.712C1156.06 124.813 1156.07 124.89 1156.07 124.945C1156.07 124.999 1156.07 125.025 1156.07 125.024L1169.07 125.024L1182.07 125.024C1182.07 121.838 1181.43 118.45 1181.1 116.555L1168.29 118.814ZM1092.56 93.2553L1102.12 84.4466L1102.09 84.4086L1092.53 93.2173L1082.97 102.026L1083 102.064L1092.56 93.2553ZM607.412 33.4349L607.396 20.4349L606.851 20.4356L606.867 33.4356L606.882 46.4356L607.427 46.4349L607.412 33.4349ZM425.071 38.645L414.352 45.9996L414.388 46.0525L425.108 38.6979L435.827 31.3434L435.791 31.2905L425.071 38.645ZM425.108 38.6979L414.381 46.0414L414.414 46.0898L425.141 38.7464L435.868 31.4029L435.835 31.3545L425.108 38.6979ZM398.497 50.5529L392.733 38.9009L392.57 38.9813L398.335 50.6332L404.1 62.2851L404.262 62.2048L398.497 50.5529ZM398.335 50.6332L392.569 38.9819C391.86 39.3325 391.177 39.6704 390.489 40.0014L396.124 51.7167L401.759 63.4321C402.598 63.0283 403.408 62.6275 404.101 62.2844L398.335 50.6332ZM344.695 96.9185L334.65 88.6669L334.432 88.9311L344.478 97.1828L354.523 105.434L354.74 105.17L344.695 96.9185ZM344.478 97.1828L334.425 88.94L334.384 88.9902L344.437 97.2329L354.489 105.476L354.531 105.426L344.478 97.1828ZM220.319 718.884L214.252 730.381C214.472 730.497 214.702 730.62 214.95 730.754L221.113 719.308L227.275 707.861C226.992 707.709 226.693 707.549 226.387 707.387L220.319 718.884ZM221.113 719.308L214.949 730.753C215.113 730.842 215.279 730.931 215.455 731.027L221.635 719.59L227.815 708.152C227.641 708.059 227.459 707.96 227.276 707.862L221.113 719.308ZM221.635 719.59L215.455 731.027C215.836 731.232 216.287 731.476 216.733 731.713L222.829 720.231L228.926 708.749C228.576 708.564 228.207 708.364 227.815 708.152L221.635 719.59ZM343.648 734.838L333.736 743.249L333.853 743.387L343.765 734.976L353.677 726.565L353.561 726.427L343.648 734.838ZM425.643 793.979L414.077 788.044L413.997 788.2L425.564 794.135L437.13 800.07L437.21 799.914L425.643 793.979ZM433.12 800.389L434.95 813.259L435.001 813.252L433.171 800.382L431.341 787.511L431.291 787.518L433.12 800.389ZM1035.46 784.585L1038.01 797.333C1052.74 794.389 1064.96 786.764 1075.14 778.114C1085.25 769.535 1094.06 759.31 1101.6 750.593L1091.77 742.087L1081.94 733.581C1074.16 742.568 1066.63 751.231 1058.31 758.296C1050.08 765.288 1041.8 770.061 1032.91 771.837L1035.46 784.585ZM1091.77 742.087L1101.61 750.584L1101.64 750.549L1091.8 742.052L1081.96 733.555L1081.93 733.59L1091.77 742.087ZM1166.43 714.834L1154.19 710.465L1154.17 710.508L1166.41 714.877L1178.66 719.246L1178.67 719.203L1166.43 714.834ZM1166.41 714.877L1154.17 710.521L1154.14 710.58L1166.39 714.936L1178.64 719.292L1178.66 719.234L1166.41 714.877ZM1195.2 728.628L1200.28 740.593L1201.26 740.177L1196.18 728.211L1191.1 716.245L1190.12 716.662L1195.2 728.628ZM1196.18 728.211L1201.26 740.176C1204.04 738.995 1205.84 738.24 1206.5 738.006L1202.16 725.751L1197.82 713.496C1196.2 714.073 1193.39 715.271 1191.1 716.246L1196.18 728.211ZM712.973 800.14L712.98 787.14L437.087 786.982L437.079 799.982L437.072 812.982L712.966 813.14L712.973 800.14ZM1346.39 632.641L1328.31 613.958L1328.3 613.96L1346.39 632.641ZM1200.89 723.465L1192.12 698.99L1192.11 698.993L1200.89 723.465ZM1179.91 731.737L1178.16 705.796L1178.15 705.796L1178.14 705.797L1179.91 731.737ZM1168.48 724.488L1144.26 733.926L1144.29 734.008L1144.32 734.09L1168.48 724.488ZM1162.55 702.607L1155.21 727.548L1155.21 727.55L1162.55 702.607ZM1106.61 721.935L1124.17 741.108L1124.17 741.108L1106.61 721.935ZM1034.74 782.166L1029.64 756.67L1029.64 756.671L1034.74 782.166ZM1018.48 777.793L1034.71 757.483L1023.13 748.224L1009.26 753.482L1018.48 777.793ZM1017.91 797.113L1033.61 817.84L1060.79 797.257L1033.75 776.492L1017.91 797.113ZM1003.82 797.488L1003.2 823.48L1003.21 823.48L1003.22 823.481L1003.82 797.488ZM962.897 798.394L963.394 824.389L964.26 824.372L965.123 824.298L962.897 798.394ZM437.016 797.488L437.704 823.478L437.706 823.478L437.016 797.488ZM427.093 798.352L402.187 790.89L392.605 822.869L425.957 824.327L427.093 798.352ZM430.243 788.01L455.594 782.236L455.577 782.162L455.56 782.088L430.243 788.01ZM423.806 781.027L412.97 804.661L412.98 804.666L412.991 804.671L423.806 781.027ZM415.583 784.726L409.503 759.447L409.477 759.454L409.452 759.46L415.583 784.726ZM403.286 781.9L393.381 805.939L393.391 805.943L403.286 781.9ZM357.857 746.427L339.43 764.769L339.431 764.77L357.857 746.427ZM304.866 699.489L311.591 674.374L311.583 674.372L304.866 699.489ZM262.325 728.586L268.488 753.845L299.644 746.243L285.764 717.333L262.325 728.586ZM222.115 716.814L209.862 739.746L209.872 739.751L209.881 739.756L222.115 716.814ZM72.5223 573.583L50.1229 586.784L50.1246 586.786L72.5223 573.583ZM96.329 227.229L75.3234 211.907L75.3219 211.909L96.329 227.229ZM207.256 124.817L193.309 102.874L193.305 102.876L207.256 124.817ZM254.386 103.26L255.334 77.2772L255.331 77.277L254.386 103.26ZM262.283 119.446L286.681 110.459L286.643 110.356L286.604 110.254L262.283 119.446ZM311.693 131.891L302.3 107.647L302.296 107.649L311.693 131.891ZM359.516 84.1889L378.133 102.338L378.136 102.335L359.516 84.1889ZM397.794 53.8533L386.444 30.4614L386.432 30.4668L397.794 53.8533ZM423.249 52.3984L409.498 74.4641L420.187 81.1257L432.04 76.8673L423.249 52.3984ZM430.138 42.2311L455.82 38.176L455.81 38.111L455.799 38.046L430.138 42.2311ZM426.053 34.2752L430.945 8.73957L385.323 -0.00035329L401.729 43.4578L426.053 34.2752ZM434.906 35.9712L430.014 61.5068L432.417 61.9671L434.863 61.9711L434.906 35.9712ZM1013.73 37.5923L1039.18 42.9487L1045.68 12.0582L1014.12 11.5951L1013.73 37.5923ZM1009.45 47.1361L983.45 46.9265L983.449 47.0313L983.449 47.1361L1009.45 47.1361ZM1018.35 58.3259L1009.5 82.7731L1026.09 88.7796L1037.8 75.5802L1018.35 58.3259ZM1042.12 54.5849L1051.38 30.2919L1051.38 30.2904L1042.12 54.5849ZM1151.74 137.32L1151.84 163.32L1151.85 163.32L1151.86 163.32L1151.74 137.32ZM1171.74 128.167L1147.55 118.635L1147.53 118.686L1147.51 118.736L1171.74 128.167ZM1180.87 105.064L1184.15 79.2706L1184.14 79.2694L1184.13 79.2682L1180.87 105.064ZM1296.54 161.362L1281.89 182.844L1281.89 182.844L1296.54 161.362ZM1439.25 418.986L1413.25 418.986C1413.25 488.573 1385.64 558.467 1328.31 613.958L1346.39 632.641L1364.47 651.324C1431.87 586.088 1465.25 502.733 1465.25 418.986L1439.25 418.986ZM1346.39 632.641L1328.3 613.96C1290.9 650.167 1245.89 679.713 1192.12 698.99L1200.89 723.465L1209.66 747.94C1270.86 725.999 1322.13 692.313 1364.47 651.322L1346.39 632.641ZM1200.89 723.465L1192.11 698.993C1190.31 699.639 1187.95 700.63 1186.17 701.385C1183.94 702.329 1182.05 703.143 1179.76 704.104C1177.59 705.02 1175.77 705.764 1174.46 706.261C1173.79 706.516 1173.53 706.599 1173.57 706.585C1173.59 706.578 1173.91 706.477 1174.43 706.352C1174.75 706.274 1176.18 705.929 1178.16 705.796L1179.91 731.737L1181.66 757.678C1185.4 757.426 1188.57 756.379 1189.14 756.198C1190.47 755.781 1191.79 755.302 1192.89 754.885C1195.13 754.037 1197.66 752.988 1199.93 752.033C1202.09 751.124 1204.74 749.989 1206.43 749.275C1207.37 748.876 1208.16 748.547 1208.79 748.29C1209.48 748.007 1209.72 747.919 1209.67 747.937L1200.89 723.465ZM1179.91 731.737L1178.14 705.797C1181.79 705.548 1184.46 706.213 1185.36 706.454C1186.52 706.762 1187.26 707.08 1187.51 707.187C1187.99 707.399 1188 707.446 1187.66 707.223C1187.33 707.01 1187.29 706.944 1187.57 707.199C1187.71 707.321 1188.23 707.793 1188.92 708.607C1189.36 709.121 1191.23 711.318 1192.64 714.885L1168.48 724.488L1144.32 734.09C1145.96 738.212 1148.26 741.058 1149.3 742.281C1150.6 743.805 1151.89 745.048 1152.92 745.968C1154.99 747.82 1157.23 749.464 1159.3 750.809C1161.35 752.145 1163.87 753.601 1166.62 754.807C1168.18 755.49 1174.21 758.186 1181.68 757.677L1179.91 731.737ZM1168.48 724.488L1192.71 715.049C1193.65 717.464 1193.99 719.805 1193.99 721.794L1167.99 721.794L1141.99 721.794C1141.99 725.596 1142.62 729.732 1144.26 733.926L1168.48 724.488ZM1167.99 721.794L1193.99 721.794C1193.99 723.78 1193.65 725.117 1193.57 725.398C1193.52 725.606 1193.51 725.582 1193.9 724.493C1194.15 723.781 1194.88 721.816 1195.45 719.752C1196.05 717.618 1196.86 714.147 1196.86 709.956L1170.86 709.956L1144.86 709.956C1144.86 707.581 1145.31 705.991 1145.36 705.785C1145.4 705.65 1145.41 705.657 1144.95 706.945C1144.62 707.855 1143.9 709.857 1143.3 712.097C1142.69 714.408 1141.99 717.784 1141.99 721.794L1167.99 721.794ZM1170.86 709.956L1196.86 709.956C1196.86 702.144 1194.02 693.885 1187.33 687.338C1181.71 681.835 1174.99 679.164 1169.89 677.663L1162.55 702.607L1155.21 727.55C1156.61 727.961 1154.04 727.522 1150.95 724.495C1149.21 722.791 1147.52 720.467 1146.34 717.546C1145.19 714.665 1144.86 711.998 1144.86 709.956L1170.86 709.956ZM1162.55 702.607L1169.89 677.665C1131.21 666.276 1103.7 689.344 1089.05 702.763L1106.61 721.935L1124.17 741.108C1130.97 734.878 1136.38 730.729 1141.5 728.461C1145.79 726.564 1149.84 725.969 1155.21 727.548L1162.55 702.607ZM1106.61 721.935L1089.05 702.762C1082.84 708.45 1076.93 715.167 1071.78 721.101C1066.31 727.404 1061.46 733.103 1056.28 738.484C1045.63 749.544 1037.27 755.146 1029.64 756.67L1034.74 782.166L1039.83 807.662C1063.62 802.91 1081.27 787.495 1093.73 774.558C1100.1 767.941 1106.09 760.897 1111.05 755.181C1116.33 749.096 1120.45 744.519 1124.17 741.108L1106.61 721.935ZM1034.74 782.166L1029.64 756.671C1028.7 756.859 1028.1 756.963 1027.72 757.021C1027.34 757.079 1027.39 757.058 1027.71 757.04C1028.05 757.02 1028.82 756.995 1029.87 757.102C1030.98 757.214 1032.23 757.452 1033.53 757.871C1034.83 758.285 1035.86 758.775 1036.6 759.183C1036.96 759.379 1037.23 759.546 1037.4 759.659C1037.57 759.77 1037.67 759.839 1037.67 759.842C1037.68 759.844 1037.62 759.801 1037.48 759.692C1037.33 759.582 1037.14 759.434 1036.88 759.223C1036.61 759.009 1036.32 758.773 1035.94 758.472C1035.59 758.183 1035.16 757.844 1034.71 757.483L1018.48 777.793L1002.25 798.103C1003.28 798.927 1005.47 800.73 1007.28 802.035C1009.46 803.602 1012.95 805.877 1017.66 807.388C1027 810.385 1035.79 808.469 1039.83 807.661L1034.74 782.166ZM1018.48 777.793L1009.26 753.482C1000.24 756.902 984.111 766.187 984.111 786.082L1010.11 786.082L1036.11 786.082C1036.11 791.938 1033.6 796.719 1030.8 799.635C1028.52 802.01 1026.75 802.465 1027.7 802.104L1018.48 777.793ZM1010.11 786.082L984.111 786.082C984.111 795.598 988.258 802.857 991.398 807.104C994.698 811.565 998.639 815.094 1002.08 817.735L1017.91 797.113L1033.75 776.492C1032.63 775.633 1032.67 775.458 1033.21 776.185C1033.59 776.697 1036.11 780.19 1036.11 786.082L1010.11 786.082ZM1017.91 797.113L1002.22 776.387C1005.51 773.893 1008.8 772.969 1010.9 772.647C1012.78 772.359 1013.97 772.514 1013.72 772.49C1013.66 772.485 1013.48 772.465 1013.04 772.402C1012.44 772.316 1012.21 772.278 1011.27 772.139C1010.54 772.032 1009.54 771.89 1008.45 771.77C1007.35 771.65 1005.97 771.53 1004.42 771.494L1003.82 797.488L1003.22 823.481C1002.64 823.467 1002.48 823.407 1003.69 823.584C1004.38 823.686 1006.67 824.054 1008.79 824.256C1012.41 824.601 1023.5 825.497 1033.61 817.84L1017.91 797.113ZM1003.82 797.488L1004.44 771.495C990.42 771.16 975.456 771.218 960.67 772.489L962.897 798.394L965.123 824.298C977.221 823.258 990.065 823.166 1003.2 823.48L1003.82 797.488ZM962.897 798.394L962.399 772.398C875.392 774.064 788.125 772.687 700.284 771.46C612.606 770.235 524.402 769.161 436.327 771.497L437.016 797.488L437.706 823.478C524.585 821.175 611.796 822.229 699.558 823.455C787.157 824.678 875.353 826.074 963.394 824.389L962.897 798.394ZM437.016 797.488L436.329 771.497C434.422 771.547 432.751 771.707 431.452 771.86C430.286 771.997 429 772.184 428.493 772.254C426.999 772.46 427.4 772.341 428.228 772.377L427.093 798.352L425.957 824.327C430.209 824.513 433.844 824.008 435.593 823.767C437.871 823.453 437.77 823.477 437.704 823.478L437.016 797.488ZM427.093 798.352L451.999 805.815C451.652 806.971 451.297 807.661 451.367 807.518C451.398 807.455 451.458 807.334 451.643 806.978C451.786 806.7 452.082 806.132 452.369 805.556C453.384 803.519 456.411 797.474 456.411 789.473L430.411 789.473L404.411 789.473C404.411 786.983 404.885 785.019 405.274 783.811C405.464 783.222 405.639 782.794 405.736 782.57C405.831 782.351 405.881 782.256 405.828 782.363C405.758 782.503 405.682 782.65 405.455 783.089C405.268 783.45 404.958 784.049 404.635 784.712C403.996 786.021 402.995 788.191 402.187 790.89L427.093 798.352ZM430.411 789.473L456.411 789.473C456.411 787.023 456.133 784.604 455.594 782.236L430.243 788.01L404.892 793.785C404.584 792.431 404.411 790.976 404.411 789.473L430.411 789.473ZM430.243 788.01L455.56 782.088C454.668 778.276 453.084 775.571 452.859 775.172C452.325 774.226 451.839 773.502 451.584 773.131C451.054 772.36 450.574 771.746 450.337 771.447C449.811 770.783 449.279 770.161 448.9 769.723C448.085 768.784 447.129 767.728 446.254 766.781C445.373 765.829 444.41 764.809 443.561 763.943C443.16 763.534 442.627 762.999 442.07 762.473C441.813 762.23 441.335 761.783 440.742 761.282C440.453 761.037 439.927 760.601 439.247 760.103C438.881 759.834 437.127 758.529 434.62 757.383L423.806 781.027L412.991 804.671C411.56 804.017 410.49 803.367 409.927 803.011C409.301 802.615 408.806 802.263 408.484 802.027C407.854 801.565 407.388 801.177 407.167 800.99C406.713 800.606 406.408 800.317 406.357 800.269C406.212 800.131 406.215 800.129 406.431 800.349C406.817 800.743 407.414 801.371 408.071 802.081C408.733 802.797 409.29 803.418 409.619 803.797C409.811 804.018 409.758 803.965 409.574 803.733C409.509 803.65 409.166 803.219 408.733 802.589C408.527 802.29 408.08 801.626 407.574 800.731C407.316 800.274 406.924 799.547 406.508 798.62C406.144 797.806 405.444 796.145 404.926 793.932L430.243 788.01ZM423.806 781.027L434.642 757.393C426.401 753.614 418.545 754.586 413.255 756.416C408.745 757.977 405.475 760.358 404.415 761.129C403.769 761.598 403.1 762.113 402.921 762.25C402.598 762.495 402.66 762.442 402.841 762.317C402.852 762.309 405.385 760.438 409.503 759.447L415.583 784.726L421.664 810.005C424.592 809.301 426.941 808.258 428.586 807.405C430.236 806.548 431.56 805.679 432.434 805.075C433.301 804.475 434.049 803.905 434.414 803.628C434.666 803.436 434.734 803.383 434.873 803.278C434.976 803.2 435 803.183 434.982 803.196C434.977 803.2 434.574 803.497 433.916 803.884C433.268 804.265 432.012 804.951 430.26 805.557C428.469 806.177 425.888 806.808 422.725 806.801C419.441 806.794 416.097 806.095 412.97 804.661L423.806 781.027ZM415.583 784.726L409.452 759.46C411.18 759.04 412.608 758.927 413.565 758.903C414.536 758.879 415.269 758.942 415.697 758.992C416.49 759.084 416.814 759.203 416.519 759.119C416.283 759.051 415.865 758.915 415.234 758.677C414.604 758.44 413.978 758.185 413.181 757.856L403.286 781.9L393.391 805.943C394.865 806.55 398.35 808.004 402.185 809.104C404.878 809.876 412.907 812.13 421.714 809.993L415.583 784.726ZM403.286 781.9L413.191 757.861C410.465 756.737 404.176 752.622 395.733 745.688C388 739.338 380.617 732.436 376.282 728.083L357.857 746.427L339.431 764.77C344.863 770.227 353.526 778.314 362.732 785.874C371.227 792.851 382.77 801.567 393.381 805.939L403.286 781.9ZM357.857 746.427L376.284 728.084C373.629 725.417 370.624 721.916 366.58 717.144C362.79 712.672 358.209 707.233 353.273 702.011C343.888 692.083 329.986 679.299 311.591 674.374L304.866 699.489L298.141 724.604C301.884 725.607 307.431 729.213 315.483 737.732C319.266 741.734 322.901 746.033 326.909 750.763C330.663 755.193 335.038 760.357 339.43 764.769L357.857 746.427ZM304.866 699.489L311.583 674.372C295.957 670.193 278.893 670.6 264.484 676.308C250.108 682.004 233.763 695.609 233.763 718.394L259.763 718.394L285.763 718.394C285.763 720.674 284.832 722.848 283.697 724.211C282.807 725.281 282.418 725.136 283.637 724.652C286.277 723.607 291.765 722.899 298.15 724.607L304.866 699.489ZM259.763 718.394L233.763 718.394C233.763 726.027 235.731 733.267 238.887 739.839L262.325 728.586L285.764 717.333C285.391 716.556 285.763 716.979 285.763 718.394L259.763 718.394ZM262.325 728.586L256.162 703.327C256.76 703.181 255.363 703.697 250.412 701.832C245.469 699.971 240.803 697.314 234.349 693.872L222.115 716.814L209.881 739.756C214.496 742.217 223.104 747.113 232.083 750.495C241.055 753.874 254.228 757.325 268.488 753.845L262.325 728.586ZM222.115 716.814L234.368 693.882C179.557 664.596 122.698 607.498 94.92 560.379L72.5223 573.583L50.1246 586.786C82.5201 641.739 146.238 705.751 209.862 739.746L222.115 716.814ZM72.5223 573.583L94.9217 560.382C65.4991 510.457 52.001 463.29 52.001 417.806L26.001 417.806L0.000959647 417.806C0.000957184 474.145 16.852 530.329 50.1229 586.784L72.5223 573.583ZM26.001 417.806L52.001 417.806C52.001 360.523 73.4167 302.772 117.336 242.549L96.329 227.229L75.3219 211.909C26.8076 278.433 0.000962756 346.68 0.000959647 417.806L26.001 417.806ZM96.329 227.229L117.335 242.551C141.017 210.085 183.532 170.712 221.206 146.757L207.256 124.817L193.305 102.876C150.622 130.016 103.161 173.743 75.3234 211.907L96.329 227.229ZM207.256 124.817L221.203 146.759C224.905 144.406 233.415 139.368 241.982 135.061C246.276 132.903 250.111 131.169 253.094 130.055C254.58 129.5 255.506 129.231 255.935 129.127C256.591 128.969 255.539 129.319 253.441 129.243L254.386 103.26L255.331 77.277C247.212 76.9818 239.303 79.6977 234.904 81.34C229.464 83.3712 223.773 86.0145 218.628 88.6007C208.316 93.784 198.291 99.7073 193.309 102.874L207.256 124.817ZM254.386 103.26L253.438 129.243C254.448 129.279 248.646 129.447 242.941 124.054C236.423 117.893 236.262 110.547 236.262 109.354L262.262 109.354L288.262 109.354C288.262 104.86 287.466 94.5873 278.661 86.2649C270.669 78.7102 260.929 77.4814 255.334 77.2772L254.386 103.26ZM262.262 109.354L236.262 109.354C236.262 108.865 236.29 108.605 236.278 108.741C236.264 108.909 236.241 109.128 236.167 109.791C236.063 110.736 235.758 113.297 235.758 116.096L261.758 116.096L287.758 116.096C287.758 116.609 287.705 116.838 287.853 115.503C287.906 115.026 288.008 114.118 288.088 113.184C288.171 112.218 288.262 110.881 288.262 109.354L262.262 109.354ZM261.758 116.096L235.758 116.096C235.758 118.97 236.042 123.558 237.962 128.638L262.283 119.446L286.604 110.254C287.726 113.223 287.758 115.533 287.758 116.096L261.758 116.096ZM262.283 119.446L237.886 128.433C245.245 148.41 262.733 157.414 277.519 160.328C292.176 163.217 307.937 161.232 321.089 156.134L311.693 131.891L302.296 107.649C297.218 109.617 291.466 110.076 287.573 109.309C285.773 108.955 285.196 108.503 285.35 108.615C285.699 108.867 286.349 109.559 286.681 110.459L262.283 119.446ZM311.693 131.891L321.085 156.136C329.343 152.936 336.305 147.724 341.648 143.026C347.177 138.163 352.316 132.638 356.794 127.506C361.26 122.388 365.616 117.016 369.199 112.665C373.034 108.008 375.881 104.648 378.133 102.338L359.516 84.1889L340.898 66.0399C336.902 70.1391 332.742 75.1357 329.058 79.6096C325.121 84.39 321.445 88.9258 317.612 93.3193C313.791 97.6982 310.365 101.289 307.309 103.977C305.81 105.294 304.586 106.229 303.634 106.864C302.664 107.51 302.227 107.675 302.3 107.647L311.693 131.891ZM359.516 84.1889L378.136 102.335C389.051 91.136 398.261 82.5318 409.155 77.2398L397.794 53.8533L386.432 30.4668C366.557 40.1223 351.824 54.8289 340.896 66.0424L359.516 84.1889ZM397.794 53.8533L409.143 77.2452C409.86 76.8977 410.535 76.5648 411.146 76.2631C411.788 75.9455 412.291 75.696 412.819 75.4358C413.864 74.9218 414.541 74.599 415.068 74.3645C415.579 74.1371 415.721 74.0961 415.621 74.1295C415.497 74.1706 415.041 74.3139 414.33 74.4272C413.592 74.545 412.716 74.6088 411.761 74.5602C410.81 74.5117 410.004 74.363 409.394 74.2C408.265 73.898 408.186 73.6467 409.498 74.4641L423.249 52.3984L437.001 30.3328C428.349 24.9409 418.14 21.1616 406.137 23.0767C401.05 23.8884 396.842 25.5596 393.935 26.8527C391.427 27.9682 388.073 29.671 386.444 30.4614L397.794 53.8533ZM423.249 52.3984L432.04 76.8673C435.881 75.4871 442.397 72.7857 447.799 66.984C454.339 59.9599 456.369 51.6841 456.369 44.775L430.369 44.775L404.369 44.775C404.369 43.4964 404.531 41.3037 405.448 38.682C406.41 35.9267 407.927 33.4972 409.742 31.5487C412.891 28.1662 415.846 27.431 414.458 27.9296L423.249 52.3984ZM430.369 44.775L456.369 44.775C456.369 42.1865 456.093 39.9046 455.82 38.176L430.138 42.2311L404.456 46.2863C404.462 46.3253 404.443 46.2081 404.421 45.9716C404.398 45.7336 404.369 45.3222 404.369 44.775L430.369 44.775ZM430.138 42.2311L455.799 38.046C454.593 30.6538 451.181 25.535 449.884 23.6041C449.63 23.2261 449.206 22.609 449.167 22.5522C449.021 22.3387 449.032 22.35 449.097 22.4529C449.238 22.6772 449.826 23.6326 450.377 25.0926L426.053 34.2752L401.729 43.4578C402.826 46.3644 404.131 48.6271 405.056 50.1012C405.513 50.8291 405.934 51.4509 406.202 51.8439C406.327 52.0269 406.475 52.2434 406.546 52.3463C406.637 52.48 406.688 52.5551 406.725 52.6092C407.063 53.1121 405.147 50.5247 404.477 46.4163L430.138 42.2311ZM426.053 34.2752L421.161 59.8109L430.014 61.5068L434.906 35.9712L439.798 10.4355L430.945 8.73957L426.053 34.2752ZM434.906 35.9712L434.863 61.9711C628.153 62.2876 820.913 60.7662 1013.35 63.5895L1013.73 37.5923L1014.12 11.5951C821.236 8.76529 627.565 10.2866 434.948 9.97119L434.906 35.9712ZM1013.73 37.5923L988.292 32.2359C988.853 29.5685 989.825 27.7466 990.212 27.073C990.366 26.8042 990.761 26.2066 989.719 27.7624C988.467 29.6317 983.533 36.709 983.45 46.9265L1009.45 47.1361L1035.45 47.3457C1035.42 50.4394 1034.67 53.0022 1033.91 54.7751C1033.26 56.2746 1032.61 57.1728 1032.93 56.6916C1032.99 56.595 1033.06 56.4938 1033.2 56.2856C1033.33 56.1064 1033.51 55.8355 1033.7 55.5427C1034.09 54.9615 1034.68 54.0633 1035.3 52.9833C1036.55 50.7987 1038.24 47.3868 1039.18 42.9487L1013.73 37.5923ZM1009.45 47.1361L983.449 47.1361L983.449 47.1943L1009.45 47.1943L1035.45 47.1943L1035.45 47.1361L1009.45 47.1361ZM1009.45 47.1943L983.449 47.1943C983.449 65.0237 996.511 78.0693 1009.5 82.7731L1018.35 58.3259L1027.21 33.8787C1029.3 34.6371 1031.01 35.91 1032.32 37.566C1033.54 39.0918 1035.45 42.311 1035.45 47.1943L1009.45 47.1943ZM1018.35 58.3259L1037.8 75.5802C1038 75.356 1037.56 75.9175 1036.38 76.5899C1035.09 77.3214 1033.58 77.8149 1032.1 77.9905C1030.75 78.1508 1030 77.9791 1030.17 78.013C1030.4 78.0573 1031.21 78.2502 1032.86 78.8794L1042.12 54.5849L1051.38 30.2904C1045.13 27.9065 1036.11 25.1488 1025.97 26.3534C1014.55 27.7101 1005.6 33.5271 998.905 41.0716L1018.35 58.3259ZM1042.12 54.5849L1032.85 78.8779C1037.65 80.7091 1043.82 84.931 1051.94 92.6019C1060.09 100.305 1067.79 109.057 1077.28 119.228C1086.13 128.721 1096.48 139.369 1107.89 147.6C1119.38 155.884 1134.18 163.386 1151.84 163.32L1151.74 137.32L1151.65 111.32C1149.27 111.329 1145.15 110.355 1138.31 105.427C1131.41 100.445 1124.05 93.143 1115.3 83.7624C1107.19 75.0598 1097.39 64.0144 1087.66 54.8101C1077.88 45.5731 1065.76 35.7765 1051.38 30.2919L1042.12 54.5849ZM1151.74 137.32L1151.86 163.32C1159.64 163.283 1167.97 160.529 1173.28 158.276C1176.36 156.969 1179.99 155.173 1183.42 152.813C1185.8 151.169 1192.57 146.329 1195.97 137.598L1171.74 128.167L1147.51 118.736C1148.98 114.958 1151.03 112.647 1151.93 111.719C1152.94 110.673 1153.72 110.125 1153.91 109.994C1154.27 109.748 1154.01 109.967 1152.96 110.409C1152.03 110.808 1151.04 111.139 1150.29 111.336C1149.93 111.43 1149.78 111.452 1149.86 111.44C1149.9 111.432 1150.06 111.407 1150.32 111.382C1150.57 111.358 1151.02 111.323 1151.62 111.32L1151.74 137.32ZM1171.74 128.167L1195.93 137.698C1197.93 132.609 1198.23 127.935 1198.23 125.033L1172.23 125.033L1146.23 125.033C1146.23 124.62 1146.25 123.855 1146.41 122.842C1146.56 121.832 1146.87 120.36 1147.55 118.635L1171.74 128.167ZM1172.23 125.033L1198.23 125.033C1198.23 122.37 1197.97 119.995 1197.73 118.288C1197.5 116.588 1197.2 114.927 1197.01 113.883C1196.79 112.643 1196.68 111.999 1196.61 111.476C1196.54 110.961 1196.59 111.146 1196.59 111.748L1170.59 111.748L1144.59 111.748C1144.59 114.403 1144.85 116.775 1145.09 118.51C1145.32 120.236 1145.62 121.905 1145.81 122.972C1146.04 124.235 1146.15 124.875 1146.22 125.4C1146.29 125.918 1146.23 125.692 1146.23 125.033L1172.23 125.033ZM1170.59 111.748L1196.59 111.748C1196.59 112.364 1196.57 120.394 1188.96 126.544C1182.14 132.056 1175.74 130.622 1177.62 130.86L1180.87 105.064L1184.13 79.2682C1177.7 78.4582 1166.17 78.109 1156.28 86.0961C1145.6 94.7223 1144.59 106.617 1144.59 111.748L1170.59 111.748ZM1180.87 105.064L1177.6 130.857C1189.76 132.399 1208.44 139.914 1229.44 151.016C1249.61 161.684 1269.08 174.111 1281.89 182.844L1296.54 161.362L1311.18 139.881C1297.34 130.44 1276.15 116.896 1253.74 105.047C1232.15 93.6324 1206.33 82.0851 1184.15 79.2706L1180.87 105.064ZM1296.54 161.362L1281.89 182.844C1369.29 242.431 1413.25 331.26 1413.25 418.986L1439.25 418.986L1465.25 418.986C1465.25 313.393 1412.22 208.769 1311.18 139.88L1296.54 161.362Z" fill="#E73F40" mask="url(#path-1-outside-1_603_3)"/>
</svg>
