<svg width="49" height="112" viewBox="0 0 49 112" fill="none" xmlns="http://www.w3.org/2000/svg">
<path d="M31.6517 0.00528798C33.9056 0.609214 34.4036 6.91083 34.3221 8.96097C40.22 10.7895 43.3335 14.4214 45.4039 20.1466C47.4423 25.7772 46.2425 30.4685 47.3601 34.9215C47.664 36.1391 48.6507 37.196 48.5733 38.5359C48.513 39.5271 47.6184 40.247 47.308 41.2093C46.8157 42.7436 46.2513 49.5005 46.2449 51.3416C46.2433 52.4345 46.8945 53.8884 46.7098 54.7556C46.5339 55.5725 45.6177 56.1768 45.2408 57.1023C44.7918 58.1899 42.9565 66.7498 42.8933 67.9837C42.8313 69.1415 43.5284 70.3882 43.3404 71.3928C43.1524 72.3975 41.2949 74.1628 40.6064 75.5919C39.2086 78.4924 36.3947 85.6444 35.4199 88.7299C34.5114 91.6039 35.8888 92.3072 33.282 94.731C28.3318 99.3436 25.1785 106.39 18.8235 109.796C9.52703 114.772 1.31072 110.727 0.11475 100.099C-0.563954 94.0979 1.97917 88.8116 2.45644 83.1819C2.71012 80.204 4.40688 79.9473 5.71237 77.7477C6.31213 76.7388 8.84109 70.6324 9.0476 69.5945C9.2541 68.5565 8.67065 67.5981 9.00339 66.5701C9.31139 65.6167 10.301 64.97 10.7765 64.0328C11.5576 62.49 14.0115 52.7972 13.9226 51.1693C13.8577 50.0395 13.0861 48.6249 13.2705 47.7052C13.4152 46.9514 14.3464 46.2557 14.7396 45.3585C15.1607 44.3924 16.0195 37.4279 15.9023 36.3509C15.7851 35.274 15.1415 34.4332 15.1498 33.4042C15.1625 32.2523 16.2479 31.3018 16.6104 30.2341C18.3627 25.0128 17.2688 21.1487 21.0558 15.7995C23.7712 11.9726 26.3874 10.1911 31.0065 9.16583C31.4187 8.53628 31.0911 5.99939 30.8128 5.25643C29.7495 2.43646 26.4518 0.311562 31.6686 -0.0044929L31.6517 0.00528798Z" fill="#E73F40"/>
</svg>
