<svg width="235" height="398" viewBox="0 0 235 398" fill="none" xmlns="http://www.w3.org/2000/svg">
<path d="M46.0688 89.7291C13.6619 40.6102 48.0883 10.3648 69.3524 1.38196C64.808 6.54948 67.0942 30.0013 79.5685 41.8679C92.0429 53.7345 98.7215 94.9862 93.1516 111.089C97.412 106.244 110.516 91.9947 128.85 73.7526C147.184 55.5106 195.555 68.4576 217.449 77.2114C213.532 79.4944 202.73 90.0409 190.856 113.964C178.981 137.886 154.146 151.365 143.212 155.114C148.691 164.514 164.873 176.072 172.279 180.676C167.579 183.416 160.036 195.683 156.852 201.475C184.229 191.185 217.949 227.522 231.387 246.977C226.802 246.763 211.796 250.367 188.451 266.492C165.555 282.307 121.686 260.58 101.462 247.032C127.442 264.886 130.205 284.208 134.347 301.962C138.55 319.977 108.922 356.924 100.401 366.613C93.5844 374.364 94.6823 388.312 96.0833 394.317C59.7206 373.794 70.303 348.735 73.9794 334.786C77.6558 320.836 91.6626 301.653 91.9146 281.828C92.1161 265.968 71.0246 249.137 60.4537 242.705L16.406 221.151L1.73499 182.474C16.0014 167.337 46.1995 134.519 52.8605 124.34C59.5215 114.16 51.1081 97.0246 46.0688 89.7291Z" fill="#E5D9CA" stroke="#3C2318" stroke-width="3"/>
</svg>
