<svg width="99" height="112" viewBox="0 0 99 112" fill="none" xmlns="http://www.w3.org/2000/svg">
<path d="M49.5466 0C50.9594 1.47557 54.7191 8.4221 55.5784 10.4697C58.652 7.18144 61.7979 5.49841 66.1497 4.60119C63.6922 8.7552 61.8653 12.3511 61.8822 17.3402C61.899 22.876 67.5914 23.3455 71.5605 25.2591C76.9352 27.8499 82.6733 29.6408 86.936 34.0492C89.5042 36.7048 92.1086 39.6405 93.9114 42.9262C95.6949 46.5777 96.8527 51.6294 97.6566 55.6217C100.432 69.4079 98.3257 86.583 88.1997 97.0561C86.1995 99.1254 83.3039 102.12 80.9066 103.685C71.9865 109.51 60.4957 111.799 49.9533 112C44.8578 111.999 39.7792 111.437 34.8088 110.323C25.9393 108.4 19.3683 105.763 12.9249 99.2843C10.6792 97.0248 9.13877 95.8728 7.34559 92.9599C0.122353 81.2319 -1.5649 67.5992 1.36916 54.3316C4.35859 40.8184 10.5661 32.3681 23.5227 27.0779C26.8226 25.4971 30.6833 24.3797 33.81 22.5135C40.3039 18.6365 35.5405 8.99539 32.5872 4.60215C37.3024 5.73379 39.8008 7.07193 43.2933 10.4707C44.5618 6.50082 46.911 3.15955 49.5466 0Z" fill="#E73F40"/>
</svg>
