<svg width="78" height="112" viewBox="0 0 78 112" fill="none" xmlns="http://www.w3.org/2000/svg">
<path d="M34.2195 10.8878C35.9945 14.9366 36.9821 18.743 35.2974 23.0408C33.5224 27.5809 33.4321 26.2051 29.9337 25.9627C23.8084 25.5369 19.8905 28.544 17.0182 33.7655L12.3774 31.9246L14.9721 27.7971C12.7453 27.9609 6.79423 24.3314 6.48441 22.2808C6.28432 20.9246 12.2483 19.2999 13.4876 19.896C13.9458 19.4768 11.3253 17.2296 10.9574 16.64C9.23404 13.8949 8.69186 9.18438 8.6725 5.9807C13.849 6.44586 18.7674 7.63168 22.3819 11.6215C22.0269 10.3505 23.1436 4.2118 24.7443 4.50006C28.0038 6.96342 29.4303 10.0688 30.7212 13.8687C30.9858 13.8556 32.8899 10.2195 34.2195 10.8878Z" fill="#E73F40"/>
<path d="M49.3354 30.1485C64.4132 27.7179 65.9171 54.6052 51.8333 55.6468C38.6402 56.623 36.2004 32.2646 49.3354 30.1485Z" fill="#E73F40"/>
<path d="M27.1076 28.6429C39.9328 26.5923 43.7023 47.7405 32.2777 53.0669C17.4194 59.9983 12.017 31.0539 27.1076 28.6429Z" fill="#E73F40"/>
<path d="M36.7361 54.2255C50.4261 52.5353 52.1818 77.5226 39.5696 79.2981C24.2917 81.447 23.0589 55.9158 36.7361 54.2255Z" fill="#E73F40"/>
<path d="M56.4767 15.7611C59.5814 12.1578 63.7704 11.0113 68.3273 10.4937C68.3079 14.8635 67.4624 19.4168 64.2545 22.5288C66.5975 22.4108 69.2438 22.7515 70.9155 24.599C68.7274 26.9707 66.5394 29.3685 63.1378 29.683C63.041 30.2005 63.0604 30.1612 63.3766 30.4626C64.2093 31.2619 65.7584 31.7926 65.7325 33.437L62.3891 34.4C59.8008 29.9516 55.586 27.0427 50.3449 27.4096C48.9314 27.5079 46.6981 28.7985 45.7687 27.5669C43.4257 24.4615 43.9421 18.6765 46.0979 15.5645L49.4349 18.0148C49.4349 14.7194 51.3648 11.5223 54.0692 9.78613C55.8055 11.2733 55.9991 13.6908 56.4832 15.7611H56.4767Z" fill="#E73F40"/>
<path d="M16.3524 51.965C19.7668 51.3884 20.3735 53.9108 23.1425 55.4241C24.0268 55.909 27.0152 56.6886 27.1701 57.3634C25.2209 61.0322 24.6077 64.0852 24.6077 68.2323C24.6077 70.0143 25.6146 70.165 23.8783 72.0125C17.3851 78.9112 7.18046 74.1352 7.19337 64.8517C7.19337 59.8922 11.1823 52.8429 16.3524 51.965Z" fill="#E73F40"/>
<path d="M58.2292 56.0858C61.8631 55.3455 65.8455 60.0429 67.0332 63.1614C71.6352 75.2751 59.4039 84.9975 51.5036 75.9171C48.6442 72.6348 50.7226 71.5342 50.9291 67.8719C50.9743 67.0333 50.9743 66.0637 50.9097 65.2316C50.7419 63.0631 48.8314 59.9053 50.8194 58.7326C51.1615 58.5295 57.7322 56.1906 58.2356 56.0923L58.2292 56.0858Z" fill="#E73F40"/>
<path d="M37.5212 82.3903C39.0509 91.89 27.4199 100.315 20.7459 91.7065C18.2609 88.5028 17.0862 80.9686 19.7648 77.7125C20.52 76.7953 24.8703 75.2557 25.9031 73.6899C27.9169 78.6887 32.2801 81.7483 37.5212 82.3903Z" fill="#E73F40"/>
<path d="M48.2683 98.1862C48.9073 103.113 46.4094 109.592 41.5362 111.381C33.5067 114.323 27.7041 105.537 29.2145 98.1207C33.3196 97.0397 37.1858 94.4191 38.6833 90.2393C41.1683 93.9277 43.7565 97.0987 48.2618 98.1862H48.2683Z" fill="#E73F40"/>
<path d="M65.2746 36.1694C76.5377 34.0795 82.3145 53.3016 72.4262 58.0907C67.7144 60.3772 68.1597 58.4117 65.1777 56.0204C63.8287 54.9394 62.3636 54.1336 60.9307 53.1902C64.6614 48.65 64.9906 42.6161 63.5512 37.0604C63.7126 36.5167 64.7647 36.2612 65.281 36.1694H65.2746Z" fill="#E73F40"/>
<path d="M16.0497 36.1316C14.7265 40.6259 15.2945 44.8844 16.8113 49.228C13.1839 49.9814 10.5246 51.6914 8.10418 54.502C6.66482 56.1726 7.16827 58.0725 4.47028 56.3298C-6.16034 49.4442 3.97328 28.7546 16.0497 36.1382V36.1316Z" fill="#E73F40"/>
<path d="M59.4385 81.9635C61.433 100.426 39.4489 99.5935 40.2169 82.0159C43.6572 81.0594 46.523 78.9629 48.5046 75.9492C50.8346 79.7818 55.0172 81.9963 59.4321 81.9635H59.4385Z" fill="#E73F40"/>
<path d="M46.7426 0.0191047C48.0335 -0.229852 50.6411 2.01731 50.4797 3.09175C50.4281 3.45863 46.9685 7.61227 46.3101 8.64741C43.3152 13.371 41.5209 19.3656 41.282 24.9803C41.1529 27.9153 42.5729 31.4597 40.3526 33.4317C37.2351 30.6407 37.6804 25.5175 37.9257 21.5735C38.3259 15.2841 40.5591 7.55331 44.3092 2.47591C44.9353 1.63077 45.7034 0.215653 46.7426 0.0125568V0.0191047Z" fill="#E73F40"/>
</svg>
