<svg width="112" height="112" viewBox="0 0 112 112" fill="none" xmlns="http://www.w3.org/2000/svg">
<g clip-path="url(#clip0_151_472)">
<path d="M79.9891 0.280495C75.486 6.24488 71.214 12.3814 67.1821 18.6768C84.4074 42.8383 72.1249 74.7676 45.3414 85.3667C38.6578 88.0119 30.163 88.9713 23.4332 85.9731C19.7684 91.8147 15.3003 97.3337 11.9946 103.286C10.1379 106.63 21.2137 109.1 23.3985 109.748C25.2627 110.213 27.2896 110.653 29.176 111.031C42.7167 113.74 62.4309 108.498 73.7264 100.722C81.969 94.8551 92.5806 82.4735 96.3638 72.8615C104.094 53.2251 102.868 28.8171 89.8587 11.6206C86.7847 7.5591 82.5098 4.02808 79.9891 0.280495Z" fill="#E73F40"/>
<path d="M66.3187 40.1002C64.2068 40.5721 60.0708 41.395 60.3636 44.0194C61.4813 45.283 62.6375 45.5046 64.2523 46.0878C66.941 46.4093 68.738 46.1983 70.2202 43.795C70.4942 40.9577 68.7382 40.5897 66.3187 40.1002Z" fill="#E73F40"/>
<path d="M61.1755 51.91C59.9061 52.1346 59.6296 52.2126 58.4081 52.6342C57.7279 53.7459 57.8664 53.1301 58.2092 54.5843C59.5316 56.4042 61.9315 57.7728 64.0184 58.5341C64.433 58.4321 64.8441 58.3169 65.2517 58.1886C66.6276 57.7419 66.9987 57.4128 67.607 56.2005C67.6121 52.4543 64.1165 51.9836 61.1755 51.91Z" fill="#E73F40"/>
<path d="M36.0283 71.2938C32.6047 73.6896 32.0842 79.375 36.3131 82.0286C42.3145 80.0966 38.4819 74.3032 36.0283 71.2938Z" fill="#E73F40"/>
<path d="M45.1439 68.2439C42.3473 70.0453 43.6301 77.2152 49.3416 77.8107C53.5822 73.5554 48.5391 70.4909 45.1439 68.2439Z" fill="#E73F40"/>
<path d="M53.0738 61.3123C52.0243 63.9946 54.1065 67.2849 56.4416 68.5018C58.3369 69.4908 58.9951 69.0145 60.9478 68.5335C62.1013 63.0889 57.1914 61.9038 53.0738 61.3123Z" fill="#E73F40"/>
<path d="M65.4179 28.3298C63.3 29.076 58.5988 31.6028 58.4116 34.066C59.2456 35.0209 59.0205 34.7152 60.6685 34.9397C63.3687 34.8203 69.088 33.3986 68.0247 29.7473C66.9929 28.6998 66.8904 28.7182 65.4179 28.3298Z" fill="#E73F40"/>
</g>
<defs>
<clipPath id="clip0_151_472">
<rect width="112" height="112" fill="white"/>
</clipPath>
</defs>
</svg>
