<svg width="364" height="676" viewBox="0 0 364 676" fill="none" xmlns="http://www.w3.org/2000/svg">
<path fill-rule="evenodd" clip-rule="evenodd" d="M176.717 53.2849H176.773C219.332 52.7272 261.955 52.1686 303.89 53.5849C304.409 53.6065 304.988 53.6213 305.61 53.6353L306.262 53.6496L306.307 53.6509C311.266 53.7575 318.454 53.9126 321.297 56.43C322.644 61.409 318.048 67.0888 313.368 72.873C309.823 77.2536 306.228 81.6957 305.131 85.9373C301.873 98.5323 300.62 111.335 299.354 124.273L299.346 124.346L299.339 124.419C298.949 128.407 298.557 132.408 298.104 136.419L282.61 274.166C282.01 279.187 281.453 284.46 280.886 289.824L280.878 289.904L280.867 290.008C279.618 301.839 278.323 314.105 276.429 325.025C275.396 330.974 270.012 340.756 266.029 347.993L265.867 348.287C265.245 349.417 264.66 350.481 264.134 351.455C263.78 352.111 263.453 352.725 263.16 353.292C264.363 354.222 265.886 354.844 267.263 355.406C268.77 356.023 270.102 356.567 270.646 357.365C277.191 366.983 279.945 389.993 281.594 403.765C281.692 404.584 281.787 405.376 281.878 406.126L281.958 406.789C282.037 407.428 282.112 408.036 282.186 408.611C282.566 411.576 282.92 414.544 283.249 417.514C242.522 436.678 123.279 436.453 83.4574 415.406C84.6769 408.135 86.0976 400.981 87.5158 393.84C89.0082 386.321 90.5105 378.75 91.7922 370.977C91.8331 370.804 91.8742 370.627 91.9157 370.448C91.9502 370.299 91.9849 370.148 92.0198 369.995L92.1358 369.483C92.2538 368.961 92.3745 368.422 92.4973 367.873C93.1203 365.085 93.8004 362.045 94.5011 359.71C98.7301 356.171 101.807 354.104 106.377 351.07C100.013 342.228 97.4448 334.15 94.8501 325.988C92.9499 320.009 91.0352 313.985 87.6043 307.583C85.0322 302.785 71.0001 295.903 63.1041 292.031C61.6162 291.301 60.3445 290.678 59.41 290.196C30.1134 277.463 14.2079 264.181 10.9233 231.109C9.74744 220.559 8.40251 210.013 7.06004 199.487L7.05226 199.425C4.19963 177.053 1.34878 154.691 0.0956255 132.149C-1.64309 100.842 20.413 88.3963 48.535 88.2514C50.0051 88.2282 51.5876 87.9281 53.0853 87.6441C53.7798 87.5126 54.4768 87.3806 55.1194 87.2852C67.9303 85.3782 66.8441 76.7958 65.8293 68.7765C64.8243 60.8299 63.8892 53.4356 76.6141 53.6371C109.676 54.1625 143.112 53.7243 176.576 53.2857L176.642 53.2849H176.679H176.717ZM21.95 121.191C24.0359 113.889 47.8022 111.549 55.9817 112.48C66.1513 117.846 66.9262 129.01 67.6902 140.017L67.6957 140.097L67.7055 140.233L67.7233 140.49L67.7894 141.435C67.9345 143.479 68.0932 145.511 68.3267 147.49C70.6875 167.296 72.7681 187.133 74.5702 206.997C74.8887 210.277 75.2398 213.589 75.6047 216.919C75.7141 217.919 75.8245 218.919 75.9358 219.921L76.2714 222.938L76.2812 223.017L76.2919 223.122C77.5654 234.538 78.8558 246.105 79.3739 257.24C80.2736 276.566 60.0633 265.364 51.9901 260.889L51.9018 260.841L51.7116 260.714C42.6816 254.673 33.6006 248.597 32.0726 235.944C31.5051 231.248 30.9196 227.049 30.3544 223.001L30.3481 222.953L30.3401 222.901L30.3026 222.634C30.176 221.725 30.0506 220.822 29.926 219.92L29.9153 219.844C28.9331 212.73 28.0236 205.641 27.3465 196.269C26.918 190.338 25.7479 182.769 24.4822 174.582C21.6064 155.982 18.2379 134.194 21.95 121.191ZM277.734 92.1095C279.338 91.9283 280.936 91.7478 282.522 91.5749L283.535 91.4652L284.387 91.3752L285.546 91.2548L286.044 91.2044C287.483 91.0595 288.906 90.9257 290.302 90.8093C285.298 144.185 279.402 197.473 272.615 250.651C271.962 255.96 271.393 262.123 270.781 268.74C268.459 293.879 265.53 325.569 255.149 341.835C247.668 344.855 245.411 344.828 237.517 344.295L249.226 196.892C249.352 195.315 249.471 193.736 249.584 192.157C249.714 190.339 249.837 188.52 249.957 186.701L249.964 186.591L250.025 185.667L250.135 183.963C250.186 183.165 250.236 182.367 250.287 181.569L250.366 180.313L250.371 180.241L250.376 180.169L250.385 180.033C251.258 166.213 252.133 152.375 254.362 138.727C254.909 135.375 252.694 129.423 248.792 128.245C240.696 131.828 237.981 182.968 236.983 201.794C236.868 203.95 236.777 205.683 236.702 206.871C234.599 239.185 231.924 271.461 228.679 303.68C228.252 308.207 227.97 312.803 227.689 317.401C227.158 326.084 226.625 334.785 225.108 343.028C223.614 342.933 222.104 342.8 220.59 342.644C220.401 342.625 220.212 342.605 220.023 342.585C219.009 342.477 217.994 342.36 216.982 342.239C216.672 342.202 216.363 342.165 216.054 342.128L215.359 342.042L215.051 342.004L213.975 341.872C210.09 341.39 206.288 340.92 202.753 340.742C197.797 339.701 174.104 340.376 162.878 340.843L160.567 340.974C155.294 341.271 150.07 341.564 144.812 342.221C143.392 332.807 142.602 323.139 141.817 313.519C141.441 308.914 141.066 304.32 140.623 299.77C139.244 285.602 138.172 271.354 137.2 257.111C137.013 254.373 136.83 251.635 136.649 248.896L136.458 245.998L136.032 239.493L136.017 239.258L135.918 237.736L135.912 237.669L135.907 237.579C133.692 203.602 131.475 169.603 126.38 136.053C125.649 131.241 122.844 127.806 117.685 129.393C114.671 133.219 117.708 162.588 119.415 179.092L119.423 179.175L119.436 179.298L119.484 179.759L119.488 179.802L119.562 180.52L119.698 181.841L119.773 182.569L119.778 182.623L119.92 184.029L119.988 184.707L119.997 184.797C120.057 185.401 120.111 185.963 120.16 186.479C120.198 186.893 120.233 187.278 120.263 187.631C120.298 188.041 120.327 188.408 120.35 188.729L120.743 194.32L120.8 195.112L121.009 198.095L121.377 203.34C123.507 233.656 125.641 264.027 128.043 294.307C128.121 295.236 128.203 296.168 128.288 297.101C128.456 298.939 128.637 300.782 128.825 302.63L128.889 303.244L128.936 303.7L129.042 304.726L129.124 305.496L129.206 306.271L129.259 306.773L129.354 307.669L129.475 308.798L129.634 310.279L129.657 310.495L129.689 310.789C130.901 322.023 132.122 333.351 132.246 344.523C115.109 344.873 109.827 338.89 106.279 321.559C103.589 308.418 102.177 294.533 100.785 280.837L100.774 280.736L100.77 280.69L100.766 280.644C100.218 275.252 99.6709 269.89 99.0496 264.616L84.4187 140.029C83.6716 133.693 83.1531 127.123 82.6318 120.516L82.6291 120.472C81.8347 110.394 81.0332 100.227 79.4034 90.6569C139.135 97.142 198.455 96.3965 258.453 93.8587C258.978 93.8364 259.507 93.8106 260.039 93.7814C260.281 93.7682 260.524 93.7543 260.767 93.7397C266.217 93.4129 272.011 92.7572 277.734 92.1095C277.734 92.1095 277.735 92.1095 277.734 92.1095Z" fill="#3E2518"/>
<path fill-rule="evenodd" clip-rule="evenodd" d="M250.027 185.666C250.064 185.099 250.1 184.531 250.137 183.963C250.215 182.747 250.291 181.53 250.368 180.313C250.371 180.265 250.376 180.216 250.379 180.168C250.382 180.123 250.384 180.078 250.387 180.033L250.379 180.168C250.376 180.216 250.371 180.265 250.368 180.313C250.291 181.53 250.215 182.747 250.137 183.963C250.1 184.531 250.064 185.099 250.027 185.666ZM215.053 342.004C214.694 341.96 214.335 341.916 213.977 341.871C214.33 341.915 214.694 341.96 215.053 342.004ZM136.164 241.493C136.12 240.826 136.078 240.159 136.034 239.492C136.029 239.414 136.024 239.336 136.019 239.258C135.986 238.75 135.953 238.243 135.92 237.735C135.919 237.725 135.915 237.679 135.915 237.669C135.913 237.645 135.911 237.622 135.909 237.599C135.771 235.475 135.633 233.351 135.493 231.227C135.632 233.345 135.771 235.482 135.909 237.599C135.911 237.622 135.913 237.645 135.915 237.669C135.915 237.679 135.919 237.725 135.92 237.735C135.953 238.243 135.986 238.75 136.019 239.258C136.024 239.336 136.029 239.414 136.034 239.492C136.078 240.162 136.121 240.832 136.164 241.493ZM119.988 184.676C119.967 184.465 119.945 184.249 119.923 184.029C119.878 183.579 119.83 183.11 119.781 182.623C119.779 182.605 119.777 182.587 119.775 182.568C119.751 182.33 119.726 182.087 119.7 181.841C119.656 181.413 119.611 180.972 119.565 180.52C119.54 180.284 119.516 180.044 119.491 179.801C119.489 179.787 119.488 179.773 119.486 179.759C119.467 179.571 119.445 179.366 119.425 179.174L119.417 179.094C119.42 179.121 119.423 179.148 119.425 179.174C119.445 179.366 119.467 179.571 119.486 179.759C119.488 179.773 119.489 179.787 119.491 179.801C119.516 180.044 119.54 180.284 119.565 180.52C119.611 180.972 119.656 181.413 119.7 181.841C119.726 182.087 119.751 182.33 119.775 182.568C119.777 182.587 119.779 182.605 119.781 182.623C119.83 183.11 119.878 183.579 119.923 184.029C119.945 184.249 119.967 184.465 119.988 184.676ZM120.746 194.319L120.352 188.729C120.483 190.592 120.614 192.455 120.746 194.319Z" fill="white"/>
<path fill-rule="evenodd" clip-rule="evenodd" d="M76.2936 223.091C77.5691 234.527 78.8589 246.085 79.3783 257.239C78.8597 246.095 77.5682 234.517 76.2936 223.091Z" fill="white"/>
<path fill-rule="evenodd" clip-rule="evenodd" d="M82.0882 424.722L83.4681 424.362C113.545 440.045 188.512 440.869 222.899 438.252C238.812 437.041 267.375 431.571 282.532 426.832C283.6 426.498 284.666 426.156 285.73 425.806C286.059 428.144 286.307 430.551 286.556 432.968C287.711 444.163 288.891 455.593 298.242 461.477C349.911 493.99 367.257 559.653 363.51 617.247C362.894 626.708 356.469 635.047 349.063 640.945C349.022 641.514 348.994 642.08 348.965 642.642C348.784 646.224 348.611 649.634 345.528 652.511C338.687 658.898 322.645 655.501 314.754 652.418C312.658 651.599 310.812 650.878 309.346 650.689C277.767 655.029 246.081 658.553 214.32 661.259C210.108 661.649 205.515 661.607 200.97 661.565C194.952 661.51 189.017 661.455 184.163 662.404C183.234 664.707 181.697 668.664 180.279 670.562C173.471 679.679 152.931 675.38 144.442 671.703C141.489 670.43 142.297 659.014 142.284 656.08C128.301 650.997 114.622 645.11 101.318 638.448C99.8475 637.711 97.7785 636.616 95.399 635.358C87.7238 631.298 76.823 625.532 72.3807 624.56C68.7221 623.76 64.5636 623.461 60.1669 623.145C57.4732 622.952 45.5868 623.314 45.4271 620.318C45.2575 617.073 44.9522 611.212 44.256 608.96C43.558 606.706 42.2567 603.762 40.8562 600.595C38.183 594.551 35.151 587.694 35.2715 583.272C36.239 547.654 41.6542 510.208 48.294 475.255C49.3391 469.752 52.88 462.009 56.2413 458.284C59.9357 454.189 64.6413 451.738 69.3415 449.289C72.4387 447.676 75.5332 446.063 78.3358 443.982C79.8728 439.139 80.3146 435.877 80.7815 432.426C81.0939 430.119 81.4179 427.727 82.0882 424.722ZM304.326 499.021C296.725 499.823 289.633 501.276 282.508 502.737C277.102 503.845 271.669 504.958 265.989 505.792C255.202 507.59 246.502 508.175 237.374 508.788C230.486 509.252 223.353 509.731 214.895 510.761C211.118 511.486 205.081 511.176 198.415 510.835C178.982 509.84 154.205 508.571 164.504 531.852L165.415 533.92L165.605 534.352C172.105 549.141 177.518 561.459 194.12 567.325C194.297 567.385 194.474 567.444 194.653 567.502L194.808 567.552C195.096 567.644 195.387 567.732 195.678 567.816C214.079 573.082 309.322 565.715 330.113 554.009C332.893 552.444 334.869 550.381 335.616 547.026C337.746 537.468 329.797 523.594 324.564 514.46L324.422 514.21C323.992 513.461 323.583 512.744 323.199 512.066C318.623 503.965 312.736 500.878 304.326 499.021Z" fill="#3E2518"/>
<path d="M193.083 0.433017C178.011 -1.19964 157.602 1.92256 143.45 7.47617C142.787 12.1582 142.677 15.834 142.514 20.5143C116.532 20.4415 93.0036 19.8279 69.9556 33.9107C67.0656 35.6766 65.7506 42.3637 64.2597 45.6136C77.8785 48.033 99.682 47.2282 114.283 47.2334L192.061 47.2119L275.99 47.2496C288.659 47.2531 306.347 47.8427 319.107 46.3635C320.781 46.1698 320.908 45.1653 321.551 43.8001C320.22 38.8397 307.092 34.6712 300.154 32.1769C273.388 22.5543 256.34 20.3952 228.12 20.5649C228.084 16.4888 227.329 10.9343 226.887 6.77255C214.389 2.61933 206.139 1.40576 193.083 0.433017Z" fill="#3E2518"/>
</svg>
