<svg width="78" height="112" viewBox="0 0 78 112" fill="none" xmlns="http://www.w3.org/2000/svg">
<path fill-rule="evenodd" clip-rule="evenodd" d="M55.8305 20.5679C55.5777 20.7167 54.9566 21.1769 54.1893 21.744C52.3137 23.1322 49.5734 25.1597 49.2567 24.8244C50.9344 17.0704 59.5482 13.1005 66.7339 11.8593C68.6613 6.72859 72.1171 1.69338 77.61 0C77.2233 4.40187 75.9384 7.4472 73.4477 10.9999C72.9331 11.7337 71.5691 12.6282 71.3772 13.2916C71.1154 14.212 71.4655 15.7226 71.8522 17.3882C72.4582 19.9882 73.1493 22.9647 71.7304 24.6584C71.3255 24.9431 70.7013 24.6729 70.071 24.204C69.1911 23.5478 68.302 22.5026 67.9884 22.0455C66.8283 20.3468 66.944 18.6835 66.0093 17.0354C63.8931 17.4491 61.917 17.9241 60.0019 18.6169C58.5891 19.1277 57.2098 19.7572 55.8305 20.5679ZM32.7113 30.1409C37.793 25.9095 45.6913 26.0051 50.2981 30.8747C54.6674 35.4909 54.0675 42.3892 53.5012 48.8742C53.2667 51.5736 53.0384 54.2014 53.1784 56.5631C53.489 61.8674 54.9444 66.2339 56.3633 70.485C58.4734 76.8182 60.4982 82.8955 58.5282 91.4378C54.6674 108.167 35.4881 120.101 22.2402 105.252C9.76864 112.086 -0.108709 98.0259 0.000903528 86.4981C0.116606 74.2695 6.46503 67.3426 13.0692 60.1386C16.6469 56.235 20.2976 52.2503 23.0744 47.2969C24.0884 45.4863 24.9409 43.4591 25.8056 41.4068C27.5716 37.2101 29.3833 32.9084 32.7113 30.1409Z" fill="#E73F40"/>
</svg>
