<svg width="76" height="112" viewBox="0 0 76 112" fill="none" xmlns="http://www.w3.org/2000/svg">
<path d="M47.8843 104.959C33.5866 116.416 23.9881 113.583 14.4563 98.7101C0.850174 77.5052 -13.7725 34.9286 24.5964 31.4459C37.0361 30.3127 57.0662 33.3789 67.0229 41.3609C88.5195 58.5915 63.4235 92.5028 47.8843 104.959Z" fill="#E73F40"/>
<path d="M73.1153 24.5901C72.1317 27.7571 64.6873 34.0911 61.3117 34.2029C60.1939 34.2476 53.6661 31.1849 51.7287 30.5888C43.8 28.1521 35.3869 27.4441 27.108 27.7869C25.3047 27.8614 22.8009 28.6811 21.1242 28.6737C17.2493 28.6588 10.9302 19.3888 11.5189 15.3946C16.1241 18.3083 21.3701 20.0147 26.4895 21.8106C23.7323 18.1145 23.0989 13.7776 23.546 9.24688C23.5907 8.78487 23.7398 6.50463 24.5595 6.83996C28.576 11.08 33.7997 12.6822 37.6001 17.3321C38.5614 18.502 39.001 20.0669 40.171 20.9611C40.7224 16.0802 41.8327 10.5509 43.949 6.11714C44.5675 4.82798 46.6838 1.25857 47.6675 0.431421C49.2547 -0.902448 51.9373 1.13935 52.5558 2.71912C46.8552 7.75653 44.3887 14.8953 43.174 22.2354L49.5826 17.3172L62.8542 11.9742C63.1374 17.3395 60.9167 22.2652 57.2952 26.0879C60.4398 25.5365 63.7112 25.5812 66.8633 25.1863C68.7411 24.9478 70.7903 24.1728 72.4968 23.9642C73.078 23.8971 73.3165 23.9344 73.1153 24.5901Z" fill="#E73F40"/>
</svg>
