<svg width="145" height="225" viewBox="0 0 145 225" fill="none" xmlns="http://www.w3.org/2000/svg">
<rect width="144.575" height="224.777" rx="10" fill="#AA9951"/>
<path d="M72.8626 169.941C73.4057 176.472 67.2056 175.383 64.0376 174.023C67.6371 181.507 83.0459 180.145 83.7242 167.899C84.4025 155.654 77.6151 152.252 75.5786 150.891C73.542 149.531 65.3959 148.17 65.3959 145.449C65.3959 143.272 67.2061 142.727 68.1113 142.727C67.5682 141.639 59.7388 137.285 55.892 135.244C67.8397 128.168 78.9728 135.017 83.0459 139.326C80.7829 135.244 74.7635 126.536 68.7901 124.359C62.8167 122.181 59.0598 115.741 57.928 112.793C61.1863 115.514 66.527 115.287 68.7901 114.834C67.8849 113.7 65.9387 111.296 65.3959 110.752C64.7174 110.072 51.8186 100.547 49.782 92.3832C48.1527 85.852 51.8185 82.405 53.8551 81.4979C52.0448 79.9105 48.6958 73.0619 49.782 58.3668C51.1397 39.998 63.3588 35.916 66.0743 35.2357C68.7899 34.5554 73.5417 36.5964 74.8994 43.3996C75.9855 48.8423 71.7314 55.6455 69.4686 58.3668C67.8845 53.3778 63.3588 46.1209 57.928 57.0062C52.4972 67.8914 59.2857 85.1263 63.3588 92.3832C62.6799 77.416 71.5049 75.375 76.2569 75.375C81.0088 75.375 84.4031 78.0963 84.4031 82.8586C84.4031 87.6209 81.6877 91.0225 77.6146 91.0225C74.3561 91.0225 72.6364 88.3012 72.1838 86.9405C65.3953 95.1045 81.0088 122.318 83.7242 125.719C86.4396 129.121 96.6223 157.014 93.9069 169.941C91.1915 182.867 81.0088 187.629 71.5049 187.629C62.0011 187.629 57.928 178.785 57.928 174.023C57.928 169.261 59.9645 166.539 62.0011 165.178C64.0376 163.817 72.1838 161.777 72.8626 169.941Z" fill="#FCF6EB"/>
</svg>
