<svg width="145" height="225" viewBox="0 0 145 225" fill="none" xmlns="http://www.w3.org/2000/svg">
<rect width="144.575" height="224.777" rx="10" fill="#3C2318"/>
<path d="M73.256 17.0433C86.0243 17.0433 98.7856 21.1683 108.839 29.6044C115.267 34.9978 120.533 41.5092 123.965 49.2847C124.2 49.8174 125.315 51.7889 125.343 52.1228C125.374 52.502 124.505 53.5489 124.135 53.6682C123.987 53.7151 123.838 53.735 123.687 53.735C123.012 53.735 122.32 53.3472 121.715 53.3472C121.235 53.3472 120.81 53.5915 120.491 54.4708C119.316 57.7136 121.517 60.0929 123.71 62.0375C126.741 64.725 132.696 67.5091 133.741 71.759C134.049 73.0076 133.882 73.0744 133.013 73.9579C133.391 74.7676 133.874 75.09 134.393 75.09C134.997 75.09 135.648 74.6511 136.231 74.0346C136.689 74.5261 136.311 75.3102 136.293 75.9409C136.239 77.7775 136.251 79.6582 136.444 81.4763C137.002 105.154 135.52 128.944 136.293 152.608C136.308 153.076 136.462 153.487 136.437 153.951C135.923 153.826 135.493 153.502 134.958 153.502C134.879 153.502 134.799 153.509 134.715 153.524C134.64 153.539 133.588 154.331 133.552 154.395C133.344 154.763 134.058 155.138 134.168 155.507C134.305 155.966 133.914 156.742 133.697 157.171C132.782 158.975 129.423 161.995 127.789 163.316C125.431 165.222 120.959 167.489 119.972 170.483C118.992 173.46 120.343 176.584 123.12 176.584C123.638 176.584 124.206 176.476 124.818 176.237C125.373 178.085 123.84 180.179 122.857 181.676C117.588 189.686 107.503 197.841 99.003 201.911C90.1447 206.151 81.5384 208.203 73.0594 208.203C62.3666 208.203 51.8746 204.942 41.3202 198.69C35.4386 195.206 28.5187 189.121 24.264 183.686C23.3447 182.512 20.613 178.672 20.6739 177.311C20.714 176.418 21.1391 176.246 21.6887 176.246C22.0349 176.246 22.4309 176.314 22.8116 176.314C23.0041 176.314 23.1937 176.297 23.3696 176.243C26.2564 175.379 26.6191 172.026 25.4422 169.56C24.3609 167.293 19.6327 164.781 17.4977 163.091C15.6314 161.614 13.6902 159.995 12.4455 157.914C11.63 156.549 11.0762 155.939 12.2032 154.47C11.8903 153.763 11.5484 153.507 10.9336 153.507C10.8049 153.507 10.665 153.519 10.5099 153.539C9.96305 153.611 9.66676 153.943 9.18494 154.091L9.46738 152.894C9.52 126.794 9.26662 100.66 9.73737 74.5999C10.3272 74.7008 10.6761 75.1752 11.3268 75.1795H11.3365C12.0814 75.1795 12.8789 74.6738 13.1904 73.975C11.9208 73.0602 11.9346 72.1085 12.5674 70.7605C15.0042 65.5716 26.3713 61.3528 26.3463 55.9324C26.3422 55.208 25.5364 53.4537 24.822 53.2279C24.671 53.1796 24.4924 53.1611 24.3 53.1611C23.6326 53.1611 22.7715 53.3827 22.0875 53.3827C21.3357 53.3827 20.7999 53.1156 20.9743 51.9921C21.6998 47.3472 27.3238 39.9523 30.3504 36.3472C41.0488 23.603 57.158 17.0433 73.256 17.0433ZM73.256 16.6172C65.1149 16.6172 56.9406 18.3146 49.615 21.5248C45.8532 23.174 42.3018 25.2209 39.062 27.6086C35.7155 30.076 32.6779 32.9225 30.0362 36.0702C28.0203 38.4722 21.3786 46.7123 20.5645 51.9253C20.4676 52.5489 20.552 53.0105 20.8248 53.3387C21.0879 53.6554 21.5004 53.8088 22.0875 53.8088C22.4599 53.8088 22.8698 53.7506 23.2644 53.6938C23.6409 53.6398 23.9968 53.5887 24.2986 53.5887C24.4648 53.5887 24.5991 53.6043 24.6987 53.637C25.1653 53.7847 25.9268 55.3117 25.931 55.9367C25.9434 58.7503 22.4186 61.3865 19.0077 63.9376C19.0056 63.9392 19.0035 63.9407 19.0013 63.9423C16.2046 66.0332 13.3109 68.1966 12.1935 70.5772C11.6757 71.6809 11.3421 72.9466 12.6435 74.0815C12.3389 74.4764 11.8183 74.7562 11.3365 74.7562C11.0707 74.7548 10.8727 74.6454 10.6235 74.5076C10.395 74.3812 10.1347 74.2377 9.80521 74.1823L9.33031 74.1014L9.32201 74.5957C8.99155 92.8945 9.01872 111.533 9.04499 129.56C9.04503 129.585 9.04506 129.609 9.0451 129.634C9.05617 137.243 9.06725 145.11 9.05202 152.845L8.78065 153.995L8.61035 154.716L9.30262 154.503C9.54224 154.43 9.73902 154.321 9.9127 154.224C9.91564 154.222 9.91858 154.221 9.92151 154.219C9.92421 154.218 9.92689 154.216 9.92958 154.215C10.1407 154.097 10.3233 153.996 10.5612 153.965C10.7038 153.946 10.8256 153.936 10.9322 153.936C11.277 153.936 11.4902 154.013 11.7159 154.428C10.7107 155.872 11.2133 156.698 11.8959 157.818C11.9003 157.826 11.9048 157.833 11.9092 157.84C11.9675 157.936 12.028 158.035 12.0897 158.139C13.3621 160.267 15.3323 161.921 17.243 163.432C17.8724 163.931 18.7189 164.496 19.6178 165.096C19.6324 165.106 19.6471 165.115 19.6618 165.125C19.6646 165.127 19.6673 165.129 19.6701 165.131C21.7594 166.525 24.3549 168.256 25.0684 169.75C25.7468 171.171 25.8438 172.807 25.3204 174.02C24.9272 174.932 24.2321 175.543 23.2519 175.837C23.1314 175.872 22.9874 175.891 22.8102 175.891C22.633 175.891 22.4433 175.874 22.2592 175.857C22.0709 175.84 21.8757 175.823 21.6874 175.823C20.7708 175.823 20.3028 176.304 20.2585 177.296C20.1782 179.097 23.9026 183.909 23.94 183.958C28.2487 189.46 35.1493 195.531 41.1125 199.064C46.4444 202.222 51.797 204.624 57.0209 206.205C62.3514 207.817 67.747 208.635 73.0594 208.635C77.3294 208.635 81.6782 208.108 85.9841 207.067C90.3233 206.019 94.7635 204.415 99.1788 202.301C108.302 197.933 118.18 189.551 123.202 181.919C123.274 181.808 123.35 181.696 123.426 181.58C124.423 180.08 125.788 178.024 125.215 176.117L125.085 175.682L124.671 175.844C124.128 176.056 123.606 176.164 123.122 176.164C121.901 176.164 121.179 175.5 120.79 174.943C120.016 173.837 119.854 172.182 120.366 170.625C121.053 168.544 123.606 166.787 125.859 165.237C125.867 165.232 125.874 165.227 125.882 165.222C126.678 164.674 127.429 164.156 128.048 163.656C129.708 162.314 133.104 159.273 134.067 157.374C134.399 156.718 134.739 155.969 134.566 155.389C134.494 155.147 134.31 154.951 134.148 154.779C134.098 154.726 134.028 154.651 133.979 154.59C134.216 154.401 134.688 154.049 134.85 153.942C134.886 153.938 134.922 153.935 134.958 153.935C135.203 153.935 135.437 154.033 135.709 154.147C135.717 154.15 135.726 154.154 135.735 154.157C135.924 154.236 136.12 154.318 136.341 154.371L136.825 154.489L136.852 153.98C136.869 153.672 136.822 153.399 136.776 153.135C136.776 153.133 136.775 153.131 136.775 153.128C136.743 152.946 136.714 152.774 136.708 152.6C136.303 140.208 136.522 127.571 136.733 115.347C136.734 115.325 136.734 115.303 136.735 115.282C136.927 104.194 137.125 92.7277 136.859 81.4721V81.4536L136.856 81.4366C136.692 79.8741 136.643 78.134 136.708 75.9593C136.712 75.8045 136.746 75.6241 136.782 75.4338C136.88 74.9068 137 74.2491 136.531 73.7463L136.233 73.4267L135.933 73.7434C135.368 74.34 134.821 74.6696 134.393 74.6696C134.263 74.6696 133.898 74.6696 133.527 74.0431C134.288 73.269 134.468 72.9735 134.144 71.661C133.358 68.465 130.015 66.117 127.066 64.0446C127.064 64.0432 127.062 64.0419 127.06 64.0405C125.912 63.2338 124.826 62.4709 123.983 61.7222C121.906 59.8798 119.782 57.6611 120.882 54.6256C121.188 53.779 121.532 53.779 121.716 53.779C121.951 53.779 122.231 53.8601 122.528 53.946C122.53 53.9466 122.532 53.9473 122.535 53.948C122.538 53.949 122.541 53.9499 122.544 53.9509C122.91 54.0565 123.286 54.1654 123.688 54.1654C123.889 54.1654 124.081 54.137 124.26 54.0787C124.769 53.9139 125.811 52.7193 125.758 52.0901C125.736 51.8301 125.506 51.3543 124.825 50.0546C124.618 49.6597 124.422 49.2875 124.346 49.1128C121.067 41.6867 115.94 35.0134 109.105 29.2791C99.3768 21.1172 86.6446 16.6172 73.256 16.6172Z" fill="#FFFCF6"/>
<path d="M73.256 16.6172C65.1149 16.6172 56.9406 18.3146 49.615 21.5248C45.8532 23.174 42.3018 25.2209 39.062 27.6086C35.7155 30.076 32.6779 32.9225 30.0362 36.0702C28.0203 38.4722 21.3786 46.7123 20.5645 51.9253C20.4676 52.5489 20.552 53.0105 20.8248 53.3387C21.0879 53.6554 21.5004 53.8088 22.0875 53.8088C22.4599 53.8088 22.8698 53.7506 23.2644 53.6938C23.6396 53.64 23.9977 53.5887 24.2986 53.5887C24.4648 53.5887 24.5991 53.6043 24.6987 53.637C25.1653 53.7847 25.9268 55.3117 25.931 55.9367C25.9434 58.7503 22.4186 61.3865 19.0077 63.9376L19.0013 63.9423C16.2046 66.0332 13.3109 68.1966 12.1935 70.5772C11.6757 71.6809 11.3421 72.9466 12.6435 74.0815C12.3389 74.4764 11.8183 74.7562 11.3365 74.7562C11.0707 74.7548 10.8727 74.6454 10.6235 74.5076C10.395 74.3812 10.1347 74.2377 9.80521 74.1823L9.33031 74.1014L9.32201 74.5957C8.99155 92.8945 9.01872 111.533 9.04499 129.56L9.0451 129.634C9.05617 137.243 9.06725 145.11 9.05202 152.845L8.78065 153.995L8.61035 154.716L9.30262 154.503C9.54224 154.43 9.73902 154.321 9.9127 154.224L9.92151 154.219L9.92958 154.215C10.1407 154.097 10.3233 153.996 10.5612 153.965C10.7038 153.946 10.8256 153.936 10.9322 153.936C11.277 153.936 11.4902 154.013 11.7159 154.428C10.7107 155.872 11.2133 156.698 11.8959 157.818L11.9092 157.84C11.967 157.935 12.0285 158.036 12.0897 158.139C13.3621 160.267 15.3323 161.921 17.243 163.432C17.8724 163.931 18.7189 164.496 19.6178 165.096L19.6618 165.125L19.6701 165.131C21.7594 166.525 24.3549 168.256 25.0684 169.75C25.7468 171.171 25.8438 172.807 25.3204 174.02C24.9272 174.932 24.2321 175.543 23.2519 175.837C23.1314 175.872 22.9874 175.891 22.8102 175.891C22.633 175.891 22.4433 175.874 22.2592 175.857C22.0709 175.84 21.8757 175.823 21.6874 175.823C20.7708 175.823 20.3028 176.304 20.2585 177.296C20.1782 179.097 23.9026 183.909 23.94 183.958C28.2487 189.46 35.1493 195.531 41.1125 199.064C46.4444 202.222 51.797 204.624 57.0209 206.205C62.3514 207.817 67.747 208.635 73.0594 208.635C77.3294 208.635 81.6782 208.108 85.9841 207.067C90.3233 206.019 94.7635 204.415 99.1788 202.301C108.302 197.933 118.18 189.551 123.202 181.919C123.225 181.884 123.249 181.848 123.273 181.812C123.288 181.788 123.304 181.765 123.32 181.741C123.354 181.689 123.391 181.634 123.426 181.58C124.423 180.08 125.788 178.024 125.215 176.117L125.085 175.682L124.671 175.844C124.128 176.056 123.606 176.164 123.122 176.164C121.901 176.164 121.179 175.5 120.79 174.943C120.016 173.837 119.854 172.182 120.366 170.625C121.053 168.544 123.606 166.787 125.859 165.237L125.882 165.222C126.678 164.674 127.429 164.156 128.048 163.656C129.708 162.314 133.104 159.273 134.067 157.374C134.399 156.718 134.739 155.969 134.566 155.389C134.494 155.147 134.31 154.951 134.148 154.779C134.098 154.726 134.028 154.651 133.979 154.59C134.216 154.401 134.688 154.049 134.85 153.942C134.886 153.938 134.922 153.935 134.958 153.935C135.203 153.935 135.437 154.033 135.709 154.147L135.735 154.157C135.924 154.236 136.12 154.318 136.341 154.371L136.825 154.489L136.852 153.98C136.869 153.672 136.822 153.399 136.776 153.135L136.775 153.128C136.743 152.946 136.714 152.774 136.708 152.6C136.303 140.208 136.522 127.571 136.733 115.347L136.735 115.282C136.927 104.194 137.125 92.7277 136.859 81.4721V81.4536L136.856 81.4366C136.692 79.8741 136.643 78.134 136.708 75.9593C136.712 75.8045 136.746 75.6241 136.782 75.4338C136.88 74.9068 137 74.2491 136.531 73.7463L136.233 73.4267L135.933 73.7434C135.368 74.34 134.821 74.6696 134.393 74.6696C134.263 74.6696 133.898 74.6696 133.527 74.0431C134.288 73.269 134.468 72.9735 134.144 71.661C133.358 68.466 130.015 66.1166 127.066 64.0446L127.06 64.0405C125.912 63.2338 124.826 62.4709 123.983 61.7222C121.906 59.8798 119.782 57.6611 120.882 54.6256C121.188 53.779 121.532 53.779 121.716 53.779C121.951 53.779 122.231 53.8601 122.528 53.946L122.535 53.948L122.544 53.9509C122.91 54.0565 123.286 54.1654 123.688 54.1654C123.889 54.1654 124.081 54.137 124.26 54.0787C124.769 53.9139 125.811 52.7193 125.758 52.0901C125.736 51.8301 125.506 51.3543 124.825 50.0546L124.755 49.9218C124.576 49.5787 124.413 49.2676 124.346 49.1128C121.067 41.6867 115.94 35.0134 109.105 29.2791C99.3768 21.1172 86.6446 16.6172 73.256 16.6172Z" fill="#FFFCF6"/>
<g clip-path="url(#clip0_564_870)">
<path d="M79.224 56.3944C81.4779 56.9984 81.9759 63.3 81.8944 65.3501C87.7922 67.1787 90.9057 70.8106 92.9761 76.5357C95.0146 82.1664 93.8148 86.8577 94.9323 91.3106C95.2362 92.5283 96.223 93.5852 96.1456 94.9251C96.0853 95.9163 95.1906 96.6361 94.8802 97.5985C94.388 99.1328 93.8235 105.89 93.8172 107.731C93.8156 108.824 94.4667 110.278 94.2821 111.145C94.1062 111.962 93.1899 112.566 92.8131 113.491C92.3641 114.579 90.5288 123.139 90.4655 124.373C90.4035 125.531 91.1007 126.777 90.9127 127.782C90.7246 128.787 88.8671 130.552 88.1786 131.981C86.7808 134.882 83.9669 142.034 82.9922 145.119C82.0836 147.993 83.4611 148.696 80.8543 151.12C75.9041 155.733 72.7508 162.779 66.3958 166.185C57.0993 171.161 48.883 167.116 47.687 156.489C47.0083 150.487 49.5514 145.201 50.0287 139.571C50.2824 136.593 51.9791 136.336 53.2846 134.137C53.8844 133.128 56.4134 127.022 56.6199 125.984C56.8264 124.946 56.2429 123.987 56.5757 122.959C56.8837 122.006 57.8733 121.359 58.3488 120.422C59.1298 118.879 61.5838 109.186 61.4948 107.558C61.4299 106.429 60.6584 105.014 60.8428 104.094C60.9874 103.341 61.9186 102.645 62.3118 101.748C62.733 100.782 63.5918 93.817 63.4746 92.7401C63.3573 91.6632 62.7137 90.8223 62.7221 89.7934C62.7348 88.6414 63.8201 87.691 64.1826 86.6232C65.9349 81.402 64.8411 77.5379 68.628 72.1887C71.3435 68.3618 73.9596 66.5802 78.5788 65.555C78.991 64.9254 78.6634 62.3885 78.3851 61.6456C77.3217 58.8256 74.024 56.7007 79.2409 56.3847L79.224 56.3944Z" fill="#E73F40"/>
</g>
<defs>
<clipPath id="clip0_564_870">
<rect width="112" height="112" fill="white" transform="translate(16.2871 56.3887)"/>
</clipPath>
</defs>
</svg>
