<svg width="434" height="692" viewBox="0 0 434 692" fill="none" xmlns="http://www.w3.org/2000/svg">
<path d="M42.8435 161.831L47.1702 63.747H83.7076L186.589 35.3825L226.972 27.6904L276.49 54.043L365.91 50.7666L394.275 74.8043L387.544 167.6V193.08L365.91 207.022L334.661 229.136V280.096L365.91 307.499H413.986L417.832 358.459L377.929 494.032L276.49 632.009L218.8 664.7L202.935 657.008L78.9 555.088L23.6133 397.881V313.268H67.3619L101.495 276.25L92.8419 220.002L29.8631 207.022L42.8435 161.831Z" fill="#AA9951"/>
<path fill-rule="evenodd" clip-rule="evenodd" d="M430.68 329.083C430.68 329.087 430.68 329.09 430.68 329.094C430.68 329.1 430.679 329.116 430.679 329.122L430.68 329.094L430.68 329.083ZM360.305 500.352C360.306 500.35 360.31 500.346 360.312 500.344L360.305 500.352ZM360.321 500.336C360.321 500.336 360.314 500.343 360.312 500.344C360.315 500.342 360.319 500.339 360.321 500.336Z" fill="#E73F40"/>
<path fill-rule="evenodd" clip-rule="evenodd" d="M430.68 329.083L430.68 329.094L430.679 329.122L430.672 329.52L430.669 329.654L430.661 330.121L430.656 330.419C429.855 377.934 417.756 423.142 401.73 467.484C400.276 471.508 400.011 476.005 399.744 480.533C399.291 488.231 398.832 496.019 392.516 501.73C397.868 505.784 400.688 508.797 401.137 512.948C401.586 517.098 398.14 522.931 394.775 524.357L385.593 523.123C384.309 532.985 385.5 541.087 386.69 549.187C388.16 559.186 389.629 569.183 386.442 582.481C381.987 601.054 366.795 613.137 347.564 614.227C343.911 636.214 327.212 652.303 304.841 655.236C297.466 656.205 290.722 655.953 284.427 655.719C273.019 655.294 263.085 654.924 253.544 661.966L258.544 670.364C259.826 672.511 256.717 678.793 254.553 680.027C245.194 685.331 239.762 680.86 234.297 673.713L216.99 690.299L217.022 690.363L198.833 673.184C194.763 681.053 188.609 684.29 180.308 680.909C177.808 679.883 174.346 675.652 174.25 673.104C174.09 669.45 176.702 665.732 180.019 662.495C167.602 654.337 158.558 655.023 148.439 655.791C139.635 656.458 130.016 657.188 116.655 652.207C99.9568 645.989 88.8993 631.983 84.973 614.547C65.5663 613.378 50.6788 599.74 46.4481 580.766C43.4298 567.23 44.9477 557.4 46.4926 547.396C47.6216 540.085 48.765 532.681 48.1628 523.668C47.8116 523.703 47.4632 523.739 47.1179 523.775C42.8945 524.211 39.1217 524.6 35.9515 522.867C32.5221 520.992 31.2721 515.352 32.1535 511.521C32.9067 508.252 35.5349 505.704 40.7752 501.762C34.1917 496.144 33.7658 488.278 33.3437 480.483C33.1001 475.983 32.8577 471.506 31.4323 467.5C14.5897 420.113 1.497 372.373 2.6989 321.461C2.70772 321.083 2.7162 320.69 2.72497 320.283C2.95543 309.595 3.39476 289.218 15.7756 286.702C21.3308 285.573 24.8711 288.707 29.0378 292.396C34.5108 297.242 41.0645 303.044 54.6851 301.397C72.7617 299.202 90.678 283.288 91.3511 264.058C92.0242 244.828 75.1014 228.946 56.9447 230.998C51.8945 231.572 48.2608 236.091 44.3168 240.996C38.8995 247.734 32.8967 255.2 21.8332 254.17C14.3654 253.481 6.84948 248.113 4.06107 240.02C-4.24021 215.836 9.17047 194.028 22.2963 172.683C23.791 170.252 25.2821 167.827 26.7369 165.406C36.8498 148.59 28.3054 133.78 26.7369 123.315C25.1685 112.85 25.1055 92.2783 28.999 75.8149C32.8926 59.3516 53.0055 36 53.0055 36C94.5112 51.3042 139.783 45.2146 179.269 28.388C193.452 22.3464 205.807 14.1094 216.368 2.26664C250.31 41.1121 333.193 55.6792 379.346 36.3206C379.346 36.3206 394.153 47.8708 401.499 73.3149C408.845 98.7591 407.316 124.591 405.683 128.52C405.47 129.032 405.256 129.541 405.042 130.049L404.981 130.196C400.824 140.075 396.915 149.365 406.185 165.518L424.823 197.969C436.233 217.841 433.925 251.302 412.547 253.866C400.187 255.347 394.581 248.062 389.273 241.164C383.267 233.359 377.642 226.049 363.045 232.488C351.811 237.44 344.007 247.568 342.26 258.962C340.321 271.558 347.052 282.199 356.058 290.724C370.689 304.554 391.25 305.98 406.121 291.061C408.942 288.224 414.534 285.724 418.364 286.734C431.401 290.198 430.917 316.302 430.68 329.083ZM349.6 518.58C315.157 574.755 273.945 618.63 216.701 655.701C215.26 654.669 213.825 653.644 212.397 652.624C141.565 602.017 86.1611 538.328 52.5057 456.859C37.1534 415.161 28.6279 373.03 31.2881 327.999C47.6821 332.438 63.0664 330.659 77.4892 323.416C118.194 303 130.149 253.321 103.05 216.318C91.3672 200.357 74.1559 190.886 53.964 185.005C62.8901 166.031 62.7459 145.983 54.605 126.849C46.999 95.3149 60.7618 68.8039 65.7778 65.1502C95.1682 71.9769 123.165 69.5571 152.267 64.1886C175.776 59.8457 197.234 51.769 216.015 36.8334C244.637 59.333 295.934 69.3488 330.324 69.6212C339.334 69.6909 347.737 68.4618 356.695 67.1514C360.085 66.6556 363.555 66.1481 367.166 65.695C371.429 67.8904 389.273 104.315 378.157 128.243C371.779 147.506 371.154 165.887 379.102 185.39C354.664 191.351 335.738 205.63 323.815 226.911C308.094 254.956 314.6 288.817 338.045 310.387C355.273 326.252 377.115 334.425 401.49 328.528C404.294 344.73 402.868 359.649 400.801 375.979C395.224 420.113 382.211 461.426 360.305 500.352C358.555 503.461 356.789 506.534 355.005 509.572C354.894 509.761 354.782 509.951 354.67 510.141C352.996 512.985 351.307 515.797 349.6 518.58Z" fill="#E73F40"/>
<path d="M430.68 329.083C430.68 329.087 430.68 329.09 430.68 329.094M430.68 329.083L430.68 329.094M430.68 329.083C430.917 316.302 431.401 290.198 418.364 286.734C414.534 285.724 408.942 288.224 406.121 291.061C391.25 305.98 370.689 304.554 356.058 290.724C347.052 282.199 340.321 271.558 342.26 258.962C344.007 247.568 351.811 237.44 363.045 232.488C377.642 226.049 383.267 233.359 389.273 241.164C394.581 248.062 400.187 255.347 412.547 253.866C433.925 251.302 436.233 217.841 424.823 197.969L406.185 165.518C396.915 149.365 400.824 140.075 404.981 130.196L405.042 130.049C405.256 129.541 405.47 129.032 405.683 128.52C407.316 124.591 408.845 98.7591 401.499 73.3149C394.153 47.8708 379.346 36.3206 379.346 36.3206C333.193 55.6792 250.31 41.1121 216.368 2.26664C205.807 14.1094 193.452 22.3464 179.269 28.388C139.783 45.2146 94.5112 51.3042 53.0055 36C53.0055 36 32.8926 59.3516 28.999 75.8149C25.1055 92.2783 25.1685 112.85 26.7369 123.315C28.3054 133.78 36.8498 148.59 26.7369 165.406C25.2821 167.827 23.791 170.252 22.2963 172.683C9.17047 194.028 -4.24021 215.836 4.06107 240.02C6.84948 248.113 14.3654 253.481 21.8332 254.17C32.8967 255.2 38.8995 247.734 44.3168 240.996C48.2608 236.091 51.8945 231.572 56.9447 230.998C75.1014 228.946 92.0242 244.828 91.3511 264.058C90.678 283.288 72.7617 299.202 54.6851 301.397C41.0645 303.044 34.5108 297.242 29.0378 292.396C24.8711 288.707 21.3308 285.573 15.7756 286.702C3.39476 289.218 2.95543 309.595 2.72497 320.283C2.7162 320.69 2.70772 321.083 2.6989 321.461C1.497 372.373 14.5897 420.113 31.4323 467.5C32.8577 471.506 33.1001 475.983 33.3437 480.483C33.7658 488.278 34.1917 496.144 40.7752 501.762C35.5349 505.704 32.9067 508.252 32.1535 511.521C31.2721 515.352 32.5221 520.992 35.9515 522.867C39.1217 524.6 42.8945 524.211 47.1179 523.775C47.4632 523.739 47.8116 523.703 48.1628 523.668C48.765 532.681 47.6216 540.085 46.4926 547.396C44.9477 557.4 43.4298 567.23 46.4481 580.766C50.6788 599.74 65.5663 613.378 84.973 614.547C88.8993 631.983 99.9568 645.989 116.655 652.207C130.016 657.188 139.635 656.458 148.439 655.791C158.558 655.023 167.602 654.337 180.019 662.495C176.702 665.732 174.09 669.45 174.25 673.104C174.346 675.652 177.808 679.883 180.308 680.909C188.609 684.29 194.763 681.053 198.833 673.184L217.022 690.363L216.99 690.299L234.297 673.713C239.762 680.86 245.194 685.331 254.553 680.027C256.717 678.793 259.826 672.511 258.544 670.364L253.544 661.966C263.085 654.924 273.019 655.294 284.427 655.719C290.722 655.953 297.466 656.205 304.841 655.236C327.212 652.303 343.911 636.214 347.564 614.227C366.795 613.137 381.987 601.054 386.442 582.481C389.629 569.183 388.16 559.186 386.69 549.187C385.5 541.087 384.309 532.985 385.593 523.123L394.775 524.357C398.14 522.931 401.586 517.098 401.137 512.948C400.688 508.797 397.868 505.784 392.516 501.73C398.832 496.019 399.291 488.231 399.744 480.533C400.011 476.005 400.276 471.508 401.73 467.484C417.756 423.142 429.855 377.934 430.656 330.419M430.68 329.094C430.68 329.1 430.679 329.116 430.679 329.122M430.68 329.094L430.679 329.122M430.679 329.122L430.672 329.52M430.679 329.122C430.677 329.256 430.674 329.389 430.672 329.52M360.305 500.352C360.306 500.35 360.31 500.346 360.312 500.344M360.305 500.352L360.312 500.344M360.305 500.352C382.211 461.426 395.224 420.113 400.801 375.979C402.868 359.649 404.294 344.73 401.49 328.528C377.115 334.425 355.273 326.252 338.045 310.387C314.6 288.817 308.094 254.956 323.815 226.911C335.738 205.63 354.664 191.351 379.102 185.39C371.154 165.887 371.779 147.506 378.157 128.243C389.273 104.315 371.429 67.8904 367.166 65.695C363.555 66.1481 360.085 66.6556 356.695 67.1514C347.737 68.4618 339.334 69.6909 330.324 69.6212C295.934 69.3488 244.637 59.333 216.015 36.8334C197.234 51.769 175.776 59.8457 152.267 64.1886C123.165 69.5571 95.1682 71.9769 65.7778 65.1502C60.7618 68.8039 46.999 95.3149 54.605 126.849C62.7459 145.983 62.8901 166.031 53.964 185.005C74.1559 190.886 91.3672 200.357 103.05 216.318C130.149 253.321 118.194 303 77.4892 323.416C63.0664 330.659 47.6821 332.438 31.2881 327.999C28.6279 373.03 37.1534 415.161 52.5057 456.859C86.1611 538.328 141.565 602.017 212.397 652.624C213.825 653.644 215.26 654.669 216.701 655.701C273.945 618.63 315.157 574.755 349.6 518.58C351.307 515.797 352.996 512.985 354.67 510.141C354.782 509.951 354.894 509.761 355.005 509.572C356.789 506.534 358.555 503.461 360.305 500.352ZM360.312 500.344C360.314 500.343 360.321 500.336 360.321 500.336C360.319 500.339 360.315 500.342 360.312 500.344ZM430.672 329.52L430.669 329.654M430.672 329.52C430.671 329.565 430.67 329.61 430.669 329.654M430.669 329.654L430.661 330.121M430.669 329.654C430.667 329.812 430.664 329.968 430.661 330.121M430.661 330.121L430.656 330.419M430.661 330.121C430.659 330.221 430.658 330.321 430.656 330.419" stroke="#3C2318" stroke-width="3"/>
<path d="M122.828 183.803C123.461 183.943 124.128 183.839 124.685 183.5C125.241 183.162 125.642 182.621 125.799 181.992C125.955 181.363 125.856 180.697 125.523 180.137C125.191 179.577 124.651 179.172 124.026 178.998C124.026 178.998 124.026 178.998 124.026 178.998C121.003 178.015 117.885 174.058 117.443 170.571C116.875 167.007 118.906 163.762 122.277 161.386C123.913 160.213 125.758 159.291 127.73 158.585C144.098 153.537 162.961 158.538 180.398 164.001C182.145 164.567 184.499 165.389 186.531 166.075C219.59 176.459 251.612 189.58 288.337 190.113C300.649 188.181 317.766 184.485 320.958 167.66C322.264 157.332 312.355 149.786 304.329 148.082C296.868 146.126 289.41 146.203 282.122 146.916C256.665 149.873 232.306 157.706 209.527 169.248C194.856 176.688 179.186 185.179 163.927 186.401C162.195 186.404 160.503 186.01 159.226 185.252C157.913 184.51 157.326 183.379 157.445 182.95C157.238 181.76 161.48 179.674 165.285 179.377C188.047 177.326 210.763 188.844 232.75 197.66C241.769 201.474 251.647 204.204 261.934 203.294C271.631 202.147 284.354 198.012 285.401 184.004C281.688 167.552 263.805 166.579 252.163 167.412C236.159 168.747 219.572 174.372 207.806 186.279L207.856 186.231C205.888 188.112 204.085 190.235 202.615 192.659C199.304 197.764 198.376 205.256 201.25 210.967C201.269 211.008 201.289 211.05 201.308 211.091C204.368 219.309 216.982 223.768 223.776 215.792C225.435 213.471 226.187 210.072 224.544 207.159C222.86 204.113 219.065 203.541 216.635 204.148C216.184 204.245 215.78 204.505 215.514 204.885C215.247 205.265 215.139 205.732 215.215 206.186C215.291 206.64 215.544 207.047 215.919 207.32C216.295 207.593 216.762 207.708 217.219 207.654C217.219 207.654 217.219 207.654 217.219 207.654C221.13 207.098 222.145 210.501 220.05 213.01C218.653 214.647 215.084 215.339 212.498 214.484C209.808 213.685 207.752 211.539 206.546 208.71C206.533 208.68 206.519 208.649 206.506 208.618C204.638 204.396 205.241 199.82 207.749 195.765C208.881 193.894 210.351 192.144 211.998 190.571L212.048 190.522C222.56 179.881 237.576 174.658 252.691 173.389C263.577 172.249 277.994 175.052 279.453 184.797C279.417 190.872 269.714 196.928 261.372 197.32C252.619 198.116 243.55 195.732 235.104 192.141C212.837 183.363 190.552 171.317 164.541 173.424C162.194 173.727 159.808 174.206 157.395 175.289C155.137 176.345 152.035 178.275 151.484 182.273C151.1 186.304 153.824 189.034 156.17 190.415C158.638 191.861 161.326 192.394 163.927 192.401C182.452 190.787 197.137 182.105 212.327 174.554C234.196 163.445 258.387 155.683 282.732 152.885C289.557 152.204 296.458 152.206 302.767 153.876C309.852 155.612 315.739 160.581 314.896 167.141C313.393 177.5 299.235 182.399 287.517 183.689C255.047 182.814 221.345 169.322 188.942 158.974C186.817 158.259 184.901 157.577 182.456 156.801C164.793 151.494 145.147 145.91 125.439 152.544C123.021 153.503 120.671 154.769 118.549 156.415C114.296 159.484 110.538 165.544 111.891 171.542C113.219 177.287 116.782 181.921 122.828 183.803Z" fill="#FCF6EB"/>
<path d="M99.819 118.65C99.7055 118.65 99.6203 118.621 99.5636 118.565C99.5068 118.508 99.3933 118.451 99.2231 118.394C99.0812 118.338 98.911 118.224 98.7123 118.054C98.5421 117.884 98.457 117.713 98.457 117.543C98.457 117.032 98.613 116.465 98.9251 115.841C99.1238 115.415 99.2515 114.989 99.3082 114.564C99.4785 113.627 99.7196 113.088 100.032 112.946C100.202 112.776 100.301 112.663 100.33 112.606C100.33 111.868 100.557 111.045 101.011 110.137C101.124 109.939 101.252 109.556 101.394 108.988C101.507 108.619 101.649 108.25 101.819 107.881C101.905 107.796 101.947 107.654 101.947 107.456C101.947 107.314 101.919 107.229 101.862 107.2C101.692 107.541 101.479 107.81 101.224 108.009C100.968 108.208 100.755 108.421 100.585 108.648C100.301 109.073 99.7764 109.641 99.0103 110.35C98.5279 110.832 98.2441 111.173 98.159 111.372C98.0739 111.57 97.9746 111.74 97.8611 111.882C97.7476 112.024 97.549 112.123 97.2652 112.18C97.2368 112.209 97.1517 112.223 97.0098 112.223C96.8112 112.223 96.6552 112.166 96.5417 112.053L96.4991 111.967L96.5417 111.797C96.6268 111.599 96.7261 111.485 96.8396 111.457C97.0666 111.286 97.2227 111.13 97.3078 110.988C97.3929 110.818 97.549 110.676 97.776 110.563C98.003 110.449 98.1874 110.237 98.3293 109.924C98.386 109.811 98.4428 109.726 98.4995 109.669C98.5846 109.584 98.6556 109.499 98.7123 109.414L98.7549 109.286C98.9819 109.059 99.138 108.917 99.2231 108.86C99.5352 108.52 99.8331 108.165 100.117 107.796C100.429 107.399 100.713 107.059 100.968 106.775C101.224 106.491 101.436 106.165 101.607 105.796C101.919 105.172 102.344 104.675 102.883 104.306C103.252 104.051 103.579 103.923 103.862 103.923C104.174 103.923 104.359 104.15 104.416 104.604C104.416 104.689 104.43 104.803 104.458 104.945C104.515 105.058 104.543 105.228 104.543 105.455C104.543 106.051 104.458 106.619 104.288 107.158L104.118 107.796C104.118 107.853 104.089 107.952 104.033 108.094C103.976 108.236 103.919 108.421 103.862 108.648C103.493 109.527 103.309 110.151 103.309 110.52C103.309 110.549 103.352 110.563 103.437 110.563C103.72 110.563 104.245 110.08 105.012 109.116L105.309 108.775C105.565 108.548 105.778 108.321 105.948 108.094C106.515 107.47 106.941 107.158 107.225 107.158C107.31 107.158 107.381 107.144 107.438 107.115C107.494 107.059 107.537 106.973 107.565 106.86C107.622 106.746 107.679 106.661 107.736 106.605C108.19 106.122 108.842 105.668 109.693 105.243C110.119 104.93 110.743 104.774 111.566 104.774C112.077 104.774 112.502 104.902 112.843 105.157C113.24 105.526 113.439 106.009 113.439 106.605C113.439 107.144 113.325 107.683 113.098 108.222C113.098 108.25 113.084 108.279 113.056 108.307C113.056 108.307 113.056 108.321 113.056 108.35C113.056 108.378 113.027 108.421 112.971 108.477C112.942 108.506 112.928 108.69 112.928 109.031C112.928 109.258 112.829 109.669 112.63 110.265C112.403 110.776 112.29 111.173 112.29 111.457C112.403 111.286 112.559 111.159 112.758 111.074C112.956 110.988 113.098 110.847 113.183 110.648C113.297 110.421 113.439 110.251 113.609 110.137C113.808 110.024 113.95 109.882 114.035 109.712C114.29 109.172 114.758 108.619 115.439 108.052C115.496 107.995 115.567 107.967 115.652 107.967C115.737 107.967 115.808 107.938 115.865 107.881L116.248 107.328C117.355 106.335 118.305 105.838 119.1 105.838L119.355 105.881C119.837 105.966 120.164 106.179 120.334 106.519C120.533 106.832 120.674 107.371 120.76 108.137C120.76 108.279 120.774 108.406 120.802 108.52C120.802 108.69 120.774 108.832 120.717 108.945C120.689 109.031 120.674 109.144 120.674 109.286C120.674 109.371 120.703 109.47 120.76 109.584C120.816 109.697 120.845 109.797 120.845 109.882C120.845 110.676 120.802 111.258 120.717 111.627C120.689 111.74 120.674 112.28 120.674 113.244L120.632 113.798C120.632 114.479 120.831 115.003 121.228 115.372C121.37 115.486 121.582 115.543 121.866 115.543C122.263 115.543 122.618 115.429 122.93 115.202C123.327 114.89 124.037 114.223 125.058 113.202C125.172 113.117 125.285 113.046 125.399 112.989C125.512 112.932 125.612 112.861 125.697 112.776C125.782 112.691 125.881 112.563 125.995 112.393C126.222 111.797 126.491 111.471 126.803 111.414L127.101 111.329C127.158 111.329 127.201 111.343 127.229 111.372C127.371 111.428 127.442 111.57 127.442 111.797C127.442 111.882 127.413 111.953 127.357 112.01C126.846 112.521 126.364 113.031 125.91 113.542C125.03 114.535 124.122 115.372 123.186 116.053C122.987 116.195 122.817 116.295 122.675 116.351C122.533 116.408 122.349 116.536 122.122 116.734C121.923 116.905 121.398 117.103 120.547 117.33C120.291 117.33 120.022 117.302 119.738 117.245C119.142 117.132 118.731 116.905 118.504 116.564C118.277 116.195 118.163 115.926 118.163 115.755C118.135 115.727 118.121 115.628 118.121 115.457L118.163 115.202C118.163 115.06 118.107 114.933 117.993 114.819C117.908 114.677 117.865 114.535 117.865 114.393C117.865 114.195 117.88 114.025 117.908 113.883C117.936 113.712 117.95 113.556 117.95 113.415C117.95 112.989 117.922 112.563 117.865 112.138C117.809 111.712 117.78 111.187 117.78 110.563C117.78 110.166 117.809 109.726 117.865 109.243V108.988C117.865 108.364 117.667 108.052 117.269 108.052C116.929 108.052 116.603 108.25 116.291 108.648C116.149 108.818 116.021 108.931 115.907 108.988L115.695 109.116C115.524 109.201 115.397 109.3 115.312 109.414C115.255 109.527 115.184 109.612 115.099 109.669C114.815 109.896 114.616 110.194 114.503 110.563C114.361 110.733 114.162 110.918 113.907 111.116C113.425 111.457 113.169 111.726 113.141 111.925C113.113 112.123 113.027 112.265 112.886 112.35C112.8 112.464 112.715 112.606 112.63 112.776C112.573 112.946 112.432 113.102 112.205 113.244C112.063 113.443 111.963 113.684 111.907 113.968C111.793 114.365 111.665 114.663 111.524 114.862C111.41 115.032 111.311 115.202 111.226 115.372C111.169 115.543 111.141 115.77 111.141 116.053C111.141 116.309 111.07 116.465 110.928 116.522C110.786 116.55 110.672 116.578 110.587 116.607C110.53 116.635 110.488 116.649 110.46 116.649C110.545 116.649 110.63 116.678 110.715 116.734C110.828 116.791 110.885 116.862 110.885 116.947C110.885 117.004 110.828 117.117 110.715 117.288C110.63 117.43 110.545 117.543 110.46 117.628C110.374 117.713 110.289 117.784 110.204 117.841C110.119 117.869 110.034 117.912 109.949 117.969C109.75 118.054 109.537 118.096 109.31 118.096C109.112 118.096 108.913 118.025 108.714 117.884C108.516 117.742 108.374 117.628 108.289 117.543C108.204 117.43 108.161 117.302 108.161 117.16C108.161 117.018 108.175 116.919 108.204 116.862C108.26 116.692 108.289 116.408 108.289 116.011C108.402 115.67 108.502 115.358 108.587 115.074C108.672 114.762 108.714 114.479 108.714 114.223C108.743 113.968 108.814 113.698 108.927 113.415L109.395 112.18C109.424 112.038 109.438 111.84 109.438 111.584C109.438 111.329 109.622 110.776 109.991 109.924C110.36 109.272 110.545 108.633 110.545 108.009C110.545 107.697 110.46 107.385 110.289 107.073C110.204 106.902 110.034 106.817 109.779 106.817C109.098 106.817 108.232 107.342 107.182 108.392L106.374 109.073C106.232 109.215 106.09 109.399 105.948 109.626C105.834 109.853 105.678 110.052 105.48 110.222C104.941 110.648 104.401 111.159 103.862 111.755C102.954 112.776 102.458 113.613 102.373 114.266L102.16 114.904L101.947 114.989C101.834 115.16 101.763 115.358 101.734 115.585C101.734 115.784 101.649 115.926 101.479 116.011C101.394 116.011 101.337 116.053 101.309 116.138C101.28 116.224 101.252 116.323 101.224 116.436C101.195 116.522 101.153 116.607 101.096 116.692C101.039 116.777 101.011 116.947 101.011 117.203V117.33C101.011 117.671 100.869 117.983 100.585 118.267C100.33 118.522 100.074 118.65 99.819 118.65ZM129.292 118.735C126.994 118.735 125.845 117.344 125.845 114.564C125.845 113.741 125.944 113.003 126.143 112.35C126.228 112.123 126.285 111.911 126.313 111.712C126.341 111.315 126.526 110.946 126.866 110.605C127.008 110.378 127.107 110.137 127.164 109.882C127.278 109.286 127.888 108.35 128.994 107.073C129.079 106.988 129.165 106.931 129.25 106.902C129.363 106.846 129.463 106.732 129.548 106.562C129.661 106.392 129.76 106.264 129.846 106.179C130.555 105.498 131.349 104.973 132.229 104.604C132.257 104.576 132.328 104.562 132.442 104.562C133.009 104.562 133.478 104.476 133.846 104.306C134.244 104.136 134.655 104.051 135.081 104.051C135.904 104.051 136.613 104.349 137.209 104.945C137.748 105.399 138.018 106.179 138.018 107.286C138.018 107.513 138.003 107.654 137.975 107.711C137.947 107.768 137.918 107.825 137.89 107.881V108.35C137.861 108.718 137.705 109.272 137.422 110.01C137.422 110.946 137.081 111.982 136.4 113.117C136.684 113.372 137.095 113.5 137.634 113.5H138.018C138.358 113.5 138.656 113.457 138.911 113.372C139.167 113.287 139.394 113.173 139.592 113.031L139.763 112.946C140.245 112.776 140.713 112.464 141.167 112.01L141.252 111.925C141.451 111.783 141.607 111.712 141.72 111.712C141.749 111.712 141.777 111.74 141.806 111.797C141.862 111.854 141.905 111.925 141.933 112.01C141.99 112.095 142.018 112.166 142.018 112.223C142.018 112.308 141.806 112.492 141.38 112.776C140.954 113.06 140.671 113.244 140.529 113.329L140.444 113.415C140.302 113.528 140.117 113.599 139.89 113.627C139.692 113.627 139.564 113.67 139.507 113.755C139.45 113.812 139.394 113.854 139.337 113.883C138.684 114.11 138.074 114.223 137.507 114.223C136.883 114.223 136.358 114.067 135.932 113.755C135.79 114.039 135.634 114.252 135.464 114.393C135.294 114.507 134.981 114.89 134.527 115.543C134.073 116.167 133.719 116.507 133.463 116.564C133.236 116.621 133.08 116.763 132.995 116.99C132.938 117.103 132.896 117.188 132.868 117.245C132.839 117.273 132.768 117.33 132.655 117.415C131.718 118.295 130.598 118.735 129.292 118.735ZM130.101 117.33C131.179 117.33 132.201 116.749 133.165 115.585L133.378 115.33C134.003 114.734 134.584 113.968 135.123 113.031C134.84 112.691 134.584 112.194 134.357 111.542C134.329 111.428 134.3 111.329 134.272 111.244C134.272 111.159 134.272 110.676 134.272 109.797C134.272 109.541 134.357 109.314 134.527 109.116C134.981 108.577 135.506 108.307 136.102 108.307C136.358 108.307 136.528 108.35 136.613 108.435C136.698 108.52 136.755 108.577 136.783 108.605C136.812 108.605 136.84 108.633 136.868 108.69C136.925 108.208 136.968 107.952 136.996 107.924C137.053 107.867 137.081 107.81 137.081 107.754C137.081 107.697 137.053 107.64 136.996 107.583C136.968 107.498 136.953 107.427 136.953 107.371C136.925 106.207 136.471 105.626 135.591 105.626L135.294 105.668C134.811 105.753 134.4 105.881 134.059 106.051C133.18 106.477 132.484 107.044 131.974 107.754L131.42 108.392C130.938 108.818 130.668 109.172 130.612 109.456C130.583 109.57 130.527 109.697 130.441 109.839C130.385 109.953 130.214 110.066 129.931 110.18C129.675 110.293 129.519 110.407 129.463 110.52C129.463 110.634 129.477 110.747 129.505 110.861C129.533 110.974 129.548 111.059 129.548 111.116C129.548 111.315 129.491 111.542 129.377 111.797C129.292 112.024 129.179 112.265 129.037 112.521C128.923 112.776 128.824 113.003 128.739 113.202C128.682 113.4 128.611 113.585 128.526 113.755C128.441 113.925 128.37 114.11 128.313 114.308V115.16C128.313 115.585 128.37 115.982 128.484 116.351C128.597 116.692 128.796 116.947 129.079 117.117C129.392 117.259 129.732 117.33 130.101 117.33ZM147.838 112.223C147.866 112.109 148.008 111.925 148.263 111.669C148.377 111.556 148.448 111.471 148.476 111.414C148.533 111.329 148.576 111.286 148.604 111.286C148.661 111.258 148.732 111.244 148.817 111.244C148.902 111.215 148.987 111.088 149.072 110.861C149.271 110.435 149.498 110.151 149.753 110.01C150.008 109.868 150.448 109.314 151.073 108.35C151.271 108.094 151.399 107.924 151.456 107.839C151.541 107.725 151.64 107.612 151.754 107.498C151.895 107.356 152.037 107.172 152.179 106.945C152.349 106.69 152.562 106.42 152.818 106.136L152.903 106.009C153.016 105.838 153.13 105.682 153.243 105.54C153.385 105.37 153.47 105.243 153.499 105.157C153.555 105.044 153.612 104.945 153.669 104.86C153.811 104.633 154.038 104.519 154.35 104.519C154.52 104.519 154.69 104.59 154.861 104.732C155.031 104.845 155.116 104.987 155.116 105.157C155.116 105.328 155.258 105.597 155.542 105.966C155.598 106.136 155.627 106.292 155.627 106.434C155.627 106.832 155.414 107.356 154.988 108.009C154.704 108.435 154.378 109.016 154.009 109.754C153.385 111.258 153.059 112.109 153.03 112.308C153.03 112.478 152.988 112.677 152.903 112.904C152.846 113.102 152.789 113.344 152.732 113.627C152.562 114.308 152.42 114.706 152.307 114.819C152.193 114.933 152.122 115.06 152.094 115.202C152.066 115.23 152.051 115.358 152.051 115.585C151.966 115.982 151.924 116.337 151.924 116.649C151.924 116.819 151.938 116.919 151.966 116.947C151.995 117.203 152.193 117.33 152.562 117.33C152.846 117.33 153.328 117.16 154.009 116.819L154.18 116.564L154.69 116.266C155.173 116.096 155.556 115.77 155.839 115.287C156.123 114.947 156.336 114.748 156.478 114.691C156.818 114.521 157.131 114.195 157.414 113.712C157.499 113.627 157.627 113.528 157.797 113.415C158.081 113.244 158.436 112.904 158.861 112.393C159.372 111.74 159.727 111.414 159.925 111.414C160.266 111.414 160.436 111.556 160.436 111.84C160.436 112.038 160.195 112.393 159.713 112.904C159.542 113.102 159.315 113.244 159.032 113.329L158.649 113.755C158.393 114.152 157.939 114.564 157.287 114.989C156.804 115.358 156.336 115.77 155.882 116.224C155.627 116.536 155.456 116.692 155.371 116.692C155.315 116.692 155.244 116.706 155.158 116.734C155.102 116.763 154.974 116.89 154.775 117.117L154.52 117.415C154.321 117.586 153.839 117.813 153.073 118.096C153.045 118.125 153.002 118.153 152.945 118.181C152.917 118.181 152.86 118.196 152.775 118.224C152.576 118.281 152.335 118.352 152.051 118.437C151.796 118.522 151.555 118.565 151.328 118.565C151.271 118.565 151.229 118.55 151.2 118.522C150.434 118.408 149.852 118.082 149.455 117.543C149.342 117.373 149.285 116.976 149.285 116.351C149.285 115.926 149.313 115.585 149.37 115.33C149.455 115.046 149.526 114.762 149.583 114.479C149.923 113.06 150.363 111.726 150.902 110.478C150.902 110.393 150.86 110.35 150.775 110.35C150.689 110.407 150.59 110.506 150.477 110.648C150.363 110.79 150.193 110.932 149.966 111.074C149.625 111.301 149.427 111.485 149.37 111.627C149.313 111.74 149.214 111.854 149.072 111.967C148.959 112.081 148.873 112.166 148.817 112.223C148.618 112.45 148.462 112.592 148.349 112.648C148.093 112.932 147.909 113.173 147.795 113.372C147.54 113.599 147.327 113.812 147.157 114.01C146.987 114.181 146.887 114.28 146.859 114.308C146.689 114.393 146.518 114.564 146.348 114.819C146.206 115.074 146.064 115.287 145.922 115.457H145.752C145.667 115.543 145.596 115.656 145.539 115.798C145.511 115.911 145.256 116.181 144.773 116.607C144.518 116.834 144.362 117.004 144.305 117.117C144.163 117.344 143.851 117.614 143.369 117.926L142.73 118.437C141.879 119.288 140.985 119.898 140.049 120.267C139.368 120.551 138.772 120.693 138.261 120.693C137.722 120.693 137.353 120.508 137.155 120.139C137.155 119.714 137.282 119.444 137.538 119.331C137.651 119.274 137.765 119.246 137.878 119.246C137.992 119.246 138.134 119.274 138.304 119.331C138.446 119.387 138.744 119.416 139.198 119.416C139.595 119.416 139.879 119.387 140.049 119.331C140.361 119.246 140.602 119.075 140.772 118.82L140.943 118.692C141.113 118.579 141.312 118.423 141.539 118.224C141.766 118.025 142.007 117.855 142.262 117.713C142.518 117.571 142.688 117.43 142.773 117.288C142.858 117.146 142.972 117.032 143.113 116.947C144.22 116.039 145.241 114.989 146.178 113.798C146.206 113.769 146.235 113.741 146.263 113.712C146.32 113.684 146.391 113.656 146.476 113.627C146.561 113.457 147.015 112.989 147.838 112.223ZM172.073 113.415C172.272 113.471 172.513 113.5 172.797 113.5H173.18C173.321 113.5 173.449 113.5 173.563 113.5C173.705 113.471 173.846 113.429 173.988 113.372C174.3 113.287 174.556 113.173 174.754 113.031C174.783 113.003 174.84 112.975 174.925 112.946C175.01 112.918 175.095 112.89 175.18 112.861C175.265 112.804 175.336 112.762 175.393 112.734C175.733 112.535 176.045 112.294 176.329 112.01L176.414 111.925C176.499 111.868 176.57 111.826 176.627 111.797C176.712 111.74 176.797 111.712 176.883 111.712C176.911 111.712 176.939 111.74 176.968 111.797C177.024 111.854 177.067 111.925 177.095 112.01C177.152 112.095 177.18 112.166 177.18 112.223C177.18 112.251 177.11 112.322 176.968 112.436C176.826 112.549 176.67 112.677 176.499 112.819C176.329 112.932 176.159 113.046 175.989 113.159C175.847 113.244 175.748 113.301 175.691 113.329L175.606 113.415C175.549 113.471 175.478 113.514 175.393 113.542C175.336 113.571 175.251 113.599 175.137 113.627C175.081 113.627 175.024 113.627 174.967 113.627C174.91 113.627 174.854 113.642 174.797 113.67C174.74 113.698 174.698 113.727 174.669 113.755C174.613 113.812 174.556 113.854 174.499 113.883C173.846 114.11 173.236 114.223 172.669 114.223C172.357 114.223 172.059 114.181 171.775 114.096C171.662 114.351 171.548 114.578 171.435 114.776L171.094 115.245C171.037 115.358 170.981 115.457 170.924 115.543C170.867 115.599 170.81 115.642 170.754 115.67C170.668 115.727 170.569 115.826 170.456 115.968L170.413 116.053C170.3 116.195 170.2 116.323 170.115 116.436C169.945 116.692 169.732 116.933 169.477 117.16C169.42 117.188 169.363 117.203 169.306 117.203C169.278 117.231 169.25 117.259 169.221 117.288C169.193 117.288 169.165 117.302 169.136 117.33C169.079 117.387 169.037 117.444 169.008 117.5C168.98 117.586 168.952 117.657 168.923 117.713L168.796 117.798C168.455 118.111 168.129 118.338 167.817 118.479C167.334 118.65 166.866 118.735 166.412 118.735C166.072 118.735 165.76 118.678 165.476 118.565C165.249 118.565 165.036 118.522 164.837 118.437C164.61 118.408 164.412 118.295 164.242 118.096C164.071 117.926 163.887 117.784 163.688 117.671C163.631 117.642 163.589 117.586 163.561 117.5C163.532 117.415 163.504 117.33 163.475 117.245C163.447 117.132 163.404 117.032 163.348 116.947C163.291 116.89 163.263 116.819 163.263 116.734C163.263 116.649 163.263 116.564 163.263 116.479L163.263 115.926C163.263 115.784 163.277 115.642 163.305 115.5C163.334 115.33 163.348 115.145 163.348 114.947V114.479C163.319 114.393 163.305 114.308 163.305 114.223C163.305 114.166 163.319 114.124 163.348 114.096V114.01C163.433 113.727 163.518 113.415 163.603 113.074C163.688 112.734 163.745 112.421 163.773 112.138L163.816 111.627C163.816 111.485 163.858 111.343 163.944 111.201C164.029 111.088 164.085 110.932 164.114 110.733C164.284 110.421 164.426 109.995 164.539 109.456C164.653 109.031 164.781 108.619 164.923 108.222C164.979 108.08 165.008 107.967 165.008 107.881C165.036 107.768 165.05 107.654 165.05 107.541C165.079 107.342 165.121 107.101 165.178 106.817C165.15 106.789 165.121 106.775 165.093 106.775C165.093 106.746 165.079 106.732 165.05 106.732C165.022 106.732 164.993 106.732 164.965 106.732C164.965 106.732 164.951 106.746 164.923 106.775L164.582 107.115C164.554 107.172 164.497 107.243 164.412 107.328C164.355 107.385 164.256 107.484 164.114 107.626C163.773 107.91 163.518 108.222 163.348 108.562C163.149 108.875 162.908 109.158 162.624 109.414C162.426 109.556 162.269 109.697 162.156 109.839C162.042 109.953 161.929 110.08 161.815 110.222C161.674 110.364 161.489 110.563 161.262 110.818C161.12 110.96 160.978 111.116 160.837 111.286C160.638 111.57 160.411 111.826 160.156 112.053C159.929 112.28 159.659 112.393 159.347 112.393C159.29 112.365 159.248 112.336 159.219 112.308C159.162 112.28 159.134 112.237 159.134 112.18C159.134 112.038 159.162 111.939 159.219 111.882C159.446 111.513 159.744 111.173 160.113 110.861C160.397 110.605 160.652 110.336 160.879 110.052C160.936 109.995 160.993 109.953 161.049 109.924C161.163 109.839 161.262 109.74 161.347 109.626C161.546 109.314 161.702 109.102 161.815 108.988C161.929 108.846 162.042 108.733 162.156 108.648C162.241 108.591 162.34 108.491 162.454 108.35C162.596 108.208 162.766 107.995 162.965 107.711C163.192 107.399 163.49 106.973 163.858 106.434C163.915 106.349 163.958 106.307 163.986 106.307C164.043 106.278 164.085 106.264 164.114 106.264C164.142 106.264 164.171 106.264 164.199 106.264C164.256 106.236 164.312 106.179 164.369 106.094L164.539 105.838C164.852 105.384 165.192 104.987 165.561 104.647C165.93 104.278 166.37 104.093 166.88 104.093C167.107 104.093 167.32 104.136 167.519 104.221C167.746 104.278 167.902 104.349 167.987 104.434C168.072 104.519 168.143 104.689 168.2 104.945C168.257 105.172 168.285 105.356 168.285 105.498C168.285 105.838 168.228 106.136 168.115 106.392C168.058 106.534 168.03 106.675 168.03 106.817C168.03 106.988 168.001 107.144 167.944 107.286C167.746 108.08 167.505 108.818 167.221 109.499C167.618 109.187 168.044 108.945 168.498 108.775C168.498 108.747 168.512 108.733 168.54 108.733C168.569 108.733 168.597 108.733 168.625 108.733H168.838C169.094 108.733 169.363 108.662 169.647 108.52C169.789 108.491 169.916 108.463 170.03 108.435C170.2 108.406 170.356 108.392 170.498 108.392C171.066 108.392 171.562 108.605 171.988 109.031C172.13 109.144 172.272 109.329 172.413 109.584C172.413 109.612 172.428 109.655 172.456 109.712C172.513 109.797 172.555 109.896 172.584 110.01V110.776C172.584 110.861 172.57 110.918 172.541 110.946C172.513 111.003 172.484 111.045 172.456 111.074V111.584C172.399 111.868 172.3 112.194 172.158 112.563C172.158 112.847 172.13 113.131 172.073 113.415ZM170.754 113.712L170.285 113.031C170.143 112.833 169.987 112.592 169.817 112.308C169.675 111.996 169.576 111.74 169.519 111.542C169.491 111.428 169.477 111.343 169.477 111.286C169.448 111.173 169.434 111.045 169.434 110.903V109.882C169.235 109.967 169.037 110.095 168.838 110.265C168.583 110.464 168.356 110.676 168.157 110.903C168.129 110.96 168.086 111.017 168.03 111.074C167.973 111.187 167.902 111.286 167.817 111.372L167.306 111.882C167.278 111.939 167.263 112.01 167.263 112.095C167.235 112.152 167.193 112.223 167.136 112.308C167.107 112.365 167.051 112.436 166.966 112.521C166.937 112.549 166.88 112.577 166.795 112.606C166.739 112.634 166.682 112.663 166.625 112.691C166.568 112.691 166.526 112.719 166.497 112.776C166.497 112.861 166.512 112.946 166.54 113.031V113.202C166.54 113.344 166.497 113.5 166.412 113.67C166.355 113.812 166.285 113.954 166.199 114.096C166.143 114.294 166.086 114.45 166.029 114.564L165.859 114.989C165.831 115.103 165.788 115.23 165.731 115.372V115.926C165.731 116.181 165.774 116.436 165.859 116.692C165.944 116.947 166.072 117.132 166.242 117.245C166.441 117.33 166.668 117.373 166.923 117.373C167.377 117.373 167.803 117.231 168.2 116.947C168.512 116.692 168.767 116.451 168.966 116.224L169.136 116.053C169.562 115.628 169.959 115.117 170.328 114.521C170.47 114.294 170.612 114.025 170.754 113.712ZM188.185 118.777C187.305 118.777 186.554 118.579 185.929 118.181C185.56 117.954 185.305 117.699 185.163 117.415C185.078 117.245 184.993 117.117 184.908 117.032C184.511 116.72 184.184 116.252 183.929 115.628C183.844 115.089 183.56 114.578 183.078 114.096L182.652 113.457C182.539 113.344 182.468 113.23 182.439 113.117C182.297 113.656 182.099 114.252 181.843 114.904L181.545 115.713C181.545 115.997 181.503 116.181 181.418 116.266C181.361 116.323 181.333 116.522 181.333 116.862C181.333 117.969 180.822 118.565 179.8 118.65L178.907 118.777C178.282 118.777 177.97 118.565 177.97 118.139C177.999 118.054 178.013 117.912 178.013 117.713C178.013 117.486 178.126 117.046 178.353 116.394C178.438 116.138 178.552 115.897 178.694 115.67L178.821 115.5C178.963 115.245 179.034 115.046 179.034 114.904C179.034 114.734 179.048 114.578 179.077 114.436C179.701 112.79 180.112 111.769 180.311 111.372C180.368 111.201 180.396 111.045 180.396 110.903C180.396 110.449 180.595 109.853 180.992 109.116C181.247 108.69 181.418 108.194 181.503 107.626C181.446 107.626 181.404 107.612 181.375 107.583C181.375 107.555 181.361 107.527 181.333 107.498C181.191 107.527 181.049 107.626 180.907 107.796C180.793 107.938 180.623 108.094 180.396 108.264C180.311 108.321 180.198 108.477 180.056 108.733C179.942 108.96 179.772 109.187 179.545 109.414C179.346 109.612 179.176 109.811 179.034 110.01C178.892 110.18 178.75 110.336 178.609 110.478C177.984 111.045 177.53 111.499 177.247 111.84C177.048 112.095 176.835 112.223 176.608 112.223C176.523 112.223 176.466 112.209 176.438 112.18C176.324 112.067 176.268 111.967 176.268 111.882C176.324 111.627 176.509 111.386 176.821 111.159C176.963 111.045 177.076 110.932 177.161 110.818C177.303 110.62 177.474 110.421 177.672 110.222C177.899 109.995 178.169 109.683 178.481 109.286C179.815 107.782 180.978 106.292 181.971 104.817C182.397 104.136 183.021 103.583 183.844 103.157C184.241 102.958 184.496 102.859 184.61 102.859C184.723 102.859 184.794 102.887 184.823 102.944C184.879 103.001 184.908 103.072 184.908 103.157C184.936 103.242 184.965 103.341 184.993 103.455C184.993 103.682 184.965 103.966 184.908 104.306C184.709 105.157 184.567 105.654 184.482 105.796C184.34 106.165 184.213 106.718 184.099 107.456C184.071 107.513 184.028 107.583 183.971 107.669C183.915 107.754 183.872 107.839 183.844 107.924L183.886 108.264C183.886 108.378 183.872 108.449 183.844 108.477L183.631 109.116C183.886 108.945 184.085 108.775 184.227 108.605C184.397 108.406 184.525 108.279 184.61 108.222C184.922 107.995 185.192 107.768 185.419 107.541C185.646 107.314 186.014 107.016 186.525 106.647C187.348 105.994 188.143 105.526 188.909 105.243C189.136 105.157 189.519 105.115 190.058 105.115C191.051 105.115 191.633 105.597 191.803 106.562L191.845 106.902C191.845 107.442 191.803 107.825 191.718 108.052C191.633 108.25 191.533 108.449 191.42 108.648C191.391 108.704 191.377 108.818 191.377 108.988C191.094 109.556 190.81 109.868 190.526 109.924C190.214 109.896 189.944 109.811 189.717 109.669C189.292 109.527 189.079 109.272 189.079 108.903C189.079 108.818 189.093 108.761 189.121 108.733C189.405 108.108 189.547 107.583 189.547 107.158C189.547 106.647 189.32 106.392 188.866 106.392C188.753 106.392 188.667 106.406 188.611 106.434C187.391 106.832 186.44 107.442 185.759 108.264C185.674 108.378 185.489 108.477 185.206 108.562C184.922 108.619 184.695 108.86 184.525 109.286C184.326 109.626 184.128 109.882 183.929 110.052C183.759 110.194 183.674 110.279 183.674 110.307L183.078 110.903C183.702 111.896 184.142 112.393 184.397 112.393C184.652 112.904 184.879 113.23 185.078 113.372C185.078 113.571 185.234 113.883 185.546 114.308C185.858 114.706 186.085 115.074 186.227 115.415C186.397 115.954 186.752 116.394 187.291 116.734L187.632 116.99C188.001 117.273 188.469 117.415 189.036 117.415C189.661 117.415 190.413 117.146 191.292 116.607C191.803 116.323 192.356 115.855 192.952 115.202C193.151 115.003 193.293 114.89 193.378 114.862C193.633 114.748 193.789 114.663 193.846 114.606C193.931 114.55 193.988 114.479 194.016 114.393C194.044 114.28 194.13 114.152 194.271 114.01L194.357 113.883C194.555 113.599 194.725 113.4 194.867 113.287C195.009 113.173 195.123 113.046 195.208 112.904C195.35 112.62 195.563 112.336 195.846 112.053C196.158 111.74 196.456 111.584 196.74 111.584C196.939 111.584 197.038 111.627 197.038 111.712C197.038 111.826 197.01 111.911 196.953 111.967C196.925 112.024 196.882 112.095 196.825 112.18C196.768 112.237 196.669 112.365 196.527 112.563C196.158 113.074 195.889 113.372 195.719 113.457C195.463 113.656 195.265 113.869 195.123 114.096C194.555 114.805 193.789 115.599 192.824 116.479C192.314 116.734 192.03 116.933 191.973 117.075C191.831 117.359 191.349 117.699 190.526 118.096L190.015 118.352C189.448 118.635 188.838 118.777 188.185 118.777ZM198.622 118.735C196.324 118.735 195.175 117.344 195.175 114.564C195.175 113.741 195.274 113.003 195.473 112.35C195.558 112.123 195.614 111.911 195.643 111.712C195.671 111.315 195.856 110.946 196.196 110.605C196.338 110.378 196.437 110.137 196.494 109.882C196.608 109.286 197.218 108.35 198.324 107.073C198.409 106.988 198.494 106.931 198.58 106.902C198.693 106.846 198.792 106.732 198.878 106.562C198.991 106.392 199.09 106.264 199.175 106.179C199.885 105.498 200.679 104.973 201.559 104.604C201.587 104.576 201.658 104.562 201.772 104.562C202.339 104.562 202.807 104.476 203.176 104.306C203.574 104.136 203.985 104.051 204.411 104.051C205.233 104.051 205.943 104.349 206.539 104.945C207.078 105.399 207.347 106.179 207.347 107.286C207.347 107.513 207.333 107.654 207.305 107.711C207.276 107.768 207.248 107.825 207.22 107.881V108.35C207.191 108.718 207.035 109.272 206.752 110.01C206.752 110.946 206.411 111.982 205.73 113.117C206.014 113.372 206.425 113.5 206.964 113.5H207.347C207.688 113.5 207.986 113.457 208.241 113.372C208.497 113.287 208.724 113.173 208.922 113.031L209.092 112.946C209.575 112.776 210.043 112.464 210.497 112.01L210.582 111.925C210.781 111.783 210.937 111.712 211.05 111.712C211.079 111.712 211.107 111.74 211.135 111.797C211.192 111.854 211.235 111.925 211.263 112.01C211.32 112.095 211.348 112.166 211.348 112.223C211.348 112.308 211.135 112.492 210.71 112.776C210.284 113.06 210 113.244 209.859 113.329L209.773 113.415C209.632 113.528 209.447 113.599 209.22 113.627C209.022 113.627 208.894 113.67 208.837 113.755C208.78 113.812 208.724 113.854 208.667 113.883C208.014 114.11 207.404 114.223 206.837 114.223C206.212 114.223 205.687 114.067 205.262 113.755C205.12 114.039 204.964 114.252 204.794 114.393C204.623 114.507 204.311 114.89 203.857 115.543C203.403 116.167 203.049 116.507 202.793 116.564C202.566 116.621 202.41 116.763 202.325 116.99C202.268 117.103 202.226 117.188 202.197 117.245C202.169 117.273 202.098 117.33 201.985 117.415C201.048 118.295 199.927 118.735 198.622 118.735ZM199.431 117.33C200.509 117.33 201.531 116.749 202.495 115.585L202.708 115.33C203.332 114.734 203.914 113.968 204.453 113.031C204.169 112.691 203.914 112.194 203.687 111.542C203.659 111.428 203.63 111.329 203.602 111.244C203.602 111.159 203.602 110.676 203.602 109.797C203.602 109.541 203.687 109.314 203.857 109.116C204.311 108.577 204.836 108.307 205.432 108.307C205.687 108.307 205.858 108.35 205.943 108.435C206.028 108.52 206.085 108.577 206.113 108.605C206.141 108.605 206.17 108.633 206.198 108.69C206.255 108.208 206.298 107.952 206.326 107.924C206.383 107.867 206.411 107.81 206.411 107.754C206.411 107.697 206.383 107.64 206.326 107.583C206.298 107.498 206.283 107.427 206.283 107.371C206.255 106.207 205.801 105.626 204.921 105.626L204.623 105.668C204.141 105.753 203.73 105.881 203.389 106.051C202.509 106.477 201.814 107.044 201.304 107.754L200.75 108.392C200.268 108.818 199.998 109.172 199.942 109.456C199.913 109.57 199.856 109.697 199.771 109.839C199.715 109.953 199.544 110.066 199.261 110.18C199.005 110.293 198.849 110.407 198.792 110.52C198.792 110.634 198.807 110.747 198.835 110.861C198.863 110.974 198.878 111.059 198.878 111.116C198.878 111.315 198.821 111.542 198.707 111.797C198.622 112.024 198.509 112.265 198.367 112.521C198.253 112.776 198.154 113.003 198.069 113.202C198.012 113.4 197.941 113.585 197.856 113.755C197.771 113.925 197.7 114.11 197.643 114.308V115.16C197.643 115.585 197.7 115.982 197.813 116.351C197.927 116.692 198.126 116.947 198.409 117.117C198.721 117.259 199.062 117.33 199.431 117.33ZM225.204 116.862C225.743 116.862 226.225 116.663 226.651 116.266C226.821 116.153 226.991 116.039 227.161 115.926C227.332 115.812 227.488 115.656 227.63 115.457C227.857 115.145 228.14 114.918 228.481 114.776C228.85 114.606 229.034 114.422 229.034 114.223C229.063 113.996 229.233 113.798 229.545 113.627C229.772 113.542 229.942 113.415 230.056 113.244C230.056 113.216 230.056 113.188 230.056 113.159C230.084 113.102 230.112 113.046 230.141 112.989C230.198 112.904 230.254 112.861 230.311 112.861C230.396 112.861 230.467 112.833 230.524 112.776C230.722 112.521 230.949 112.28 231.205 112.053C231.659 111.655 231.9 111.315 231.928 111.031C231.957 110.918 231.999 110.832 232.056 110.776C232.141 110.691 232.241 110.605 232.354 110.52C232.695 110.18 232.978 109.811 233.205 109.414C233.461 109.016 233.73 108.676 234.014 108.392C234.496 107.91 234.766 107.427 234.823 106.945C234.823 106.605 234.638 106.363 234.269 106.221C233.9 106.08 233.56 106.009 233.248 106.009C232.964 106.009 232.666 106.037 232.354 106.094C231.474 106.321 230.51 106.959 229.46 108.009C229.403 108.094 229.332 108.179 229.247 108.264C229.162 108.35 228.992 108.435 228.736 108.52C228.594 108.548 228.495 108.591 228.438 108.648C228.382 108.676 228.353 108.761 228.353 108.903C228.353 109.016 228.325 109.102 228.268 109.158C228.24 109.215 228.197 109.272 228.14 109.329C227.885 109.556 227.686 109.783 227.545 110.01C227.261 110.293 227.02 110.662 226.821 111.116C226.736 111.23 226.622 111.343 226.48 111.457C226.367 111.542 226.268 111.613 226.183 111.669C225.956 111.896 225.771 112.322 225.629 112.946L225.289 113.84C224.891 114.663 224.693 115.415 224.693 116.096C224.693 116.295 224.707 116.479 224.735 116.649C224.792 116.791 224.948 116.862 225.204 116.862ZM214.946 144.23C214.52 144.23 214.166 144.215 213.882 144.187C212.577 144.187 211.499 143.705 210.647 142.74C210.051 142.031 209.754 141.066 209.754 139.846C209.782 139.108 209.839 138.512 209.924 138.058C210.066 137.037 210.662 135.831 211.711 134.44C211.882 134.242 212.009 134.057 212.094 133.887C212.18 133.717 212.293 133.546 212.435 133.376C213.286 132.27 214.251 131.319 215.329 130.525C215.698 130.298 216.053 130.028 216.393 129.716C217.103 129.092 217.642 128.709 218.011 128.567C218.465 128.368 218.876 128.084 219.245 127.715C219.472 127.403 219.77 127.219 220.139 127.162C220.479 127.105 220.692 126.992 220.777 126.822C220.862 126.651 220.99 126.509 221.16 126.396C221.33 126.311 221.515 126.197 221.713 126.055C222.111 125.8 222.905 125.46 224.097 125.034C225.913 124.126 227.63 123.488 229.247 123.119C229.985 123.005 230.51 122.835 230.822 122.608L232.056 118.905C232.084 118.877 232.099 118.834 232.099 118.777C232.099 118.692 232.084 118.65 232.056 118.65V118.607C232.453 117.614 232.709 116.55 232.822 115.415C232.822 115.188 232.879 115.003 232.992 114.862C233.134 114.691 233.205 114.493 233.205 114.266C233.262 114.067 233.29 113.897 233.29 113.755C233.29 113.613 233.333 113.457 233.418 113.287C233.503 113.117 233.546 112.861 233.546 112.521L233.886 110.903L234.142 109.839H233.971L233.759 110.137C233.333 110.761 232.907 111.357 232.482 111.925C231.744 112.776 230.964 113.556 230.141 114.266C230.084 114.323 229.985 114.379 229.843 114.436C229.701 114.464 229.602 114.578 229.545 114.776L229.375 114.989C229.261 115.16 228.949 115.443 228.438 115.841C228.069 116.096 227.715 116.365 227.374 116.649C226.75 117.188 226.211 117.571 225.757 117.798C224.991 118.224 224.338 118.437 223.799 118.437C222.948 118.437 222.437 118.025 222.267 117.203C222.182 116.834 222.139 116.479 222.139 116.138C222.139 114.294 222.607 112.705 223.544 111.372C223.686 111.201 223.771 111.045 223.799 110.903C223.856 110.733 223.913 110.605 223.969 110.52C224.111 110.237 224.253 110.038 224.395 109.924C224.679 109.612 224.991 109.116 225.331 108.435C225.502 108.236 225.686 108.08 225.885 107.967C226.112 107.853 226.296 107.74 226.438 107.626C226.466 107.626 226.509 107.569 226.566 107.456C226.566 107.314 226.764 107.144 227.161 106.945L227.502 106.69C227.871 106.179 228.637 105.725 229.8 105.328C230.538 104.959 231.46 104.774 232.567 104.774C232.964 104.774 233.319 104.817 233.631 104.902C234.454 105.214 234.993 105.512 235.248 105.796C235.39 105.938 235.518 106.009 235.631 106.009C235.745 105.81 235.83 105.555 235.887 105.243C235.972 104.93 236.071 104.732 236.185 104.647C236.298 104.562 236.383 104.491 236.44 104.434C236.809 104.093 237.22 103.881 237.674 103.795C237.845 103.682 238.015 103.625 238.185 103.625C238.384 103.625 238.483 103.725 238.483 103.923V104.008C238.398 104.888 238.171 105.682 237.802 106.392C237.462 107.073 237.291 107.64 237.291 108.094C237.291 108.264 237.263 108.421 237.206 108.562C236.809 109.896 236.454 111.258 236.142 112.648C235.802 114.181 235.419 115.628 234.993 116.99C234.908 117.245 234.823 117.671 234.738 118.267C234.738 118.522 234.681 118.806 234.567 119.118C234.312 119.912 233.986 121.062 233.588 122.565C234.127 122.509 234.709 122.48 235.333 122.48C236.241 122.48 237.064 122.58 237.802 122.778C237.859 122.835 237.958 122.878 238.1 122.906C238.27 122.963 238.412 122.991 238.526 122.991C238.923 122.991 239.363 123.232 239.845 123.715C240.185 124.112 240.356 124.466 240.356 124.779C240.356 124.977 240.299 125.119 240.185 125.204C240.072 125.318 239.916 125.374 239.717 125.374C239.519 125.374 239.348 125.304 239.207 125.162C239.065 125.048 238.965 124.878 238.909 124.651C238.88 124.566 238.852 124.481 238.824 124.396C238.795 124.31 238.738 124.254 238.653 124.225C237.66 123.771 236.539 123.544 235.291 123.544C234.581 123.544 233.929 123.644 233.333 123.842C233.219 124.268 233.021 124.85 232.737 125.587C232.397 126.467 232.056 127.261 231.716 127.971C231.659 128.056 231.545 128.297 231.375 128.694C231.262 128.893 231.12 129.077 230.949 129.248C230.893 129.418 230.85 129.588 230.822 129.758C230.822 129.929 230.737 130.127 230.566 130.354L228.736 133.972C228.651 134.057 228.538 134.128 228.396 134.185C228.282 134.27 228.211 134.327 228.183 134.355C228.155 134.383 228.126 134.426 228.098 134.483C228.098 134.568 228.055 134.653 227.97 134.738C227.913 134.852 227.786 134.951 227.587 135.036C227.388 135.15 227.261 135.291 227.204 135.462C227.176 135.632 227.161 135.774 227.161 135.887C227.161 136.029 227.119 136.185 227.034 136.356C225.246 138.966 222.962 141.08 220.181 142.697C219.529 143.095 218.919 143.35 218.351 143.463C217.784 143.605 217.216 143.705 216.649 143.761C216.336 143.79 216.081 143.875 215.882 144.017C215.655 144.159 215.343 144.23 214.946 144.23ZM214.01 142.825C215.003 142.825 215.996 142.612 216.989 142.187C217.982 141.761 218.805 141.293 219.458 140.782L219.968 140.399C220.451 140.087 220.947 139.718 221.458 139.292L221.799 139.08C221.997 138.994 222.238 138.767 222.522 138.399C222.636 138.257 222.749 138.129 222.863 138.015C222.976 137.902 223.061 137.788 223.118 137.675C223.175 137.561 223.246 137.476 223.331 137.42C223.586 137.193 223.927 136.767 224.352 136.143C224.579 135.774 224.707 135.575 224.735 135.547C224.792 135.518 224.877 135.433 224.991 135.291C225.785 134.44 226.424 133.49 226.906 132.44L226.991 132.057C227.076 131.858 227.204 131.645 227.374 131.418C227.545 131.191 227.644 130.979 227.672 130.78C227.729 130.581 227.814 130.383 227.928 130.184C228.523 128.992 229.034 127.687 229.46 126.268C229.8 125.616 230.056 124.892 230.226 124.098C229.914 124.098 229.673 124.112 229.502 124.14C229.361 124.197 229.247 124.239 229.162 124.268L228.523 124.183C228.353 124.239 228.183 124.325 228.013 124.438C227.871 124.58 227.672 124.651 227.417 124.651C227.161 124.679 226.835 124.764 226.438 124.906C225.643 125.247 224.863 125.601 224.097 125.97C223.87 126.084 223.629 126.169 223.373 126.226C223.118 126.311 222.891 126.41 222.692 126.524L221.756 127.12C220.933 127.715 220.082 128.269 219.202 128.779C217.869 129.546 216.819 130.298 216.053 131.035C215.769 131.319 215.485 131.574 215.201 131.801C215.116 131.887 215.045 132 214.989 132.142C214.875 132.454 214.606 132.724 214.18 132.951C213.868 133.092 213.683 133.234 213.627 133.376C213.485 133.688 213.13 134.185 212.563 134.866C212.222 135.32 211.981 135.689 211.839 135.972C211.697 136.285 211.541 136.653 211.371 137.079C211.286 137.334 211.172 137.647 211.03 138.015C210.888 138.413 210.818 138.909 210.818 139.505C210.818 141.718 211.882 142.825 214.01 142.825ZM246.679 112.223C246.707 112.109 246.849 111.925 247.104 111.669C247.218 111.556 247.289 111.471 247.317 111.414C247.374 111.329 247.416 111.286 247.445 111.286C247.501 111.258 247.572 111.244 247.657 111.244C247.743 111.215 247.828 111.088 247.913 110.861C248.111 110.435 248.338 110.151 248.594 110.01C248.849 109.868 249.289 109.314 249.913 108.35C250.112 108.094 250.24 107.924 250.296 107.839C250.381 107.725 250.481 107.612 250.594 107.498C250.736 107.356 250.878 107.172 251.02 106.945C251.19 106.69 251.403 106.42 251.658 106.136L251.743 106.009C251.857 105.838 251.97 105.682 252.084 105.54C252.226 105.37 252.311 105.243 252.339 105.157C252.396 105.044 252.453 104.945 252.51 104.86C252.651 104.633 252.878 104.519 253.191 104.519C253.361 104.519 253.531 104.59 253.701 104.732C253.872 104.845 253.957 104.987 253.957 105.157C253.957 105.328 254.099 105.597 254.382 105.966C254.439 106.136 254.467 106.292 254.467 106.434C254.467 106.832 254.255 107.356 253.829 108.009C253.545 108.435 253.219 109.016 252.85 109.754C252.226 111.258 251.9 112.109 251.871 112.308C251.871 112.478 251.829 112.677 251.743 112.904C251.687 113.102 251.63 113.344 251.573 113.627C251.403 114.308 251.261 114.706 251.148 114.819C251.034 114.933 250.963 115.06 250.935 115.202C250.906 115.23 250.892 115.358 250.892 115.585C250.807 115.982 250.765 116.337 250.765 116.649C250.765 116.819 250.779 116.919 250.807 116.947C250.835 117.203 251.034 117.33 251.403 117.33C251.687 117.33 252.169 117.16 252.85 116.819L253.02 116.564L253.531 116.266C254.013 116.096 254.397 115.77 254.68 115.287C254.964 114.947 255.177 114.748 255.319 114.691C255.659 114.521 255.971 114.195 256.255 113.712C256.34 113.627 256.468 113.528 256.638 113.415C256.922 113.244 257.277 112.904 257.702 112.393C258.213 111.74 258.568 111.414 258.766 111.414C259.107 111.414 259.277 111.556 259.277 111.84C259.277 112.038 259.036 112.393 258.553 112.904C258.383 113.102 258.156 113.244 257.872 113.329L257.489 113.755C257.234 114.152 256.78 114.564 256.127 114.989C255.645 115.358 255.177 115.77 254.723 116.224C254.467 116.536 254.297 116.692 254.212 116.692C254.155 116.692 254.084 116.706 253.999 116.734C253.943 116.763 253.815 116.89 253.616 117.117L253.361 117.415C253.162 117.586 252.68 117.813 251.914 118.096C251.885 118.125 251.843 118.153 251.786 118.181C251.758 118.181 251.701 118.196 251.616 118.224C251.417 118.281 251.176 118.352 250.892 118.437C250.637 118.522 250.396 118.565 250.169 118.565C250.112 118.565 250.069 118.55 250.041 118.522C249.275 118.408 248.693 118.082 248.296 117.543C248.182 117.373 248.126 116.976 248.126 116.351C248.126 115.926 248.154 115.585 248.211 115.33C248.296 115.046 248.367 114.762 248.424 114.479C248.764 113.06 249.204 111.726 249.743 110.478C249.743 110.393 249.7 110.35 249.615 110.35C249.53 110.407 249.431 110.506 249.317 110.648C249.204 110.79 249.034 110.932 248.807 111.074C248.466 111.301 248.268 111.485 248.211 111.627C248.154 111.74 248.055 111.854 247.913 111.967C247.799 112.081 247.714 112.166 247.657 112.223C247.459 112.45 247.303 112.592 247.189 112.648C246.934 112.932 246.749 113.173 246.636 113.372C246.381 113.599 246.168 113.812 245.998 114.01C245.827 114.181 245.728 114.28 245.7 114.308C245.529 114.393 245.359 114.564 245.189 114.819C245.047 115.074 244.905 115.287 244.763 115.457H244.593C244.508 115.543 244.437 115.656 244.38 115.798C244.352 115.911 244.096 116.181 243.614 116.607C243.359 116.834 243.203 117.004 243.146 117.117C243.004 117.344 242.692 117.614 242.21 117.926L241.571 118.437C240.72 119.288 239.826 119.898 238.89 120.267C238.209 120.551 237.613 120.693 237.102 120.693C236.563 120.693 236.194 120.508 235.995 120.139C235.995 119.714 236.123 119.444 236.378 119.331C236.492 119.274 236.605 119.246 236.719 119.246C236.832 119.246 236.974 119.274 237.145 119.331C237.286 119.387 237.584 119.416 238.038 119.416C238.436 119.416 238.719 119.387 238.89 119.331C239.202 119.246 239.443 119.075 239.613 118.82L239.783 118.692C239.954 118.579 240.152 118.423 240.379 118.224C240.606 118.025 240.848 117.855 241.103 117.713C241.358 117.571 241.529 117.43 241.614 117.288C241.699 117.146 241.812 117.032 241.954 116.947C243.061 116.039 244.082 114.989 245.019 113.798C245.047 113.769 245.075 113.741 245.104 113.712C245.161 113.684 245.231 113.656 245.317 113.627C245.402 113.457 245.856 112.989 246.679 112.223ZM255.889 120.693C255.35 120.693 254.981 120.508 254.783 120.139C254.783 119.714 254.91 119.444 255.166 119.331C255.279 119.274 255.393 119.246 255.506 119.246C255.62 119.246 255.762 119.274 255.932 119.331C256.074 119.387 256.372 119.416 256.826 119.416C257.223 119.416 257.507 119.387 257.677 119.331C257.819 119.302 258.003 119.189 258.23 118.99C258.287 118.962 258.344 118.905 258.4 118.82C258.457 118.763 258.514 118.721 258.571 118.692C258.741 118.579 258.94 118.423 259.167 118.224C259.394 118.025 259.635 117.855 259.89 117.713C260.146 117.571 260.316 117.43 260.401 117.288C260.486 117.146 260.6 117.032 260.741 116.947C261.848 116.039 262.869 114.989 263.806 113.798C263.834 113.769 263.863 113.741 263.891 113.712C263.948 113.684 264.019 113.656 264.104 113.627L264.231 113.415L264.061 113.542C263.409 113.911 262.898 114.096 262.529 114.096C262.302 114.096 261.947 113.954 261.465 113.67C260.983 113.386 260.741 112.705 260.741 111.627C260.741 110.605 260.926 109.655 261.295 108.775V108.392C261.578 108.108 261.734 107.853 261.763 107.626C261.876 107.2 262.032 106.988 262.231 106.988C262.288 106.988 262.33 106.973 262.359 106.945C262.359 106.548 262.572 106.122 262.997 105.668C263.423 105.186 263.678 104.945 263.763 104.945C263.877 104.945 263.934 104.874 263.934 104.732C263.962 104.562 264.09 104.448 264.317 104.391C264.572 104.051 264.884 103.795 265.253 103.625L265.466 103.498C265.863 103.299 266.289 103.171 266.743 103.114L266.828 103.072H267.083C267.253 102.958 267.509 102.873 267.849 102.817L268.317 102.774C270.304 102.774 271.751 103.228 272.659 104.136C273.226 104.732 273.51 105.399 273.51 106.136C273.51 106.392 273.496 106.548 273.467 106.605C273.467 106.945 273.198 107.115 272.659 107.115C272.489 107.115 272.347 107.059 272.233 106.945C272.148 106.832 272.105 106.732 272.105 106.647C272.105 106.448 272.134 106.292 272.191 106.179C272.247 106.037 272.304 105.924 272.361 105.838C272.446 105.725 272.489 105.611 272.489 105.498C272.489 105.356 272.432 105.186 272.318 104.987C271.893 104.363 271.084 104.051 269.892 104.051C268.928 104.051 268.062 104.249 267.296 104.647C267.239 104.675 267.168 104.689 267.083 104.689L266.998 104.86C266.714 105.143 266.516 105.285 266.402 105.285C266.289 105.399 266.161 105.597 266.019 105.881C265.906 106.165 265.778 106.363 265.636 106.477C265.523 106.562 265.324 106.832 265.04 107.286L264.274 108.52C263.621 109.655 263.295 110.648 263.295 111.499C263.295 111.953 263.48 112.209 263.848 112.265C264.246 112.265 264.544 112.194 264.742 112.053C264.941 111.911 265.139 111.797 265.338 111.712C265.82 111.513 266.147 111.286 266.317 111.031C266.487 110.747 266.743 110.506 267.083 110.307C267.168 110.166 267.296 110.052 267.466 109.967C267.665 109.853 268.076 109.314 268.701 108.35C268.899 108.094 269.027 107.924 269.084 107.839C269.169 107.725 269.268 107.612 269.382 107.498C269.523 107.356 269.665 107.186 269.807 106.988C269.892 106.931 270.048 106.732 270.275 106.392C270.417 106.165 270.644 106.051 270.956 106.051C271.127 106.051 271.297 106.122 271.467 106.264C271.637 106.378 271.722 106.534 271.722 106.732C271.722 106.902 271.779 107.044 271.893 107.158C272.12 107.158 272.233 107.612 272.233 108.52L271.637 109.754C271.013 111.258 270.687 112.109 270.658 112.308C270.658 112.478 270.616 112.677 270.531 112.904C270.474 113.102 270.417 113.344 270.36 113.627C270.19 114.308 270.048 114.706 269.935 114.819C269.821 114.933 269.75 115.06 269.722 115.202C269.694 115.23 269.679 115.358 269.679 115.585C269.594 115.982 269.552 116.337 269.552 116.649C269.552 116.819 269.566 116.919 269.594 116.947C269.623 117.203 269.821 117.33 270.19 117.33C270.474 117.33 270.956 117.16 271.637 116.819L271.808 116.564L272.318 116.266C272.801 116.096 273.184 115.77 273.467 115.287C273.751 114.947 273.964 114.748 274.106 114.691C274.446 114.521 274.759 114.195 275.042 113.712C275.127 113.627 275.255 113.528 275.425 113.415C275.709 113.244 276.064 112.904 276.489 112.393C277 111.74 277.355 111.414 277.553 111.414C277.894 111.414 278.064 111.556 278.064 111.84C278.064 112.038 277.823 112.393 277.341 112.904C277.17 113.102 276.943 113.244 276.66 113.329L276.277 113.755C276.021 114.152 275.567 114.564 274.915 114.989C274.432 115.358 273.964 115.77 273.51 116.224C273.255 116.536 273.084 116.692 272.999 116.692C272.943 116.692 272.872 116.706 272.786 116.734C272.73 116.763 272.602 116.89 272.403 117.117L272.148 117.415C271.949 117.586 271.467 117.813 270.701 118.096C270.673 118.125 270.63 118.153 270.573 118.181C270.545 118.181 270.488 118.196 270.403 118.224C270.204 118.281 269.963 118.352 269.679 118.437C269.424 118.522 269.183 118.565 268.956 118.565C268.899 118.565 268.857 118.55 268.828 118.522C268.062 118.408 267.48 118.082 267.083 117.543C266.97 117.373 266.913 116.976 266.913 116.351C266.913 115.926 266.941 115.585 266.998 115.33C267.083 115.046 267.154 114.762 267.211 114.479C267.551 113.06 267.991 111.726 268.53 110.478C268.53 110.393 268.488 110.35 268.403 110.35C268.317 110.407 268.218 110.506 268.105 110.648C267.991 110.79 267.821 110.932 267.594 111.074C267.253 111.301 267.055 111.485 266.998 111.627C266.941 111.74 266.842 111.854 266.7 111.967C266.587 112.081 266.487 112.194 266.402 112.308C266.317 112.393 266.189 112.492 266.019 112.606C265.877 112.691 265.679 112.946 265.423 113.372C265.168 113.599 264.955 113.812 264.785 114.01C264.615 114.181 264.515 114.28 264.487 114.308C264.317 114.393 264.146 114.564 263.976 114.819C263.834 115.074 263.692 115.287 263.55 115.457H263.38C263.295 115.543 263.224 115.656 263.167 115.798C263.139 115.911 262.884 116.181 262.401 116.607C262.146 116.834 261.99 117.004 261.933 117.117C261.791 117.344 261.479 117.614 260.997 117.926L260.358 118.437C259.507 119.288 258.613 119.898 257.677 120.267C256.996 120.551 256.4 120.693 255.889 120.693ZM297.271 104.689C297.583 104.689 298.065 104.363 298.718 103.71C299.597 102.887 300.435 101.994 301.229 101.029L302.251 100.093C302.392 99.9223 302.534 99.7095 302.676 99.4541C302.932 99.0001 303.116 98.7589 303.229 98.7305L303.357 98.7731C303.414 98.7731 303.456 98.7305 303.485 98.6454C303.542 98.5603 303.57 98.4468 303.57 98.3049C303.57 98.0779 303.825 97.709 304.336 97.1983C304.762 96.7727 305.017 96.3612 305.102 95.964C305.131 95.7937 305.301 95.3823 305.613 94.7297C306.407 93.311 306.805 91.8071 306.805 90.2181C306.805 88.9412 306.493 88.3028 305.868 88.3028C305.755 88.3028 305.599 88.3454 305.4 88.4305C305.343 88.4589 305.287 88.544 305.23 88.6859C305.173 88.7994 305.088 88.8561 304.974 88.8561C304.861 88.8561 304.776 88.8845 304.719 88.9412C303.726 89.7925 302.946 90.7856 302.378 91.9206C302.321 92.0341 302.279 92.1476 302.251 92.2611C302.251 92.3746 302.222 92.4881 302.165 92.6016C301.967 92.9705 301.74 93.24 301.484 93.4103C301.428 93.467 301.357 93.5521 301.272 93.6656C301.186 93.7508 301.144 93.9352 301.144 94.2189C301.144 94.4743 301.045 94.7439 300.846 95.0276C300.562 95.4249 300.406 95.6377 300.378 95.6661C300.349 95.6944 300.335 95.8079 300.335 96.0066C300.335 96.3471 300.236 96.5882 300.037 96.7301C299.839 96.872 299.739 97.099 299.739 97.4111L299.697 97.4537C299.527 97.7374 299.441 97.9786 299.441 98.1772C299.385 98.7731 299.172 99.3406 298.803 99.8797C298.604 100.22 298.434 100.561 298.292 100.901C298.264 101.015 298.193 101.128 298.079 101.242C297.994 101.327 297.952 101.412 297.952 101.497C297.952 101.582 297.938 101.667 297.909 101.752C297.909 101.838 297.909 101.937 297.909 102.05C297.909 102.136 297.867 102.221 297.781 102.306C297.725 102.391 297.682 102.476 297.654 102.561C297.654 102.618 297.625 102.689 297.569 102.774C297.54 102.859 297.526 102.93 297.526 102.987C297.526 103.015 297.512 103.072 297.484 103.157C297.228 103.696 297.1 104.093 297.1 104.349C297.1 104.547 297.157 104.661 297.271 104.689ZM298.846 118.948C298.25 118.948 297.753 118.834 297.356 118.607L297.271 118.565C296.732 118.281 296.462 117.884 296.462 117.373C296.462 117.203 296.476 117.103 296.505 117.075C296.646 116.734 296.944 116.564 297.398 116.564C297.909 116.564 298.165 116.834 298.165 117.373L298.122 117.713C298.122 117.827 298.165 117.912 298.25 117.969C298.363 118.025 298.491 118.068 298.633 118.096C298.775 118.125 298.874 118.139 298.931 118.139C299.3 118.139 299.64 117.983 299.952 117.671L300.037 117.628C300.463 117.288 300.803 116.89 301.059 116.436C301.229 116.096 301.47 115.77 301.782 115.457C301.867 115.372 301.938 115.216 301.995 114.989C302.08 114.734 302.137 114.592 302.165 114.564C302.222 114.422 302.251 114.294 302.251 114.181C302.279 114.067 302.378 113.925 302.548 113.755C302.804 113.443 302.96 113.088 303.017 112.691C303.073 112.464 303.386 111.669 303.953 110.307C304.35 109.286 304.549 108.293 304.549 107.328C304.549 106.59 304.379 106.136 304.038 105.966C304.01 105.966 303.967 105.952 303.91 105.924C303.854 105.895 303.797 105.881 303.74 105.881C303.315 105.881 302.832 106.051 302.293 106.392C301.782 106.732 301.385 107.044 301.101 107.328L300.591 107.583C300.534 107.64 300.505 107.697 300.505 107.754C300.449 107.952 300.165 108.222 299.654 108.562C299.314 108.761 299.044 109.002 298.846 109.286C298.647 109.541 298.477 109.797 298.335 110.052C298.221 110.307 298.094 110.549 297.952 110.776C297.81 110.889 297.668 111.017 297.526 111.159C297.384 111.301 297.271 111.471 297.186 111.669C297.1 111.84 297.015 111.996 296.93 112.138C296.845 112.251 296.803 112.322 296.803 112.35C296.803 112.379 296.803 112.407 296.803 112.436C296.717 112.634 296.618 112.762 296.505 112.819C296.306 113.017 296.178 113.23 296.122 113.457C296.065 113.656 296.022 113.812 295.994 113.925C295.965 114.01 295.909 114.096 295.824 114.181C295.738 114.266 295.653 114.365 295.568 114.479C295.511 114.564 295.483 114.776 295.483 115.117C295.483 115.344 295.455 115.543 295.398 115.713C295.341 116.195 295.313 116.692 295.313 117.203C295.313 117.685 295.256 118.04 295.143 118.267C295.057 118.465 294.93 118.565 294.76 118.565C294.079 118.565 293.568 118.408 293.227 118.096C292.915 117.784 292.717 117.302 292.631 116.649L292.674 116.096C292.617 115.585 292.589 114.933 292.589 114.138C292.589 113.485 292.617 113.003 292.674 112.691C292.901 111.811 293.043 110.903 293.1 109.967L293.142 109.329C291.411 111.23 290.489 112.18 290.376 112.18C290.291 112.18 290.191 112.237 290.078 112.35C289.964 112.464 289.879 112.521 289.822 112.521C289.652 112.464 289.567 112.336 289.567 112.138C289.624 111.854 289.78 111.641 290.035 111.499L290.333 111.244C290.844 110.563 291.397 109.924 291.993 109.329L293.142 108.052L293.355 107.881C293.639 107.711 293.781 107.456 293.781 107.115C293.781 106.888 293.795 106.746 293.823 106.69C293.88 106.633 293.937 106.576 293.993 106.519L294.334 104.945C294.362 104.86 294.391 104.803 294.419 104.774C294.476 104.746 294.504 104.59 294.504 104.306C294.504 103.994 294.618 103.668 294.845 103.327C294.987 103.1 295.086 102.916 295.143 102.774C295.199 102.604 295.228 102.391 295.228 102.136C295.228 101.88 295.242 101.71 295.27 101.625C295.582 100.83 296.122 99.5818 296.888 97.8793L296.973 97.709C297.115 97.1983 297.554 96.3045 298.292 95.0276C298.349 94.9709 298.377 94.8432 298.377 94.6446C298.377 94.4459 298.42 94.3183 298.505 94.2615C298.987 93.7791 299.271 93.4528 299.356 93.2826C299.47 93.084 299.711 92.6583 300.08 92.0057C300.392 91.4382 300.576 91.0693 300.633 90.8991C300.86 90.5018 301.059 90.2323 301.229 90.0904C301.428 89.9485 301.612 89.7357 301.782 89.452C301.839 89.3669 301.882 89.2675 301.91 89.154C302.137 88.6149 302.903 87.9907 304.208 87.2813C304.492 87.1394 304.861 87.0685 305.315 87.0685C306.422 87.0685 307.145 87.4657 307.486 88.2602C307.599 88.544 307.656 89.0122 307.656 89.6648C307.599 89.8067 307.542 90.2181 307.486 90.8991C307.429 91.8355 307.315 92.3888 307.145 92.559C307.003 92.7009 306.932 92.857 306.932 93.0272L306.975 93.1975C306.975 93.4812 306.805 93.9068 306.464 94.4743C306.266 94.8432 306.124 95.1553 306.039 95.4107C306.01 95.5242 305.968 95.6377 305.911 95.7512C305.854 95.8363 305.826 95.9782 305.826 96.1768C305.769 96.2336 305.528 96.6024 305.102 97.2834C304.875 97.6239 304.705 97.8367 304.591 97.9219C304.478 97.9786 304.379 98.0637 304.293 98.1772C304.293 98.2907 304.237 98.461 304.123 98.688L303.953 99.0285C303.783 99.2839 303.584 99.5534 303.357 99.8372C303.159 100.121 302.988 100.348 302.846 100.518C302.733 100.688 302.591 100.859 302.421 101.029C302.251 101.199 302.109 101.355 301.995 101.497C301.967 101.554 301.938 101.582 301.91 101.582C301.655 101.667 301.413 101.88 301.186 102.221L300.122 103.455C299.612 104.022 299.271 104.363 299.101 104.476C298.959 104.59 298.817 104.703 298.675 104.817C298.562 104.93 298.448 105.03 298.335 105.115C297.739 105.54 297.299 105.966 297.015 106.392C296.959 106.505 296.873 106.605 296.76 106.69C296.646 106.775 296.561 106.931 296.505 107.158L296.59 107.583L296.547 107.669C295.838 109.57 295.483 110.889 295.483 111.627C295.483 111.967 295.554 112.152 295.696 112.18C295.781 112.18 295.994 111.911 296.334 111.372C297.356 109.669 298.505 108.321 299.782 107.328L300.25 106.945C300.42 106.888 300.534 106.789 300.591 106.647C300.647 106.477 301.03 106.037 301.74 105.328L302.038 105.157C302.265 105.101 302.506 104.945 302.761 104.689C302.903 104.547 303.045 104.434 303.187 104.349C303.442 104.179 303.84 104.093 304.379 104.093C305.145 104.093 305.698 104.207 306.039 104.434C306.833 105.087 307.23 106.037 307.23 107.286C307.23 107.768 307.159 108.108 307.017 108.307C306.904 108.506 306.847 108.648 306.847 108.733C306.847 108.988 306.861 109.172 306.89 109.286C306.947 109.399 306.975 109.541 306.975 109.712V109.839L306.932 109.882C306.932 110.109 306.776 110.691 306.464 111.627C306.294 112.109 306.053 112.563 305.741 112.989C305.428 113.386 305.272 113.712 305.272 113.968C305.216 114.365 304.932 114.819 304.421 115.33C304.308 115.472 304.223 115.614 304.166 115.755C304.109 115.897 304.024 116.039 303.91 116.181C303.229 116.862 302.804 117.259 302.634 117.373C302.492 117.458 302.378 117.543 302.293 117.628C302.236 117.685 302.165 117.742 302.08 117.798C301.995 117.827 301.91 117.869 301.825 117.926C301.484 118.153 301.3 118.281 301.272 118.309C301.243 118.338 301.186 118.352 301.101 118.352C301.045 118.38 300.974 118.423 300.889 118.479C300.349 118.792 299.668 118.948 298.846 118.948ZM318.98 118.565L318.767 118.522C318.001 118.38 317.448 118.054 317.107 117.543C316.966 117.344 316.895 116.976 316.895 116.436C316.895 116.096 316.937 115.727 317.022 115.33C317.136 114.904 317.235 114.507 317.32 114.138C317.462 113.571 317.632 112.989 317.831 112.393L317.618 112.308C317.278 112.677 316.88 113.003 316.426 113.287C316.313 113.4 316.228 113.514 316.171 113.627C316.114 113.741 315.958 113.854 315.703 113.968C315.476 114.081 315.277 114.252 315.107 114.479C315.022 114.592 314.908 114.72 314.766 114.862C314.653 114.975 314.497 115.131 314.298 115.33C314.128 115.5 313.929 115.67 313.702 115.841C313.277 116.124 312.894 116.408 312.553 116.692C312.042 117.089 311.518 117.444 310.978 117.756L310.723 117.926C310.468 118.068 310.212 118.196 309.957 118.309C309.702 118.423 309.446 118.479 309.191 118.479C308.935 118.479 308.609 118.352 308.212 118.096C307.673 117.756 307.403 117.061 307.403 116.011C307.403 114.904 307.588 113.954 307.957 113.159V112.776C308.07 112.663 308.169 112.549 308.254 112.436C308.34 112.322 308.396 112.166 308.425 111.967C308.481 111.769 308.595 111.584 308.765 111.414L309.021 111.329V111.031C309.106 110.747 309.304 110.421 309.616 110.052C310.014 109.57 310.283 109.329 310.425 109.329C310.567 109.329 310.638 109.13 310.638 108.733C310.666 108.534 310.893 108.35 311.319 108.179C311.745 107.981 311.957 107.782 311.957 107.583C311.957 107.555 311.957 107.513 311.957 107.456C311.957 107.399 312.17 107.243 312.596 106.988L313.149 106.562C313.461 106.307 313.759 106.122 314.043 106.009C314.327 105.867 314.582 105.725 314.809 105.583C315.036 105.441 315.263 105.37 315.49 105.37C315.745 105.37 315.944 105.342 316.086 105.285C316.256 105.2 316.398 105.157 316.512 105.157C316.653 105.157 316.824 105.101 317.022 104.987C317.221 104.874 317.49 104.789 317.831 104.732L318.427 104.689C320.328 104.689 321.718 105.143 322.598 106.051C323.194 106.647 323.492 107.314 323.492 108.052C323.492 108.279 323.478 108.435 323.449 108.52C323.421 108.86 323.151 109.031 322.64 109.031C322.47 109.031 322.328 108.974 322.215 108.86C322.13 108.747 322.087 108.648 322.087 108.562C322.087 108.364 322.116 108.208 322.172 108.094C322.229 107.952 322.286 107.839 322.343 107.754C322.428 107.64 322.47 107.527 322.47 107.413C322.47 107.271 322.399 107.101 322.257 106.902C322.144 106.704 322.016 106.562 321.874 106.477C321.364 106.136 320.697 105.966 319.874 105.966C318.909 105.966 318.044 106.165 317.278 106.562L317.022 106.605C316.795 106.605 316.526 106.718 316.214 106.945C316.043 107.087 315.816 107.314 315.533 107.626C315.419 107.711 315.291 107.768 315.15 107.796C314.866 107.853 314.681 107.981 314.596 108.179C314.539 108.378 314.426 108.477 314.256 108.477C314.114 108.477 313.972 108.619 313.83 108.903C313.717 109.158 313.575 109.357 313.404 109.499C313.234 109.612 313.121 109.669 313.064 109.669C312.95 109.783 312.865 109.939 312.809 110.137C312.667 110.478 312.496 110.719 312.298 110.861C312.128 111.003 311.83 111.428 311.404 112.138L310.936 112.904C310.51 113.642 310.198 114.479 310 115.415C309.971 115.5 309.957 115.656 309.957 115.883C309.957 116.337 310.141 116.592 310.51 116.649C310.907 116.649 311.205 116.578 311.404 116.436C311.603 116.295 311.801 116.181 312 116.096C312.482 115.897 312.809 115.67 312.979 115.415C313.149 115.131 313.39 114.89 313.702 114.691C314.043 114.464 314.44 114.124 314.894 113.67C315.348 113.216 315.831 112.804 316.341 112.436L317.363 111.201L317.661 110.52C317.888 110.038 318.228 109.669 318.682 109.414C319.051 109.243 319.434 109.045 319.831 108.818C319.86 108.789 319.931 108.775 320.044 108.775C320.328 108.775 320.569 108.903 320.768 109.158C320.995 109.414 321.151 109.669 321.236 109.924C321.236 109.953 321.25 110.01 321.278 110.095C321.307 110.151 321.321 110.237 321.321 110.35C321.321 110.52 321.293 110.691 321.236 110.861C321.208 111.031 321.193 111.23 321.193 111.457C321.193 111.684 321.037 112.081 320.725 112.648C320.583 112.904 320.47 113.23 320.385 113.627C320.271 114.252 320.129 114.649 319.959 114.819C319.789 114.989 319.704 115.287 319.704 115.713C319.619 116.025 319.576 116.337 319.576 116.649C319.576 116.819 319.59 116.919 319.619 116.947C319.647 117.203 319.846 117.33 320.214 117.33C320.47 117.33 320.796 117.174 321.193 116.862C321.505 116.607 322.016 116.252 322.726 115.798C323.009 115.628 323.307 115.372 323.619 115.032C323.79 114.862 323.932 114.762 324.045 114.734C324.159 114.677 324.244 114.62 324.3 114.564C324.641 114.28 324.896 113.996 325.067 113.712C325.152 113.627 325.279 113.528 325.45 113.415C325.762 113.216 326.116 112.875 326.514 112.393C327.053 111.74 327.407 111.414 327.578 111.414C327.918 111.414 328.088 111.556 328.088 111.84C328.088 111.953 327.989 112.152 327.791 112.436C327.45 112.89 327.18 113.159 326.982 113.244L326.684 113.329C325.577 114.606 324.712 115.472 324.088 115.926C323.946 116.039 323.818 116.138 323.705 116.224C323.619 116.309 323.492 116.365 323.321 116.394C323.18 116.422 323.094 116.493 323.066 116.607C323.038 116.72 322.867 116.89 322.555 117.117C322.101 117.458 321.633 117.727 321.151 117.926L320.725 118.096C320.214 118.408 319.633 118.565 318.98 118.565ZM330.899 119.586C330.303 119.586 329.693 119.458 329.069 119.203C328.444 118.948 328.005 118.65 327.749 118.309C327.267 117.628 327.026 116.763 327.026 115.713C327.026 115.599 327.012 115.5 326.983 115.415C326.955 115.301 326.941 115.188 326.941 115.074C326.941 114.989 326.997 114.847 327.111 114.649C327.196 114.45 327.239 114.237 327.239 114.01L327.324 113.329C327.466 112.478 327.636 111.939 327.834 111.712C327.891 111.542 328.061 111.215 328.345 110.733C328.969 109.57 329.523 108.718 330.005 108.179L330.218 107.924C330.729 107.328 331.268 106.86 331.835 106.519C331.977 106.434 332.147 106.392 332.346 106.392C332.545 106.392 332.715 106.321 332.857 106.179C333.594 105.441 334.687 105.072 336.134 105.072C336.872 105.072 337.439 105.157 337.837 105.328C338.12 105.47 338.347 105.64 338.518 105.838C338.688 106.037 338.787 106.151 338.815 106.179C338.872 106.207 338.957 106.307 339.071 106.477C339.355 106.193 339.61 105.767 339.837 105.2C340.121 104.406 340.419 104.008 340.731 104.008C340.901 104.008 341.029 104.079 341.114 104.221C341.227 104.363 341.312 104.519 341.369 104.689C341.426 104.86 341.454 105.001 341.454 105.115C341.454 105.512 341.312 105.924 341.029 106.349C340.972 106.434 340.915 106.477 340.858 106.477C340.802 106.477 340.731 106.491 340.646 106.519C340.589 106.548 340.56 106.661 340.56 106.86C340.56 107.03 340.248 107.399 339.624 107.967L339.199 108.35C338.745 108.945 338.347 109.286 338.007 109.371C337.978 109.371 337.907 109.343 337.794 109.286C337.68 109.201 337.624 109.116 337.624 109.031C337.624 109.002 337.695 108.917 337.837 108.775C338.092 108.577 338.22 108.421 338.22 108.307C338.418 108.023 338.518 107.725 338.518 107.413C338.518 107.044 338.319 106.761 337.922 106.562C337.638 106.42 337.312 106.349 336.943 106.349C336.772 106.349 336.517 106.406 336.177 106.519C335.836 106.605 335.524 106.761 335.24 106.988L334.857 107.2C334.517 107.371 334.318 107.47 334.261 107.498C334.233 107.527 334.205 107.555 334.176 107.583C334.006 107.583 333.85 107.64 333.708 107.754C333.566 107.839 333.424 108.037 333.282 108.35C333.254 108.463 333.155 108.619 332.984 108.818C332.814 109.016 332.672 109.187 332.559 109.329C332.445 109.584 332.19 109.839 331.793 110.095C331.708 110.151 331.608 110.208 331.495 110.265C331.41 110.322 331.367 110.435 331.367 110.605C331.395 110.662 331.41 110.733 331.41 110.818C331.41 110.932 331.381 111.017 331.324 111.074C331.183 111.301 331.069 111.528 330.984 111.755C330.899 111.953 330.771 112.152 330.601 112.35C330.459 112.521 330.36 112.677 330.303 112.819L330.388 112.946C330.417 113.031 330.431 113.131 330.431 113.244C330.431 113.642 330.331 114.067 330.133 114.521C329.934 114.975 329.835 115.528 329.835 116.181C329.835 116.834 329.963 117.359 330.218 117.756C330.36 118.011 330.629 118.181 331.027 118.267C331.197 118.323 331.381 118.352 331.58 118.352H331.92C332.715 118.352 333.552 118.153 334.432 117.756C334.488 117.727 334.559 117.713 334.644 117.713L335.708 117.288L336.347 116.947C336.744 116.692 337.113 116.564 337.453 116.564C337.482 116.564 337.496 116.55 337.496 116.522C337.524 116.465 337.539 116.422 337.539 116.394C337.567 116.337 337.581 116.295 337.581 116.266C337.61 116.209 337.808 116.138 338.177 116.053C338.319 115.968 338.418 115.869 338.475 115.755C338.532 115.642 338.631 115.543 338.773 115.457C339.057 115.287 339.312 115.103 339.539 114.904C339.794 114.677 340.007 114.564 340.177 114.564C340.348 114.535 340.518 114.337 340.688 113.968C340.745 113.798 340.844 113.656 340.986 113.542C341.412 113.258 341.752 112.961 342.008 112.648C342.093 112.592 342.206 112.535 342.348 112.478C342.518 112.393 342.66 112.251 342.774 112.053C342.972 111.74 343.214 111.556 343.497 111.499C343.809 111.499 343.98 111.513 344.008 111.542C344.065 111.57 344.093 111.698 344.093 111.925C344.093 112.123 343.909 112.379 343.54 112.691C343.284 112.946 343.029 113.145 342.774 113.287C342.263 113.599 341.809 113.996 341.412 114.479C341.156 114.734 340.858 114.989 340.518 115.245L340.135 115.5C339.028 116.266 337.907 116.99 336.772 117.671C336.744 117.699 336.687 117.727 336.602 117.756C336.545 117.756 336.475 117.77 336.389 117.798C336.333 117.827 336.262 117.855 336.177 117.884C336.12 117.884 336.077 117.898 336.049 117.926C335.737 118.238 335.41 118.465 335.07 118.607C334.729 118.749 334.375 118.877 334.006 118.99C333.495 119.104 333.155 119.189 332.984 119.246C332.843 119.331 332.743 119.373 332.686 119.373C332.318 119.373 331.906 119.43 331.452 119.543C331.339 119.572 331.154 119.586 330.899 119.586Z" fill="#3C2318"/>
</svg>
