<svg width="647" height="116" viewBox="0 0 647 116" fill="none" xmlns="http://www.w3.org/2000/svg">
<path d="M608.619 47.0869C608.214 47.0869 607.818 47.0923 607.432 47.1035C605.019 47.1734 602.991 47.4607 601.34 47.9561L601.334 47.958C598.22 48.8477 595.933 50.2697 594.422 52.1934C592.913 54.1145 592.141 56.5848 592.141 59.6445C592.141 64.7775 594.178 68.8697 598.274 71.9658C603.362 75.8109 611.659 78.1396 623.256 78.8809L623.256 58.3965C623.256 56.0012 623.079 54.0848 622.735 52.6338L622.734 52.6309C622.402 51.1906 621.709 50.0915 620.666 49.2998L620.659 49.2939C619.646 48.4981 618.139 47.925 616.087 47.6152L616.076 47.6133C614.055 47.2634 611.571 47.0869 608.619 47.0869ZM606.297 113.393L574.026 113.393V107.373L574.483 107.325C576.736 107.088 578.525 106.852 579.854 106.617C580.545 106.495 581.133 106.315 581.625 106.084C582.046 105.886 582.396 105.651 582.681 105.382L582.69 105.374C583.024 105.074 583.146 105.013 583.419 104.719C583.68 104.438 584.049 103.967 584.71 102.976C585.375 101.978 588.309 97.564 591.077 93.3994C592.461 91.3173 593.804 89.298 594.801 87.7988C595.299 87.0492 595.711 86.4292 595.998 85.9971C596.141 85.7813 596.254 85.6122 596.33 85.4971C596.368 85.4395 596.398 85.3949 596.418 85.3652C596.428 85.3506 596.435 85.3395 596.44 85.332C596.443 85.3284 596.444 85.3251 596.445 85.3232L596.447 85.3213V85.3203L596.452 85.3135L596.458 85.3057L598.294 82.7461C598.299 82.5845 598.379 82.4678 598.433 82.4082C598.49 82.3453 598.556 82.3049 598.606 82.2793C597.899 82.0906 597.229 81.8917 596.688 81.6826C593.015 80.2622 589.755 78.4997 586.909 76.3936L586.289 75.9346C585.679 75.4739 585.097 75.0083 584.543 74.5391C579.121 69.9475 577.515 64.9628 577.515 59.6445C577.515 55.1534 577.739 51.1337 580.526 47.793C581.113 47.0899 581.762 46.4187 582.472 45.7803L582.868 45.4326C584.886 43.718 587.41 42.337 590.427 41.2813L590.935 41.1104C594.059 40.0902 598.709 39.5898 602.679 39.5898C606.861 39.5899 612.82 39.9479 620.547 40.6611H620.546C624.296 40.9769 627.627 41.1338 630.539 41.1338L645.782 41.1338V47.0996L645.319 47.1436C643.23 47.3406 641.57 47.5758 640.331 47.8467L640.33 47.8457C639.208 48.0998 638.252 48.6597 637.45 49.5342L637.442 49.543C637.294 49.6983 637.133 49.9666 636.982 50.3896C636.833 50.808 636.704 51.3477 636.598 52.0166C636.386 53.3549 636.277 55.1614 636.277 57.4463L636.277 97.3662C636.277 99.5906 636.39 101.351 636.611 102.657C636.837 103.99 637.159 104.747 637.491 105.081C638.365 105.916 639.419 106.464 640.667 106.724L641.186 106.811C642.446 107.011 644.059 107.198 646.028 107.371L646.494 107.412V113.44L613.662 113.44V107.421L614.119 107.372C616.354 107.137 617.39 106.904 618.747 106.664C620.033 106.437 620.957 106.012 621.574 105.43L621.583 105.422C622.054 104.998 622.471 104.159 622.762 102.785C623.048 101.428 623.196 99.6257 623.196 97.3662V86.1025C621.868 86.0765 619.234 86.1212 616.646 86.1504C614.276 86.1771 611.927 86.1887 610.723 86.1201C610.647 86.2306 610.548 86.3778 610.426 86.5566C610.132 86.9876 609.71 87.6049 609.202 88.3496C608.186 89.8394 606.821 91.84 605.429 93.8818C602.643 97.9665 599.749 102.214 599.304 102.878C598.898 103.482 598.7 104.072 598.65 104.543C598.599 105.035 598.715 105.302 598.8 105.39C599.569 106.124 600.72 106.567 602.018 106.846C603.312 107.123 604.675 107.223 605.831 107.324L606.297 107.365V113.393Z" fill="#3C2318" stroke="#3C2318" stroke-width="1.02172"/>
<path d="M542.701 75.3418C532.293 76.007 524.537 77.9519 519.376 81.1289C514.161 84.339 511.585 88.8081 511.585 94.5791C511.585 97.639 512.358 100.11 513.867 102.031C515.378 103.955 517.665 105.376 520.778 106.266L520.785 106.268C522.702 106.843 525.123 107.138 528.063 107.138C531.014 107.138 533.499 106.98 535.522 106.669L535.901 106.602C537.764 106.246 539.152 105.678 540.104 104.93L540.111 104.925C541.158 104.131 541.848 103.048 542.18 101.649C542.524 100.157 542.701 98.2204 542.701 95.8271V75.3418ZM565.227 113.09L549.983 113.09C547.071 113.09 543.739 113.248 539.987 113.563L539.986 113.563C532.262 114.275 526.304 114.634 522.123 114.634C517.921 114.634 514.198 114.074 510.965 112.942C507.747 111.816 505.09 110.32 503.01 108.443C498.977 104.818 496.96 100.183 496.96 94.5791C496.96 88.452 500.525 82.8716 507.447 77.8301C515.712 71.7124 527.485 68.4986 542.701 68.1221V58.2246C542.701 54.2304 541.378 51.3092 538.791 49.3662C536.176 47.4026 532.193 46.3789 526.757 46.3789C520.609 46.3789 516.542 48.336 514.368 52.1221C513.746 53.2613 513.427 54.5978 513.427 56.1455C513.427 57.5796 514.113 59.3977 515.598 61.624L515.895 62.0684L515.437 62.3447L511.397 64.7803L511.235 64.8779L511.048 64.8467C506.279 64.0383 502.754 62.0232 500.558 58.7549V58.7559C499.729 57.5779 499.336 56.0802 499.336 54.3037C499.336 52.5716 499.997 50.8209 501.259 49.0596L501.52 48.707C502.957 46.7779 504.957 45.1114 507.499 43.6992L507.501 43.6982C513.063 40.6353 520.045 39.1201 528.42 39.1201C542.033 39.1201 550.729 43.0637 554.138 51.1953L554.33 51.6719C555.26 54.0688 555.722 56.6905 555.722 59.5313L555.722 96.7773C555.722 99.0622 555.831 100.874 556.043 102.223C556.259 103.596 556.568 104.388 556.891 104.744C557.691 105.58 558.649 106.122 559.775 106.377L560.26 106.477C561.436 106.706 562.935 106.908 564.764 107.08L565.227 107.124V113.09Z" fill="#3C2318" stroke="#3C2318" stroke-width="1.02172"/>
<path d="M454.492 34.9502C462.04 34.9502 468.004 36.5465 472.32 39.8027C476.456 42.8738 478.527 47.1086 478.527 52.4502C478.527 59.3415 475.17 65.1288 468.569 69.7979C465.959 71.6427 462.903 73.1742 459.406 74.3994C462.903 75.6246 465.959 77.158 468.569 79.0029C475.17 83.6719 478.527 89.4584 478.527 96.3496C478.527 101.69 476.457 105.923 472.323 108.994L472.324 108.995C468.007 112.253 462.042 113.851 454.492 113.851C444.569 113.851 436.407 110.226 430.05 102.983L430.049 102.982C423.659 95.6676 420.478 86.4139 420.478 75.2617V73.5391C420.478 62.3867 423.658 53.1323 430.049 45.8174L430.05 45.8164C436.407 38.5736 444.569 34.9503 454.492 34.9502ZM434.284 78.0986C434.344 80.2648 434.549 82.4011 434.901 84.5078C435.283 86.7927 435.837 89.0441 436.562 91.2607C437.265 93.407 438.142 95.4141 439.193 97.2832C440.242 99.108 441.463 100.716 442.854 102.107H442.854C444.237 103.451 445.791 104.524 447.518 105.33C449.222 106.087 451.187 106.473 453.423 106.473C455.674 106.473 457.52 106.142 458.981 105.505C460.882 104.668 462.28 103.503 463.207 102.02C464.136 100.533 464.615 98.6919 464.615 96.4688C464.615 93.0359 463.729 90.2006 461.987 87.9287V87.9277C457.204 81.7808 448.038 78.4483 434.284 78.0986ZM453.423 42.3281C451.188 42.3282 449.224 42.7322 447.521 43.5273L447.512 43.5313C445.789 44.297 444.237 45.3701 442.854 46.7529L442.849 46.7578C441.461 48.1066 440.243 49.7101 439.195 51.5723L439.193 51.5762C438.143 53.4052 437.265 55.3929 436.562 57.54C435.83 59.7776 435.314 62.0642 434.886 64.3828C434.671 65.5453 434.609 66.7201 434.578 67.8828C434.553 68.8295 434.547 69.7846 434.49 70.6914C448.13 70.3139 457.228 66.9884 461.987 60.8721L462.305 60.4395C463.837 58.2435 464.615 55.5501 464.615 52.332C464.615 50.1089 464.136 48.2673 463.207 46.7813C462.28 45.2972 460.881 44.1316 458.979 43.2949V43.2939C457.519 42.6576 455.673 42.3281 453.423 42.3281Z" fill="#3C2318" stroke="#3C2318" stroke-width="1.02172"/>
<path d="M371.97 39.1133C382.642 39.1134 391.11 42.9336 397.315 50.5889H397.316C402.984 57.5832 405.806 66.1969 405.806 76.3955C405.806 86.6725 402.984 95.4406 397.321 102.67H397.32C391.117 110.564 382.648 114.509 371.97 114.509C361.327 114.509 352.858 110.502 346.617 102.49L346.615 102.488C341.033 95.2597 338.252 86.5329 338.252 76.3359C338.252 73.214 338.552 70.1117 339.152 67.0303L339.153 67.0244C339.794 63.9403 340.736 61.0137 341.979 58.2461L341.982 58.2402C343.267 55.4702 344.854 52.9191 346.742 50.5889C348.635 48.253 350.831 46.2391 353.327 44.5479C358.687 40.9209 364.908 39.1133 371.97 39.1133ZM372.088 46.5508C367.499 46.5509 363.765 47.8641 360.844 50.4609C357.914 53.0651 355.756 57.0007 354.406 62.3232L354.405 62.3271C353.35 66.3541 352.817 71.0418 352.817 76.3955C352.817 92.5128 357.048 102.114 365.221 105.628H365.222C367.166 106.467 369.432 106.894 372.029 106.894C374.67 106.894 376.958 106.485 378.903 105.684C380.861 104.838 382.545 103.689 383.959 102.236C385.384 100.773 386.561 99.076 387.488 97.1436L387.49 97.1396C388.464 95.1526 389.245 93.027 389.831 90.7617L390.023 89.9971C390.954 86.1801 391.418 82.4186 391.418 78.7119C391.418 75.1837 391.328 72.2703 391.147 69.9678L391.064 69.0186C390.829 66.5495 390.418 64.221 389.832 62.0332L389.831 62.0303C389.246 59.8059 388.466 57.7416 387.494 55.8359L387.49 55.8281C386.564 53.9374 385.39 52.3033 383.969 50.9209V50.9199C380.91 48.0164 376.964 46.5508 372.088 46.5508ZM379.227 1.03027L390.604 8.4248L391.121 8.76074L390.694 9.20703L369.004 31.8135L368.746 32.083L368.41 31.918L363.693 29.5996L363.216 29.3652L363.47 28.8975L378.499 1.21484L378.763 0.729492L379.227 1.03027Z" fill="#3C2318" stroke="#3C2318" stroke-width="1.02172"/>
<path d="M269.329 4.78809C287.331 7.45513 301.001 14.9977 310.277 27.4453L310.716 28.042V28.043C319.028 39.5519 323.169 53.82 323.169 70.8154C323.169 84.196 320.122 94.8536 313.972 102.732L313.971 102.733C307.811 110.584 299.542 114.513 289.214 114.513C279.311 114.513 271.204 110.517 264.932 102.557V102.556C259.113 95.2512 256.209 86.583 256.209 76.5771C256.209 66.4618 258.909 57.7765 264.33 50.5488H264.331C270.332 42.5738 278.526 38.583 288.857 38.583C294.64 38.583 299.66 39.9344 303.895 42.6543C297.654 25.4765 285.67 14.948 267.896 11.0195L267.389 10.9072L267.51 10.4023L268.757 5.1748L268.865 4.71875L269.329 4.78809ZM289.986 46.0205C286.481 46.0205 283.483 46.8085 280.973 48.3643C278.462 49.9201 276.408 52.2633 274.819 55.4219L274.816 55.4258C272.176 60.5517 270.834 67.6482 270.834 76.7559C270.834 90.2416 274.11 99.3252 280.495 104.21H280.494C282.84 105.987 285.89 106.897 289.688 106.897C293.532 106.897 296.671 106.024 299.141 104.314C301.631 102.59 303.575 100.21 304.966 97.1572C307.375 91.8336 308.603 83.5676 308.604 72.3008C308.604 63.4158 307.014 56.8433 303.916 52.5039C300.841 48.1963 296.228 46.0206 289.986 46.0205Z" fill="#3C2318" stroke="#3C2318" stroke-width="1.02172"/>
<path d="M206.343 39.1201C217.015 39.1202 225.483 42.9404 231.688 50.5957H231.689C237.357 57.5899 240.179 66.203 240.179 76.4014C240.179 86.6785 237.357 95.4473 231.694 102.677H231.693C225.491 110.571 217.021 114.516 206.343 114.516C195.7 114.516 187.231 110.509 180.99 102.497L180.988 102.495C175.406 95.2666 172.625 86.5397 172.625 76.3428C172.625 73.2208 172.925 70.1185 173.525 67.0371L173.526 67.0312C174.167 63.9472 175.109 61.0205 176.353 58.2529L176.355 58.2471C177.64 55.477 179.227 52.926 181.115 50.5957C183.008 48.2598 185.204 46.246 187.7 44.5547V44.5537C193.06 40.9268 199.281 39.1201 206.343 39.1201ZM206.461 46.5576C201.872 46.5577 198.138 47.871 195.217 50.4678C192.287 53.0719 190.13 57.0075 188.779 62.3301L188.778 62.334C187.723 66.3609 187.19 71.0479 187.19 76.4014C187.19 92.519 191.421 102.121 199.594 105.635H199.595C201.539 106.473 203.805 106.899 206.402 106.899C209.043 106.899 211.331 106.491 213.276 105.69C215.234 104.845 216.917 103.695 218.332 102.242C219.757 100.779 220.934 99.0828 221.861 97.1504L221.863 97.1465C222.837 95.1594 223.618 93.0339 224.204 90.7686V90.7676C225.263 86.6884 225.791 82.6724 225.791 78.7188C225.791 74.6868 225.673 71.4574 225.437 69.0254V69.0244C225.202 66.5553 224.791 64.2269 224.205 62.0391L224.204 62.0371C223.619 59.8128 222.839 57.7484 221.867 55.8428L221.863 55.835C220.937 53.9442 219.763 52.3102 218.342 50.9277V50.9268C215.283 48.0232 211.337 46.5576 206.461 46.5576Z" fill="#3C2318" stroke="#3C2318" stroke-width="1.02172"/>
<path d="M164.526 113.415L134.278 113.415V107.334L134.737 107.287C136.675 107.091 138.247 106.781 139.464 106.362C140.68 105.944 141.502 105.431 141.995 104.858C142.364 104.389 142.689 103.519 142.913 102.158C143.134 100.81 143.248 99.0488 143.248 96.8652C143.248 92.4755 143.168 88.3836 143.01 84.5898V84.585C142.892 80.796 142.635 77.4074 142.242 74.418C141.849 71.4318 141.28 68.7689 140.539 66.4268V66.4248C139.798 64.0463 138.804 61.8049 137.557 59.7012L137.554 59.6973C135.345 55.8879 131.854 51.7212 127.065 47.1943C122.159 51.8269 118.895 55.5752 117.231 58.4492C115.541 61.3969 114.332 64.0551 113.594 66.4248L113.593 66.4268C112.852 68.7689 112.283 71.4318 111.89 74.418C111.22 79.5007 110.884 85.1214 110.884 91.2813C110.884 97.4378 110.965 101.058 111.118 102.204C111.267 103.32 111.615 104.196 112.137 104.859C112.631 105.433 113.45 105.945 114.655 106.362C115.862 106.78 117.419 107.091 119.336 107.287L119.795 107.334L119.795 113.415L89.6655 113.415L89.6655 107.353L90.104 107.29C92.0298 107.015 93.5344 106.689 94.6304 106.317C95.7524 105.937 96.3488 105.539 96.5854 105.191C97.2051 104.241 97.5751 103.138 97.687 101.87L97.688 101.862V101.855C97.8423 100.544 97.9224 97.8408 97.9224 93.7168C97.9224 89.541 98.1417 85.1096 98.5786 80.4229V80.418C99.0559 75.725 99.7725 71.5402 100.731 67.8662L100.732 67.8613C101.73 64.1869 102.992 60.9409 104.519 58.1279C106.044 55.28 107.889 52.672 110.056 50.3047L110.057 50.3037C113.669 46.3706 119.261 42.1426 126.803 37.6172L127.066 37.46L127.329 37.6172C134.4 41.8597 139.756 45.8407 143.375 49.5625L144.076 50.3037L144.077 50.3047C150.433 57.265 154.221 67.3257 155.495 80.4209H155.494C155.97 85.1077 156.209 89.5007 156.209 93.5986C156.209 97.6396 156.249 100.338 156.328 101.707L156.367 102.176C156.465 103.086 156.687 103.833 157.018 104.433L157.193 104.721L157.2 104.73V104.731C157.595 105.357 158.326 105.911 159.476 106.354C160.624 106.796 162.147 107.111 164.062 107.287L164.526 107.33V113.415Z" fill="#3C2318" stroke="#3C2318" stroke-width="1.02172"/>
<path d="M76.0488 113.1L42.3066 113.1L42.3066 107.178L42.7432 107.113L44.7734 106.813L44.7803 106.813C46.578 106.575 48.001 106.295 49.0586 105.977C50.1318 105.654 50.7492 105.313 51.0303 105.006C51.4988 104.468 51.8955 103.532 52.168 102.117C52.4381 100.714 52.5762 98.898 52.5762 96.6602L52.5762 56.4219C52.5762 54.18 52.4571 52.4064 52.2256 51.0908C51.9889 49.7463 51.6508 48.9838 51.2998 48.6465L51.292 48.6387V48.6377C50.4554 47.799 49.4181 47.2673 48.1621 47.0449L48.1543 47.043L48.1475 47.042C46.9297 46.7906 45.321 46.5702 43.3154 46.3818C40.0699 46.3776 36.7961 46.3715 33.4941 46.3643C31.3718 46.5924 29.6741 46.819 28.3975 47.0449C27.1053 47.2736 26.1753 47.7023 25.5547 48.29L25.5459 48.2979C25.0712 48.7263 24.6513 49.5725 24.3594 50.958C24.0711 52.3265 23.9229 54.1439 23.9229 56.4219L23.9229 96.6602C23.9229 98.9257 24.0126 100.718 24.1875 102.043C24.2749 102.705 24.382 103.24 24.5059 103.654C24.6296 104.068 24.7608 104.327 24.877 104.473C25.5678 105.234 26.3743 105.734 27.3027 105.985C28.0944 106.161 29.0863 106.349 30.2803 106.549L31.5518 106.754L31.5527 106.755L33.8213 107.113L34.2529 107.182L34.2529 113.1L0.510742 113.1L0.510742 107.178L0.947266 107.113L2.97656 106.813L2.98437 106.812C4.78215 106.575 6.20505 106.295 7.2627 105.977C8.3359 105.654 8.95334 105.313 9.23437 105.006C9.70293 104.468 10.0996 103.532 10.3721 102.117C10.6422 100.714 10.7803 98.898 10.7803 96.6602L10.7803 56.4219C10.7803 54.18 10.6612 52.4064 10.4297 51.0908C10.193 49.7463 9.85492 48.9838 9.50391 48.6465L9.49609 48.6387V48.6377C8.65947 47.799 7.62224 47.2673 6.36621 47.0449L6.3584 47.043L6.35156 47.042C5.02583 46.7683 3.2366 46.5308 0.976562 46.332L0.510742 46.291L0.510742 40.2227L76.0488 40.2227L76.0488 46.2832L75.5908 46.3311C73.3274 46.57 71.5298 46.8084 70.1934 47.0449C68.9012 47.2736 67.9712 47.7023 67.3506 48.29L67.3418 48.2979C66.8671 48.7263 66.4481 49.5726 66.1562 50.958C65.868 52.3265 65.7187 54.1439 65.7187 56.4219L65.7187 96.6602C65.7187 98.9257 65.8085 100.718 65.9834 102.043C66.0708 102.705 66.1779 103.24 66.3018 103.654C66.4255 104.068 66.5567 104.327 66.6729 104.473C67.3637 105.234 68.1702 105.734 69.0986 105.985C69.8903 106.161 70.8822 106.349 72.0762 106.549L73.3477 106.754L73.3486 106.755L75.6172 107.113L76.0488 107.182L76.0488 113.1Z" fill="#3C2318" stroke="#3C2318" stroke-width="1.02172"/>
</svg>
