<svg width="1405" height="491" viewBox="0 0 1405 491" fill="none" xmlns="http://www.w3.org/2000/svg">
<path d="M117.575 333.017C74.8002 344.683 79.2289 378.924 86.7902 394.587C86.7902 389.402 99.7526 377.271 112.715 376.764C125.677 376.257 149.981 356.241 154.842 344.359C154.842 349.219 155.166 363.802 156.462 383.245C157.758 402.688 191.568 419.431 208.311 425.372C207.231 422.132 206.366 410.79 211.551 391.346C216.736 371.903 209.391 351.92 205.07 344.359C212.847 341.766 227.754 343.278 234.235 344.359C232.939 340.47 234.775 329.776 235.855 324.915C246.225 344.359 283.383 340.578 300.666 336.257C297.966 334.097 291.269 324.591 286.084 303.852C280.999 283.512 245.368 273.977 227.184 271.579C250.767 274.405 261.944 264.848 273.122 256.864C284.463 248.763 286.084 213.117 286.084 203.395C286.084 195.618 293.645 188.272 297.426 185.572C266.64 179.091 260.159 198.534 255.299 208.256C250.438 217.977 248.817 235.8 239.096 247.142C231.319 256.216 211.011 255.244 201.83 253.623L166.184 243.902L138.639 258.484C139.179 274.147 139.935 307.74 138.639 316.814C137.343 325.887 124.057 331.396 117.575 333.017Z" fill="#E5D9CA"/>
<path d="M86.7902 394.587C79.2289 378.924 74.8002 344.683 117.575 333.017C124.057 331.396 137.343 325.887 138.639 316.814C139.935 307.74 139.179 274.147 138.639 258.484L166.184 243.902L201.83 253.623C211.011 255.244 231.319 256.216 239.096 247.142C248.817 235.8 250.438 217.977 255.299 208.256C260.159 198.534 266.64 179.091 297.426 185.572C293.645 188.272 286.084 195.618 286.084 203.395C286.084 213.117 284.463 248.763 273.122 256.864C261.78 264.965 250.438 274.687 226.134 271.446C243.957 273.607 280.899 283.112 286.084 303.852C291.269 324.591 297.966 334.097 300.666 336.257C283.383 340.578 246.225 344.359 235.855 324.915C234.775 329.776 232.939 340.47 234.235 344.359C227.754 343.278 212.847 341.766 205.07 344.359C209.391 351.92 216.736 371.903 211.551 391.346C206.366 410.79 207.231 422.132 208.311 425.372C191.568 419.431 157.758 402.688 156.462 383.245C155.166 363.802 154.842 349.219 154.842 344.359C149.981 356.241 125.677 376.257 112.715 376.764C99.7526 377.271 86.7902 389.402 86.7902 394.587Z" stroke="#3C2318" stroke-width="3"/>
<path d="M117.521 129.01C116.877 110.338 111.289 102.744 107.218 100.293L112.714 87.9277C105.153 85.7673 88.0859 83.3909 80.3086 91.1682C70.587 100.89 111.537 109.644 109.419 138.731C106.233 182.51 138.639 250.382 138.639 248.762C138.639 247.465 147.28 240.66 151.601 237.42C146.74 235.799 119.141 175.998 117.521 129.01Z" fill="#AA9951"/>
<path d="M106.233 102.51C94.8912 98.729 116.225 91.4196 117.521 129.01C119.141 175.998 146.74 235.799 151.601 237.42C147.28 240.66 138.639 247.465 138.639 248.762C138.639 250.382 106.233 182.51 109.419 138.731C111.537 109.644 70.587 100.89 80.3086 91.1682C88.0859 83.3909 105.153 85.7673 112.714 87.9277L106.233 102.51Z" stroke="#3C2318" stroke-width="3"/>
<path d="M132.157 279.547C134.75 293.805 136.478 312.492 137.018 320.054C148.684 313.573 148.36 280.627 146.74 264.964C160.021 270.52 185.521 295.52 201.829 308.712C190.521 290.52 173.204 264.424 169.424 250.382C208.31 263.344 224.513 256.863 227.754 252.002C206.69 256.863 190.487 239.04 174.285 235.8C158.082 232.559 146.74 237.42 140.259 243.901C133.778 250.382 128.917 261.724 132.157 279.547Z" fill="#AA9951" stroke="#3C2318" stroke-width="3"/>
<path d="M522.643 418.89C530.521 426.02 544.521 434.02 578.521 412.52C560.021 458.02 488.521 455.52 474.035 423.75C468.916 412.523 477.275 402.687 491.858 386.485C506.44 370.282 454.591 352.459 428.667 354.079C397.268 356.041 336.312 386.484 287.704 396.206C239.095 405.927 185.625 397.826 135.397 370.281C85.1685 342.737 -8.90195 288.017 2.43995 231.307C13.7818 174.598 67.3524 175.054 83.5551 160.472C96.5172 148.806 99.7578 135.087 99.7578 129.686C99.7578 121.585 93.2767 115.104 81.9348 115.104C71.6873 115.104 65.7321 116.724 49.5294 118.345C36.5672 119.641 28.5209 105.01 26.0209 95.0099L17.0209 1.50977C17.0209 1.50977 34.5209 -0.490231 34.5209 53.0098C34.5209 106.51 60.8713 98.9013 67.3524 89.1797C73.8335 79.4581 117.581 60.0148 127.302 98.9013C137.024 137.788 106.239 157.231 94.897 168.573C83.5551 179.915 21.8817 187.56 17.0209 247.51C12.1601 307.46 106.231 337.876 143.497 360.56C180.763 383.244 221.27 389.725 266.637 386.484C312.005 383.244 334.691 360.56 393.018 344.357C473.671 321.952 515.147 346.589 525.88 357.319C536.614 368.05 532.923 387.099 525.88 392.965C518.838 398.832 514.765 411.76 522.643 418.89Z" fill="#AA9951" stroke="#3C2318" stroke-width="3"/>
<path d="M420.566 386.485C412.789 367.042 364.397 372.983 341.173 378.383C393.022 345.978 444.87 376.763 443.25 396.207C441.63 415.65 423.807 423.751 412.465 425.371C401.123 426.992 393.022 418.89 397.882 414.029C402.743 409.169 430.288 410.789 420.566 386.485Z" fill="#AA9951" stroke="#3C2318" stroke-width="3"/>
<path d="M1286.46 333.016C1329.23 344.682 1324.81 378.923 1317.24 394.586C1317.24 389.401 1304.28 377.27 1291.32 376.763C1278.36 376.256 1254.05 356.24 1249.19 344.358C1249.19 349.218 1248.87 363.801 1247.57 383.244C1246.28 402.687 1212.47 419.43 1195.72 425.371C1196.8 422.131 1197.67 410.789 1192.48 391.345C1187.3 371.902 1194.64 351.919 1198.96 344.358C1191.19 341.765 1176.28 343.277 1169.8 344.358C1171.1 340.469 1169.26 329.775 1168.18 324.914C1157.81 344.358 1120.65 340.577 1103.37 336.256C1106.07 334.096 1112.77 324.59 1117.95 303.851C1123.04 283.511 1158.67 273.976 1176.85 271.578C1153.27 274.404 1142.09 264.847 1130.91 256.863C1119.57 248.762 1117.95 213.116 1117.95 203.394C1117.95 195.617 1110.39 188.271 1106.61 185.571C1137.39 179.09 1143.88 198.533 1148.74 208.255C1153.6 217.976 1155.22 235.799 1164.94 247.141C1172.72 256.215 1193.02 255.243 1202.21 253.622L1237.85 243.901L1265.4 258.483C1264.86 274.146 1264.1 307.739 1265.4 316.813C1266.69 325.886 1279.98 331.395 1286.46 333.016Z" fill="#E5D9CA"/>
<path d="M1317.24 394.586C1324.81 378.923 1329.23 344.682 1286.46 333.016C1279.98 331.395 1266.69 325.886 1265.4 316.813C1264.1 307.739 1264.86 274.146 1265.4 258.483L1237.85 243.901L1202.21 253.622C1193.02 255.243 1172.72 256.215 1164.94 247.141C1155.22 235.799 1153.6 217.976 1148.74 208.255C1143.88 198.533 1137.39 179.09 1106.61 185.571C1110.39 188.271 1117.95 195.617 1117.95 203.394C1117.95 213.116 1119.57 248.762 1130.91 256.863C1142.26 264.964 1153.6 274.686 1177.9 271.445C1160.08 273.606 1123.14 283.111 1117.95 303.851C1112.77 324.59 1106.07 334.096 1103.37 336.256C1120.65 340.577 1157.81 344.358 1168.18 324.914C1169.26 329.775 1171.1 340.469 1169.8 344.358C1176.28 343.277 1191.19 341.765 1198.96 344.358C1194.64 351.919 1187.3 371.902 1192.48 391.345C1197.67 410.789 1196.8 422.131 1195.72 425.371C1212.47 419.43 1246.28 402.687 1247.57 383.244C1248.87 363.801 1249.19 349.218 1249.19 344.358C1254.05 356.24 1278.36 376.256 1291.32 376.763C1304.28 377.27 1317.24 389.401 1317.24 394.586Z" stroke="#3C2318" stroke-width="3"/>
<path d="M1286.51 129.01C1287.16 110.338 1292.75 102.744 1296.82 100.293L1291.32 87.9277C1298.88 85.7673 1315.95 83.3909 1323.73 91.1682C1333.45 100.89 1292.5 109.644 1294.62 138.731C1297.8 182.51 1265.4 250.382 1265.4 248.762C1265.4 247.465 1256.76 240.66 1252.43 237.42C1257.3 235.799 1284.89 175.998 1286.51 129.01Z" fill="#AA9951"/>
<path d="M1297.8 102.51C1309.14 98.729 1287.81 91.4196 1286.51 129.01C1284.89 175.998 1257.3 235.799 1252.43 237.42C1256.76 240.66 1265.4 247.465 1265.4 248.762C1265.4 250.382 1297.8 182.51 1294.62 138.731C1292.5 109.644 1333.45 100.89 1323.73 91.1682C1315.95 83.3909 1298.88 85.7673 1291.32 87.9277L1297.8 102.51Z" stroke="#3C2318" stroke-width="3"/>
<path d="M1271.88 279.547C1269.29 293.805 1267.56 312.492 1267.02 320.054C1255.35 313.573 1255.67 280.627 1257.3 264.964C1244.01 270.52 1218.51 295.52 1202.21 308.712C1213.51 290.52 1230.83 264.424 1234.61 250.382C1195.72 263.344 1179.52 256.863 1176.28 252.002C1197.35 256.863 1213.55 239.04 1229.75 235.8C1245.95 232.559 1257.3 237.42 1263.78 243.901C1270.26 250.382 1275.12 261.724 1271.88 279.547Z" fill="#AA9951" stroke="#3C2318" stroke-width="3"/>
<path d="M881.392 418.89C873.515 426.02 859.514 434.02 825.514 412.52C844.014 458.02 915.514 455.52 930 423.75C935.12 412.523 926.76 402.687 912.177 386.485C897.595 370.282 949.444 352.459 975.368 354.079C1006.77 356.041 1067.72 386.484 1116.33 396.206C1164.94 405.927 1218.41 397.826 1268.64 370.281C1318.87 342.737 1412.94 288.017 1401.6 231.307C1390.25 174.598 1336.68 175.054 1320.48 160.472C1307.52 148.806 1304.28 135.087 1304.28 129.686C1304.28 121.585 1310.76 115.104 1322.1 115.104C1332.35 115.104 1338.3 116.724 1354.51 118.345C1367.47 119.641 1375.51 105.01 1378.01 95.0099L1387.01 1.50977C1387.01 1.50977 1369.51 -0.490231 1369.51 53.0098C1369.51 106.51 1343.16 98.9013 1336.68 89.1797C1330.2 79.4581 1286.45 60.0148 1276.73 98.9013C1267.01 137.788 1297.8 157.231 1309.14 168.573C1320.48 179.915 1382.15 187.56 1387.01 247.51C1391.88 307.46 1297.8 337.876 1260.54 360.56C1223.27 383.244 1182.77 389.725 1137.4 386.484C1092.03 383.244 1069.34 360.56 1011.02 344.357C930.364 321.952 888.888 346.589 878.155 357.319C867.421 368.05 871.112 387.099 878.155 392.965C885.197 398.832 889.27 411.76 881.392 418.89Z" fill="#AA9951" stroke="#3C2318" stroke-width="3"/>
<path d="M983.469 386.485C991.246 367.042 1039.64 372.983 1062.86 378.383C1011.01 345.978 959.165 376.763 960.785 396.207C962.406 415.65 980.228 423.751 991.57 425.371C1002.91 426.992 1011.01 418.89 1006.15 414.029C1001.29 409.169 973.747 410.789 983.469 386.485Z" fill="#AA9951" stroke="#3C2318" stroke-width="3"/>
<path d="M647.878 389.327C618.198 402.692 604.717 381.226 601.687 368.822C604.108 371.76 617.116 372.579 624.696 366.813C632.276 361.048 655.391 361.038 663.693 365.499C661.424 362.745 654.798 354.333 646.453 342.713C638.108 331.093 649.442 305.82 656.153 294.636C657.054 296.976 661.861 303.805 673.878 312.399C685.894 320.992 691.065 335.743 692.148 342.044C697.764 339.881 705.503 332.063 708.67 328.425C709.752 331.233 715.786 336.434 718.667 338.683C715.462 322.826 738.278 307.616 750.087 301.993C749.566 304.478 750.21 312.99 756.958 327.161C763.575 341.058 747.843 363.098 738.661 372.947C750.702 360.334 761.496 360.529 771.557 359.832C781.765 359.126 799.328 378.562 803.868 384.07C807.5 388.476 815.213 389.106 818.616 388.87C804.202 406.918 791.452 398.929 784.158 395.692C776.865 392.454 767.624 383.114 756.821 381.229C748.178 379.72 737.127 389.754 732.683 394.959C732.683 394.959 726.084 411.616 717.029 417.112C709.39 421.748 694.979 422.096 689.536 415.009C682.528 405.884 672.348 393.204 667.377 388.669C662.406 384.134 652.306 387.218 647.878 389.327Z" fill="#E5D9CA"/>
<path d="M601.687 368.822C604.717 381.226 618.198 402.692 647.878 389.327C652.306 387.218 662.406 384.134 667.377 388.669C672.348 393.204 682.528 405.884 689.536 415.009C694.979 422.096 709.39 421.748 717.029 417.112C726.084 411.616 732.683 394.959 732.683 394.959C737.127 389.754 748.178 379.72 756.821 381.229C767.624 383.114 776.865 392.454 784.158 395.692C791.452 398.929 804.202 406.918 818.616 388.87C815.213 389.106 807.5 388.476 803.868 384.07C799.328 378.562 781.765 359.126 771.557 359.832C761.348 360.539 750.383 360.328 738.128 373.513C747.216 363.967 763.705 341.331 756.958 327.161C750.21 312.99 749.566 304.478 750.087 301.993C738.278 307.616 715.462 322.826 718.667 338.683C715.786 336.434 709.752 331.233 708.67 328.425C705.503 332.063 697.764 339.881 692.148 342.044C691.065 335.743 685.894 320.992 673.878 312.399C661.861 303.805 657.054 296.976 656.153 294.636C649.442 305.82 638.108 331.093 646.453 342.713C654.798 354.333 661.424 362.745 663.693 365.499C655.391 361.038 632.276 361.048 624.696 366.813C617.116 372.579 604.108 371.76 601.687 368.822Z" stroke="#3C2318" stroke-width="3"/>
</svg>
